<svg xmlns="http://www.w3.org/2000/svg" xmlns:xlink="http://www.w3.org/1999/xlink" contentStyleType="text/css" height="402px" preserveAspectRatio="none" style="width:1117px;height:402px;background:#FFFFFF;" version="1.1" viewBox="0 0 1117 402" width="1117px" zoomAndPan="magnify"><defs/><g><!--cluster dpv--><g id="cluster_dpv"><path d="M71,6.602 L98.3125,6.602 A3.75,3.75 0 0 1 100.8125,9.102 L107.8125,31.6699 L1108,31.6699 A2.5,2.5 0 0 1 1110.5,34.1699 L1110.5,393.102 A2.5,2.5 0 0 1 1108,395.602 L71,395.602 A2.5,2.5 0 0 1 68.5,393.102 L68.5,9.102 A2.5,2.5 0 0 1 71,6.602 " fill="none" style="stroke:#000000;stroke-width:1.5;"/><line style="stroke:#000000;stroke-width:1.5;" x1="68.5" x2="107.8125" y1="31.6699" y2="31.6699"/><text fill="#000000" font-family="sans-serif" font-size="14" font-weight="bold" lengthAdjust="spacing" textLength="26.3125" x="72.5" y="23.5679">dpv</text></g><!--class Process--><g id="elem_Process"><rect codeLine="9" fill="#FFA07A" height="29.0679" id="Process" rx="2.5" ry="2.5" style="stroke:#181818;stroke-width:0.5;" width="57" x="358" y="152.602"/><text fill="#000000" font-family="sans-serif" font-size="14" lengthAdjust="spacing" textLength="51" x="361" y="172.5679">Process</text></g><!--class Data--><g id="elem_Data"><rect codeLine="10" fill="#FFA07A" height="29.0679" id="Data" rx="2.5" ry="2.5" style="stroke:#181818;stroke-width:0.5;" width="37" x="85" y="260.602"/><text fill="#000000" font-family="sans-serif" font-size="14" lengthAdjust="spacing" textLength="31" x="88" y="280.5679">Data</text></g><!--class PersonalData--><g id="elem_PersonalData"><rect codeLine="11" fill="#F1F1F1" height="29.0679" id="PersonalData" rx="2.5" ry="2.5" style="stroke:#181818;stroke-width:0.5;" width="95" x="115" y="350.602"/><text fill="#000000" font-family="sans-serif" font-size="14" lengthAdjust="spacing" textLength="89" x="118" y="370.5679">PersonalData</text></g><!--class Purpose--><g id="elem_Purpose"><rect codeLine="12" fill="#ADD8E6" height="29.0679" id="Purpose" rx="2.5" ry="2.5" style="stroke:#181818;stroke-width:0.5;" width="61" x="89" y="44.602"/><text fill="#000000" font-family="sans-serif" font-size="14" lengthAdjust="spacing" textLength="55" x="92" y="64.5679">Purpose</text></g><!--class DataController--><g id="elem_DataController"><rect codeLine="13" fill="#F1F1F1" height="29.0679" id="DataController" rx="2.5" ry="2.5" style="stroke:#181818;stroke-width:0.5;" width="104" x="334.5" y="44.602"/><text fill="#000000" font-family="sans-serif" font-size="14" lengthAdjust="spacing" textLength="98" x="337.5" y="64.5679">DataController</text></g><!--class DataSubject--><g id="elem_DataSubject"><rect codeLine="14" fill="#F1F1F1" height="29.0679" id="DataSubject" rx="2.5" ry="2.5" style="stroke:#181818;stroke-width:0.5;" width="87" x="507" y="44.602"/><text fill="#000000" font-family="sans-serif" font-size="14" lengthAdjust="spacing" textLength="81" x="510" y="64.5679">DataSubject</text></g><!--class Recipient--><g id="elem_Recipient"><rect codeLine="15" fill="#ADD8E6" height="29.0679" id="Recipient" rx="2.5" ry="2.5" style="stroke:#181818;stroke-width:0.5;" width="69" x="344" y="260.602"/><text fill="#000000" font-family="sans-serif" font-size="14" lengthAdjust="spacing" textLength="63" x="347" y="280.5679">Recipient</text></g><!--class Context--><g id="elem_Context"><rect codeLine="16" fill="#ADD8E6" height="29.0679" id="Context" rx="2.5" ry="2.5" style="stroke:#181818;stroke-width:0.5;" width="57" x="448" y="260.602"/><text fill="#000000" font-family="sans-serif" font-size="14" lengthAdjust="spacing" textLength="51" x="451" y="280.5679">Context</text></g><!--class Risk--><g id="elem_Risk"><rect codeLine="17" fill="#ADD8E6" height="29.0679" id="Risk" rx="2.5" ry="2.5" style="stroke:#181818;stroke-width:0.5;" width="33" x="928" y="44.602"/><text fill="#000000" font-family="sans-serif" font-size="14" lengthAdjust="spacing" textLength="27" x="931" y="64.5679">Risk</text></g><!--class OrgnaizationalMeasure--><g id="elem_OrgnaizationalMeasure"><rect codeLine="18" fill="#ADD8E6" height="29.0679" id="OrgnaizationalMeasure" rx="2.5" ry="2.5" style="stroke:#181818;stroke-width:0.5;" width="165" x="540" y="260.602"/><text fill="#000000" font-family="sans-serif" font-size="14" lengthAdjust="spacing" textLength="159" x="543" y="280.5679">OrgnaizationalMeasure</text></g><!--class TechnicalMeasure--><g id="elem_TechnicalMeasure"><rect codeLine="19" fill="#ADD8E6" height="29.0679" id="TechnicalMeasure" rx="2.5" ry="2.5" style="stroke:#181818;stroke-width:0.5;" width="129" x="740" y="260.602"/><text fill="#000000" font-family="sans-serif" font-size="14" lengthAdjust="spacing" textLength="123" x="743" y="280.5679">TechnicalMeasure</text></g><!--class Right--><g id="elem_Right"><rect codeLine="20" fill="#ADD8E6" height="29.0679" id="Right" rx="2.5" ry="2.5" style="stroke:#181818;stroke-width:0.5;" width="42" x="815.5" y="44.602"/><text fill="#000000" font-family="sans-serif" font-size="14" lengthAdjust="spacing" textLength="36" x="818.5" y="64.5679">Right</text></g><!--class LegalBasis--><g id="elem_LegalBasis"><rect codeLine="21" fill="#ADD8E6" height="29.0679" id="LegalBasis" rx="2.5" ry="2.5" style="stroke:#181818;stroke-width:0.5;" width="77" x="660" y="44.602"/><text fill="#000000" font-family="sans-serif" font-size="14" lengthAdjust="spacing" textLength="71" x="663" y="64.5679">LegalBasis</text></g><!--class Processing--><g id="elem_Processing"><rect codeLine="22" fill="#ADD8E6" height="29.0679" id="Processing" rx="2.5" ry="2.5" style="stroke:#181818;stroke-width:0.5;" width="79" x="206" y="44.602"/><text fill="#000000" font-family="sans-serif" font-size="14" lengthAdjust="spacing" textLength="73" x="209" y="64.5679">Processing</text></g><!--class Technology--><g id="elem_Technology"><rect codeLine="23" fill="#ADD8E6" height="29.0679" id="Technology" rx="2.5" ry="2.5" style="stroke:#181818;stroke-width:0.5;" width="83" x="904" y="260.602"/><text fill="#000000" font-family="sans-serif" font-size="14" lengthAdjust="spacing" textLength="77" x="907" y="280.5679">Technology</text></g><!--class Thing--><g id="elem_Thing"><rect codeLine="4" fill="#C0C0C0" height="29.0679" id="Thing" rx="2.5" ry="2.5" style="stroke:#181818;stroke-width:0.5;" width="45" x="7" y="152.602"/><text fill="#000000" font-family="sans-serif" font-size="14" lengthAdjust="spacing" textLength="39" x="10" y="172.5679">Thing</text></g><!--link Thing to Process--><g id="link_Thing_Process"><path codeLine="5" d="M52.38,167.102 C114.86,167.102 288.34,167.102 357.5,167.102 " fill="none" id="Thing-Process" style="stroke:#181818;stroke-width:1.0;"/><polygon fill="#000000" points="174,154.955,164.9549,152.0161,164.9549,157.8939,174,154.955" style="stroke:#000000;stroke-width:1.0;"/><text fill="#000000" font-family="sans-serif" font-size="13" lengthAdjust="spacing" textLength="67" x="178" y="159.999">hasProcess</text></g><!--reverse link Data to PersonalData--><g id="link_Data_PersonalData"><path codeLine="25" d="M122.7423,304.8037 C133.7623,321.2437 142.07,333.642 153.15,350.162 " fill="none" id="Data-backto-PersonalData" style="stroke:#181818;stroke-width:1.0;"/><polygon fill="none" points="112.72,289.852,117.7585,308.1444,127.7262,301.4629,112.72,289.852" style="stroke:#181818;stroke-width:1.0;"/></g><!--link Purpose to Process--><g id="link_Purpose_Process"><path codeLine="27" d="M125.82,73.932 C133.21,88.442 146.84,110.762 165.5,122.602 C225.93,160.932 312.89,166.692 357.58,166.862 " fill="none" id="Purpose-Process" style="stroke:#181818;stroke-width:1.0;"/><polygon fill="#000000" points="165.8592,111.5941,173.1607,117.6883,175.3483,112.2326,165.8592,111.5941" style="stroke:#000000;stroke-width:1.0;"/><text fill="#000000" font-family="sans-serif" font-size="13" lengthAdjust="spacing" textLength="71" x="179.5" y="118.499">hasPurpose</text></g><!--link Processing to Process--><g id="link_Processing_Process"><path codeLine="28" d="M248.47,74.092 C252.11,88.112 259.61,109.432 273.5,122.602 C296.85,144.722 332.65,155.942 357.68,161.392 " fill="none" id="Processing-Process" style="stroke:#181818;stroke-width:1.0;"/><polygon fill="#000000" points="274.5945,110.333,279.8246,118.2763,283.4947,113.6851,274.5945,110.333" style="stroke:#000000;stroke-width:1.0;"/><text fill="#000000" font-family="sans-serif" font-size="13" lengthAdjust="spacing" textLength="86" x="287.5" y="118.499">hasProcessing</text></g><!--link DataController to Process--><g id="link_DataController_Process"><path codeLine="29" d="M385.31,73.802 C384.63,82.362 383.84,93.612 383.5,103.602 C382.92,120.322 384.13,139.542 385.18,152.202 " fill="none" id="DataController-Process" style="stroke:#181818;stroke-width:1.0;"/><polygon fill="#000000" points="388.5083,108.455,385.5544,117.4952,391.4322,117.5049,388.5083,108.455" style="stroke:#000000;stroke-width:1.0;"/><text fill="#000000" font-family="sans-serif" font-size="13" lengthAdjust="spacing" textLength="109" x="397.5" y="118.499">hasDataController</text></g><!--link DataSubject to Process--><g id="link_DataSubject_Process"><path codeLine="30" d="M545.14,73.962 C539.01,88.082 527.69,109.672 511.5,122.602 C483.31,145.112 442.68,156.372 415.48,161.722 " fill="none" id="DataSubject-Process" style="stroke:#181818;stroke-width:1.0;"/><polygon fill="#000000" points="536.6407,110.6524,527.5028,113.2885,530.7974,118.1562,536.6407,110.6524" style="stroke:#000000;stroke-width:1.0;"/><text fill="#000000" font-family="sans-serif" font-size="13" lengthAdjust="spacing" textLength="93" x="541.5" y="118.499">hasDataSubject</text></g><!--link LegalBasis to Process--><g id="link_LegalBasis_Process"><path codeLine="31" d="M690.32,74.042 C680.95,88.662 664.21,111.062 643.5,122.602 C604.66,144.242 474.03,158.292 415.4,163.652 " fill="none" id="LegalBasis-Process" style="stroke:#181818;stroke-width:1.0;"/><polygon fill="#000000" points="676.2538,111.9055,666.7433,111.9143,668.5648,117.5028,676.2538,111.9055" style="stroke:#000000;stroke-width:1.0;"/><text fill="#000000" font-family="sans-serif" font-size="13" lengthAdjust="spacing" textLength="83" x="680.5" y="118.499">hasLegalBasis</text></g><!--link Right to Process--><g id="link_Right_Process"><path codeLine="32" d="M826.77,74.012 C815.55,88.832 795.65,111.622 772.5,122.602 C709.13,152.662 493.92,162.592 415.44,165.262 " fill="none" id="Right-Process" style="stroke:#181818;stroke-width:1.0;"/><polygon fill="#000000" points="808.3813,112.3721,798.9144,111.4619,800.1874,117.2002,808.3813,112.3721" style="stroke:#000000;stroke-width:1.0;"/><text fill="#000000" font-family="sans-serif" font-size="13" lengthAdjust="spacing" textLength="53" x="812.5" y="118.499">hasRight</text></g><!--link Risk to Process--><g id="link_Risk_Process"><path codeLine="33" d="M933.83,73.862 C921.38,88.762 899.32,111.852 874.5,122.602 C791.19,158.702 507.42,164.842 415.5,165.892 " fill="none" id="Risk-Process" style="stroke:#181818;stroke-width:1.0;"/><polygon fill="#000000" points="912.423,112.5809,903.0034,111.2685,904.031,117.0558,912.423,112.5809" style="stroke:#000000;stroke-width:1.0;"/><text fill="#000000" font-family="sans-serif" font-size="13" lengthAdjust="spacing" textLength="45" x="916.5" y="118.499">hasRisk</text></g><!--link Process to PersonalData--><g id="link_Process_PersonalData"><path codeLine="34" d="M357.51,167.532 C320.02,168.372 254.88,175.452 215.5,211.602 C174.41,249.322 165.18,320.552 163.1,350.402 " fill="none" id="Process-PersonalData" style="stroke:#181818;stroke-width:1.0;"/><polygon fill="#000000" points="183.858,278.8808,192.46,274.8242,188.4328,270.5428,183.858,278.8808" style="stroke:#000000;stroke-width:1.0;"/><text fill="#000000" font-family="sans-serif" font-size="13" lengthAdjust="spacing" textLength="101" x="196.5" y="280.499">hasPersonalData</text></g><!--link Process to Data--><g id="link_Process_Data"><path codeLine="35" d="M357.85,168.742 C295.59,170.742 150.74,178.882 116.5,211.602 C103.44,224.082 101.74,246.012 102.23,260.292 " fill="none" id="Process-Data" style="stroke:#181818;stroke-width:1.0;"/><polygon fill="#000000" points="116.7928,223.1409,126.2991,222.8579,124.3173,217.3243,116.7928,223.1409" style="stroke:#000000;stroke-width:1.0;"/><text fill="#000000" font-family="sans-serif" font-size="13" lengthAdjust="spacing" textLength="49" x="130.5" y="226.499">hasData</text></g><!--link Process to Recipient--><g id="link_Process_Recipient"><path codeLine="36" d="M357.6,171.812 C316.19,177.792 243.21,191.012 227.5,211.602 C222.38,218.312 222.42,223.852 227.5,230.602 C234.62,240.052 301.44,256.672 343.78,266.402 " fill="none" id="Process-Recipient" style="stroke:#181818;stroke-width:1.0;"/><polygon fill="#000000" points="231.7772,226.4025,235.9928,217.8773,230.1767,217.0275,231.7772,226.4025" style="stroke:#000000;stroke-width:1.0;"/><text fill="#000000" font-family="sans-serif" font-size="13" lengthAdjust="spacing" textLength="76" x="241.5" y="226.499">hasRecipient</text></g><!--link Process to TechnicalMeasure--><g id="link_Process_TechnicalMeasure"><path codeLine="37" d="M415.44,169.542 C466.53,172.752 575.5,182.682 662.5,211.602 C679.67,217.312 682.11,222.932 698.5,230.602 C721.38,241.302 747.65,252.092 768.31,260.252 " fill="none" id="Process-TechnicalMeasure" style="stroke:#181818;stroke-width:1.0;"/><polygon fill="#000000" points="708.3426,222.6998,700.314,217.6015,698.8506,223.2943,708.3426,222.6998" style="stroke:#000000;stroke-width:1.0;"/><text fill="#000000" font-family="sans-serif" font-size="13" lengthAdjust="spacing" textLength="128" x="712.5" y="226.499">hasTechnicalMeasure</text></g><!--link Process to OrgnaizationalMeasure--><g id="link_Process_OrgnaizationalMeasure"><path codeLine="38" d="M404.38,181.912 C423.02,195.782 453.52,216.992 482.5,230.602 C508.76,242.942 539.4,252.912 565.3,260.182 " fill="none" id="Process-OrgnaizationalMeasure" style="stroke:#181818;stroke-width:1.0;"/><polygon fill="#000000" points="491.9963,223.642,485.1479,217.0428,482.5769,222.3286,491.9963,223.642" style="stroke:#000000;stroke-width:1.0;"/><text fill="#000000" font-family="sans-serif" font-size="13" lengthAdjust="spacing" textLength="161" x="496.5" y="226.499">hasOrganizationalMeasure</text></g><!--link Process to Context--><g id="link_Process_Context"><path codeLine="39" d="M372.39,182.042 C360.77,195.252 347.82,215.292 358.5,230.602 C363.82,238.232 414.4,255.002 447.59,265.342 " fill="none" id="Process-Context" style="stroke:#181818;stroke-width:1.0;"/><polygon fill="#000000" points="366.8505,225.1664,362.9709,216.4831,358.6079,220.4218,366.8505,225.1664" style="stroke:#000000;stroke-width:1.0;"/><text fill="#000000" font-family="sans-serif" font-size="13" lengthAdjust="spacing" textLength="69" x="372.5" y="226.499">hasContext</text></g><!--link Process to Technology--><g id="link_Process_Technology"><path codeLine="40" d="M415.39,169.102 C503.1,172.412 765.14,184.382 845.5,211.602 C877.5,222.442 909.79,245.272 928.7,260.132 " fill="none" id="Process-Technology" style="stroke:#181818;stroke-width:1.0;"/><polygon fill="#000000" points="892.4232,222.3281,884.0302,217.8549,883.0039,223.6424,892.4232,222.3281" style="stroke:#000000;stroke-width:1.0;"/><text fill="#000000" font-family="sans-serif" font-size="13" lengthAdjust="spacing" textLength="195" x="896.5" y="226.499">isImplementedUsingTechnology</text></g><!--SRC=[xLPBZzem43xZNp7L7dRt45JGibfnG1MmhKf1YtZitUiCmSNOaH-ezF7VQ-V19X3rr2ENA9xlcuTdlepoWKicN8nWx55WEnLKMhSNv5RWne9Le7cojH1pZSno9GbXWXe3gosN2TmOBWweINwAT0HnUcZFjMBeENtOKbCU1YIbR4SJ31JuHLgaTGiZfT4_9CFK6jBAGvSUDzEGUad5tgSji36rj16OepPAKX489vlJgJ9Oy8V2OJMCJskr4iANNx4ktTjtVzFIj436KuxIDWG90V174xBWPjTWVj69fFmd3NsaOeRKEDrKtGhPLdBsByeYcygbVOe95KDgk6a0YyPcWsjEgeHAZZMGjAgTXSX5lmTvZprI3CeRorxd8o_wFZYZdD9NXH6gEIFMfvEHwwOcXs9m9tPnFgU-DoXZLlfrHimwd77oNb_0PbUWVjPLCAffiVW8gfOwEPXEHPzX9_NbcKvQhBFEvPAHBpHKzscKOkRe4IelH5htBfIVySkleA6cJ4rzuERhFXMuzvLZl0u3hsXjG4ZhZnTJqDCdb77OFMJB_KBQS1InoT_tQBUgF32kcK13_kSgkcwUw-QvRfxhvfc7_v_rR0f-bHXV1tJQtO_TXtRlRkaapEWHke_GwVGxlNxl2KRFonK4_9xSVPbFmIYdcTygt5ZDtrouo3sPq0E5XPEMx_qzNrAKa_6tqW3Fyi2rag54CdcTlHCU7w8Xjx14xKk1rnaPuuOwORq7Kt4cvVNgS_H4fbGcpY-pFg0a8-NZQd_rzV8l]--></g></svg>