<svg xmlns="http://www.w3.org/2000/svg" xmlns:xlink="http://www.w3.org/1999/xlink" contentStyleType="text/css" height="628px" preserveAspectRatio="none" style="width:1147px;height:628px;background:#FFFFFF;" version="1.1" viewBox="0 0 1147 628" width="1147px" zoomAndPan="magnify"><defs/><g><!--cluster dpv--><g id="cluster_dpv"><path d="M71,6.602 L98.3125,6.602 A3.75,3.75 0 0 1 100.8125,9.102 L107.8125,31.6699 L1138,31.6699 A2.5,2.5 0 0 1 1140.5,34.1699 L1140.5,619.102 A2.5,2.5 0 0 1 1138,621.602 L71,621.602 A2.5,2.5 0 0 1 68.5,619.102 L68.5,9.102 A2.5,2.5 0 0 1 71,6.602 " fill="none" style="stroke:#000000;stroke-width:1.5;"/><line style="stroke:#000000;stroke-width:1.5;" x1="68.5" x2="107.8125" y1="31.6699" y2="31.6699"/><text fill="#000000" font-family="sans-serif" font-size="14" font-weight="bold" lengthAdjust="spacing" textLength="26.3125" x="72.5" y="23.5679">dpv</text></g><!--cluster legal--><g id="cluster_legal"><path d="M451,254.602 L487.1875,254.602 A3.75,3.75 0 0 1 489.6875,257.102 L496.6875,279.6699 L992,279.6699 A2.5,2.5 0 0 1 994.5,282.1699 L994.5,587.102 A2.5,2.5 0 0 1 992,589.602 L451,589.602 A2.5,2.5 0 0 1 448.5,587.102 L448.5,257.102 A2.5,2.5 0 0 1 451,254.602 " fill="none" style="stroke:#000000;stroke-width:1.5;"/><line style="stroke:#000000;stroke-width:1.5;" x1="448.5" x2="496.6875" y1="279.6699" y2="279.6699"/><text fill="#000000" font-family="sans-serif" font-size="14" font-weight="bold" lengthAdjust="spacing" textLength="35.1875" x="452.5" y="271.5679">legal</text></g><!--cluster eu--><g id="cluster_eu"><path d="M694,308.602 L712.875,308.602 A3.75,3.75 0 0 1 715.375,311.102 L722.375,333.6699 L960,333.6699 A2.5,2.5 0 0 1 962.5,336.1699 L962.5,555.102 A2.5,2.5 0 0 1 960,557.602 L694,557.602 A2.5,2.5 0 0 1 691.5,555.102 L691.5,311.102 A2.5,2.5 0 0 1 694,308.602 " fill="none" style="stroke:#000000;stroke-width:1.5;"/><line style="stroke:#000000;stroke-width:1.5;" x1="691.5" x2="722.375" y1="333.6699" y2="333.6699"/><text fill="#000000" font-family="sans-serif" font-size="14" font-weight="bold" lengthAdjust="spacing" textLength="17.875" x="695.5" y="325.5679">eu</text></g><!--class Process--><g id="elem_Process"><rect codeLine="9" fill="#F1F1F1" height="29.0679" id="Process" rx="2.5" ry="2.5" style="stroke:#181818;stroke-width:0.5;" width="57" x="472" y="44.602"/><text fill="#000000" font-family="sans-serif" font-size="14" lengthAdjust="spacing" textLength="51" x="475" y="64.5679">Process</text></g><!--class PersonalData--><g id="elem_PersonalData"><rect codeLine="10" fill="#F1F1F1" height="29.0679" id="PersonalData" rx="2.5" ry="2.5" style="stroke:#181818;stroke-width:0.5;" width="95" x="85" y="152.602"/><text fill="#000000" font-family="sans-serif" font-size="14" lengthAdjust="spacing" textLength="89" x="88" y="172.5679">PersonalData</text></g><!--class Risk--><g id="elem_Risk"><rect codeLine="11" fill="#F1F1F1" height="29.0679" id="Risk" rx="2.5" ry="2.5" style="stroke:#181818;stroke-width:0.5;" width="33" x="256" y="152.602"/><text fill="#000000" font-family="sans-serif" font-size="14" lengthAdjust="spacing" textLength="27" x="259" y="172.5679">Risk</text></g><!--class Technology--><g id="elem_Technology"><rect codeLine="12" fill="#F1F1F1" height="29.0679" id="Technology" rx="2.5" ry="2.5" style="stroke:#181818;stroke-width:0.5;" width="83" x="331" y="152.602"/><text fill="#000000" font-family="sans-serif" font-size="14" lengthAdjust="spacing" textLength="77" x="334" y="172.5679">Technology</text></g><!--class Location--><g id="elem_Location"><rect codeLine="13" fill="#F1F1F1" height="29.0679" id="Location" rx="2.5" ry="2.5" style="stroke:#181818;stroke-width:0.5;" width="62" x="557.5" y="152.602"/><text fill="#000000" font-family="sans-serif" font-size="14" lengthAdjust="spacing" textLength="56" x="560.5" y="172.5679">Location</text></g><!--class Law--><g id="elem_Law"><rect codeLine="14" fill="#F1F1F1" height="29.0679" id="Law" rx="2.5" ry="2.5" style="stroke:#181818;stroke-width:0.5;" width="32" x="696.5" y="152.602"/><text fill="#000000" font-family="sans-serif" font-size="14" lengthAdjust="spacing" textLength="26" x="699.5" y="172.5679">Law</text></g><!--class Justification--><g id="elem_Justification"><rect codeLine="15" fill="#F1F1F1" height="29.0679" id="Justification" rx="2.5" ry="2.5" style="stroke:#181818;stroke-width:0.5;" width="85" x="897" y="152.602"/><text fill="#000000" font-family="sans-serif" font-size="14" lengthAdjust="spacing" textLength="79" x="900" y="172.5679">Justification</text></g><!--class Data--><g id="elem_Data"><rect fill="#F1F1F1" height="29.0679" id="Data" rx="2.5" ry="2.5" style="stroke:#181818;stroke-width:0.5;" width="37" x="1042" y="152.602"/><text fill="#000000" font-family="sans-serif" font-size="14" lengthAdjust="spacing" textLength="31" x="1045" y="172.5679">Data</text></g><path d="M115.5,346.602 L135.375,346.602 A3.75,3.75 0 0 1 137.875,349.102 L144.875,371.6699 L149.375,371.6699 A2.5,2.5 0 0 1 151.875,374.1699 L151.875,402.2378 A2.5,2.5 0 0 1 149.375,404.7378 L115.5,404.7378 A2.5,2.5 0 0 1 113,402.2378 L113,349.102 A2.5,2.5 0 0 1 115.5,346.602 " fill="#F1F1F1" style="stroke:#181818;stroke-width:0.5;"/><line style="stroke:#181818;stroke-width:0.5;" x1="113" x2="144.875" y1="371.6699" y2="371.6699"/><text fill="#000000" font-family="sans-serif" font-size="14" font-weight="bold" lengthAdjust="spacing" textLength="18.875" x="117" y="363.5679">pd</text><path d="M216,346.602 L242.75,346.602 A3.75,3.75 0 0 1 245.25,349.102 L252.25,371.6699 L256.75,371.6699 A2.5,2.5 0 0 1 259.25,374.1699 L259.25,402.2378 A2.5,2.5 0 0 1 256.75,404.7378 L216,404.7378 A2.5,2.5 0 0 1 213.5,402.2378 L213.5,349.102 A2.5,2.5 0 0 1 216,346.602 " fill="#F1F1F1" style="stroke:#181818;stroke-width:0.5;"/><line style="stroke:#181818;stroke-width:0.5;" x1="213.5" x2="252.25" y1="371.6699" y2="371.6699"/><text fill="#000000" font-family="sans-serif" font-size="14" font-weight="bold" lengthAdjust="spacing" textLength="25.75" x="217.5" y="363.5679">risk</text><path d="M297.5,346.602 L329.25,346.602 A3.75,3.75 0 0 1 331.75,349.102 L338.75,371.6699 L343.25,371.6699 A2.5,2.5 0 0 1 345.75,374.1699 L345.75,402.2378 A2.5,2.5 0 0 1 343.25,404.7378 L297.5,404.7378 A2.5,2.5 0 0 1 295,402.2378 L295,349.102 A2.5,2.5 0 0 1 297.5,346.602 " fill="#F1F1F1" style="stroke:#181818;stroke-width:0.5;"/><line style="stroke:#181818;stroke-width:0.5;" x1="295" x2="338.75" y1="371.6699" y2="371.6699"/><text fill="#000000" font-family="sans-serif" font-size="14" font-weight="bold" lengthAdjust="spacing" textLength="30.75" x="299" y="363.5679">tech</text><path d="M1021.5,346.602 L1107.1875,346.602 A3.75,3.75 0 0 1 1109.6875,349.102 L1116.6875,371.6699 L1121.1875,371.6699 A2.5,2.5 0 0 1 1123.6875,374.1699 L1123.6875,402.2378 A2.5,2.5 0 0 1 1121.1875,404.7378 L1021.5,404.7378 A2.5,2.5 0 0 1 1019,402.2378 L1019,349.102 A2.5,2.5 0 0 1 1021.5,346.602 " fill="#F1F1F1" style="stroke:#181818;stroke-width:0.5;"/><line style="stroke:#181818;stroke-width:0.5;" x1="1019" x2="1116.6875" y1="371.6699" y2="371.6699"/><text fill="#000000" font-family="sans-serif" font-size="14" font-weight="bold" lengthAdjust="spacing" textLength="84.6875" x="1023" y="363.5679">justification</text><path d="M384,346.602 L405.3125,346.602 A3.75,3.75 0 0 1 407.8125,349.102 L414.8125,371.6699 L419.3125,371.6699 A2.5,2.5 0 0 1 421.8125,374.1699 L421.8125,402.2378 A2.5,2.5 0 0 1 419.3125,404.7378 L384,404.7378 A2.5,2.5 0 0 1 381.5,402.2378 L381.5,349.102 A2.5,2.5 0 0 1 384,346.602 " fill="#F1F1F1" style="stroke:#181818;stroke-width:0.5;"/><line style="stroke:#181818;stroke-width:0.5;" x1="381.5" x2="414.8125" y1="371.6699" y2="371.6699"/><text fill="#000000" font-family="sans-serif" font-size="14" font-weight="bold" lengthAdjust="spacing" textLength="20.3125" x="385.5" y="363.5679">loc</text><path d="M306.5,483.602 L320.375,483.602 A3.75,3.75 0 0 1 322.875,486.102 L329.875,508.6699 L334.375,508.6699 A2.5,2.5 0 0 1 336.875,511.1699 L336.875,539.2378 A2.5,2.5 0 0 1 334.375,541.7378 L306.5,541.7378 A2.5,2.5 0 0 1 304,539.2378 L304,486.102 A2.5,2.5 0 0 1 306.5,483.602 " fill="#F1F1F1" style="stroke:#181818;stroke-width:0.5;"/><line style="stroke:#181818;stroke-width:0.5;" x1="304" x2="329.875" y1="508.6699" y2="508.6699"/><text fill="#000000" font-family="sans-serif" font-size="14" font-weight="bold" lengthAdjust="spacing" textLength="12.875" x="308" y="500.5679">ai</text><path d="M637,346.602 L655.875,346.602 A3.75,3.75 0 0 1 658.375,349.102 L665.375,371.6699 L669.875,371.6699 A2.5,2.5 0 0 1 672.375,374.1699 L672.375,402.2378 A2.5,2.5 0 0 1 669.875,404.7378 L637,404.7378 A2.5,2.5 0 0 1 634.5,402.2378 L634.5,349.102 A2.5,2.5 0 0 1 637,346.602 " fill="#F1F1F1" style="stroke:#181818;stroke-width:0.5;"/><line style="stroke:#181818;stroke-width:0.5;" x1="634.5" x2="665.375" y1="371.6699" y2="371.6699"/><text fill="#000000" font-family="sans-serif" font-size="14" font-weight="bold" lengthAdjust="spacing" textLength="17.875" x="638.5" y="363.5679">de</text><path d="M809,483.602 L844.1875,483.602 A3.75,3.75 0 0 1 846.6875,486.102 L853.6875,508.6699 L858.1875,508.6699 A2.5,2.5 0 0 1 860.6875,511.1699 L860.6875,539.2378 A2.5,2.5 0 0 1 858.1875,541.7378 L809,541.7378 A2.5,2.5 0 0 1 806.5,539.2378 L806.5,486.102 A2.5,2.5 0 0 1 809,483.602 " fill="#F1F1F1" style="stroke:#181818;stroke-width:0.5;"/><line style="stroke:#181818;stroke-width:0.5;" x1="806.5" x2="853.6875" y1="508.6699" y2="508.6699"/><text fill="#000000" font-family="sans-serif" font-size="14" font-weight="bold" lengthAdjust="spacing" textLength="34.1875" x="810.5" y="500.5679">aiact</text><path d="M718.5,483.602 L746.8125,483.602 A3.75,3.75 0 0 1 749.3125,486.102 L756.3125,508.6699 L760.8125,508.6699 A2.5,2.5 0 0 1 763.3125,511.1699 L763.3125,539.2378 A2.5,2.5 0 0 1 760.8125,541.7378 L718.5,541.7378 A2.5,2.5 0 0 1 716,539.2378 L716,486.102 A2.5,2.5 0 0 1 718.5,483.602 " fill="#F1F1F1" style="stroke:#181818;stroke-width:0.5;"/><line style="stroke:#181818;stroke-width:0.5;" x1="716" x2="756.3125" y1="508.6699" y2="508.6699"/><text fill="#000000" font-family="sans-serif" font-size="14" font-weight="bold" lengthAdjust="spacing" textLength="27.3125" x="720" y="500.5679">dga</text><path d="M808.5,346.602 L844.25,346.602 A3.75,3.75 0 0 1 846.75,349.102 L853.75,371.6699 L858.25,371.6699 A2.5,2.5 0 0 1 860.75,374.1699 L860.75,402.2378 A2.5,2.5 0 0 1 858.25,404.7378 L808.5,404.7378 A2.5,2.5 0 0 1 806,402.2378 L806,349.102 A2.5,2.5 0 0 1 808.5,346.602 " fill="#F1F1F1" style="stroke:#181818;stroke-width:0.5;"/><line style="stroke:#181818;stroke-width:0.5;" x1="806" x2="853.75" y1="371.6699" y2="371.6699"/><text fill="#000000" font-family="sans-serif" font-size="14" font-weight="bold" lengthAdjust="spacing" textLength="34.75" x="810" y="363.5679">gdpr</text><path d="M899,346.602 L929.75,346.602 A3.75,3.75 0 0 1 932.25,349.102 L939.25,371.6699 L943.75,371.6699 A2.5,2.5 0 0 1 946.25,374.1699 L946.25,402.2378 A2.5,2.5 0 0 1 943.75,404.7378 L899,404.7378 A2.5,2.5 0 0 1 896.5,402.2378 L896.5,349.102 A2.5,2.5 0 0 1 899,346.602 " fill="#F1F1F1" style="stroke:#181818;stroke-width:0.5;"/><line style="stroke:#181818;stroke-width:0.5;" x1="896.5" x2="939.25" y1="371.6699" y2="371.6699"/><text fill="#000000" font-family="sans-serif" font-size="14" font-weight="bold" lengthAdjust="spacing" textLength="29.75" x="900.5" y="363.5679">nis2</text><path d="M710.5,346.602 L754.125,346.602 A3.75,3.75 0 0 1 756.625,349.102 L763.625,371.6699 L768.125,371.6699 A2.5,2.5 0 0 1 770.625,374.1699 L770.625,402.2378 A2.5,2.5 0 0 1 768.125,404.7378 L710.5,404.7378 A2.5,2.5 0 0 1 708,402.2378 L708,349.102 A2.5,2.5 0 0 1 710.5,346.602 " fill="#F1F1F1" style="stroke:#181818;stroke-width:0.5;"/><line style="stroke:#181818;stroke-width:0.5;" x1="708" x2="763.625" y1="371.6699" y2="371.6699"/><text fill="#000000" font-family="sans-serif" font-size="14" font-weight="bold" lengthAdjust="spacing" textLength="42.625" x="712" y="363.5679">rights</text><path d="M494.5,346.602 L514.375,346.602 A3.75,3.75 0 0 1 516.875,349.102 L523.875,371.6699 L528.375,371.6699 A2.5,2.5 0 0 1 530.875,374.1699 L530.875,402.2378 A2.5,2.5 0 0 1 528.375,404.7378 L494.5,404.7378 A2.5,2.5 0 0 1 492,402.2378 L492,349.102 A2.5,2.5 0 0 1 494.5,346.602 " fill="#F1F1F1" style="stroke:#181818;stroke-width:0.5;"/><line style="stroke:#181818;stroke-width:0.5;" x1="492" x2="523.875" y1="371.6699" y2="371.6699"/><text fill="#000000" font-family="sans-serif" font-size="14" font-weight="bold" lengthAdjust="spacing" textLength="18.875" x="496" y="363.5679">gb</text><path d="M568.5,346.602 L582.375,346.602 A3.75,3.75 0 0 1 584.875,349.102 L591.875,371.6699 L596.375,371.6699 A2.5,2.5 0 0 1 598.875,374.1699 L598.875,402.2378 A2.5,2.5 0 0 1 596.375,404.7378 L568.5,404.7378 A2.5,2.5 0 0 1 566,402.2378 L566,349.102 A2.5,2.5 0 0 1 568.5,346.602 " fill="#F1F1F1" style="stroke:#181818;stroke-width:0.5;"/><line style="stroke:#181818;stroke-width:0.5;" x1="566" x2="591.875" y1="371.6699" y2="371.6699"/><text fill="#000000" font-family="sans-serif" font-size="14" font-weight="bold" lengthAdjust="spacing" textLength="12.875" x="570" y="363.5679">ie</text><path d="M568,483.602 L582.875,483.602 A3.75,3.75 0 0 1 585.375,486.102 L592.375,508.6699 L596.875,508.6699 A2.5,2.5 0 0 1 599.375,511.1699 L599.375,539.2378 A2.5,2.5 0 0 1 596.875,541.7378 L568,541.7378 A2.5,2.5 0 0 1 565.5,539.2378 L565.5,486.102 A2.5,2.5 0 0 1 568,483.602 " fill="#F1F1F1" style="stroke:#181818;stroke-width:0.5;"/><line style="stroke:#181818;stroke-width:0.5;" x1="565.5" x2="592.375" y1="508.6699" y2="508.6699"/><text fill="#000000" font-family="sans-serif" font-size="14" font-weight="bold" lengthAdjust="spacing" textLength="13.875" x="569.5" y="500.5679">in</text><path d="M495.5,483.602 L513.375,483.602 A3.75,3.75 0 0 1 515.875,486.102 L522.875,508.6699 L527.375,508.6699 A2.5,2.5 0 0 1 529.875,511.1699 L529.875,539.2378 A2.5,2.5 0 0 1 527.375,541.7378 L495.5,541.7378 A2.5,2.5 0 0 1 493,539.2378 L493,486.102 A2.5,2.5 0 0 1 495.5,483.602 " fill="#F1F1F1" style="stroke:#181818;stroke-width:0.5;"/><line style="stroke:#181818;stroke-width:0.5;" x1="493" x2="522.875" y1="508.6699" y2="508.6699"/><text fill="#000000" font-family="sans-serif" font-size="14" font-weight="bold" lengthAdjust="spacing" textLength="16.875" x="497" y="500.5679">us</text><!--class Thing--><g id="elem_Thing"><rect codeLine="5" fill="#C0C0C0" height="29.0679" id="Thing" rx="2.5" ry="2.5" style="stroke:#181818;stroke-width:0.5;" width="45" x="7" y="44.602"/><text fill="#000000" font-family="sans-serif" font-size="14" lengthAdjust="spacing" textLength="39" x="10" y="64.5679">Thing</text></g><!--link Thing to Process--><g id="link_Thing_Process"><path codeLine="6" d="M52.22,59.102 C129.95,59.102 379.22,59.102 465.62,59.102 " fill="none" id="Thing-to-Process" style="stroke:#181818;stroke-width:1.0;"/><polygon fill="#181818" points="471.62,59.102,462.62,55.102,466.62,59.102,462.62,63.102,471.62,59.102" style="stroke:#181818;stroke-width:1.0;"/><polygon fill="#000000" points="231,46.955,221.9549,44.0161,221.9549,49.8939,231,46.955" style="stroke:#000000;stroke-width:1.0;"/><text fill="#000000" font-family="sans-serif" font-size="13" lengthAdjust="spacing" textLength="67" x="235" y="51.999">hasProcess</text></g><!--link Process to Data--><g id="link_Process_Data"><path codeLine="17" d="M529.2,60.472 C620.19,62.012 901.17,69.452 984.5,103.602 C1010.74,114.352 1034.91,137.442 1048.65,152.342 " fill="none" id="Process-Data" style="stroke:#181818;stroke-width:1.0;"/><polygon fill="#000000" points="1024.4236,114.3258,1016.0286,109.8565,1015.0049,115.6445,1024.4236,114.3258" style="stroke:#000000;stroke-width:1.0;"/><text fill="#000000" font-family="sans-serif" font-size="13" lengthAdjust="spacing" textLength="49" x="1028.5" y="118.499">hasData</text></g><!--link Process to Justification--><g id="link_Process_Justification"><path codeLine="18" d="M529.15,60.182 C587.46,61.142 723.47,67.442 830.5,103.602 C864.39,115.052 899.59,137.482 920.52,152.122 " fill="none" id="Process-Justification" style="stroke:#181818;stroke-width:1.0;"/><polygon fill="#000000" points="880.3675,114.5985,872.2342,109.6689,870.89,115.3909,880.3675,114.5985" style="stroke:#000000;stroke-width:1.0;"/><text fill="#000000" font-family="sans-serif" font-size="13" lengthAdjust="spacing" textLength="91" x="884.5" y="118.499">hasJustification</text></g><!--link Process to PersonalData--><g id="link_Process_PersonalData"><path codeLine="19" d="M471.57,60.052 C397.84,60.502 205.23,65.392 156.5,103.602 C141.5,115.362 135.87,137.702 133.76,152.242 " fill="none" id="Process-PersonalData" style="stroke:#181818;stroke-width:1.0;"/><polygon fill="#000000" points="156.6764,114.7714,166.1761,115.2253,164.6286,109.5548,156.6764,114.7714" style="stroke:#000000;stroke-width:1.0;"/><text fill="#000000" font-family="sans-serif" font-size="13" lengthAdjust="spacing" textLength="101" x="170.5" y="118.499">hasPersonalData</text></g><!--link Process to Risk--><g id="link_Process_Risk"><path codeLine="20" d="M471.52,62.662 C420.97,67.682 319.57,80.422 293.5,103.602 C279.56,116.002 274.86,137.952 273.28,152.262 " fill="none" id="Process-Risk" style="stroke:#181818;stroke-width:1.0;"/><polygon fill="#000000" points="293.9438,115.5143,303.3965,114.4671,300.9756,109.1109,293.9438,115.5143" style="stroke:#000000;stroke-width:1.0;"/><text fill="#000000" font-family="sans-serif" font-size="13" lengthAdjust="spacing" textLength="45" x="307.5" y="118.499">hasRisk</text></g><!--link Process to Technology--><g id="link_Process_Technology"><path codeLine="21" d="M471.73,60.422 C440.51,62.492 391.98,71.152 368.5,103.602 C358.3,117.702 362.42,138.592 366.93,152.272 " fill="none" id="Process-Technology" style="stroke:#181818;stroke-width:1.0;"/><polygon fill="#000000" points="369.7398,116.7506,378.4792,112.999,374.605,108.5786,369.7398,116.7506" style="stroke:#000000;stroke-width:1.0;"/><text fill="#000000" font-family="sans-serif" font-size="13" lengthAdjust="spacing" textLength="195" x="382.5" y="118.499">isImplementedUsingTechnology</text></g><!--link Process to Location--><g id="link_Process_Location"><path codeLine="22" d="M529.3,66.502 C549.02,72.532 573.82,83.702 586.5,103.602 C595.77,118.162 594.3,138.742 591.85,152.252 " fill="none" id="Process-Location" style="stroke:#181818;stroke-width:1.0;"/><polygon fill="#000000" points="600.4466,117.4945,597.4905,108.455,592.7418,111.9189,600.4466,117.4945" style="stroke:#000000;stroke-width:1.0;"/><text fill="#000000" font-family="sans-serif" font-size="13" lengthAdjust="spacing" textLength="73" x="606.5" y="118.499">hasLocation</text></g><!--link Process to Law--><g id="link_Process_Law"><path codeLine="23" d="M529.33,63.442 C575.92,69.382 664.93,83.102 688.5,103.602 C702.8,116.032 708.62,137.972 710.96,152.272 " fill="none" id="Process-Law" style="stroke:#181818;stroke-width:1.0;"/><polygon fill="#000000" points="710.9916,115.6517,704.1574,109.0377,701.575,114.3179,710.9916,115.6517" style="stroke:#000000;stroke-width:1.0;"/><text fill="#000000" font-family="sans-serif" font-size="13" lengthAdjust="spacing" textLength="106" x="715.5" y="118.499">hasApplicableLaw</text></g><!--reverse link PersonalData to pd--><g id="link_PersonalData_pd"><path codeLine="28" d="M132.5,187.972 C132.5,221.522 132.5,301.592 132.5,346.452 " fill="none" id="PersonalData-backto-pd" style="stroke:#181818;stroke-width:1.0;stroke-dasharray:7.0,7.0;"/><polygon fill="#181818" points="132.5,181.972,128.5,190.972,132.5,186.972,136.5,190.972,132.5,181.972" style="stroke:#181818;stroke-width:1.0;"/><text fill="#000000" font-family="sans-serif" font-size="13" lengthAdjust="spacing" textLength="62" x="133.5" y="226.499">&#171;extends&#187;</text></g><!--reverse link Risk to risk--><g id="link_Risk_risk"><path codeLine="32" d="M264.7729,187.6023 C261.5729,196.0423 259.87,201.492 257.5,211.602 C246.6,258.132 240.97,313.552 238.39,346.312 " fill="none" id="Risk-backto-risk" style="stroke:#181818;stroke-width:1.0;stroke-dasharray:7.0,7.0;"/><polygon fill="#181818" points="266.9,181.992,259.9691,188.9893,265.1274,186.6672,267.4495,191.8255,266.9,181.992" style="stroke:#181818;stroke-width:1.0;"/><text fill="#000000" font-family="sans-serif" font-size="13" lengthAdjust="spacing" textLength="62" x="258.5" y="226.499">&#171;extends&#187;</text></g><!--reverse link Technology to tech--><g id="link_Technology_tech"><path codeLine="36" d="M367.5446,187.7903 C359.0946,221.3403 338.89,301.592 327.59,346.452 " fill="none" id="Technology-backto-tech" style="stroke:#181818;stroke-width:1.0;stroke-dasharray:7.0,7.0;"/><polygon fill="#181818" points="369.01,181.972,362.933,189.7225,367.7888,186.8206,370.6907,191.6764,369.01,181.972" style="stroke:#181818;stroke-width:1.0;"/><text fill="#000000" font-family="sans-serif" font-size="13" lengthAdjust="spacing" textLength="62" x="361.5" y="226.499">&#171;extends&#187;</text></g><!--reverse link Justification to justification--><g id="link_Justification_justification"><path codeLine="40" d="M951.6009,187.0278 C973.0409,220.5778 1024.83,301.592 1053.51,346.452 " fill="none" id="Justification-backto-justification" style="stroke:#181818;stroke-width:1.0;stroke-dasharray:7.0,7.0;"/><polygon fill="#181818" points="948.37,181.972,949.8458,191.7096,951.0624,186.1852,956.5869,187.4018,948.37,181.972" style="stroke:#181818;stroke-width:1.0;"/><text fill="#000000" font-family="sans-serif" font-size="13" lengthAdjust="spacing" textLength="62" x="979.5" y="226.499">&#171;extends&#187;</text></g><!--reverse link Location to loc--><g id="link_Location_loc"><path codeLine="44" d="M551.4008,176.4514 C517.7608,185.3814 470.85,202.772 440.5,238.602 C414.54,269.242 405.83,316.222 402.93,346.172 " fill="none" id="Location-backto-loc" style="stroke:#181818;stroke-width:1.0;stroke-dasharray:7.0,7.0;"/><polygon fill="#181818" points="557.2,174.912,547.475,173.355,552.3674,176.1948,549.5276,181.0872,557.2,174.912" style="stroke:#181818;stroke-width:1.0;"/><text fill="#000000" font-family="sans-serif" font-size="13" lengthAdjust="spacing" textLength="62" x="470.5" y="226.499">&#171;extends&#187;</text></g><!--reverse link tech to ai--><g id="link_tech_ai"><path codeLine="47" d="M320.5,410.902 C320.5,433.942 320.5,460.312 320.5,483.342 " fill="none" id="tech-backto-ai" style="stroke:#181818;stroke-width:1.0;stroke-dasharray:7.0,7.0;"/><polygon fill="#181818" points="320.5,404.902,316.5,413.902,320.5,409.902,324.5,413.902,320.5,404.902" style="stroke:#181818;stroke-width:1.0;"/><text fill="#000000" font-family="sans-serif" font-size="13" lengthAdjust="spacing" textLength="62" x="321.5" y="449.499">&#171;extends&#187;</text></g><!--reverse link Law to legal--><g id="link_Law_legal"><path codeLine="50" d="M690.8944,177.8527 C661.0144,191.0927 600.21,216.512 541.5,230.602 C527.13,234.052 486.04,228.252 475.5,238.602 C472.8212,241.2332 470.5141,245.276 468.5276,250.3432 C468.0309,251.61 467.5543,252.9408 467.097,254.3296 " fill="none" id="Law-backto-legal" style="stroke:#181818;stroke-width:1.0;stroke-dasharray:7.0,7.0;"/><polygon fill="#181818" points="696.38,175.422,686.5311,175.411,691.8087,177.4476,689.7721,182.7251,696.38,175.422" style="stroke:#181818;stroke-width:1.0;"/><text fill="#000000" font-family="sans-serif" font-size="13" lengthAdjust="spacing" textLength="62" x="604.5" y="226.499">&#171;extends&#187;</text></g><!--link gb to us--><!--link gb to ie--><!--link ie to de--><!--link ie to in--><!--link rights to dga--><!--link gdpr to aiact--><!--link gdpr to nis2--><!--SRC=[XLInRjim49tDhs2H8PCqT3GC0mMwjEXG5EbKPBYG5uerJGaa5JS8yk-XA9zCsgQxaVVUkxl71-cJjiAC4haFhmRRmO0DuzumTc_mEV3GSwTL5xZK3aNGlMLC6F2UFtJQAdxdjNb1n-PRi-LoU6b_kbwWzslUWJ-U-PQn0SGE54uK_iPMSviZlbpH-Tw2-Ge1gFPB-nsT7r1qjZUzUgNAZrv0selkSA3Zzz47_QoFE5lHBat3f_uyBPXEsrM15iB4AYhHJCxETvuzPuKpxkGbSQR36NRojkRQVziF1lTe0yhVFZxk2JsJqGEajdGvvy0XmL-6mKGJJmPZ9NBUYrJQGSPWtbdACFUmQLl2rtopmNy1hVJRCjFMJPP8d_oHBY4tb25wMvIPKT8d_8R-Rv4EDIeperubzqPJqukbrVAir6K2Isqk1Rqeq-gaYlMwoA02SveOyrc69UG_oZP-mvFu4i2n2iIDG8GwB1NKGIK7LqUjzf_hQFgf-0gkdYg0hbdKjWACymnspyC1OSU90Sw1LUdxOiNWva-dfKJxA9kyIuNacdmvLcnwbIHhf7oSZZ-hQwzrbJodn2wJgR5JvBVuhha8ah4F]--></g></svg>