<svg xmlns="http://www.w3.org/2000/svg" xmlns:xlink="http://www.w3.org/1999/xlink" contentStyleType="text/css" height="967px" preserveAspectRatio="none" style="width:429px;height:967px;background:#FFFFFF;" version="1.1" viewBox="0 0 429 967" width="429px" zoomAndPan="magnify"><defs/><g><rect fill="#F1F1F1" height="39.0679" rx="12.5" ry="12.5" style="stroke:#181818;stroke-width:1.5;" width="85" x="10" y="463.0094"/><text fill="#000000" font-family="sans-serif" font-size="14" lengthAdjust="spacing" textLength="65" x="20" y="487.9753">dpv:Right</text><rect fill="#F1F1F1" height="39.0679" rx="12.5" ry="12.5" style="stroke:#181818;stroke-width:1.5;" width="104" x="145" y="20"/><text fill="#000000" font-family="sans-serif" font-size="14" lengthAdjust="spacing" textLength="84" x="155" y="44.9659">eu-gdpr:A13</text><path d="M95,482.5433 L105,482.5433 C120,482.5433 120,39.534 135,39.534 L145,39.534 " fill="none" style="stroke:#181818;stroke-width:1.0;"/><rect fill="#F1F1F1" height="39.0679" rx="12.5" ry="12.5" style="stroke:#181818;stroke-width:1.5;" width="104" x="145" y="79.0679"/><text fill="#000000" font-family="sans-serif" font-size="14" lengthAdjust="spacing" textLength="84" x="155" y="104.0339">eu-gdpr:A14</text><path d="M95,482.5433 L105,482.5433 C120,482.5433 120,98.6019 135,98.6019 L145,98.6019 " fill="none" style="stroke:#181818;stroke-width:1.0;"/><rect fill="#F1F1F1" height="39.0679" rx="12.5" ry="12.5" style="stroke:#181818;stroke-width:1.5;" width="104" x="145" y="138.1358"/><text fill="#000000" font-family="sans-serif" font-size="14" lengthAdjust="spacing" textLength="84" x="155" y="163.1018">eu-gdpr:A15</text><path d="M95,482.5433 L105,482.5433 C120,482.5433 120,157.6698 135,157.6698 L145,157.6698 " fill="none" style="stroke:#181818;stroke-width:1.0;"/><rect fill="#F1F1F1" height="39.0679" rx="12.5" ry="12.5" style="stroke:#181818;stroke-width:1.5;" width="104" x="145" y="197.2038"/><text fill="#000000" font-family="sans-serif" font-size="14" lengthAdjust="spacing" textLength="84" x="155" y="222.1697">eu-gdpr:A16</text><path d="M95,482.5433 L105,482.5433 C120,482.5433 120,216.7377 135,216.7377 L145,216.7377 " fill="none" style="stroke:#181818;stroke-width:1.0;"/><rect fill="#F1F1F1" height="39.0679" rx="12.5" ry="12.5" style="stroke:#181818;stroke-width:1.5;" width="104" x="145" y="256.2717"/><text fill="#000000" font-family="sans-serif" font-size="14" lengthAdjust="spacing" textLength="84" x="155" y="281.2376">eu-gdpr:A17</text><path d="M95,482.5433 L105,482.5433 C120,482.5433 120,275.8056 135,275.8056 L145,275.8056 " fill="none" style="stroke:#181818;stroke-width:1.0;"/><rect fill="#F1F1F1" height="39.0679" rx="12.5" ry="12.5" style="stroke:#181818;stroke-width:1.5;" width="104" x="145" y="315.3396"/><text fill="#000000" font-family="sans-serif" font-size="14" lengthAdjust="spacing" textLength="84" x="155" y="340.3055">eu-gdpr:A18</text><path d="M95,482.5433 L105,482.5433 C120,482.5433 120,334.8735 135,334.8735 L145,334.8735 " fill="none" style="stroke:#181818;stroke-width:1.0;"/><rect fill="#F1F1F1" height="39.0679" rx="12.5" ry="12.5" style="stroke:#181818;stroke-width:1.5;" width="104" x="145" y="374.4075"/><text fill="#000000" font-family="sans-serif" font-size="14" lengthAdjust="spacing" textLength="84" x="155" y="399.3734">eu-gdpr:A19</text><path d="M95,482.5433 L105,482.5433 C120,482.5433 120,393.9415 135,393.9415 L145,393.9415 " fill="none" style="stroke:#181818;stroke-width:1.0;"/><rect fill="#F1F1F1" height="39.0679" rx="12.5" ry="12.5" style="stroke:#181818;stroke-width:1.5;" width="104" x="145" y="433.4754"/><text fill="#000000" font-family="sans-serif" font-size="14" lengthAdjust="spacing" textLength="84" x="155" y="458.4414">eu-gdpr:A20</text><path d="M95,482.5433 L105,482.5433 C120,482.5433 120,453.0094 135,453.0094 L145,453.0094 " fill="none" style="stroke:#181818;stroke-width:1.0;"/><rect fill="#F1F1F1" height="39.0679" rx="12.5" ry="12.5" style="stroke:#181818;stroke-width:1.5;" width="104" x="145" y="492.5433"/><text fill="#000000" font-family="sans-serif" font-size="14" lengthAdjust="spacing" textLength="84" x="155" y="517.5093">eu-gdpr:A21</text><path d="M95,482.5433 L105,482.5433 C120,482.5433 120,512.0773 135,512.0773 L145,512.0773 " fill="none" style="stroke:#181818;stroke-width:1.0;"/><rect fill="#F1F1F1" height="39.0679" rx="12.5" ry="12.5" style="stroke:#181818;stroke-width:1.5;" width="104" x="145" y="551.6113"/><text fill="#000000" font-family="sans-serif" font-size="14" lengthAdjust="spacing" textLength="84" x="155" y="576.5772">eu-gdpr:A22</text><path d="M95,482.5433 L105,482.5433 C120,482.5433 120,571.1452 135,571.1452 L145,571.1452 " fill="none" style="stroke:#181818;stroke-width:1.0;"/><rect fill="#F1F1F1" height="39.0679" rx="12.5" ry="12.5" style="stroke:#181818;stroke-width:1.5;" width="109" x="145" y="610.6792"/><text fill="#000000" font-family="sans-serif" font-size="14" lengthAdjust="spacing" textLength="89" x="155" y="635.6451">eu-gdpr:A7-3</text><path d="M95,482.5433 L105,482.5433 C120,482.5433 120,630.2131 135,630.2131 L145,630.2131 " fill="none" style="stroke:#181818;stroke-width:1.0;"/><rect fill="#F1F1F1" height="39.0679" rx="12.5" ry="12.5" style="stroke:#181818;stroke-width:1.5;" width="104" x="145" y="669.7471"/><text fill="#000000" font-family="sans-serif" font-size="14" lengthAdjust="spacing" textLength="84" x="155" y="694.713">eu-gdpr:A77</text><path d="M95,482.5433 L105,482.5433 C120,482.5433 120,689.281 135,689.281 L145,689.281 " fill="none" style="stroke:#181818;stroke-width:1.0;"/><rect fill="#F1F1F1" height="39.0679" rx="12.5" ry="12.5" style="stroke:#181818;stroke-width:1.5;" width="259" x="145" y="728.815"/><text fill="#000000" font-family="sans-serif" font-size="14" lengthAdjust="spacing" textLength="239" x="155" y="753.7809">eu-gdpr:DirectDataCollectionNotice</text><path d="M95,482.5433 L105,482.5433 C120,482.5433 120,748.349 135,748.349 L145,748.349 " fill="none" style="stroke:#181818;stroke-width:1.0;"/><rect fill="#F1F1F1" height="39.0679" rx="12.5" ry="12.5" style="stroke:#181818;stroke-width:1.5;" width="272" x="145" y="787.8829"/><text fill="#000000" font-family="sans-serif" font-size="14" lengthAdjust="spacing" textLength="252" x="155" y="812.8489">eu-gdpr:IndirectDataCollectionNotice</text><path d="M95,482.5433 L105,482.5433 C120,482.5433 120,807.4169 135,807.4169 L145,807.4169 " fill="none" style="stroke:#181818;stroke-width:1.0;"/><rect fill="#F1F1F1" height="39.0679" rx="12.5" ry="12.5" style="stroke:#181818;stroke-width:1.5;" width="235" x="145" y="846.9508"/><text fill="#000000" font-family="sans-serif" font-size="14" lengthAdjust="spacing" textLength="215" x="155" y="871.9168">eu-gdpr:RightsRecipientsNotice</text><path d="M95,482.5433 L105,482.5433 C120,482.5433 120,866.4848 135,866.4848 L145,866.4848 " fill="none" style="stroke:#181818;stroke-width:1.0;"/><rect fill="#F1F1F1" height="39.0679" rx="12.5" ry="12.5" style="stroke:#181818;stroke-width:1.5;" width="148" x="145" y="906.0188"/><text fill="#000000" font-family="sans-serif" font-size="14" lengthAdjust="spacing" textLength="128" x="155" y="930.9847">eu-gdpr:SARNotice</text><path d="M95,482.5433 L105,482.5433 C120,482.5433 120,925.5527 135,925.5527 L145,925.5527 " fill="none" style="stroke:#181818;stroke-width:1.0;"/><!--SRC=[xP9DJy9048Rl-ol66v2KqCgNFO4KZKYLKE2-jaEPPBjjzeE4V- -Y4DruyU3Hspmxxyw-UMSdsd1bAf95nHjsGp8Nja3GvYImsmWkZQq4wq3H7ECrbGV3EXr06vH5e-9fUEjZtyU1ZqCVHpwEVRppCEhv6FeOUJWAV5iZxwM45EOcuORFQY5SIRLygGtb-5tr98jVwJuoqMlCgI6KHlzKPDFrvN22BkLBqcpY1NyW5_gUK1JwiwxG7EehvAHoWPhzx-7lzx0w__5jkeGZAkr6GzYDUb6_EsXbLaBAJn0D8GpZS10FnZ2RPniuzzkizRXQWgwjoX4AqaRHcprxQxC5Ft9OMscemXXU6vIBvFbw07Dv95NBohbaYrtw9HZsWtioaA5oLc2NiWJtt0hZRkHrGRACORjv2CPioMLfUUbcesIpsirL9zVBtW40]--></g></svg>