<svg xmlns="http://www.w3.org/2000/svg" xmlns:xlink="http://www.w3.org/1999/xlink" contentStyleType="text/css" height="883px" preserveAspectRatio="none" style="width:610px;height:883px;background:#FFFFFF;" version="1.1" viewBox="0 0 610 883" width="610px" zoomAndPan="magnify"><defs/><g><!--cluster dpv--><g id="cluster_dpv"><path d="M8.5,6.602 L35.8125,6.602 A3.75,3.75 0 0 1 38.3125,9.102 L45.3125,31.6699 L600.5,31.6699 A2.5,2.5 0 0 1 603,34.1699 L603,874.102 A2.5,2.5 0 0 1 600.5,876.602 L8.5,876.602 A2.5,2.5 0 0 1 6,874.102 L6,9.102 A2.5,2.5 0 0 1 8.5,6.602 " fill="none" style="stroke:#000000;stroke-width:1.5;"/><line style="stroke:#000000;stroke-width:1.5;" x1="6" x2="45.3125" y1="31.6699" y2="31.6699"/><text fill="#000000" font-family="sans-serif" font-size="14" font-weight="bold" lengthAdjust="spacing" textLength="26.3125" x="10" y="23.5679">dpv</text></g><!--cluster legal--><g id="cluster_legal"><path d="M403.5,52.602 L439.6875,52.602 A3.75,3.75 0 0 1 442.1875,55.102 L449.1875,77.6699 L576.5,77.6699 A2.5,2.5 0 0 1 579,80.1699 L579,850.102 A2.5,2.5 0 0 1 576.5,852.602 L403.5,852.602 A2.5,2.5 0 0 1 401,850.102 L401,55.102 A2.5,2.5 0 0 1 403.5,52.602 " fill="none" style="stroke:#000000;stroke-width:1.5;"/><line style="stroke:#000000;stroke-width:1.5;" x1="401" x2="449.1875" y1="77.6699" y2="77.6699"/><text fill="#000000" font-family="sans-serif" font-size="14" font-weight="bold" lengthAdjust="spacing" textLength="35.1875" x="405" y="69.5679">legal</text></g><!--cluster eu--><g id="cluster_eu"><path d="M427.5,98.602 L446.375,98.602 A3.75,3.75 0 0 1 448.875,101.102 L455.875,123.6699 L552.5,123.6699 A2.5,2.5 0 0 1 555,126.1699 L555,826.102 A2.5,2.5 0 0 1 552.5,828.602 L427.5,828.602 A2.5,2.5 0 0 1 425,826.102 L425,101.102 A2.5,2.5 0 0 1 427.5,98.602 " fill="none" style="stroke:#000000;stroke-width:1.5;"/><line style="stroke:#000000;stroke-width:1.5;" x1="425" x2="455.875" y1="123.6699" y2="123.6699"/><text fill="#000000" font-family="sans-serif" font-size="14" font-weight="bold" lengthAdjust="spacing" textLength="17.875" x="429" y="115.5679">eu</text></g><!--cluster gdpr--><g id="cluster_gdpr"><path d="M451.5,144.602 L487.25,144.602 A3.75,3.75 0 0 1 489.75,147.102 L496.75,169.6699 L528.5,169.6699 A2.5,2.5 0 0 1 531,172.1699 L531,802.102 A2.5,2.5 0 0 1 528.5,804.602 L451.5,804.602 A2.5,2.5 0 0 1 449,802.102 L449,147.102 A2.5,2.5 0 0 1 451.5,144.602 " fill="none" style="stroke:#000000;stroke-width:1.5;"/><line style="stroke:#000000;stroke-width:1.5;" x1="449" x2="496.75" y1="169.6699" y2="169.6699"/><text fill="#000000" font-family="sans-serif" font-size="14" font-weight="bold" lengthAdjust="spacing" textLength="34.75" x="453" y="161.5679">gdpr</text></g><!--class Process--><g id="elem_Process"><rect codeLine="6" fill="#F1F1F1" height="29.0679" id="Process" rx="2.5" ry="2.5" style="stroke:#181818;stroke-width:0.5;" width="57" x="22" y="486.102"/><text fill="#000000" font-family="sans-serif" font-size="14" lengthAdjust="spacing" textLength="51" x="25" y="506.0679">Process</text></g><!--class LegalBasis--><g id="elem_LegalBasis"><rect codeLine="7" fill="#F1F1F1" height="29.0679" id="LegalBasis" rx="2.5" ry="2.5" style="stroke:#181818;stroke-width:0.5;" width="77" x="257" y="486.102"/><text fill="#000000" font-family="sans-serif" font-size="14" lengthAdjust="spacing" textLength="71" x="260" y="506.0679">LegalBasis</text></g><polygon fill="none" points="334,498.6892,353.621,490.6881,354.328,504.6702" style="stroke:#181818;stroke-width:1.0;"/><line style="stroke:#181818;stroke-width:1.0;" x1="353.9745" x2="355.5" y1="497.6791" y2="497.602"/><line style="stroke:#181818;stroke-width:1.0;" x1="257" x2="236.58" y1="500.6138" y2="500.602"/><!--class A9_2_a--><g id="elem_A9_2_a"><rect codeLine="10" fill="#F1F1F1" height="29.0679" id="A9_2_a" rx="2.5" ry="2.5" style="stroke:#181818;stroke-width:0.5;" width="49" x="465.5" y="759.102"/><text fill="#000000" font-family="sans-serif" font-size="14" lengthAdjust="spacing" textLength="43" x="468.5" y="779.0679">A9-2-a</text></g><!--class A9_2_b--><g id="elem_A9_2_b"><rect codeLine="11" fill="#F1F1F1" height="29.0679" id="A9_2_b" rx="2.5" ry="2.5" style="stroke:#181818;stroke-width:0.5;" width="50" x="465" y="695.102"/><text fill="#000000" font-family="sans-serif" font-size="14" lengthAdjust="spacing" textLength="44" x="468" y="715.0679">A9-2-b</text></g><!--class A9_2_c--><g id="elem_A9_2_c"><rect codeLine="12" fill="#F1F1F1" height="29.0679" id="A9_2_c" rx="2.5" ry="2.5" style="stroke:#181818;stroke-width:0.5;" width="48" x="466" y="631.102"/><text fill="#000000" font-family="sans-serif" font-size="14" lengthAdjust="spacing" textLength="42" x="469" y="651.0679">A9-2-c</text></g><!--class A9_2_d--><g id="elem_A9_2_d"><rect codeLine="13" fill="#F1F1F1" height="29.0679" id="A9_2_d" rx="2.5" ry="2.5" style="stroke:#181818;stroke-width:0.5;" width="50" x="465" y="567.102"/><text fill="#000000" font-family="sans-serif" font-size="14" lengthAdjust="spacing" textLength="44" x="468" y="587.0679">A9-2-d</text></g><!--class A9_2_e--><g id="elem_A9_2_e"><rect codeLine="14" fill="#F1F1F1" height="29.0679" id="A9_2_e" rx="2.5" ry="2.5" style="stroke:#181818;stroke-width:0.5;" width="49" x="465.5" y="503.102"/><text fill="#000000" font-family="sans-serif" font-size="14" lengthAdjust="spacing" textLength="43" x="468.5" y="523.0679">A9-2-e</text></g><!--class A9_2_f--><g id="elem_A9_2_f"><rect codeLine="15" fill="#F1F1F1" height="29.0679" id="A9_2_f" rx="2.5" ry="2.5" style="stroke:#181818;stroke-width:0.5;" width="46" x="467" y="439.102"/><text fill="#000000" font-family="sans-serif" font-size="14" lengthAdjust="spacing" textLength="40" x="470" y="459.0679">A9-2-f</text></g><!--class A9_2_g--><g id="elem_A9_2_g"><rect codeLine="16" fill="#F1F1F1" height="29.0679" id="A9_2_g" rx="2.5" ry="2.5" style="stroke:#181818;stroke-width:0.5;" width="50" x="465" y="375.102"/><text fill="#000000" font-family="sans-serif" font-size="14" lengthAdjust="spacing" textLength="44" x="468" y="395.0679">A9-2-g</text></g><!--class A9_2_h--><g id="elem_A9_2_h"><rect codeLine="17" fill="#F1F1F1" height="29.0679" id="A9_2_h" rx="2.5" ry="2.5" style="stroke:#181818;stroke-width:0.5;" width="50" x="465" y="311.102"/><text fill="#000000" font-family="sans-serif" font-size="14" lengthAdjust="spacing" textLength="44" x="468" y="331.0679">A9-2-h</text></g><!--class A9_2_i--><g id="elem_A9_2_i"><rect codeLine="18" fill="#F1F1F1" height="29.0679" id="A9_2_i" rx="2.5" ry="2.5" style="stroke:#181818;stroke-width:0.5;" width="45" x="467.5" y="247.102"/><text fill="#000000" font-family="sans-serif" font-size="14" lengthAdjust="spacing" textLength="39" x="470.5" y="267.0679">A9-2-i</text></g><!--class A9_2_j--><g id="elem_A9_2_j"><rect codeLine="19" fill="#F1F1F1" height="29.0679" id="A9_2_j" rx="2.5" ry="2.5" style="stroke:#181818;stroke-width:0.5;" width="45" x="467.5" y="183.102"/><text fill="#000000" font-family="sans-serif" font-size="14" lengthAdjust="spacing" textLength="39" x="470.5" y="203.0679">A9-2-j</text></g><!--link Process to LegalBasis--><g id="link_Process_LegalBasis"><path codeLine="22" d="M79.38,500.602 C117.52,500.602 186.91,500.602 236.58,500.602 " fill="none" id="Process-LegalBasis" style="stroke:#181818;stroke-width:1.0;"/><polygon fill="#000000" points="119,491.455,109.9549,488.5161,109.9549,494.3939,119,491.455" style="stroke:#000000;stroke-width:1.0;"/><text fill="#000000" font-family="sans-serif" font-size="13" lengthAdjust="spacing" textLength="83" x="123" y="496.499">hasLegalBasis</text></g><!--reverse link LegalBasis to A9_2_a--><g id="link_LegalBasis_A9_2_a"><path codeLine="24" d="M355.5,497.602 C355.5,497.602 357.63,699.672 393,741.602 C410.79,762.682 442.86,769.942 465.01,772.402 " fill="none" id="LegalBasis-backto-A9_2_a" style="stroke:#181818;stroke-width:1.0;"/></g><!--reverse link LegalBasis to A9_2_b--><g id="link_LegalBasis_A9_2_b"><path codeLine="25" d="M355.5,497.602 C355.5,497.602 365.84,647.082 393,677.602 C411.22,698.072 442.88,705.482 464.84,708.142 " fill="none" id="LegalBasis-backto-A9_2_b" style="stroke:#181818;stroke-width:1.0;"/></g><!--reverse link LegalBasis to A9_2_c--><g id="link_LegalBasis_A9_2_c"><path codeLine="26" d="M355.5,497.602 C355.5,497.602 354.86,575.112 393,613.602 C412.41,633.192 444.12,640.792 465.74,643.732 " fill="none" id="LegalBasis-backto-A9_2_c" style="stroke:#181818;stroke-width:1.0;"/></g><!--reverse link LegalBasis to A9_2_d--><g id="link_LegalBasis_A9_2_d"><path codeLine="27" d="M355.5,497.602 C355.5,497.602 370.04,532.722 393,549.602 C414.37,565.312 443.93,573.622 464.59,577.802 " fill="none" id="LegalBasis-backto-A9_2_d" style="stroke:#181818;stroke-width:1.0;"/></g><!--reverse link LegalBasis to A9_2_e--><g id="link_LegalBasis_A9_2_e"><path codeLine="28" d="M355.5,497.602 C355.5,497.602 426.73,508.272 465.13,514.022 " fill="none" id="LegalBasis-backto-A9_2_e" style="stroke:#181818;stroke-width:1.0;"/></g><!--reverse link LegalBasis to A9_2_f--><g id="link_LegalBasis_A9_2_f"><path codeLine="29" d="M355.5,497.602 C355.5,497.602 428.65,473.492 466.66,460.962 " fill="none" id="LegalBasis-backto-A9_2_f" style="stroke:#181818;stroke-width:1.0;"/></g><!--reverse link LegalBasis to A9_2_g--><g id="link_LegalBasis_A9_2_g"><path codeLine="30" d="M355.5,497.602 C355.5,497.602 364.61,446.352 393,421.602 C413.26,403.942 443.59,395.962 464.72,392.392 " fill="none" id="LegalBasis-backto-A9_2_g" style="stroke:#181818;stroke-width:1.0;"/></g><!--reverse link LegalBasis to A9_2_h--><g id="link_LegalBasis_A9_2_h"><path codeLine="31" d="M355.5,497.602 C355.5,497.602 348.84,404.502 393,357.602 C411.67,337.782 442.92,330.232 464.68,327.362 " fill="none" id="LegalBasis-backto-A9_2_h" style="stroke:#181818;stroke-width:1.0;"/></g><!--reverse link LegalBasis to A9_2_i--><g id="link_LegalBasis_A9_2_i"><path codeLine="32" d="M355.5,497.602 C355.5,497.602 362.77,328.392 393,293.602 C411.67,272.122 445.15,265.012 467.23,262.692 " fill="none" id="LegalBasis-backto-A9_2_i" style="stroke:#181818;stroke-width:1.0;"/></g><!--reverse link LegalBasis to A9_2_j--><g id="link_LegalBasis_A9_2_j"><path codeLine="33" d="M355.5,497.602 C355.5,497.602 354.53,275.822 393,229.602 C411.2,207.722 444.81,200.722 467.04,198.532 " fill="none" id="LegalBasis-backto-A9_2_j" style="stroke:#181818;stroke-width:1.0;"/></g><!--SRC=[RT2nJiCm4CRncNkA8tioP2j2I6L3OkWRL1VxOZjr7Sjsa13mxXG1kbZoUF-VlNptBYY_QSPStZqFqLCeszL3lhXmeaHND6dTuakmd5oXe1X7y3mNB2icPsn1xHAhujO044bTo33g-8OVSASyvOodj2hE-VzyPKF-cRBByBN_CFWV67WRZ8v9lXyFv_5CI1cxuw4VU-egcKIcMfI8gaMBw5fOX6kPHUPQZ8YfnOhOMfo8gsKHMRhRGl0t7_RzRhe7j9Jbn2U0tVNuUNlykrixJ-sisbctCxVptCwcdMqxktPUu1i0]--></g></svg>