<svg xmlns="http://www.w3.org/2000/svg" xmlns:xlink="http://www.w3.org/1999/xlink" contentStyleType="text/css" height="391px" preserveAspectRatio="none" style="width:653px;height:391px;background:#FFFFFF;" version="1.1" viewBox="0 0 653 391" width="653px" zoomAndPan="magnify"><defs/><g><!--cluster dpv--><g id="cluster_dpv"><path d="M8.5,101 L35.8125,101 A3.75,3.75 0 0 1 38.3125,103.5 L45.3125,126.0679 L265.5,126.0679 A2.5,2.5 0 0 1 268,128.5679 L268,379.5 A2.5,2.5 0 0 1 265.5,382 L8.5,382 A2.5,2.5 0 0 1 6,379.5 L6,103.5 A2.5,2.5 0 0 1 8.5,101 " fill="none" style="stroke:#000000;stroke-width:1.5;"/><line style="stroke:#000000;stroke-width:1.5;" x1="6" x2="45.3125" y1="126.0679" y2="126.0679"/><text fill="#000000" font-family="sans-serif" font-size="14" font-weight="bold" lengthAdjust="spacing" textLength="26.3125" x="10" y="117.9659">dpv</text></g><!--class Entity--><g id="elem_Entity"><rect codeLine="7" fill="#F1F1F1" height="29.0679" id="Entity" rx="2.5" ry="2.5" style="stroke:#181818;stroke-width:0.5;" width="44" x="124" y="139"/><text fill="#000000" font-family="sans-serif" font-size="14" lengthAdjust="spacing" textLength="38" x="127" y="158.9659">Entity</text></g><!--class LegalEntity--><g id="elem_LegalEntity"><rect codeLine="8" fill="#F1F1F1" height="29.0679" id="LegalEntity" rx="2.5" ry="2.5" style="stroke:#181818;stroke-width:0.5;" width="80" x="172" y="229"/><text fill="#000000" font-family="sans-serif" font-size="14" lengthAdjust="spacing" textLength="74" x="175" y="248.9659">LegalEntity</text></g><!--class NaturalPerson--><g id="elem_NaturalPerson"><rect codeLine="9" fill="#F1F1F1" height="29.0679" id="NaturalPerson" rx="2.5" ry="2.5" style="stroke:#181818;stroke-width:0.5;" width="103" x="28.5" y="229"/><text fill="#000000" font-family="sans-serif" font-size="14" lengthAdjust="spacing" textLength="97" x="31.5" y="248.9659">NaturalPerson</text></g><!--class DataSubject--><g id="elem_DataSubject"><rect codeLine="10" fill="#F1F1F1" height="29.0679" id="DataSubject" rx="2.5" ry="2.5" style="stroke:#181818;stroke-width:0.5;" width="87" x="22.5" y="337"/><text fill="#000000" font-family="sans-serif" font-size="14" lengthAdjust="spacing" textLength="81" x="25.5" y="356.9659">DataSubject</text></g><!--class Representative--><g id="elem_Representative"><rect codeLine="11" fill="#F1F1F1" height="29.0679" id="Representative" rx="2.5" ry="2.5" style="stroke:#181818;stroke-width:0.5;" width="107" x="144.5" y="337"/><text fill="#000000" font-family="sans-serif" font-size="14" lengthAdjust="spacing" textLength="101" x="147.5" y="356.9659">Representative</text></g><!--class Thing--><g id="elem_Thing"><rect codeLine="4" fill="#C0C0C0" height="29.0679" id="Thing" rx="2.5" ry="2.5" style="stroke:#181818;stroke-width:0.5;" width="45" x="123.5" y="7"/><text fill="#000000" font-family="sans-serif" font-size="14" lengthAdjust="spacing" textLength="39" x="126.5" y="26.9659">Thing</text></g><!--entity Resource--><g id="elem_Resource"><ellipse cx="431" cy="351.5" fill="#F1F1F1" rx="8" ry="8" style="stroke:#181818;stroke-width:0.5;"/><text fill="#000000" font-family="sans-serif" font-size="14" lengthAdjust="spacing" textLength="62" x="400" y="383.4659">Resource</text></g><!--link Thing to Entity--><g id="link_Thing_Entity"><path codeLine="14" d="M146,36.41 C146,61.43 146,113.74 146,138.69 " fill="none" id="Thing-Entity" style="stroke:#181818;stroke-width:1.0;"/><polygon fill="#000000" points="151,80.853,153.9389,71.8079,148.0611,71.8079,151,80.853" style="stroke:#000000;stroke-width:1.0;"/><text fill="#000000" font-family="sans-serif" font-size="13" lengthAdjust="spacing" textLength="56" x="160" y="80.897">hasEntity</text></g><!--reverse link Entity to LegalEntity--><g id="link_Entity_LegalEntity"><path codeLine="15" d="M167.11,182.65 C179.44,199.09 189.15,212.04 201.54,228.56 " fill="none" id="Entity-backto-LegalEntity" style="stroke:#181818;stroke-width:1.0;"/><polygon fill="none" points="156.31,168.25,162.31,186.25,171.91,179.05,156.31,168.25" style="stroke:#181818;stroke-width:1.0;"/></g><!--link LegalEntity to Resource--><g id="link_LegalEntity_Resource"><path codeLine="17" d="M217.91,258.42 C224.74,272.79 237.35,294.79 255,307 C309.62,344.79 393.76,349.84 421.66,350.44 " fill="none" id="LegalEntity-Resource" style="stroke:#181818;stroke-width:1.0;"/><polygon fill="#000000" points="264.5568,299.911,257.5231,293.5096,255.1038,298.8665,264.5568,299.911" style="stroke:#000000;stroke-width:1.0;"/><text fill="#000000" font-family="sans-serif" font-size="13" lengthAdjust="spacing" textLength="57" x="269" y="302.897">hasName</text></g><!--link LegalEntity to Resource--><g id="link_LegalEntity_Resource"><path codeLine="18" d="M252.25,256.89 C275.72,264.68 305.6,275.59 331,288 C366.13,305.17 404.51,331.51 421.73,343.78 " fill="none" id="LegalEntity-Resource-1" style="stroke:#181818;stroke-width:1.0;"/><polygon fill="#000000" points="374.4493,300.1341,367.7412,293.3923,365.0596,298.6228,374.4493,300.1341" style="stroke:#000000;stroke-width:1.0;"/><text fill="#000000" font-family="sans-serif" font-size="13" lengthAdjust="spacing" textLength="68" x="379" y="302.897">hasContact</text></g><!--link LegalEntity to Resource--><g id="link_LegalEntity_Resource"><path codeLine="19" d="M252.43,245.73 C314.5,248.56 428.77,257.83 454,288 C467.65,304.32 449.8,329.47 438.67,342.32 " fill="none" id="LegalEntity-Resource-2" style="stroke:#181818;stroke-width:1.0;"/><polygon fill="#000000" points="467.4386,300.155,460.7622,293.3817,458.0561,298.5996,467.4386,300.155" style="stroke:#000000;stroke-width:1.0;"/><text fill="#000000" font-family="sans-serif" font-size="13" lengthAdjust="spacing" textLength="75" x="472" y="302.897">hasIdentifier</text></g><!--link LegalEntity to Resource--><g id="link_LegalEntity_Resource"><path codeLine="20" d="M252.3,246.65 C338.82,251.68 536.17,265.51 556,288 C591.14,327.86 474.68,345.26 440.28,349.46 " fill="none" id="LegalEntity-Resource-3" style="stroke:#181818;stroke-width:1.0;"/><polygon fill="#000000" points="571.3868,300.2522,564.8612,293.3335,562.0408,298.4905,571.3868,300.2522" style="stroke:#000000;stroke-width:1.0;"/><text fill="#000000" font-family="sans-serif" font-size="13" lengthAdjust="spacing" textLength="69" x="576" y="302.897">hasAddress</text></g><!--link LegalEntity to Representative--><g id="link_LegalEntity_Representative"><path codeLine="21" d="M171.63,252.63 C137.58,260.41 92.71,273.13 82,288 C77.07,294.85 77.19,300.06 82,307 C89.69,318.09 117.72,328.76 144.29,336.76 " fill="none" id="LegalEntity-Representative" style="stroke:#181818;stroke-width:1.0;"/><polygon fill="#000000" points="85.4547,302.6082,91.0452,294.9143,85.4551,293.0977,85.4547,302.6082" style="stroke:#000000;stroke-width:1.0;"/><text fill="#000000" font-family="sans-serif" font-size="13" lengthAdjust="spacing" textLength="118" x="96" y="302.897">hasRepresentataive</text></g><!--reverse link Entity to NaturalPerson--><g id="link_Entity_NaturalPerson"><path codeLine="23" d="M124.89,182.65 C112.56,199.09 102.85,212.04 90.46,228.56 " fill="none" id="Entity-backto-NaturalPerson" style="stroke:#181818;stroke-width:1.0;"/><polygon fill="none" points="135.69,168.25,120.09,179.05,129.69,186.25,135.69,168.25" style="stroke:#181818;stroke-width:1.0;"/></g><!--reverse link NaturalPerson to DataSubject--><g id="link_NaturalPerson_DataSubject"><path codeLine="24" d="M72.7477,275.6962 C70.8177,284.2262 72.44,277.92 71,288 C68.63,304.59 67.3,323.84 66.62,336.54 " fill="none" id="NaturalPerson-backto-DataSubject" style="stroke:#181818;stroke-width:1.0;"/><polygon fill="none" points="76.72,258.14,66.8956,274.3721,78.5998,277.0203,76.72,258.14" style="stroke:#181818;stroke-width:1.0;"/></g><!--SRC=[XP3HIWCn44MVdQ-OueFwq7v04K6i3uAKqle3OpBT7KspIp9PADL_DtPt8GjYtp8tvtBlp4oySSaoHZqwNhIElAQ3Wnl7UqLjC4XLAre9R5GQ3s0SnOXljVWAhwEuZWFStk6MOvE2OMZ9V5B5QDiEJt3LuyzUHO_ZzCeLkQcq9as1t8P3p263k2AbNNh_oD6ZjEKsS6IlfD8nV0FqJURp8ME9DSN-YGymFEw_yd-P2iNmwntRdzrhEd3s_eSyDRc1qGlKYyr5PIySBe2FrkQjubzKkUwPBIJAMlPCjfmUSZBrG7dK7m00]--></g></svg>