<svg xmlns="http://www.w3.org/2000/svg" xmlns:xlink="http://www.w3.org/1999/xlink" contentStyleType="text/css" height="435px" preserveAspectRatio="none" style="width:1539px;height:435px;background:#FFFFFF;" version="1.1" viewBox="0 0 1539 435" width="1539px" zoomAndPan="magnify"><defs/><g><rect fill="#F1F1F1" height="39.0679" rx="12.5" ry="12.5" style="stroke:#181818;stroke-width:1.5;" width="91" x="676" y="197.2038"/><text fill="#000000" font-family="sans-serif" font-size="14" lengthAdjust="spacing" textLength="71" x="686" y="222.1697">LegalBasis</text><rect fill="#F1F1F1" height="39.0679" rx="12.5" ry="12.5" style="stroke:#181818;stroke-width:1.5;" width="75" x="817" y="138.1358"/><text fill="#000000" font-family="sans-serif" font-size="14" lengthAdjust="spacing" textLength="55" x="827" y="163.1018">Consent</text><rect fill="#F1F1F1" height="39.0679" rx="12.5" ry="12.5" style="stroke:#181818;stroke-width:1.5;" width="138" x="942" y="108.6019"/><text fill="#000000" font-family="sans-serif" font-size="14" lengthAdjust="spacing" textLength="118" x="952" y="133.5678">InformedConsent</text><rect fill="#F1F1F1" height="39.0679" rx="12.5" ry="12.5" style="stroke:#181818;stroke-width:1.5;" width="144" x="1130" y="79.0679"/><text fill="#000000" font-family="sans-serif" font-size="14" lengthAdjust="spacing" textLength="124" x="1140" y="104.0339">ExpressedConsent</text><rect fill="#F1F1F1" height="39.0679" rx="12.5" ry="12.5" style="stroke:#181818;stroke-width:1.5;" width="203" x="1324" y="79.0679"/><text fill="#000000" font-family="sans-serif" font-size="14" lengthAdjust="spacing" textLength="183" x="1334" y="104.0339">ExplicitlyExpressedConsent</text><path d="M1274,98.6019 L1284,98.6019 C1299,98.6019 1299,98.6019 1314,98.6019 L1324,98.6019 " fill="none" style="stroke:#181818;stroke-width:1.0;"/><path d="M1080,128.1358 L1090,128.1358 C1105,128.1358 1105,98.6019 1120,98.6019 L1130,98.6019 " fill="none" style="stroke:#181818;stroke-width:1.0;"/><rect fill="#F1F1F1" height="39.0679" rx="12.5" ry="12.5" style="stroke:#181818;stroke-width:1.5;" width="127" x="1130" y="138.1358"/><text fill="#000000" font-family="sans-serif" font-size="14" lengthAdjust="spacing" textLength="107" x="1140" y="163.1018">ImpliedConsent</text><path d="M1080,128.1358 L1090,128.1358 C1105,128.1358 1105,157.6698 1120,157.6698 L1130,157.6698 " fill="none" style="stroke:#181818;stroke-width:1.0;"/><path d="M892,157.6698 L902,157.6698 C917,157.6698 917,128.1358 932,128.1358 L942,128.1358 " fill="none" style="stroke:#181818;stroke-width:1.0;"/><rect fill="#F1F1F1" height="39.0679" rx="12.5" ry="12.5" style="stroke:#181818;stroke-width:1.5;" width="156" x="942" y="197.2038"/><text fill="#000000" font-family="sans-serif" font-size="14" lengthAdjust="spacing" textLength="136" x="952" y="222.1697">UninformedConsent</text><path d="M892,157.6698 L902,157.6698 C917,157.6698 917,216.7377 932,216.7377 L942,216.7377 " fill="none" style="stroke:#181818;stroke-width:1.0;"/><path d="M767,216.7377 L777,216.7377 C792,216.7377 792,157.6698 807,157.6698 L817,157.6698 " fill="none" style="stroke:#181818;stroke-width:1.0;"/><rect fill="#F1F1F1" height="39.0679" rx="12.5" ry="12.5" style="stroke:#181818;stroke-width:1.5;" width="77" x="817" y="285.8056"/><text fill="#000000" font-family="sans-serif" font-size="14" lengthAdjust="spacing" textLength="57" x="827" y="310.7716">Contract</text><rect fill="#F1F1F1" height="39.0679" rx="12.5" ry="12.5" style="stroke:#181818;stroke-width:1.5;" width="140" x="944" y="256.2717"/><text fill="#000000" font-family="sans-serif" font-size="14" lengthAdjust="spacing" textLength="120" x="954" y="281.2376">EnterIntoContract</text><path d="M894,305.3396 L904,305.3396 C919,305.3396 919,275.8056 934,275.8056 L944,275.8056 " fill="none" style="stroke:#181818;stroke-width:1.0;"/><rect fill="#F1F1F1" height="39.0679" rx="12.5" ry="12.5" style="stroke:#181818;stroke-width:1.5;" width="163" x="944" y="315.3396"/><text fill="#000000" font-family="sans-serif" font-size="14" lengthAdjust="spacing" textLength="143" x="954" y="340.3055">ContractPerformance</text><path d="M894,305.3396 L904,305.3396 C919,305.3396 919,334.8735 934,334.8735 L944,334.8735 " fill="none" style="stroke:#181818;stroke-width:1.0;"/><path d="M767,216.7377 L777,216.7377 C792,216.7377 792,305.3396 807,305.3396 L817,305.3396 " fill="none" style="stroke:#181818;stroke-width:1.0;"/><rect fill="#F1F1F1" height="39.0679" rx="12.5" ry="12.5" style="stroke:#181818;stroke-width:1.5;" width="179" x="447" y="20"/><text fill="#000000" font-family="sans-serif" font-size="14" lengthAdjust="spacing" textLength="159" x="457" y="44.9659">DataTransferLegalBasis</text><path d="M676,216.7377 L666,216.7377 C651,216.7377 651,39.534 636,39.534 L626,39.534 " fill="none" style="stroke:#181818;stroke-width:1.0;"/><rect fill="#F1F1F1" height="39.0679" rx="12.5" ry="12.5" style="stroke:#181818;stroke-width:1.5;" width="127" x="499" y="79.0679"/><text fill="#000000" font-family="sans-serif" font-size="14" lengthAdjust="spacing" textLength="107" x="509" y="104.0339">LegalObligation</text><path d="M676,216.7377 L666,216.7377 C651,216.7377 651,98.6019 636,98.6019 L626,98.6019 " fill="none" style="stroke:#181818;stroke-width:1.0;"/><rect fill="#F1F1F1" height="39.0679" rx="12.5" ry="12.5" style="stroke:#181818;stroke-width:1.5;" width="144" x="482" y="138.1358"/><text fill="#000000" font-family="sans-serif" font-size="14" lengthAdjust="spacing" textLength="124" x="492" y="163.1018">LegitimateInterest</text><rect fill="#F1F1F1" height="39.0679" rx="12.5" ry="12.5" style="stroke:#181818;stroke-width:1.5;" width="227" x="205" y="79.0679"/><text fill="#000000" font-family="sans-serif" font-size="14" lengthAdjust="spacing" textLength="207" x="215" y="104.0339">LegitimateInterestOfController</text><path d="M482,157.6698 L472,157.6698 C457,157.6698 457,98.6019 442,98.6019 L432,98.6019 " fill="none" style="stroke:#181818;stroke-width:1.0;"/><rect fill="#F1F1F1" height="39.0679" rx="12.5" ry="12.5" style="stroke:#181818;stroke-width:1.5;" width="241" x="191" y="138.1358"/><text fill="#000000" font-family="sans-serif" font-size="14" lengthAdjust="spacing" textLength="221" x="201" y="163.1018">LegitimateInterestOfDataSubject</text><path d="M482,157.6698 L472,157.6698 C457,157.6698 457,157.6698 442,157.6698 L432,157.6698 " fill="none" style="stroke:#181818;stroke-width:1.0;"/><rect fill="#F1F1F1" height="39.0679" rx="12.5" ry="12.5" style="stroke:#181818;stroke-width:1.5;" width="230" x="202" y="197.2038"/><text fill="#000000" font-family="sans-serif" font-size="14" lengthAdjust="spacing" textLength="210" x="212" y="222.1697">LegitimateInterestOfThirdParty</text><path d="M482,157.6698 L472,157.6698 C457,157.6698 457,216.7377 442,216.7377 L432,216.7377 " fill="none" style="stroke:#181818;stroke-width:1.0;"/><path d="M676,216.7377 L666,216.7377 C651,216.7377 651,157.6698 636,157.6698 L626,157.6698 " fill="none" style="stroke:#181818;stroke-width:1.0;"/><rect fill="#F1F1F1" height="39.0679" rx="12.5" ry="12.5" style="stroke:#181818;stroke-width:1.5;" width="213" x="413" y="256.2717"/><text fill="#000000" font-family="sans-serif" font-size="14" lengthAdjust="spacing" textLength="193" x="423" y="281.2376">OfficialAuthorityOfController</text><path d="M676,216.7377 L666,216.7377 C651,216.7377 651,275.8056 636,275.8056 L626,275.8056 " fill="none" style="stroke:#181818;stroke-width:1.0;"/><rect fill="#F1F1F1" height="39.0679" rx="12.5" ry="12.5" style="stroke:#181818;stroke-width:1.5;" width="114" x="512" y="315.3396"/><text fill="#000000" font-family="sans-serif" font-size="14" lengthAdjust="spacing" textLength="94" x="522" y="340.3055">PublicInterest</text><path d="M676,216.7377 L666,216.7377 C651,216.7377 651,334.8735 636,334.8735 L626,334.8735 " fill="none" style="stroke:#181818;stroke-width:1.0;"/><rect fill="#F1F1F1" height="39.0679" rx="12.5" ry="12.5" style="stroke:#181818;stroke-width:1.5;" width="102" x="524" y="374.4075"/><text fill="#000000" font-family="sans-serif" font-size="14" lengthAdjust="spacing" textLength="82" x="534" y="399.3734">VitalInterest</text><rect fill="#F1F1F1" height="39.0679" rx="12.5" ry="12.5" style="stroke:#181818;stroke-width:1.5;" width="215" x="259" y="374.4075"/><text fill="#000000" font-family="sans-serif" font-size="14" lengthAdjust="spacing" textLength="195" x="269" y="399.3734">VitalInterestOfNaturalPerson</text><rect fill="#F1F1F1" height="39.0679" rx="12.5" ry="12.5" style="stroke:#181818;stroke-width:1.5;" width="199" x="10" y="374.4075"/><text fill="#000000" font-family="sans-serif" font-size="14" lengthAdjust="spacing" textLength="179" x="20" y="399.3734">VitalInterestOfDataSubject</text><path d="M259,393.9415 L249,393.9415 C234,393.9415 234,393.9415 219,393.9415 L209,393.9415 " fill="none" style="stroke:#181818;stroke-width:1.0;"/><path d="M524,393.9415 L514,393.9415 C499,393.9415 499,393.9415 484,393.9415 L474,393.9415 " fill="none" style="stroke:#181818;stroke-width:1.0;"/><path d="M676,216.7377 L666,216.7377 C651,216.7377 651,393.9415 636,393.9415 L626,393.9415 " fill="none" style="stroke:#181818;stroke-width:1.0;"/><!--SRC=[xLJ1Rk8m4BtxAsPlhIBGWafLSM8BT0KBIxG1xaCo2LCv3hB7QFFtwwH59Tls3thpl9dnUvvvyiG9MYdPP2MUr3SsgVOPWPDQK_-aqOWljL8HhAX0_OYEdOeYc5R6aP5mZ61XyigMb5rX4Sp_dYmvrqLRM7FAekiF2s1HXdm7WvtXTmGDlrXCNohcHiWkZ5GTz1B4P9jsD2cfNWzcABYrQ5nEzkfD8TD6cuFc0eKhymgnS8b2YuQ3d0Jq8tYJjtILrcG_BMce4tzuflJpQxP7jbaSLb8t_9iy3zD2_SFBiR8izNyy4FkWDxqI1tiMr1sr7MIJ_qRn5dKOYsiV-RxYMgUQKB36gptKfEEM8mUdv4mwSo_daeBCIv2oJJKvzMMUB_EqvecRtsItNi4vT8SPmQ0__3wywuzk4czWZJKCxs4m60z6uz43JEV95fhyhRhv6Q_0LTwc11axiNpmpP1lrHBF27-y2OEWCMnEP9QpNnSWhFRCjZ9bi_RbVlrMS7_NUsI1X6oG0lkrcb6ENaleIAkCJJ66tVQfzw1MQ0gFHRYRZ9fMuLvRXrpo3m00]--></g></svg>