<svg xmlns="http://www.w3.org/2000/svg" xmlns:xlink="http://www.w3.org/1999/xlink" contentStyleType="text/css" height="289px" preserveAspectRatio="none" style="width:539px;height:289px;background:#FFFFFF;" version="1.1" viewBox="0 0 539 289" width="539px" zoomAndPan="magnify"><defs/><g><!--cluster dpv--><g id="cluster_dpv"><path d="M183.5,6.602 L210.8125,6.602 A3.75,3.75 0 0 1 213.3125,9.102 L220.3125,31.6699 L529.5,31.6699 A2.5,2.5 0 0 1 532,34.1699 L532,280.102 A2.5,2.5 0 0 1 529.5,282.602 L183.5,282.602 A2.5,2.5 0 0 1 181,280.102 L181,9.102 A2.5,2.5 0 0 1 183.5,6.602 " fill="none" style="stroke:#000000;stroke-width:1.5;"/><line style="stroke:#000000;stroke-width:1.5;" x1="181" x2="220.3125" y1="31.6699" y2="31.6699"/><text fill="#000000" font-family="sans-serif" font-size="14" font-weight="bold" lengthAdjust="spacing" textLength="26.3125" x="185" y="23.5679">dpv</text></g><!--class StorageDuration--><g id="elem_StorageDuration"><rect codeLine="6" fill="#F1F1F1" height="29.0679" id="StorageDuration" rx="2.5" ry="2.5" style="stroke:#181818;stroke-width:0.5;" width="117" x="390" y="173.102"/><text fill="#000000" font-family="sans-serif" font-size="14" lengthAdjust="spacing" textLength="111" x="393" y="193.0679">StorageDuration</text></g><!--class StorageLocation--><g id="elem_StorageLocation"><rect codeLine="7" fill="#F1F1F1" height="29.0679" id="StorageLocation" rx="2.5" ry="2.5" style="stroke:#181818;stroke-width:0.5;" width="114" x="391.5" y="237.102"/><text fill="#000000" font-family="sans-serif" font-size="14" lengthAdjust="spacing" textLength="108" x="394.5" y="257.0679">StorageLocation</text></g><!--class StorageDeletion--><g id="elem_StorageDeletion"><rect codeLine="8" fill="#F1F1F1" height="29.0679" id="StorageDeletion" rx="2.5" ry="2.5" style="stroke:#181818;stroke-width:0.5;" width="114" x="391.5" y="109.102"/><text fill="#000000" font-family="sans-serif" font-size="14" lengthAdjust="spacing" textLength="108" x="394.5" y="129.0679">StorageDeletion</text></g><!--class StorageRestoration--><g id="elem_StorageRestoration"><rect codeLine="9" fill="#F1F1F1" height="29.0679" id="StorageRestoration" rx="2.5" ry="2.5" style="stroke:#181818;stroke-width:0.5;" width="135" x="381" y="45.102"/><text fill="#000000" font-family="sans-serif" font-size="14" lengthAdjust="spacing" textLength="129" x="384" y="65.0679">StorageRestoration</text></g><!--class StorageCondition--><g id="elem_StorageCondition"><rect codeLine="10" fill="#F1F1F1" height="29.0679" id="StorageCondition" rx="2.5" ry="2.5" style="stroke:#181818;stroke-width:0.5;" width="123" x="197" y="106.102"/><text fill="#000000" font-family="sans-serif" font-size="14" lengthAdjust="spacing" textLength="117" x="200" y="126.0679">StorageCondition</text></g><!--class Thing--><g id="elem_Thing"><rect codeLine="4" fill="#C0C0C0" height="29.0679" id="Thing" rx="2.5" ry="2.5" style="stroke:#181818;stroke-width:0.5;" width="45" x="7" y="175.102"/><text fill="#000000" font-family="sans-serif" font-size="14" lengthAdjust="spacing" textLength="39" x="10" y="195.0679">Thing</text></g><!--link Thing to StorageCondition--><g id="link_Thing_StorageCondition"><path codeLine="12" d="M52.43,178.292 C61.43,173.932 72.06,169.162 82,165.602 C119.32,152.252 162.41,141.142 196.56,133.302 " fill="none" id="Thing-StorageCondition" style="stroke:#181818;stroke-width:1.0;"/><polygon fill="#000000" points="91.7729,130.9651,82.263,130.8549,84.0144,136.4657,91.7729,130.9651" style="stroke:#000000;stroke-width:1.0;"/><text fill="#000000" font-family="sans-serif" font-size="13" lengthAdjust="spacing" textLength="68" x="96" y="137.499">hasStorage</text></g><!--link Thing to StorageDuration--><g id="link_Thing_StorageDuration"><path codeLine="13" d="M52.33,189.502 C114.84,189.202 296,188.332 389.76,187.882 " fill="none" id="Thing-StorageDuration" style="stroke:#181818;stroke-width:1.0;"/><polygon fill="#000000" points="223.9999,179.431,214.9409,176.5355,214.9691,182.4133,223.9999,179.431" style="stroke:#000000;stroke-width:1.0;"/><text fill="#000000" font-family="sans-serif" font-size="13" lengthAdjust="spacing" textLength="74" x="228" y="184.499">hasDuration</text></g><!--link Thing to StorageLocation--><g id="link_Thing_StorageLocation"><path codeLine="14" d="M52.16,194.132 C80.02,199.852 129.98,209.792 173,216.602 C248.21,228.512 335.51,239.092 391.11,245.422 " fill="none" id="Thing-StorageLocation" style="stroke:#181818;stroke-width:1.0;"/><polygon fill="#000000" points="224.4437,208.2031,215.9402,203.9439,215.0607,209.7556,224.4437,208.2031" style="stroke:#000000;stroke-width:1.0;"/><text fill="#000000" font-family="sans-serif" font-size="13" lengthAdjust="spacing" textLength="73" x="228.5" y="212.499">hasLocation</text></g><!--reverse link StorageCondition to StorageDuration--><g id="link_StorageCondition_StorageDuration"><path codeLine="16" d="M337.5416,136.9016 C347.9716,139.5116 341.15,138.172 351,141.602 C352.73,142.202 388.85,159.472 416.4,172.682 " fill="none" id="StorageCondition-backto-StorageDuration" style="stroke:#181818;stroke-width:1.0;"/><polygon fill="none" points="320.08,132.532,336.0851,142.7221,338.9981,131.081,320.08,132.532" style="stroke:#181818;stroke-width:1.0;"/></g><!--reverse link StorageCondition to StorageLocation--><g id="link_StorageCondition_StorageLocation"><path codeLine="17" d="M297.7229,145.6076 C309.2229,153.2976 308.16,153.042 320,162.602 C348.87,185.912 350.38,198.652 381,219.602 C390.41,226.042 401.32,231.872 411.54,236.732 " fill="none" id="StorageCondition-backto-StorageLocation" style="stroke:#181818;stroke-width:1.0;"/><polygon fill="none" points="282.76,135.602,294.3877,150.5952,301.0581,140.62,282.76,135.602" style="stroke:#181818;stroke-width:1.0;"/></g><!--reverse link StorageCondition to StorageDeletion--><g id="link_StorageCondition_StorageDeletion"><path codeLine="18" d="M338.2777,121.8569 C361.0177,122.2169 368.74,122.342 391.08,122.702 " fill="none" id="StorageCondition-backto-StorageDeletion" style="stroke:#181818;stroke-width:1.0;"/><polygon fill="none" points="320.28,121.572,338.1828,127.8562,338.3727,115.8577,320.28,121.572" style="stroke:#181818;stroke-width:1.0;"/></g><!--reverse link StorageCondition to StorageRestoration--><g id="link_StorageCondition_StorageRestoration"><path codeLine="19" d="M322.6099,100.1223 C351.7399,90.6623 372.17,84.042 401.33,74.582 " fill="none" id="StorageCondition-backto-StorageRestoration" style="stroke:#181818;stroke-width:1.0;"/><polygon fill="none" points="305.49,105.682,324.4631,105.8289,320.7566,94.4157,305.49,105.682" style="stroke:#181818;stroke-width:1.0;"/></g><!--SRC=[VP313i8W38RFzYbgFEi36EF57JsfBq2WRiGA2x0bHdrt9vD5PTcDVlrect-kZUH64VfmOrhLB4nehWnCvu31ejDb5L1fHp9eQm0a2-_nL6bJui9hRib1BUH5b8IgRl4Eiruv1kiwM3HEn9-_U6_b62w8QGGVoByV8vsTDKf7_eJ-gEKowwsn4lu3SPjvwKICtb3bOZewUgdeFFXVY9j7FdxQ6WAPdfNocRI-ute1]--></g></svg>