<svg xmlns="http://www.w3.org/2000/svg" xmlns:xlink="http://www.w3.org/1999/xlink" contentStyleType="text/css" height="730px" preserveAspectRatio="none" style="width:907px;height:730px;background:#FFFFFF;" version="1.1" viewBox="0 0 907 730" width="907px" zoomAndPan="magnify"><defs/><g><rect fill="#F1F1F1" height="39.0679" rx="12.5" ry="12.5" style="stroke:#181818;stroke-width:1.5;" width="51" x="402" y="344.8735"/><text fill="#000000" font-family="sans-serif" font-size="14" lengthAdjust="spacing" textLength="31" x="412" y="369.8395">Data</text><rect fill="#F1F1F1" height="39.0679" rx="12.5" ry="12.5" style="stroke:#181818;stroke-width:1.5;" width="113" x="503" y="49.534"/><text fill="#000000" font-family="sans-serif" font-size="14" lengthAdjust="spacing" textLength="93" x="513" y="74.4999">CollectedData</text><rect fill="#F1F1F1" height="39.0679" rx="12.5" ry="12.5" style="stroke:#181818;stroke-width:1.5;" width="116" x="666" y="20"/><text fill="#000000" font-family="sans-serif" font-size="14" lengthAdjust="spacing" textLength="96" x="676" y="44.9659">ObservedData</text><path d="M616,69.0679 L626,69.0679 C641,69.0679 641,39.534 656,39.534 L666,39.534 " fill="none" style="stroke:#181818;stroke-width:1.0;"/><rect fill="#F1F1F1" height="39.0679" rx="12.5" ry="12.5" style="stroke:#181818;stroke-width:1.5;" width="110" x="666" y="79.0679"/><text fill="#000000" font-family="sans-serif" font-size="14" lengthAdjust="spacing" textLength="90" x="676" y="104.0339">ProvidedData</text><path d="M616,69.0679 L626,69.0679 C641,69.0679 641,98.6019 656,98.6019 L666,98.6019 " fill="none" style="stroke:#181818;stroke-width:1.0;"/><path d="M453,364.4075 L463,364.4075 C478,364.4075 478,69.0679 493,69.0679 L503,69.0679 " fill="none" style="stroke:#181818;stroke-width:1.0;"/><rect fill="#F1F1F1" height="39.0679" rx="12.5" ry="12.5" style="stroke:#181818;stroke-width:1.5;" width="224" x="503" y="138.1358"/><text fill="#000000" font-family="sans-serif" font-size="14" lengthAdjust="spacing" textLength="204" x="513" y="163.1018">CommerciallyConfidentialData</text><path d="M453,364.4075 L463,364.4075 C478,364.4075 478,157.6698 493,157.6698 L503,157.6698 " fill="none" style="stroke:#181818;stroke-width:1.0;"/><rect fill="#F1F1F1" height="39.0679" rx="12.5" ry="12.5" style="stroke:#181818;stroke-width:1.5;" width="133" x="503" y="226.7377"/><text fill="#000000" font-family="sans-serif" font-size="14" lengthAdjust="spacing" textLength="113" x="513" y="251.7036">ConfidentialData</text><rect fill="#F1F1F1" height="39.0679" rx="12.5" ry="12.5" style="stroke:#181818;stroke-width:1.5;" width="184" x="686" y="197.2038"/><text fill="#000000" font-family="sans-serif" font-size="14" lengthAdjust="spacing" textLength="164" x="696" y="222.1697">IntellectualPropertyData</text><path d="M636,246.2717 L646,246.2717 C661,246.2717 661,216.7377 676,216.7377 L686,216.7377 " fill="none" style="stroke:#181818;stroke-width:1.0;"/><rect fill="#F1F1F1" height="39.0679" rx="12.5" ry="12.5" style="stroke:#181818;stroke-width:1.5;" width="209" x="686" y="256.2717"/><text fill="#000000" font-family="sans-serif" font-size="14" lengthAdjust="spacing" textLength="189" x="696" y="281.2376">StatisticallyConfidentialData</text><path d="M636,246.2717 L646,246.2717 C661,246.2717 661,275.8056 676,275.8056 L686,275.8056 " fill="none" style="stroke:#181818;stroke-width:1.0;"/><path d="M453,364.4075 L463,364.4075 C478,364.4075 478,246.2717 493,246.2717 L503,246.2717 " fill="none" style="stroke:#181818;stroke-width:1.0;"/><rect fill="#F1F1F1" height="39.0679" rx="12.5" ry="12.5" style="stroke:#181818;stroke-width:1.5;" width="103" x="503" y="315.3396"/><text fill="#000000" font-family="sans-serif" font-size="14" lengthAdjust="spacing" textLength="83" x="513" y="340.3055">DerivedData</text><rect fill="#F1F1F1" height="39.0679" rx="12.5" ry="12.5" style="stroke:#181818;stroke-width:1.5;" width="107" x="656" y="315.3396"/><text fill="#000000" font-family="sans-serif" font-size="14" lengthAdjust="spacing" textLength="87" x="666" y="340.3055">InferredData</text><path d="M606,334.8735 L616,334.8735 C631,334.8735 631,334.8735 646,334.8735 L656,334.8735 " fill="none" style="stroke:#181818;stroke-width:1.0;"/><path d="M453,364.4075 L463,364.4075 C478,364.4075 478,334.8735 493,334.8735 L503,334.8735 " fill="none" style="stroke:#181818;stroke-width:1.0;"/><rect fill="#F1F1F1" height="39.0679" rx="12.5" ry="12.5" style="stroke:#181818;stroke-width:1.5;" width="122" x="503" y="374.4075"/><text fill="#000000" font-family="sans-serif" font-size="14" lengthAdjust="spacing" textLength="102" x="513" y="399.3734">GeneratedData</text><rect fill="#F1F1F1" height="39.0679" rx="12.5" ry="12.5" style="stroke:#181818;stroke-width:1.5;" width="113" x="675" y="374.4075"/><text fill="#000000" font-family="sans-serif" font-size="14" lengthAdjust="spacing" textLength="93" x="685" y="399.3734">SyntheticData</text><path d="M625,393.9415 L635,393.9415 C650,393.9415 650,393.9415 665,393.9415 L675,393.9415 " fill="none" style="stroke:#181818;stroke-width:1.0;"/><path d="M453,364.4075 L463,364.4075 C478,364.4075 478,393.9415 493,393.9415 L503,393.9415 " fill="none" style="stroke:#181818;stroke-width:1.0;"/><rect fill="#F1F1F1" height="39.0679" rx="12.5" ry="12.5" style="stroke:#181818;stroke-width:1.5;" width="112" x="503" y="433.4754"/><text fill="#000000" font-family="sans-serif" font-size="14" lengthAdjust="spacing" textLength="92" x="513" y="458.4414">IncorrectData</text><path d="M453,364.4075 L463,364.4075 C478,364.4075 478,453.0094 493,453.0094 L503,453.0094 " fill="none" style="stroke:#181818;stroke-width:1.0;"/><rect fill="#F1F1F1" height="39.0679" rx="12.5" ry="12.5" style="stroke:#181818;stroke-width:1.5;" width="137" x="503" y="492.5433"/><text fill="#000000" font-family="sans-serif" font-size="14" lengthAdjust="spacing" textLength="117" x="513" y="517.5093">NonPersonalData</text><rect fill="#F1F1F1" height="39.0679" rx="12.5" ry="12.5" style="stroke:#181818;stroke-width:1.5;" width="134" x="690" y="492.5433"/><text fill="#000000" font-family="sans-serif" font-size="14" lengthAdjust="spacing" textLength="114" x="700" y="517.5093">AnonymisedData</text><path d="M640,512.0773 L650,512.0773 C665,512.0773 665,512.0773 680,512.0773 L690,512.0773 " fill="none" style="stroke:#181818;stroke-width:1.0;"/><path d="M453,364.4075 L463,364.4075 C478,364.4075 478,512.0773 493,512.0773 L503,512.0773 " fill="none" style="stroke:#181818;stroke-width:1.0;"/><rect fill="#F1F1F1" height="39.0679" rx="12.5" ry="12.5" style="stroke:#181818;stroke-width:1.5;" width="111" x="503" y="551.6113"/><text fill="#000000" font-family="sans-serif" font-size="14" lengthAdjust="spacing" textLength="91" x="513" y="576.5772">SensitiveData</text><rect fill="#F1F1F1" height="39.0679" rx="12.5" ry="12.5" style="stroke:#181818;stroke-width:1.5;" width="197" x="664" y="551.6113"/><text fill="#000000" font-family="sans-serif" font-size="14" lengthAdjust="spacing" textLength="177" x="674" y="576.5772">SensitiveNonPersonalData</text><path d="M614,571.1452 L624,571.1452 C639,571.1452 639,571.1452 654,571.1452 L664,571.1452 " fill="none" style="stroke:#181818;stroke-width:1.0;"/><path d="M453,364.4075 L463,364.4075 C478,364.4075 478,571.1452 493,571.1452 L503,571.1452 " fill="none" style="stroke:#181818;stroke-width:1.0;"/><rect fill="#F1F1F1" height="39.0679" rx="12.5" ry="12.5" style="stroke:#181818;stroke-width:1.5;" width="121" x="503" y="610.6792"/><text fill="#000000" font-family="sans-serif" font-size="14" lengthAdjust="spacing" textLength="101" x="513" y="635.6451">UnverifiedData</text><path d="M453,364.4075 L463,364.4075 C478,364.4075 478,630.2131 493,630.2131 L503,630.2131 " fill="none" style="stroke:#181818;stroke-width:1.0;"/><rect fill="#F1F1F1" height="39.0679" rx="12.5" ry="12.5" style="stroke:#181818;stroke-width:1.5;" width="103" x="503" y="669.7471"/><text fill="#000000" font-family="sans-serif" font-size="14" lengthAdjust="spacing" textLength="83" x="513" y="694.713">VerifiedData</text><path d="M453,364.4075 L463,364.4075 C478,364.4075 478,689.281 493,689.281 L503,689.281 " fill="none" style="stroke:#181818;stroke-width:1.0;"/><rect fill="#F1F1F1" height="39.0679" rx="12.5" ry="12.5" style="stroke:#181818;stroke-width:1.5;" width="109" x="243" y="344.8735"/><text fill="#000000" font-family="sans-serif" font-size="14" lengthAdjust="spacing" textLength="89" x="253" y="369.8395">PersonalData</text><rect fill="#F1F1F1" height="39.0679" rx="12.5" ry="12.5" style="stroke:#181818;stroke-width:1.5;" width="171" x="22" y="197.2038"/><text fill="#000000" font-family="sans-serif" font-size="14" lengthAdjust="spacing" textLength="151" x="32" y="222.1697">CollectedPersonalData</text><path d="M243,364.4075 L233,364.4075 C218,364.4075 218,216.7377 203,216.7377 L193,216.7377 " fill="none" style="stroke:#181818;stroke-width:1.0;"/><rect fill="#F1F1F1" height="39.0679" rx="12.5" ry="12.5" style="stroke:#181818;stroke-width:1.5;" width="161" x="32" y="256.2717"/><text fill="#000000" font-family="sans-serif" font-size="14" lengthAdjust="spacing" textLength="141" x="42" y="281.2376">DerivedPersonalData</text><path d="M243,364.4075 L233,364.4075 C218,364.4075 218,275.8056 203,275.8056 L193,275.8056 " fill="none" style="stroke:#181818;stroke-width:1.0;"/><rect fill="#F1F1F1" height="39.0679" rx="12.5" ry="12.5" style="stroke:#181818;stroke-width:1.5;" width="180" x="13" y="315.3396"/><text fill="#000000" font-family="sans-serif" font-size="14" lengthAdjust="spacing" textLength="160" x="23" y="340.3055">GeneratedPersonalData</text><path d="M243,364.4075 L233,364.4075 C218,364.4075 218,334.8735 203,334.8735 L193,334.8735 " fill="none" style="stroke:#181818;stroke-width:1.0;"/><rect fill="#F1F1F1" height="39.0679" rx="12.5" ry="12.5" style="stroke:#181818;stroke-width:1.5;" width="183" x="10" y="374.4075"/><text fill="#000000" font-family="sans-serif" font-size="14" lengthAdjust="spacing" textLength="163" x="20" y="399.3734">IdentifyingPersonalData</text><path d="M243,364.4075 L233,364.4075 C218,364.4075 218,393.9415 203,393.9415 L193,393.9415 " fill="none" style="stroke:#181818;stroke-width:1.0;"/><rect fill="#F1F1F1" height="39.0679" rx="12.5" ry="12.5" style="stroke:#181818;stroke-width:1.5;" width="157" x="36" y="433.4754"/><text fill="#000000" font-family="sans-serif" font-size="14" lengthAdjust="spacing" textLength="137" x="46" y="458.4414">PseudonymisedData</text><path d="M243,364.4075 L233,364.4075 C218,364.4075 218,453.0094 203,453.0094 L193,453.0094 " fill="none" style="stroke:#181818;stroke-width:1.0;"/><rect fill="#F1F1F1" height="39.0679" rx="12.5" ry="12.5" style="stroke:#181818;stroke-width:1.5;" width="169" x="24" y="492.5433"/><text fill="#000000" font-family="sans-serif" font-size="14" lengthAdjust="spacing" textLength="149" x="34" y="517.5093">SensitivePersonalData</text><path d="M243,364.4075 L233,364.4075 C218,364.4075 218,512.0773 203,512.0773 L193,512.0773 " fill="none" style="stroke:#181818;stroke-width:1.0;"/><path d="M402,364.4075 L392,364.4075 C377,364.4075 377,364.4075 362,364.4075 L352,364.4075 " fill="none" style="stroke:#181818;stroke-width:1.0;"/><!--SRC=[xLHDRzf04BtlhvZU4bb61OKeuaGBQGI5nge3zyrw32kjPz5-MFA_xv22RMJrq7jkdlTctixRVVBS1-b2fQcev4byqQHCB11yQ0oEJaPIY9KH8e6b358a2IoiCQW25XSWWTTtZwxk0PcpjIvQW4Ug2ftIqfXcOQbaZW9N7J_04bXHm8-JeZGiU48NcfRCWmpQ1wt-9Rb4f_ihhQX4vxgLNf3GoRwBlA5mH9Qyjgn8MHvHuGhyifIXyvPwMtuZIqsbVQUS8taT-F1E-OeC1M17DMzQwcv-tw_J56ucKWRQ1nWm5zC3l3KxO5OVrrOscWu3BlCOYnjtPxGrSzClviW1keH8p6yoTUIt0NPa2l_tky9mjDT2QQSCUl4PiS-8_KV4ilEVQRVT07lpsXACHvElauVHz2wF15lPmEGHnkFPU3gRFi7YEN-3Ctylxbwo3NWRdK8e-7sTVe-11Ux5MjOIVaTUji8Pl9wGrikVLm2UgTREKiLcn7g_xHeU7zBlEl3Id4y7-wrOOYcZ2JoXRC6kPx1x-v4-YOsaGvG7raOI2ykwhc4k_mC0]--></g></svg>