<svg xmlns="http://www.w3.org/2000/svg" xmlns:xlink="http://www.w3.org/1999/xlink" contentStyleType="text/css" height="553px" preserveAspectRatio="none" style="width:638px;height:553px;background:#FFFFFF;" version="1.1" viewBox="0 0 638 553" width="638px" zoomAndPan="magnify"><defs/><g><rect fill="#F1F1F1" height="39.0679" rx="12.5" ry="12.5" style="stroke:#181818;stroke-width:1.5;" width="75" x="258" y="256.2717"/><text fill="#000000" font-family="sans-serif" font-size="14" lengthAdjust="spacing" textLength="55" x="268" y="281.2376">Purpose</text><rect fill="#F1F1F1" height="39.0679" rx="12.5" ry="12.5" style="stroke:#181818;stroke-width:1.5;" width="164" x="383" y="20"/><text fill="#000000" font-family="sans-serif" font-size="14" lengthAdjust="spacing" textLength="144" x="393" y="44.9659">AccountManagement</text><path d="M333,275.8056 L343,275.8056 C358,275.8056 358,39.534 373,39.534 L383,39.534 " fill="none" style="stroke:#181818;stroke-width:1.0;"/><rect fill="#F1F1F1" height="39.0679" rx="12.5" ry="12.5" style="stroke:#181818;stroke-width:1.5;" width="155" x="383" y="79.0679"/><text fill="#000000" font-family="sans-serif" font-size="14" lengthAdjust="spacing" textLength="135" x="393" y="104.0339">CommercialPurpose</text><path d="M333,275.8056 L343,275.8056 C358,275.8056 358,98.6019 373,98.6019 L383,98.6019 " fill="none" style="stroke:#181818;stroke-width:1.0;"/><rect fill="#F1F1F1" height="39.0679" rx="12.5" ry="12.5" style="stroke:#181818;stroke-width:1.5;" width="216" x="383" y="138.1358"/><text fill="#000000" font-family="sans-serif" font-size="14" lengthAdjust="spacing" textLength="196" x="393" y="163.1018">CommunicationManagement</text><path d="M333,275.8056 L343,275.8056 C358,275.8056 358,157.6698 373,157.6698 L383,157.6698 " fill="none" style="stroke:#181818;stroke-width:1.0;"/><rect fill="#F1F1F1" height="39.0679" rx="12.5" ry="12.5" style="stroke:#181818;stroke-width:1.5;" width="243" x="383" y="197.2038"/><text fill="#000000" font-family="sans-serif" font-size="14" lengthAdjust="spacing" textLength="223" x="393" y="222.1697">CommunicationForCustomerCare</text><path d="M333,275.8056 L343,275.8056 C358,275.8056 358,216.7377 373,216.7377 L383,216.7377 " fill="none" style="stroke:#181818;stroke-width:1.0;"/><rect fill="#F1F1F1" height="39.0679" rx="12.5" ry="12.5" style="stroke:#181818;stroke-width:1.5;" width="175" x="383" y="256.2717"/><text fill="#000000" font-family="sans-serif" font-size="14" lengthAdjust="spacing" textLength="155" x="393" y="281.2376">CustomerManagement</text><path d="M333,275.8056 L343,275.8056 C358,275.8056 358,275.8056 373,275.8056 L383,275.8056 " fill="none" style="stroke:#181818;stroke-width:1.0;"/><rect fill="#F1F1F1" height="39.0679" rx="12.5" ry="12.5" style="stroke:#181818;stroke-width:1.5;" width="125" x="383" y="315.3396"/><text fill="#000000" font-family="sans-serif" font-size="14" lengthAdjust="spacing" textLength="105" x="393" y="340.3055">EnforceSecurity</text><path d="M333,275.8056 L343,275.8056 C358,275.8056 358,334.8735 373,334.8735 L383,334.8735 " fill="none" style="stroke:#181818;stroke-width:1.0;"/><rect fill="#F1F1F1" height="39.0679" rx="12.5" ry="12.5" style="stroke:#181818;stroke-width:1.5;" width="234" x="383" y="374.4075"/><text fill="#000000" font-family="sans-serif" font-size="14" lengthAdjust="spacing" textLength="214" x="393" y="399.3734">EstablishContractualAgreement</text><path d="M333,275.8056 L343,275.8056 C358,275.8056 358,393.9415 373,393.9415 L383,393.9415 " fill="none" style="stroke:#181818;stroke-width:1.0;"/><rect fill="#F1F1F1" height="39.0679" rx="12.5" ry="12.5" style="stroke:#181818;stroke-width:1.5;" width="175" x="383" y="433.4754"/><text fill="#000000" font-family="sans-serif" font-size="14" lengthAdjust="spacing" textLength="155" x="393" y="458.4414">FulfilmentOfObligation</text><path d="M333,275.8056 L343,275.8056 C358,275.8056 358,453.0094 373,453.0094 L383,453.0094 " fill="none" style="stroke:#181818;stroke-width:1.0;"/><rect fill="#F1F1F1" height="39.0679" rx="12.5" ry="12.5" style="stroke:#181818;stroke-width:1.5;" width="221" x="383" y="492.5433"/><text fill="#000000" font-family="sans-serif" font-size="14" lengthAdjust="spacing" textLength="201" x="393" y="517.5093">HumanResourceManagement</text><path d="M333,275.8056 L343,275.8056 C358,275.8056 358,512.0773 373,512.0773 L383,512.0773 " fill="none" style="stroke:#181818;stroke-width:1.0;"/><rect fill="#F1F1F1" height="39.0679" rx="12.5" ry="12.5" style="stroke:#181818;stroke-width:1.5;" width="89" x="119" y="20"/><text fill="#000000" font-family="sans-serif" font-size="14" lengthAdjust="spacing" textLength="69" x="129" y="44.9659">Marketing</text><path d="M258,275.8056 L248,275.8056 C233,275.8056 233,39.534 218,39.534 L208,39.534 " fill="none" style="stroke:#181818;stroke-width:1.0;"/><rect fill="#F1F1F1" height="39.0679" rx="12.5" ry="12.5" style="stroke:#181818;stroke-width:1.5;" width="183" x="25" y="79.0679"/><text fill="#000000" font-family="sans-serif" font-size="14" lengthAdjust="spacing" textLength="163" x="35" y="104.0339">NonCommercialPurpose</text><path d="M258,275.8056 L248,275.8056 C233,275.8056 233,98.6019 218,98.6019 L208,98.6019 " fill="none" style="stroke:#181818;stroke-width:1.0;"/><rect fill="#F1F1F1" height="39.0679" rx="12.5" ry="12.5" style="stroke:#181818;stroke-width:1.5;" width="188" x="20" y="138.1358"/><text fill="#000000" font-family="sans-serif" font-size="14" lengthAdjust="spacing" textLength="168" x="30" y="163.1018">OrganisationGovernance</text><path d="M258,275.8056 L248,275.8056 C233,275.8056 233,157.6698 218,157.6698 L208,157.6698 " fill="none" style="stroke:#181818;stroke-width:1.0;"/><rect fill="#F1F1F1" height="39.0679" rx="12.5" ry="12.5" style="stroke:#181818;stroke-width:1.5;" width="123" x="85" y="197.2038"/><text fill="#000000" font-family="sans-serif" font-size="14" lengthAdjust="spacing" textLength="103" x="95" y="222.1697">Personalisation</text><path d="M258,275.8056 L248,275.8056 C233,275.8056 233,216.7377 218,216.7377 L208,216.7377 " fill="none" style="stroke:#181818;stroke-width:1.0;"/><rect fill="#F1F1F1" height="39.0679" rx="12.5" ry="12.5" style="stroke:#181818;stroke-width:1.5;" width="109" x="99" y="256.2717"/><text fill="#000000" font-family="sans-serif" font-size="14" lengthAdjust="spacing" textLength="89" x="109" y="281.2376">PublicBenefit</text><path d="M258,275.8056 L248,275.8056 C233,275.8056 233,275.8056 218,275.8056 L208,275.8056 " fill="none" style="stroke:#181818;stroke-width:1.0;"/><rect fill="#F1F1F1" height="39.0679" rx="12.5" ry="12.5" style="stroke:#181818;stroke-width:1.5;" width="157" x="51" y="315.3396"/><text fill="#000000" font-family="sans-serif" font-size="14" lengthAdjust="spacing" textLength="137" x="61" y="340.3055">RecordManagement</text><path d="M258,275.8056 L248,275.8056 C233,275.8056 233,334.8735 218,334.8735 L208,334.8735 " fill="none" style="stroke:#181818;stroke-width:1.0;"/><rect fill="#F1F1F1" height="39.0679" rx="12.5" ry="12.5" style="stroke:#181818;stroke-width:1.5;" width="198" x="10" y="374.4075"/><text fill="#000000" font-family="sans-serif" font-size="14" lengthAdjust="spacing" textLength="178" x="20" y="399.3734">ResearchAndDevelopment</text><path d="M258,275.8056 L248,275.8056 C233,275.8056 233,393.9415 218,393.9415 L208,393.9415 " fill="none" style="stroke:#181818;stroke-width:1.0;"/><rect fill="#F1F1F1" height="39.0679" rx="12.5" ry="12.5" style="stroke:#181818;stroke-width:1.5;" width="129" x="79" y="433.4754"/><text fill="#000000" font-family="sans-serif" font-size="14" lengthAdjust="spacing" textLength="109" x="89" y="458.4414">ServiceProvision</text><path d="M258,275.8056 L248,275.8056 C233,275.8056 233,453.0094 218,453.0094 L208,453.0094 " fill="none" style="stroke:#181818;stroke-width:1.0;"/><rect fill="#F1F1F1" height="39.0679" rx="12.5" ry="12.5" style="stroke:#181818;stroke-width:1.5;" width="158" x="50" y="492.5433"/><text fill="#000000" font-family="sans-serif" font-size="14" lengthAdjust="spacing" textLength="138" x="60" y="517.5093">VendorManagement</text><path d="M258,275.8056 L248,275.8056 C233,275.8056 233,512.0773 218,512.0773 L208,512.0773 " fill="none" style="stroke:#181818;stroke-width:1.0;"/><!--SRC=[xLDDR-8m4BtxLtXlhH1eGQMgE453wOebIqHQxgup2QDrnj7OZiI_NoT05zHViDBUCk_Drvldp9rNx6kaebQD-8QaJIX0EdyqC6gC8Xzg8yH0Pe4Rwq0C1dAXjGtaKqMgWXh8Ts1YwnfOep9NcHqO2BNoQEbh_YUrifm4vstia2W-bPxZsweNAYrho447Hd_ieQZWmw0x99OyA-s3CekAuRDc5Ko9feksvJPcLlt8ZlaHQaKxS3R4dbU3XaEPAluD7gdgWb-MligB-9OhHUZwVg-s1IP5kcSoO6T9cJFPGo7Eriz0K68_OWVQSd4xDYu3YlLXGSKIMZ2skJ0vS8iQChOjkdFBFL1XhoyavX6vc2dcDzuUCFfQ8fZ2dRvhy0Tx2JIoDk34Vwl_IQkpxazzJpSoRjQLoF5eydtoC9hUvO6YmgESFChnU3QUpgPFCdd9tsJ7tukxrsmZJrUH1JhF-14w6VTYhLebTz5yh64cjmtGUldp0aHtMcHB_IhhVVetuV5X-8o-rm0izwbOGgc2yR52so9UUIRVtrR39x5HL8MePYQ1HDAzCZv6Bly3]--></g></svg>