<svg xmlns="http://www.w3.org/2000/svg" xmlns:xlink="http://www.w3.org/1999/xlink" contentStyleType="text/css" height="400px" preserveAspectRatio="none" style="width:937px;height:400px;background:#FFFFFF;" version="1.1" viewBox="0 0 937 400" width="937px" zoomAndPan="magnify"><defs/><g><!--cluster dpv--><g id="cluster_dpv"><path d="M175.5,6.602 L202.8125,6.602 A3.75,3.75 0 0 1 205.3125,9.102 L212.3125,31.6699 L927.5,31.6699 A2.5,2.5 0 0 1 930,34.1699 L930,391.102 A2.5,2.5 0 0 1 927.5,393.602 L175.5,393.602 A2.5,2.5 0 0 1 173,391.102 L173,9.102 A2.5,2.5 0 0 1 175.5,6.602 " fill="none" style="stroke:#000000;stroke-width:1.5;"/><line style="stroke:#000000;stroke-width:1.5;" x1="173" x2="212.3125" y1="31.6699" y2="31.6699"/><text fill="#000000" font-family="sans-serif" font-size="14" font-weight="bold" lengthAdjust="spacing" textLength="26.3125" x="177" y="23.5679">dpv</text></g><!--class Right--><g id="elem_Right"><rect codeLine="6" fill="#F1F1F1" height="29.0679" id="Right" rx="2.5" ry="2.5" style="stroke:#181818;stroke-width:0.5;" width="42" x="545.5" y="348.102"/><text fill="#000000" font-family="sans-serif" font-size="14" lengthAdjust="spacing" textLength="36" x="548.5" y="368.0679">Right</text></g><!--class Notice--><g id="elem_Notice"><rect codeLine="7" fill="#F1F1F1" height="29.0679" id="Notice" rx="2.5" ry="2.5" style="stroke:#181818;stroke-width:0.5;" width="49" x="236.5" y="238.102"/><text fill="#000000" font-family="sans-serif" font-size="14" lengthAdjust="spacing" textLength="43" x="239.5" y="258.0679">Notice</text></g><!--class DataSubjectRight--><g id="elem_DataSubjectRight"><rect codeLine="8" fill="#F1F1F1" height="29.0679" id="DataSubjectRight" rx="2.5" ry="2.5" style="stroke:#181818;stroke-width:0.5;" width="123" x="791" y="220.102"/><text fill="#000000" font-family="sans-serif" font-size="14" lengthAdjust="spacing" textLength="117" x="794" y="240.0679">DataSubjectRight</text></g><!--class PassiveRight--><g id="elem_PassiveRight"><rect codeLine="9" fill="#F1F1F1" height="29.0679" id="PassiveRight" rx="2.5" ry="2.5" style="stroke:#181818;stroke-width:0.5;" width="91" x="807" y="348.102"/><text fill="#000000" font-family="sans-serif" font-size="14" lengthAdjust="spacing" textLength="85" x="810" y="368.0679">PassiveRight</text></g><!--class ActiveRight--><g id="elem_ActiveRight"><rect codeLine="10" fill="#F1F1F1" height="29.0679" id="ActiveRight" rx="2.5" ry="2.5" style="stroke:#181818;stroke-width:0.5;" width="82" x="811.5" y="284.102"/><text fill="#000000" font-family="sans-serif" font-size="14" lengthAdjust="spacing" textLength="76" x="814.5" y="304.0679">ActiveRight</text></g><!--class Record--><g id="elem_Record"><rect codeLine="11" fill="#F1F1F1" height="29.0679" id="Record" rx="2.5" ry="2.5" style="stroke:#181818;stroke-width:0.5;" width="53" x="234.5" y="169.102"/><text fill="#000000" font-family="sans-serif" font-size="14" lengthAdjust="spacing" textLength="47" x="237.5" y="189.0679">Record</text></g><!--class RightExerciseNotice--><g id="elem_RightExerciseNotice"><rect codeLine="12" fill="#F1F1F1" height="29.0679" id="RightExerciseNotice" rx="2.5" ry="2.5" style="stroke:#181818;stroke-width:0.5;" width="140" x="496.5" y="156.102"/><text fill="#000000" font-family="sans-serif" font-size="14" lengthAdjust="spacing" textLength="134" x="499.5" y="176.0679">RightExerciseNotice</text></g><!--class RightFulfilmentNotice--><g id="elem_RightFulfilmentNotice"><rect codeLine="13" fill="#F1F1F1" height="29.0679" id="RightFulfilmentNotice" rx="2.5" ry="2.5" style="stroke:#181818;stroke-width:0.5;" width="153" x="490" y="284.102"/><text fill="#000000" font-family="sans-serif" font-size="14" lengthAdjust="spacing" textLength="147" x="493" y="304.0679">RightFulfilmentNotice</text></g><!--class RightNonFulfilmentNotice--><g id="elem_RightNonFulfilmentNotice"><rect codeLine="14" fill="#F1F1F1" height="29.0679" id="RightNonFulfilmentNotice" rx="2.5" ry="2.5" style="stroke:#181818;stroke-width:0.5;" width="181" x="476" y="220.102"/><text fill="#000000" font-family="sans-serif" font-size="14" lengthAdjust="spacing" textLength="175" x="479" y="240.0679">RightNonFulfilmentNotice</text></g><!--class RightExerciseRecord--><g id="elem_RightExerciseRecord"><rect codeLine="15" fill="#F1F1F1" height="29.0679" id="RightExerciseRecord" rx="2.5" ry="2.5" style="stroke:#181818;stroke-width:0.5;" width="144" x="189" y="105.102"/><text fill="#000000" font-family="sans-serif" font-size="14" lengthAdjust="spacing" textLength="138" x="192" y="125.0679">RightExerciseRecord</text></g><!--class RightExerciseActivity--><g id="elem_RightExerciseActivity"><rect codeLine="16" fill="#F1F1F1" height="29.0679" id="RightExerciseActivity" rx="2.5" ry="2.5" style="stroke:#181818;stroke-width:0.5;" width="145" x="494" y="92.102"/><text fill="#000000" font-family="sans-serif" font-size="14" lengthAdjust="spacing" textLength="139" x="497" y="112.0679">RightExerciseActivity</text></g><!--class RequestStatus--><g id="elem_RequestStatus"><rect codeLine="17" fill="#F1F1F1" height="29.0679" id="RequestStatus" rx="2.5" ry="2.5" style="stroke:#181818;stroke-width:0.5;" width="103" x="801" y="92.102"/><text fill="#000000" font-family="sans-serif" font-size="14" lengthAdjust="spacing" textLength="97" x="804" y="112.0679">RequestStatus</text></g><!--class Thing--><g id="elem_Thing"><rect codeLine="4" fill="#C0C0C0" height="29.0679" id="Thing" rx="2.5" ry="2.5" style="stroke:#181818;stroke-width:0.5;" width="45" x="7" y="287.102"/><text fill="#000000" font-family="sans-serif" font-size="14" lengthAdjust="spacing" textLength="39" x="10" y="307.0679">Thing</text></g><!--link Thing to Right--><g id="link_Thing_Right"><path codeLine="19" d="M52.47,304.102 C139.67,314.052 460.74,350.662 545.09,360.272 " fill="none" id="Thing-Right" style="stroke:#181818;stroke-width:1.0;"/><polygon fill="#000000" points="236.9678,309.0214,228.3139,305.0767,227.648,310.9167,236.9678,309.0214" style="stroke:#000000;stroke-width:1.0;"/><text fill="#000000" font-family="sans-serif" font-size="13" lengthAdjust="spacing" textLength="53" x="241" y="313.499">hasRight</text></g><!--link Thing to Notice--><g id="link_Thing_Notice"><path codeLine="20" d="M52.09,296.992 C95.16,287.792 191.46,267.232 236.25,257.672 " fill="none" id="Thing-Notice" style="stroke:#181818;stroke-width:1.0;"/><polygon fill="#000000" points="91.8898,266.411,82.4304,265.4255,83.6577,271.1738,91.8898,266.411" style="stroke:#000000;stroke-width:1.0;"/><text fill="#000000" font-family="sans-serif" font-size="13" lengthAdjust="spacing" textLength="60" x="96" y="272.499">hasNotice</text></g><!--reverse link Right to DataSubjectRight--><g id="link_Right_DataSubjectRight"><path codeLine="22" d="M604.7512,350.4847 C623.0612,344.4347 633.6,340.522 657,330.602 C689.07,317.012 776.36,272.932 822.32,249.522 " fill="none" id="Right-backto-DataSubjectRight" style="stroke:#181818;stroke-width:1.0;"/><polygon fill="none" points="587.66,356.132,606.6336,356.1818,602.8688,344.7876,587.66,356.132" style="stroke:#181818;stroke-width:1.0;"/></g><!--reverse link Right to PassiveRight--><g id="link_Right_PassiveRight"><path codeLine="23" d="M605.92,362.602 C651.46,362.602 744.18,362.602 806.67,362.602 " fill="none" id="Right-backto-PassiveRight" style="stroke:#181818;stroke-width:1.0;"/><polygon fill="none" points="587.92,362.602,605.92,368.602,605.92,356.602,587.92,362.602" style="stroke:#181818;stroke-width:1.0;"/></g><!--reverse link Right to ActiveRight--><g id="link_Right_ActiveRight"><path codeLine="24" d="M605.4793,354.0434 C652.0993,343.5334 749.47,321.592 811.03,307.722 " fill="none" id="Right-backto-ActiveRight" style="stroke:#181818;stroke-width:1.0;"/><polygon fill="none" points="587.92,358.002,606.7988,359.8965,604.1598,348.1903,587.92,358.002" style="stroke:#181818;stroke-width:1.0;"/></g><!--reverse link Notice to RightExerciseNotice--><g id="link_Notice_RightExerciseNotice"><path codeLine="26" d="M303.597,245.5646 C352.517,237.2746 442.25,222.002 446,220.602 C460.57,215.182 461.94,209.252 476,202.602 C489.42,196.252 504.47,190.412 518.34,185.502 " fill="none" id="Notice-backto-RightExerciseNotice" style="stroke:#181818;stroke-width:1.0;"/><polygon fill="none" points="285.85,248.572,304.5995,251.4802,302.5945,239.6489,285.85,248.572" style="stroke:#181818;stroke-width:1.0;"/></g><!--reverse link Notice to RightFulfilmentNotice--><g id="link_Notice_RightFulfilmentNotice"><path codeLine="27" d="M303.6164,258.9114 C346.9964,265.4914 422.83,276.982 489.8,287.132 " fill="none" id="Notice-backto-RightFulfilmentNotice" style="stroke:#181818;stroke-width:1.0;"/><polygon fill="none" points="285.82,256.212,302.7166,264.8435,304.5162,252.9792,285.82,256.212" style="stroke:#181818;stroke-width:1.0;"/></g><!--reverse link Notice to RightNonFulfilmentNotice--><g id="link_Notice_RightNonFulfilmentNotice"><path codeLine="28" d="M303.7883,250.124 C344.1683,247.724 410.1,243.822 475.53,239.942 " fill="none" id="Notice-backto-RightNonFulfilmentNotice" style="stroke:#181818;stroke-width:1.0;"/><polygon fill="none" points="285.82,251.192,304.1443,256.1135,303.4323,244.1346,285.82,251.192" style="stroke:#181818;stroke-width:1.0;"/></g><!--reverse link Record to RightExerciseRecord--><g id="link_Record_RightExerciseRecord"><path codeLine="30" d="M261,151.102 C261,139.502 261,145.902 261,134.302 " fill="none" id="Record-backto-RightExerciseRecord" style="stroke:#181818;stroke-width:1.0;"/><polygon fill="none" points="261,169.102,267,151.102,255,151.102,261,169.102" style="stroke:#181818;stroke-width:1.0;"/></g><!--link RightExerciseRecord to RightExerciseActivity--><g id="link_RightExerciseRecord_RightExerciseActivity"><path codeLine="31" d="M333.16,116.552 C381.51,114.482 445.25,111.752 493.74,109.672 " fill="none" id="RightExerciseRecord-RightExerciseActivity" style="stroke:#181818;stroke-width:1.0;"/><polygon fill="#000000" points="372.9954,103.241,363.8328,100.6919,364.0844,106.5644,372.9954,103.241" style="stroke:#000000;stroke-width:1.0;"/><text fill="#000000" font-family="sans-serif" font-size="13" lengthAdjust="spacing" textLength="68" x="377" y="108.499">dct:hasPart</text></g><!--link RightExerciseRecord to Right--><g id="link_RightExerciseRecord_Right"><path codeLine="32" d="M303.68,134.432 C313.81,139.082 324.24,144.802 333,151.602 C373.22,182.822 434.56,301.022 476,330.602 C497.08,345.652 525.97,354.282 545.16,358.702 " fill="none" id="RightExerciseRecord-Right" style="stroke:#181818;stroke-width:1.0;"/><polygon fill="#000000" points="379.1637,181.8576,374.536,173.5488,370.536,177.8557,379.1637,181.8576" style="stroke:#000000;stroke-width:1.0;"/><text fill="#000000" font-family="sans-serif" font-size="13" lengthAdjust="spacing" textLength="53" x="384.5" y="183.499">hasRight</text></g><!--link RightExerciseActivity to RightExerciseActivity--><g id="link_RightExerciseActivity_RightExerciseActivity"><path codeLine="33" d="M544.12,91.652 C529.66,75.472 537.12,57.102 566.5,57.102 C595.88,57.102 603.34,75.472 588.88,91.652 " fill="none" id="RightExerciseActivity-RightExerciseActivity" style="stroke:#181818;stroke-width:1.0;"/><polygon fill="#000000" points="509.7719,39.6232,514.5577,47.8418,518.4745,43.4591,509.7719,39.6232" style="stroke:#000000;stroke-width:1.0;"/><text fill="#000000" font-family="sans-serif" font-size="13" lengthAdjust="spacing" textLength="91" x="527.5" y="47.999">isBefore/isAfter</text></g><!--link RightExerciseActivity to RequestStatus--><g id="link_RightExerciseActivity_RequestStatus"><path codeLine="34" d="M639.17,106.602 C689.61,106.602 755.9,106.602 800.9,106.602 " fill="none" id="RightExerciseActivity-RequestStatus" style="stroke:#181818;stroke-width:1.0;"/><polygon fill="#000000" points="697,97.455,687.9549,94.5161,687.9549,100.3939,697,97.455" style="stroke:#000000;stroke-width:1.0;"/><text fill="#000000" font-family="sans-serif" font-size="13" lengthAdjust="spacing" textLength="59" x="701" y="102.499">hasStatus</text></g><!--SRC=[VP51JiCm44NN-1H6h0Fx2aKg0fPLrN81Oq-IeQuTx4b41ToTf4vet5ZPMEFvV-PRpxTef6uKS4yd3VUr5eQQesOQ2k9akSEo8gxGWIIqXZ6fXVVyhK9JyZkFkWN7QY4FeWIkwfP_ivjWsVMJusLZ2IMCjsT1Oj-yVtGx8zUsEx25gBVkSgzQEv3MgIZdvGkSH0znpbbwRNI1-WY64kB6caLztBiGUNuWqkdokiy6FEr9KEFPBmkeiYnCyHMlX0zbVj52T127EcSis1v_CfNDcKt52DnKcD9Zm-AWfB3D3JCuSqiA8GkyUbkIOwBtJ-YQQmT5ILfrOBR2zT2MXcEywNqBGUYVeB0E7j2l2mAtk6Fwpo5tg7Fs1m00]--></g></svg>