<svg xmlns="http://www.w3.org/2000/svg" xmlns:xlink="http://www.w3.org/1999/xlink" contentStyleType="text/css" height="400px" preserveAspectRatio="none" style="width:739px;height:400px;background:#FFFFFF;" version="1.1" viewBox="0 0 739 400" width="739px" zoomAndPan="magnify"><defs/><g><!--cluster dpv--><g id="cluster_dpv"><path d="M235.5,6.602 L262.8125,6.602 A3.75,3.75 0 0 1 265.3125,9.102 L272.3125,31.6699 L729.5,31.6699 A2.5,2.5 0 0 1 732,34.1699 L732,391.102 A2.5,2.5 0 0 1 729.5,393.602 L235.5,393.602 A2.5,2.5 0 0 1 233,391.102 L233,9.102 A2.5,2.5 0 0 1 235.5,6.602 " fill="none" style="stroke:#000000;stroke-width:1.5;"/><line style="stroke:#000000;stroke-width:1.5;" x1="233" x2="272.3125" y1="31.6699" y2="31.6699"/><text fill="#000000" font-family="sans-serif" font-size="14" font-weight="bold" lengthAdjust="spacing" textLength="26.3125" x="237" y="23.5679">dpv</text></g><!--class Entity--><g id="elem_Entity"><rect codeLine="7" fill="#F1F1F1" height="29.0679" id="Entity" rx="2.5" ry="2.5" style="stroke:#181818;stroke-width:0.5;" width="44" x="613.5" y="173.102"/><text fill="#000000" font-family="sans-serif" font-size="14" lengthAdjust="spacing" textLength="38" x="616.5" y="193.0679">Entity</text></g><!--class Risk--><g id="elem_Risk"><rect codeLine="8" fill="#F1F1F1" height="29.0679" id="Risk" rx="2.5" ry="2.5" style="stroke:#181818;stroke-width:0.5;" width="33" x="281" y="92.102"/><text fill="#000000" font-family="sans-serif" font-size="14" lengthAdjust="spacing" textLength="27" x="284" y="112.0679">Risk</text></g><!--class RiskMitigationMeasure--><g id="elem_RiskMitigationMeasure"><rect codeLine="9" fill="#F1F1F1" height="29.0679" id="RiskMitigationMeasure" rx="2.5" ry="2.5" style="stroke:#181818;stroke-width:0.5;" width="161" x="555" y="45.102"/><text fill="#000000" font-family="sans-serif" font-size="14" lengthAdjust="spacing" textLength="155" x="558" y="65.0679">RiskMitigationMeasure</text></g><!--class RiskLevel--><g id="elem_RiskLevel"><rect codeLine="10" fill="#F1F1F1" height="29.0679" id="RiskLevel" rx="2.5" ry="2.5" style="stroke:#181818;stroke-width:0.5;" width="67" x="602" y="109.102"/><text fill="#000000" font-family="sans-serif" font-size="14" lengthAdjust="spacing" textLength="61" x="605" y="129.0679">RiskLevel</text></g><!--class Consequence--><g id="elem_Consequence"><rect codeLine="11" fill="#F1F1F1" height="29.0679" id="Consequence" rx="2.5" ry="2.5" style="stroke:#181818;stroke-width:0.5;" width="97" x="249" y="220.102"/><text fill="#000000" font-family="sans-serif" font-size="14" lengthAdjust="spacing" textLength="91" x="252" y="240.0679">Consequence</text></g><!--class Impact--><g id="elem_Impact"><rect codeLine="12" fill="#F1F1F1" height="29.0679" id="Impact" rx="2.5" ry="2.5" style="stroke:#181818;stroke-width:0.5;" width="53" x="271" y="156.102"/><text fill="#000000" font-family="sans-serif" font-size="14" lengthAdjust="spacing" textLength="47" x="274" y="176.0679">Impact</text></g><!--class Severity--><g id="elem_Severity"><rect codeLine="13" fill="#F1F1F1" height="29.0679" id="Severity" rx="2.5" ry="2.5" style="stroke:#181818;stroke-width:0.5;" width="59" x="268" y="284.102"/><text fill="#000000" font-family="sans-serif" font-size="14" lengthAdjust="spacing" textLength="53" x="271" y="304.0679">Severity</text></g><!--class Likelihood--><g id="elem_Likelihood"><rect codeLine="14" fill="#F1F1F1" height="29.0679" id="Likelihood" rx="2.5" ry="2.5" style="stroke:#181818;stroke-width:0.5;" width="74" x="260.5" y="348.102"/><text fill="#000000" font-family="sans-serif" font-size="14" lengthAdjust="spacing" textLength="68" x="263.5" y="368.0679">Likelihood</text></g><!--class Thing--><g id="elem_Thing"><rect codeLine="5" fill="#C0C0C0" height="29.0679" id="Thing" rx="2.5" ry="2.5" style="stroke:#181818;stroke-width:0.5;" width="45" x="7" y="220.102"/><text fill="#000000" font-family="sans-serif" font-size="14" lengthAdjust="spacing" textLength="39" x="10" y="240.0679">Thing</text></g><!--link Thing to Risk--><g id="link_Thing_Risk"><path codeLine="17" d="M35.59,219.912 C42.86,201.232 58.04,169.372 82,152.602 C145.19,108.382 242.62,105.332 280.59,105.992 " fill="none" id="Thing-Risk" style="stroke:#181818;stroke-width:1.0;"/><polygon fill="#000000" points="129.0338,98.3468,119.5929,99.4956,122.0712,104.8254,129.0338,98.3468" style="stroke:#000000;stroke-width:1.0;"/><text fill="#000000" font-family="sans-serif" font-size="13" lengthAdjust="spacing" textLength="45" x="133.5" y="105.499">hasRisk</text></g><!--link Thing to Consequence--><g id="link_Thing_Consequence"><path codeLine="18" d="M52.27,234.602 C94.95,234.602 190.53,234.602 248.66,234.602 " fill="none" id="Thing-Consequence" style="stroke:#181818;stroke-width:1.0;"/><polygon fill="#000000" points="101,225.455,91.9549,222.5161,91.9549,228.3939,101,225.455" style="stroke:#000000;stroke-width:1.0;"/><text fill="#000000" font-family="sans-serif" font-size="13" lengthAdjust="spacing" textLength="102" x="105" y="230.499">hasConsequence</text></g><!--link Consequence to Thing--><g id="link_Consequence_Thing"><path codeLine="19" d="M260.73,249.532 C247.27,254.402 231.67,259.182 217,261.602 C157.8,271.382 140.26,275.952 82,261.602 C71.71,259.072 61.19,254.072 52.37,249.052 " fill="none" id="Consequence-Thing" style="stroke:#181818;stroke-width:1.0;"/><polygon fill="#000000" points="82,252.4435,91.0383,255.4032,91.0518,249.5254,82,252.4435" style="stroke:#000000;stroke-width:1.0;"/><text fill="#000000" font-family="sans-serif" font-size="13" lengthAdjust="spacing" textLength="120" x="96" y="257.499">hasConsequenceOn</text></g><!--link Thing to Impact--><g id="link_Thing_Impact"><path codeLine="20" d="M52.39,221.192 C61.29,216.262 71.87,211.042 82,207.602 C147.85,185.282 229.85,175.932 270.77,172.442 " fill="none" id="Thing-Impact" style="stroke:#181818;stroke-width:1.0;"/><polygon fill="#000000" points="120.3799,169.3656,110.9118,168.468,112.1924,174.2046,120.3799,169.3656" style="stroke:#000000;stroke-width:1.0;"/><text fill="#000000" font-family="sans-serif" font-size="13" lengthAdjust="spacing" textLength="63" x="124.5" y="175.499">hasImpact</text></g><!--link Impact to Entity--><g id="link_Impact_Entity"><path codeLine="21" d="M324.16,176.792 C339.17,180.112 358.54,183.862 376,185.602 C463.75,194.362 569.09,190.852 613.32,188.752 " fill="none" id="Impact-Entity" style="stroke:#181818;stroke-width:1.0;"/><polygon fill="#000000" points="412.4957,176.6616,403.5798,173.3514,403.3369,179.2242,412.4957,176.6616" style="stroke:#000000;stroke-width:1.0;"/><text fill="#000000" font-family="sans-serif" font-size="13" lengthAdjust="spacing" textLength="81" x="416.5" y="181.499">hasImpactOn</text></g><!--link Thing to Severity--><g id="link_Thing_Severity"><path codeLine="22" d="M37.72,249.582 C46.02,264.862 61.22,287.692 82,297.602 C142.84,326.622 224.87,315.102 267.72,305.872 " fill="none" id="Thing-Severity" style="stroke:#181818;stroke-width:1.0;"/><polygon fill="#000000" points="117.3567,289.6436,109.2695,284.6387,107.8722,290.3481,117.3567,289.6436" style="stroke:#000000;stroke-width:1.0;"/><text fill="#000000" font-family="sans-serif" font-size="13" lengthAdjust="spacing" textLength="69" x="121.5" y="293.499">hasSeverity</text></g><!--link Thing to Likelihood--><g id="link_Thing_Likelihood"><path codeLine="23" d="M32.84,249.452 C37.49,273.492 50.32,320.482 82,342.602 C135.06,379.642 214.36,375.752 260.21,369.342 " fill="none" id="Thing-Likelihood" style="stroke:#181818;stroke-width:1.0;"/><polygon fill="#000000" points="109.9228,335.7871,103.2926,328.9686,100.5511,334.1679,109.9228,335.7871" style="stroke:#000000;stroke-width:1.0;"/><text fill="#000000" font-family="sans-serif" font-size="13" lengthAdjust="spacing" textLength="83" x="114.5" y="338.499">hasLikelihood</text></g><!--link Risk to Risk--><g id="link_Risk_Risk"><path codeLine="24" d="M280.59,95.902 C261.8,78.892 267.44,57.102 297.5,57.102 C327.56,57.102 333.2,78.892 314.41,95.902 " fill="none" id="Risk-Risk" style="stroke:#181818;stroke-width:1.0;"/><polygon fill="#000000" points="239.1444,39.2482,243.036,47.9262,247.3935,43.9814,239.1444,39.2482" style="stroke:#000000;stroke-width:1.0;"/><text fill="#000000" font-family="sans-serif" font-size="13" lengthAdjust="spacing" textLength="95" x="256.5" y="47.999">hasResidualRisk</text></g><!--link Risk to RiskMitigationMeasure--><g id="link_Risk_RiskMitigationMeasure"><path codeLine="25" d="M314.26,104.402 C356.49,98.492 474.45,81.992 554.79,70.752 " fill="none" id="Risk-RiskMitigationMeasure" style="stroke:#181818;stroke-width:1.0;"/><polygon fill="#000000" points="385.9518,66.7622,376.5867,65.1049,377.4011,70.926,385.9518,66.7622" style="stroke:#000000;stroke-width:1.0;"/><text fill="#000000" font-family="sans-serif" font-size="13" lengthAdjust="spacing" textLength="134" x="390" y="72.499">isMitigatedByMeasure</text></g><!--link Risk to RiskLevel--><g id="link_Risk_RiskLevel"><path codeLine="26" d="M314.3,111.932 C329.8,116.862 354.22,123.832 376,126.602 C456.59,136.832 552.44,131.102 601.69,126.862 " fill="none" id="Risk-RiskLevel" style="stroke:#181818;stroke-width:1.0;"/><polygon fill="#000000" points="414.9933,117.7144,406.1128,114.3102,405.8079,120.1801,414.9933,117.7144" style="stroke:#000000;stroke-width:1.0;"/><text fill="#000000" font-family="sans-serif" font-size="13" lengthAdjust="spacing" textLength="76" x="419" y="122.499">hasRiskLevel</text></g><!--SRC=[PP5DJiGm38NNv1H1B5YL0x1W0MA1DAEHPhX0I4nhDKrAurQg47Sdav-f1tP-Vf_jsBb5f-riG0PQBJoCLZcQ1oiiV98aBoTiEv869z24tebxykCv_-69_C0CeQqAGRvtw5fv5z0kC8bHwLwr8Csuo6znav5NHqXhLKSCFO_tIDYgSyizg31FmCqTB61huiMx05ypE7rXteOuaQewHNfYetROWyNEUoD-XCWlRPhKM3xAJeKKFMqEcv1yfYF6LOHJrL_iu7Y__Bp4v32Q9MXCKmx3xElgkau2gk30jbz2DXcXj5fPDkyA0SsiRDcP-_- -85u7Gyc2ULvh-heiVSxbZab5uXS0]--></g></svg>