<svg xmlns="http://www.w3.org/2000/svg" xmlns:xlink="http://www.w3.org/1999/xlink" contentStyleType="text/css" height="1006px" preserveAspectRatio="none" style="width:2318px;height:1006px;background:#FFFFFF;" version="1.1" viewBox="0 0 2318 1006" width="2318px" zoomAndPan="magnify"><defs/><g><line style="stroke:#181818;stroke-width:1.5;" x1="81.5" x2="81.5" y1="66.3441" y2="86.3441"/><rect fill="#F1F1F1" height="36.3441" style="stroke:#181818;stroke-width:1.5;" width="143" x="10" y="86.3441"/><text fill="#000000" font-family="sans-serif" font-size="12" lengthAdjust="spacing" textLength="123" x="20" y="109.1722">AccessControlMethod</text><line style="stroke:#181818;stroke-width:1.5;" x1="81.5" x2="91.5" y1="155.8603" y2="155.8603"/><rect fill="#F1F1F1" height="36.3441" style="stroke:#181818;stroke-width:1.5;" width="97" x="91.5" y="137.6882"/><text fill="#000000" font-family="sans-serif" font-size="12" lengthAdjust="spacing" textLength="77" x="101.5" y="160.5163">UsageControl</text><line style="stroke:#181818;stroke-width:1.5;" x1="81.5" x2="81.5" y1="122.6882" y2="155.8603"/><line style="stroke:#181818;stroke-width:1.5;" x1="269" x2="269" y1="66.3441" y2="86.3441"/><rect fill="#F1F1F1" height="36.3441" style="stroke:#181818;stroke-width:1.5;" width="121" x="208.5" y="86.3441"/><text fill="#000000" font-family="sans-serif" font-size="12" lengthAdjust="spacing" textLength="101" x="218.5" y="109.1722">ActivityMonitoring</text><line style="stroke:#181818;stroke-width:1.5;" x1="426" x2="426" y1="66.3441" y2="86.3441"/><rect fill="#F1F1F1" height="36.3441" style="stroke:#181818;stroke-width:1.5;" width="153" x="349.5" y="86.3441"/><text fill="#000000" font-family="sans-serif" font-size="12" lengthAdjust="spacing" textLength="133" x="359.5" y="109.1722">AuthenticationProtocols</text><line style="stroke:#181818;stroke-width:1.5;" x1="426" x2="436" y1="155.8603" y2="155.8603"/><rect fill="#F1F1F1" height="36.3441" style="stroke:#181818;stroke-width:1.5;" width="155" x="436" y="137.6882"/><text fill="#000000" font-family="sans-serif" font-size="12" lengthAdjust="spacing" textLength="135" x="446" y="160.5163">BiometricAuthentication</text><line style="stroke:#181818;stroke-width:1.5;" x1="426" x2="436" y1="207.2044" y2="207.2044"/><rect fill="#F1F1F1" height="36.3441" style="stroke:#181818;stroke-width:1.5;" width="180" x="436" y="189.0323"/><text fill="#000000" font-family="sans-serif" font-size="12" lengthAdjust="spacing" textLength="160" x="446" y="211.8604">CryptographicAuthentication</text><line style="stroke:#181818;stroke-width:1.5;" x1="426" x2="436" y1="258.5485" y2="258.5485"/><rect fill="#F1F1F1" height="36.3441" style="stroke:#181818;stroke-width:1.5;" width="164" x="436" y="240.3765"/><text fill="#000000" font-family="sans-serif" font-size="12" lengthAdjust="spacing" textLength="144" x="446" y="263.2045">MultiFactorAuthentication</text><line style="stroke:#181818;stroke-width:1.5;" x1="426" x2="436" y1="309.8926" y2="309.8926"/><rect fill="#F1F1F1" height="36.3441" style="stroke:#181818;stroke-width:1.5;" width="155" x="436" y="291.7206"/><text fill="#000000" font-family="sans-serif" font-size="12" lengthAdjust="spacing" textLength="135" x="446" y="314.5487">PasswordAuthentication</text><line style="stroke:#181818;stroke-width:1.5;" x1="426" x2="436" y1="361.2367" y2="361.2367"/><rect fill="#F1F1F1" height="36.3441" style="stroke:#181818;stroke-width:1.5;" width="94" x="436" y="343.0647"/><text fill="#000000" font-family="sans-serif" font-size="12" lengthAdjust="spacing" textLength="74" x="446" y="365.8928">SingleSignOn</text><line style="stroke:#181818;stroke-width:1.5;" x1="426" x2="436" y1="412.5809" y2="412.5809"/><rect fill="#F1F1F1" height="36.3441" style="stroke:#181818;stroke-width:1.5;" width="188" x="436" y="394.4088"/><text fill="#000000" font-family="sans-serif" font-size="12" lengthAdjust="spacing" textLength="168" x="446" y="417.2369">ZeroKnowledgeAuthentication</text><line style="stroke:#181818;stroke-width:1.5;" x1="426" x2="426" y1="122.6882" y2="412.5809"/><line style="stroke:#181818;stroke-width:1.5;" x1="717.5" x2="717.5" y1="66.3441" y2="86.3441"/><rect fill="#F1F1F1" height="36.3441" style="stroke:#181818;stroke-width:1.5;" width="147" x="644" y="86.3441"/><text fill="#000000" font-family="sans-serif" font-size="12" lengthAdjust="spacing" textLength="127" x="654" y="109.1722">AuthorisationProtocols</text><line style="stroke:#181818;stroke-width:1.5;" x1="885" x2="885" y1="66.3441" y2="86.3441"/><rect fill="#F1F1F1" height="36.3441" style="stroke:#181818;stroke-width:1.5;" width="148" x="811" y="86.3441"/><text fill="#000000" font-family="sans-serif" font-size="12" lengthAdjust="spacing" textLength="128" x="821" y="109.1722">CryptographicMethods</text><line style="stroke:#181818;stroke-width:1.5;" x1="885" x2="895" y1="155.8603" y2="155.8603"/><rect fill="#F1F1F1" height="36.3441" style="stroke:#181818;stroke-width:1.5;" width="163" x="895" y="137.6882"/><text fill="#000000" font-family="sans-serif" font-size="12" lengthAdjust="spacing" textLength="143" x="905" y="160.5163">AsymmetricCryptography</text><line style="stroke:#181818;stroke-width:1.5;" x1="885" x2="895" y1="207.2044" y2="207.2044"/><rect fill="#F1F1F1" height="36.3441" style="stroke:#181818;stroke-width:1.5;" width="180" x="895" y="189.0323"/><text fill="#000000" font-family="sans-serif" font-size="12" lengthAdjust="spacing" textLength="160" x="905" y="211.8604">CryptographicAuthentication</text><line style="stroke:#181818;stroke-width:1.5;" x1="885" x2="895" y1="258.5485" y2="258.5485"/><rect fill="#F1F1F1" height="36.3441" style="stroke:#181818;stroke-width:1.5;" width="194" x="895" y="240.3765"/><text fill="#000000" font-family="sans-serif" font-size="12" lengthAdjust="spacing" textLength="174" x="905" y="263.2045">CryptographicKeyManagement</text><line style="stroke:#181818;stroke-width:1.5;" x1="885" x2="895" y1="309.8926" y2="309.8926"/><rect fill="#F1F1F1" height="36.3441" style="stroke:#181818;stroke-width:1.5;" width="123" x="895" y="291.7206"/><text fill="#000000" font-family="sans-serif" font-size="12" lengthAdjust="spacing" textLength="103" x="905" y="314.5487">DifferentialPrivacy</text><line style="stroke:#181818;stroke-width:1.5;" x1="885" x2="895" y1="361.2367" y2="361.2367"/><rect fill="#F1F1F1" height="36.3441" style="stroke:#181818;stroke-width:1.5;" width="116" x="895" y="343.0647"/><text fill="#000000" font-family="sans-serif" font-size="12" lengthAdjust="spacing" textLength="96" x="905" y="365.8928">DigitalSignatures</text><line style="stroke:#181818;stroke-width:1.5;" x1="885" x2="895" y1="412.5809" y2="412.5809"/><rect fill="#F1F1F1" height="36.3441" style="stroke:#181818;stroke-width:1.5;" width="102" x="895" y="394.4088"/><text fill="#000000" font-family="sans-serif" font-size="12" lengthAdjust="spacing" textLength="82" x="905" y="417.2369">HashFunctions</text><line style="stroke:#181818;stroke-width:1.5;" x1="885" x2="895" y1="463.925" y2="463.925"/><rect fill="#F1F1F1" height="36.3441" style="stroke:#181818;stroke-width:1.5;" width="159" x="895" y="445.7529"/><text fill="#000000" font-family="sans-serif" font-size="12" lengthAdjust="spacing" textLength="139" x="905" y="468.581">HomomorphicEncryption</text><line style="stroke:#181818;stroke-width:1.5;" x1="885" x2="895" y1="515.2691" y2="515.2691"/><rect fill="#F1F1F1" height="36.3441" style="stroke:#181818;stroke-width:1.5;" width="172" x="895" y="497.097"/><text fill="#000000" font-family="sans-serif" font-size="12" lengthAdjust="spacing" textLength="152" x="905" y="519.9251">PostQuantumCryptography</text><line style="stroke:#181818;stroke-width:1.5;" x1="885" x2="895" y1="566.6132" y2="566.6132"/><rect fill="#F1F1F1" height="36.3441" style="stroke:#181818;stroke-width:1.5;" width="166" x="895" y="548.4411"/><text fill="#000000" font-family="sans-serif" font-size="12" lengthAdjust="spacing" textLength="146" x="905" y="571.2692">PrivacyPreservingProtocol</text><line style="stroke:#181818;stroke-width:1.5;" x1="885" x2="895" y1="617.9573" y2="617.9573"/><rect fill="#F1F1F1" height="36.3441" style="stroke:#181818;stroke-width:1.5;" width="174" x="895" y="599.7853"/><text fill="#000000" font-family="sans-serif" font-size="12" lengthAdjust="spacing" textLength="154" x="905" y="622.6133">PrivateInformationRetrieval</text><line style="stroke:#181818;stroke-width:1.5;" x1="885" x2="895" y1="669.3014" y2="669.3014"/><rect fill="#F1F1F1" height="36.3441" style="stroke:#181818;stroke-width:1.5;" width="148" x="895" y="651.1294"/><text fill="#000000" font-family="sans-serif" font-size="12" lengthAdjust="spacing" textLength="128" x="905" y="673.9575">QuantumCryptography</text><line style="stroke:#181818;stroke-width:1.5;" x1="885" x2="895" y1="720.6455" y2="720.6455"/><rect fill="#F1F1F1" height="36.3441" style="stroke:#181818;stroke-width:1.5;" width="150" x="895" y="702.4735"/><text fill="#000000" font-family="sans-serif" font-size="12" lengthAdjust="spacing" textLength="130" x="905" y="725.3016">SecretSharingSchemes</text><line style="stroke:#181818;stroke-width:1.5;" x1="885" x2="895" y1="771.9897" y2="771.9897"/><rect fill="#F1F1F1" height="36.3441" style="stroke:#181818;stroke-width:1.5;" width="188" x="895" y="753.8176"/><text fill="#000000" font-family="sans-serif" font-size="12" lengthAdjust="spacing" textLength="168" x="905" y="776.6457">SecureMultiPartyComputation</text><line style="stroke:#181818;stroke-width:1.5;" x1="885" x2="895" y1="823.3338" y2="823.3338"/><rect fill="#F1F1F1" height="36.3441" style="stroke:#181818;stroke-width:1.5;" width="156" x="895" y="805.1617"/><text fill="#000000" font-family="sans-serif" font-size="12" lengthAdjust="spacing" textLength="136" x="905" y="827.9898">SymmetricCryptography</text><line style="stroke:#181818;stroke-width:1.5;" x1="885" x2="895" y1="874.6779" y2="874.6779"/><rect fill="#F1F1F1" height="36.3441" style="stroke:#181818;stroke-width:1.5;" width="124" x="895" y="856.5058"/><text fill="#000000" font-family="sans-serif" font-size="12" lengthAdjust="spacing" textLength="104" x="905" y="879.3339">TrustedComputing</text><line style="stroke:#181818;stroke-width:1.5;" x1="885" x2="895" y1="926.022" y2="926.022"/><rect fill="#F1F1F1" height="36.3441" style="stroke:#181818;stroke-width:1.5;" width="188" x="895" y="907.8499"/><text fill="#000000" font-family="sans-serif" font-size="12" lengthAdjust="spacing" textLength="168" x="905" y="930.678">TrustedExecutionEnvironment</text><line style="stroke:#181818;stroke-width:1.5;" x1="885" x2="895" y1="977.3661" y2="977.3661"/><rect fill="#F1F1F1" height="36.3441" style="stroke:#181818;stroke-width:1.5;" width="188" x="895" y="959.1941"/><text fill="#000000" font-family="sans-serif" font-size="12" lengthAdjust="spacing" textLength="168" x="905" y="982.0221">ZeroKnowledgeAuthentication</text><line style="stroke:#181818;stroke-width:1.5;" x1="885" x2="885" y1="122.6882" y2="977.3661"/><line style="stroke:#181818;stroke-width:1.5;" x1="1179" x2="1179" y1="66.3441" y2="86.3441"/><rect fill="#F1F1F1" height="36.3441" style="stroke:#181818;stroke-width:1.5;" width="140" x="1109" y="86.3441"/><text fill="#000000" font-family="sans-serif" font-size="12" lengthAdjust="spacing" textLength="120" x="1119" y="109.1722">DataBackupProtocols</text><line style="stroke:#181818;stroke-width:1.5;" x1="1354" x2="1354" y1="66.3441" y2="86.3441"/><rect fill="#F1F1F1" height="36.3441" style="stroke:#181818;stroke-width:1.5;" width="170" x="1269" y="86.3441"/><text fill="#000000" font-family="sans-serif" font-size="12" lengthAdjust="spacing" textLength="150" x="1279" y="109.1722">DataSanitisationTechnique</text><line style="stroke:#181818;stroke-width:1.5;" x1="1354" x2="1364" y1="155.8603" y2="155.8603"/><rect fill="#F1F1F1" height="36.3441" style="stroke:#181818;stroke-width:1.5;" width="102" x="1364" y="137.6882"/><text fill="#000000" font-family="sans-serif" font-size="12" lengthAdjust="spacing" textLength="82" x="1374" y="160.5163">DataRedaction</text><line style="stroke:#181818;stroke-width:1.5;" x1="1354" x2="1364" y1="207.2044" y2="207.2044"/><rect fill="#F1F1F1" height="36.3441" style="stroke:#181818;stroke-width:1.5;" width="108" x="1364" y="189.0323"/><text fill="#000000" font-family="sans-serif" font-size="12" lengthAdjust="spacing" textLength="88" x="1374" y="211.8604">Deidentification</text><line style="stroke:#181818;stroke-width:1.5;" x1="1354" x2="1354" y1="122.6882" y2="207.2044"/><line style="stroke:#181818;stroke-width:1.5;" x1="1574.5" x2="1574.5" y1="66.3441" y2="86.3441"/><rect fill="#F1F1F1" height="36.3441" style="stroke:#181818;stroke-width:1.5;" width="165" x="1492" y="86.3441"/><text fill="#000000" font-family="sans-serif" font-size="12" lengthAdjust="spacing" textLength="145" x="1502" y="109.1722">DigitalRightsManagement</text><line style="stroke:#181818;stroke-width:1.5;" x1="1716.5" x2="1716.5" y1="66.3441" y2="86.3441"/><rect fill="#F1F1F1" height="36.3441" style="stroke:#181818;stroke-width:1.5;" width="79" x="1677" y="86.3441"/><text fill="#000000" font-family="sans-serif" font-size="12" lengthAdjust="spacing" textLength="59" x="1687" y="109.1722">Encryption</text><line style="stroke:#181818;stroke-width:1.5;" x1="1716.5" x2="1726.5" y1="155.8603" y2="155.8603"/><rect fill="#F1F1F1" height="36.3441" style="stroke:#181818;stroke-width:1.5;" width="146" x="1726.5" y="137.6882"/><text fill="#000000" font-family="sans-serif" font-size="12" lengthAdjust="spacing" textLength="126" x="1736.5" y="160.5163">AsymmetricEncryption</text><line style="stroke:#181818;stroke-width:1.5;" x1="1716.5" x2="1726.5" y1="207.2044" y2="207.2044"/><rect fill="#F1F1F1" height="36.3441" style="stroke:#181818;stroke-width:1.5;" width="115" x="1726.5" y="189.0323"/><text fill="#000000" font-family="sans-serif" font-size="12" lengthAdjust="spacing" textLength="95" x="1736.5" y="211.8604">EncryptionAtRest</text><line style="stroke:#181818;stroke-width:1.5;" x1="1716.5" x2="1726.5" y1="258.5485" y2="258.5485"/><rect fill="#F1F1F1" height="36.3441" style="stroke:#181818;stroke-width:1.5;" width="138" x="1726.5" y="240.3765"/><text fill="#000000" font-family="sans-serif" font-size="12" lengthAdjust="spacing" textLength="118" x="1736.5" y="263.2045">EncryptionInTransfer</text><line style="stroke:#181818;stroke-width:1.5;" x1="1716.5" x2="1726.5" y1="309.8926" y2="309.8926"/><rect fill="#F1F1F1" height="36.3441" style="stroke:#181818;stroke-width:1.5;" width="112" x="1726.5" y="291.7206"/><text fill="#000000" font-family="sans-serif" font-size="12" lengthAdjust="spacing" textLength="92" x="1736.5" y="314.5487">EncryptionInUse</text><line style="stroke:#181818;stroke-width:1.5;" x1="1716.5" x2="1726.5" y1="361.2367" y2="361.2367"/><rect fill="#F1F1F1" height="36.3441" style="stroke:#181818;stroke-width:1.5;" width="135" x="1726.5" y="343.0647"/><text fill="#000000" font-family="sans-serif" font-size="12" lengthAdjust="spacing" textLength="115" x="1736.5" y="365.8928">EndToEndEncryption</text><line style="stroke:#181818;stroke-width:1.5;" x1="1716.5" x2="1726.5" y1="412.5809" y2="412.5809"/><rect fill="#F1F1F1" height="36.3441" style="stroke:#181818;stroke-width:1.5;" width="139" x="1726.5" y="394.4088"/><text fill="#000000" font-family="sans-serif" font-size="12" lengthAdjust="spacing" textLength="119" x="1736.5" y="417.2369">SymmetricEncryption</text><line style="stroke:#181818;stroke-width:1.5;" x1="1716.5" x2="1716.5" y1="122.6882" y2="412.5809"/><line style="stroke:#181818;stroke-width:1.5;" x1="1968.5" x2="1968.5" y1="66.3441" y2="86.3441"/><rect fill="#F1F1F1" height="36.3441" style="stroke:#181818;stroke-width:1.5;" width="152" x="1892.5" y="86.3441"/><text fill="#000000" font-family="sans-serif" font-size="12" lengthAdjust="spacing" textLength="132" x="1902.5" y="109.1722">InformationFlowControl</text><line style="stroke:#181818;stroke-width:1.5;" x1="2118.5" x2="2118.5" y1="66.3441" y2="86.3441"/><rect fill="#F1F1F1" height="36.3441" style="stroke:#181818;stroke-width:1.5;" width="108" x="2064.5" y="86.3441"/><text fill="#000000" font-family="sans-serif" font-size="12" lengthAdjust="spacing" textLength="88" x="2074.5" y="109.1722">SecurityMethod</text><line style="stroke:#181818;stroke-width:1.5;" x1="2118.5" x2="2128.5" y1="155.8603" y2="155.8603"/><rect fill="#F1F1F1" height="36.3441" style="stroke:#181818;stroke-width:1.5;" width="168" x="2128.5" y="137.6882"/><text fill="#000000" font-family="sans-serif" font-size="12" lengthAdjust="spacing" textLength="148" x="2138.5" y="160.5163">DistributedSystemSecurity</text><line style="stroke:#181818;stroke-width:1.5;" x1="2118.5" x2="2128.5" y1="207.2044" y2="207.2044"/><rect fill="#F1F1F1" height="36.3441" style="stroke:#181818;stroke-width:1.5;" width="123" x="2128.5" y="189.0323"/><text fill="#000000" font-family="sans-serif" font-size="12" lengthAdjust="spacing" textLength="103" x="2138.5" y="211.8604">DocumentSecurity</text><line style="stroke:#181818;stroke-width:1.5;" x1="2118.5" x2="2128.5" y1="258.5485" y2="258.5485"/><rect fill="#F1F1F1" height="36.3441" style="stroke:#181818;stroke-width:1.5;" width="125" x="2128.5" y="240.3765"/><text fill="#000000" font-family="sans-serif" font-size="12" lengthAdjust="spacing" textLength="105" x="2138.5" y="263.2045">FileSystemSecurity</text><line style="stroke:#181818;stroke-width:1.5;" x1="2118.5" x2="2128.5" y1="309.8926" y2="309.8926"/><rect fill="#F1F1F1" height="36.3441" style="stroke:#181818;stroke-width:1.5;" width="173" x="2128.5" y="291.7206"/><text fill="#000000" font-family="sans-serif" font-size="12" lengthAdjust="spacing" textLength="153" x="2138.5" y="314.5487">HardwareSecurityProtocols</text><line style="stroke:#181818;stroke-width:1.5;" x1="2118.5" x2="2128.5" y1="361.2367" y2="361.2367"/><rect fill="#F1F1F1" height="36.3441" style="stroke:#181818;stroke-width:1.5;" width="165" x="2128.5" y="343.0647"/><text fill="#000000" font-family="sans-serif" font-size="12" lengthAdjust="spacing" textLength="145" x="2138.5" y="365.8928">IntrusionDetectionSystem</text><line style="stroke:#181818;stroke-width:1.5;" x1="2118.5" x2="2128.5" y1="412.5809" y2="412.5809"/><rect fill="#F1F1F1" height="36.3441" style="stroke:#181818;stroke-width:1.5;" width="151" x="2128.5" y="394.4088"/><text fill="#000000" font-family="sans-serif" font-size="12" lengthAdjust="spacing" textLength="131" x="2138.5" y="417.2369">MobilePlatformSecurity</text><line style="stroke:#181818;stroke-width:1.5;" x1="2118.5" x2="2128.5" y1="463.925" y2="463.925"/><rect fill="#F1F1F1" height="36.3441" style="stroke:#181818;stroke-width:1.5;" width="140" x="2128.5" y="445.7529"/><text fill="#000000" font-family="sans-serif" font-size="12" lengthAdjust="spacing" textLength="120" x="2138.5" y="468.581">NetworkProxyRouting</text><line style="stroke:#181818;stroke-width:1.5;" x1="2118.5" x2="2128.5" y1="515.2691" y2="515.2691"/><rect fill="#F1F1F1" height="36.3441" style="stroke:#181818;stroke-width:1.5;" width="164" x="2128.5" y="497.097"/><text fill="#000000" font-family="sans-serif" font-size="12" lengthAdjust="spacing" textLength="144" x="2138.5" y="519.9251">NetworkSecurityProtocols</text><line style="stroke:#181818;stroke-width:1.5;" x1="2118.5" x2="2128.5" y1="566.6132" y2="566.6132"/><rect fill="#F1F1F1" height="36.3441" style="stroke:#181818;stroke-width:1.5;" width="162" x="2128.5" y="548.4411"/><text fill="#000000" font-family="sans-serif" font-size="12" lengthAdjust="spacing" textLength="142" x="2138.5" y="571.2692">OperatingSystemSecurity</text><line style="stroke:#181818;stroke-width:1.5;" x1="2118.5" x2="2128.5" y1="617.9573" y2="617.9573"/><rect fill="#F1F1F1" height="36.3441" style="stroke:#181818;stroke-width:1.5;" width="175" x="2128.5" y="599.7853"/><text fill="#000000" font-family="sans-serif" font-size="12" lengthAdjust="spacing" textLength="155" x="2138.5" y="622.6133">PenetrationTestingMethods</text><line style="stroke:#181818;stroke-width:1.5;" x1="2118.5" x2="2128.5" y1="669.3014" y2="669.3014"/><rect fill="#F1F1F1" height="36.3441" style="stroke:#181818;stroke-width:1.5;" width="120" x="2128.5" y="651.1294"/><text fill="#000000" font-family="sans-serif" font-size="12" lengthAdjust="spacing" textLength="100" x="2138.5" y="673.9575">UseSyntheticData</text><line style="stroke:#181818;stroke-width:1.5;" x1="2118.5" x2="2128.5" y1="720.6455" y2="720.6455"/><rect fill="#F1F1F1" height="36.3441" style="stroke:#181818;stroke-width:1.5;" width="138" x="2128.5" y="702.4735"/><text fill="#000000" font-family="sans-serif" font-size="12" lengthAdjust="spacing" textLength="118" x="2138.5" y="725.3016">VirtualisationSecurity</text><line style="stroke:#181818;stroke-width:1.5;" x1="2118.5" x2="2128.5" y1="771.9897" y2="771.9897"/><rect fill="#F1F1F1" height="36.3441" style="stroke:#181818;stroke-width:1.5;" width="179" x="2128.5" y="753.8176"/><text fill="#000000" font-family="sans-serif" font-size="12" lengthAdjust="spacing" textLength="159" x="2138.5" y="776.6457">VulnerabilityTestingMethods</text><line style="stroke:#181818;stroke-width:1.5;" x1="2118.5" x2="2128.5" y1="823.3338" y2="823.3338"/><rect fill="#F1F1F1" height="36.3441" style="stroke:#181818;stroke-width:1.5;" width="137" x="2128.5" y="805.1617"/><text fill="#000000" font-family="sans-serif" font-size="12" lengthAdjust="spacing" textLength="117" x="2138.5" y="827.9898">WebBrowserSecurity</text><line style="stroke:#181818;stroke-width:1.5;" x1="2118.5" x2="2128.5" y1="874.6779" y2="874.6779"/><rect fill="#F1F1F1" height="36.3441" style="stroke:#181818;stroke-width:1.5;" width="142" x="2128.5" y="856.5058"/><text fill="#000000" font-family="sans-serif" font-size="12" lengthAdjust="spacing" textLength="122" x="2138.5" y="879.3339">WebSecurityProtocols</text><line style="stroke:#181818;stroke-width:1.5;" x1="2118.5" x2="2128.5" y1="926.022" y2="926.022"/><rect fill="#F1F1F1" height="36.3441" style="stroke:#181818;stroke-width:1.5;" width="165" x="2128.5" y="907.8499"/><text fill="#000000" font-family="sans-serif" font-size="12" lengthAdjust="spacing" textLength="145" x="2138.5" y="930.678">WirelessSecurityProtocols</text><line style="stroke:#181818;stroke-width:1.5;" x1="2118.5" x2="2118.5" y1="122.6882" y2="926.022"/><line style="stroke:#181818;stroke-width:1.5;" x1="81.5" x2="2118.5" y1="66.3441" y2="66.3441"/><rect fill="#F1F1F1" height="36.3441" style="stroke:#181818;stroke-width:1.5;" width="123" x="1038.5" y="10"/><text fill="#000000" font-family="sans-serif" font-size="12" lengthAdjust="spacing" textLength="103" x="1048.5" y="32.8281">TechnicalMeasure</text><line style="stroke:#181818;stroke-width:1.5;" x1="1100" x2="1100" y1="46.3441" y2="66.3441"/><!--SRC=[ZLNRRk8m47tFL_YnHUfggTggugdbjhsnpHAWqhuPPqYi9ZPhZw7v-nqduPAIQbT8I9mpFfxByN1daHlSBcqGTDWCHAgauDa4k7K6Waw7tGi1rWwqGgC9nrJ717VOtF84QhYAGxcHM4oqagYDL4c9Ean18McYr2eq6hNGcIqL-bBdW4QAPb393KonHfqOlavR-OdBK8wve9jQs91RkzKcRg4YIYo3I2RgjG9-Wz7FIcypY1CuEL0MGDNOa_oRALQDgUgwjqLU5NOKKlnNMGt-6Oe9LzJbdA9AUYXNAp3-3Cz28pTS53MUIEIPhueZpQtAuu7RTEoKyEeredFw62y-KiBVjU-OjlZBSOKkFqcwlYaaNJ0Rwj-k3GSMuL6jjCdBIgQ-TjZmYlzADG9X0AEKUwj48gKgxOwW4ie1XsJDOg3pjSEZ2NxPtPbn5Y6k3bG6t8EZ3vBr6YEraKQhVK__CVyXHzxdujsj6yFtSCJ9wRKpgfVpnq4r3sAd47EnJte8ClR2gsFfQcfJcQHe6vDcdwPpSDGdul3p7gTWyHFug6Q6AqkUEI7c5ceidcdw-YGSjLx8ZgOyplJswFcNK_FF_x0XXjAImj9HzwE2Pf3lOYfM2-VBRO1ZIM_pDFQ1ctZB3Up0vXvvf2ISfPI6W52sl9Ae5eLUacQOSVIPDrH_0jAIU2UnZsAg3uwfyVRBNjTWk0zjIJC4HJsh_M1zqF5Qe8v7XI9_aRsyGKfm8GqwdjKkQgWjNAReBagVa1QzDrZsZTxIcsmS8xWzypTf8ADLVie6Tw3YyY-0-gHmFdbX6p2-ewpxxVBxvTMtwxF8AJRX1RkyOTrkhtlTkxvbWr4qOvu_3yv-X2_CQcS4i7WtTn8u3vxuXhEf8-_dqFFjKq_3vnt0Zb_Zqs9o2BYvkkXB95iPIeKj9i4GLfnsWZUnZgaLFJQVZIzkWnUk4aTFfyT01GDDkgOWBleB]--></g></svg>