<svg xmlns="http://www.w3.org/2000/svg" xmlns:xlink="http://www.w3.org/1999/xlink" contentStyleType="text/css" height="461px" preserveAspectRatio="none" style="width:710px;height:461px;background:#FFFFFF;" version="1.1" viewBox="0 0 710 461" width="710px" zoomAndPan="magnify"><defs/><g><!--cluster dpv--><g id="cluster_dpv"><path d="M8.5,101 L35.8125,101 A3.75,3.75 0 0 1 38.3125,103.5 L45.3125,126.0679 L700.5,126.0679 A2.5,2.5 0 0 1 703,128.5679 L703,451.5 A2.5,2.5 0 0 1 700.5,454 L8.5,454 A2.5,2.5 0 0 1 6,451.5 L6,103.5 A2.5,2.5 0 0 1 8.5,101 " fill="none" style="stroke:#000000;stroke-width:1.5;"/><line style="stroke:#000000;stroke-width:1.5;" x1="6" x2="45.3125" y1="126.0679" y2="126.0679"/><text fill="#000000" font-family="sans-serif" font-size="14" font-weight="bold" lengthAdjust="spacing" textLength="26.3125" x="10" y="117.9659">dpv</text></g><!--class Consequence--><g id="elem_Consequence"><rect codeLine="7" fill="#F1F1F1" height="29.0679" id="Consequence" rx="2.5" ry="2.5" style="stroke:#181818;stroke-width:0.5;" width="97" x="254.5" y="139"/><text fill="#000000" font-family="sans-serif" font-size="14" lengthAdjust="spacing" textLength="91" x="257.5" y="158.9659">Consequence</text></g><!--class Impact--><g id="elem_Impact"><rect codeLine="8" fill="#F1F1F1" height="29.0679" id="Impact" rx="2.5" ry="2.5" style="stroke:#181818;stroke-width:0.5;" width="53" x="22.5" y="229"/><text fill="#000000" font-family="sans-serif" font-size="14" lengthAdjust="spacing" textLength="47" x="25.5" y="248.9659">Impact</text></g><!--class ConsequenceAsSideEffect--><g id="elem_ConsequenceAsSideEffect"><rect codeLine="9" fill="#F1F1F1" height="29.0679" id="ConsequenceAsSideEffect" rx="2.5" ry="2.5" style="stroke:#181818;stroke-width:0.5;" width="180" x="111" y="229"/><text fill="#000000" font-family="sans-serif" font-size="14" lengthAdjust="spacing" textLength="174" x="114" y="248.9659">ConsequenceAsSideEffect</text></g><!--class ConsequenceOfFailure--><g id="elem_ConsequenceOfFailure"><rect codeLine="10" fill="#F1F1F1" height="29.0679" id="ConsequenceOfFailure" rx="2.5" ry="2.5" style="stroke:#181818;stroke-width:0.5;" width="159" x="326.5" y="229"/><text fill="#000000" font-family="sans-serif" font-size="14" lengthAdjust="spacing" textLength="153" x="329.5" y="248.9659">ConsequenceOfFailure</text></g><!--class ConsequenceOfSuccess--><g id="elem_ConsequenceOfSuccess"><rect codeLine="11" fill="#F1F1F1" height="29.0679" id="ConsequenceOfSuccess" rx="2.5" ry="2.5" style="stroke:#181818;stroke-width:0.5;" width="166" x="521" y="229"/><text fill="#000000" font-family="sans-serif" font-size="14" lengthAdjust="spacing" textLength="160" x="524" y="248.9659">ConsequenceOfSuccess</text></g><!--class Benefit--><g id="elem_Benefit"><rect codeLine="12" fill="#F1F1F1" height="29.0679" id="Benefit" rx="2.5" ry="2.5" style="stroke:#181818;stroke-width:0.5;" width="54" x="22" y="319"/><text fill="#000000" font-family="sans-serif" font-size="14" lengthAdjust="spacing" textLength="48" x="25" y="338.9659">Benefit</text></g><!--class Damage--><g id="elem_Damage"><rect codeLine="13" fill="#F1F1F1" height="29.0679" id="Damage" rx="2.5" ry="2.5" style="stroke:#181818;stroke-width:0.5;" width="62" x="111" y="319"/><text fill="#000000" font-family="sans-serif" font-size="14" lengthAdjust="spacing" textLength="56" x="114" y="338.9659">Damage</text></g><!--class Detriment--><g id="elem_Detriment"><rect codeLine="14" fill="#F1F1F1" height="29.0679" id="Detriment" rx="2.5" ry="2.5" style="stroke:#181818;stroke-width:0.5;" width="74" x="208" y="319"/><text fill="#000000" font-family="sans-serif" font-size="14" lengthAdjust="spacing" textLength="68" x="211" y="338.9659">Detriment</text></g><!--class Harm--><g id="elem_Harm"><rect codeLine="15" fill="#F1F1F1" height="29.0679" id="Harm" rx="2.5" ry="2.5" style="stroke:#181818;stroke-width:0.5;" width="43" x="22.5" y="409"/><text fill="#000000" font-family="sans-serif" font-size="14" lengthAdjust="spacing" textLength="37" x="25.5" y="428.9659">Harm</text></g><!--class MaterialDamage--><g id="elem_MaterialDamage"><rect codeLine="16" fill="#F1F1F1" height="29.0679" id="MaterialDamage" rx="2.5" ry="2.5" style="stroke:#181818;stroke-width:0.5;" width="118" x="101" y="409"/><text fill="#000000" font-family="sans-serif" font-size="14" lengthAdjust="spacing" textLength="112" x="104" y="428.9659">MaterialDamage</text></g><!--class NonMaterialDamage--><g id="elem_NonMaterialDamage"><rect codeLine="17" fill="#F1F1F1" height="29.0679" id="NonMaterialDamage" rx="2.5" ry="2.5" style="stroke:#181818;stroke-width:0.5;" width="146" x="254" y="409"/><text fill="#000000" font-family="sans-serif" font-size="14" lengthAdjust="spacing" textLength="140" x="257" y="428.9659">NonMaterialDamage</text></g><!--class Thing--><g id="elem_Thing"><rect codeLine="5" fill="#C0C0C0" height="29.0679" id="Thing" rx="2.5" ry="2.5" style="stroke:#181818;stroke-width:0.5;" width="45" x="280.5" y="7"/><text fill="#000000" font-family="sans-serif" font-size="14" lengthAdjust="spacing" textLength="39" x="283.5" y="26.9659">Thing</text></g><!--link Thing to Consequence--><g id="link_Thing_Consequence"><path codeLine="19" d="M303,36.41 C303,61.43 303,113.74 303,138.69 " fill="none" id="Thing-Consequence" style="stroke:#181818;stroke-width:1.0;"/><polygon fill="#000000" points="308,80.853,310.9389,71.8079,305.0611,71.8079,308,80.853" style="stroke:#000000;stroke-width:1.0;"/><text fill="#000000" font-family="sans-serif" font-size="13" lengthAdjust="spacing" textLength="102" x="317" y="80.897">hasConsequence</text></g><!--reverse link Consequence to Impact--><g id="link_Consequence_Impact"><path codeLine="20" d="M245.7425,174.3346 C193.4325,192.4646 120.5,217.73 75.81,233.21 " fill="none" id="Consequence-backto-Impact" style="stroke:#181818;stroke-width:1.0;"/><polygon fill="none" points="262.75,168.44,243.7777,168.6654,247.7074,180.0037,262.75,168.44" style="stroke:#181818;stroke-width:1.0;"/></g><!--reverse link Consequence to ConsequenceAsSideEffect--><g id="link_Consequence_ConsequenceAsSideEffect"><path codeLine="21" d="M273.4328,180.0101 C254.3828,196.4501 236.31,212.04 217.16,228.56 " fill="none" id="Consequence-backto-ConsequenceAsSideEffect" style="stroke:#181818;stroke-width:1.0;"/><polygon fill="none" points="287.06,168.25,269.5128,175.4677,277.3529,184.5525,287.06,168.25" style="stroke:#181818;stroke-width:1.0;"/></g><!--reverse link Consequence to ConsequenceOfFailure--><g id="link_Consequence_ConsequenceOfFailure"><path codeLine="22" d="M332.7747,179.9431 C352.0147,196.3831 370.34,212.04 389.68,228.56 " fill="none" id="Consequence-backto-ConsequenceOfFailure" style="stroke:#181818;stroke-width:1.0;"/><polygon fill="none" points="319.09,168.25,328.877,184.5047,336.6724,175.3816,319.09,168.25" style="stroke:#181818;stroke-width:1.0;"/></g><!--reverse link Consequence to ConsequenceOfSuccess--><g id="link_Consequence_ConsequenceOfSuccess"><path codeLine="23" d="M367.9668,173.4909 C424.3368,189.9709 500.26,212.17 556.53,228.62 " fill="none" id="Consequence-backto-ConsequenceOfSuccess" style="stroke:#181818;stroke-width:1.0;"/><polygon fill="none" points="350.69,168.44,366.2832,179.2499,369.6505,167.732,350.69,168.44" style="stroke:#181818;stroke-width:1.0;"/></g><!--reverse link Impact to Benefit--><g id="link_Impact_Benefit"><path codeLine="24" d="M49,276.25 C49,292.69 49,302.04 49,318.56 " fill="none" id="Impact-backto-Benefit" style="stroke:#181818;stroke-width:1.0;"/><polygon fill="none" points="49,258.25,43,276.25,55,276.25,49,258.25" style="stroke:#181818;stroke-width:1.0;"/></g><!--reverse link Impact to Damage--><g id="link_Impact_Damage"><path codeLine="25" d="M76.6031,270.6231 C93.9731,287.0631 109.8,302.04 127.26,318.56 " fill="none" id="Impact-backto-Damage" style="stroke:#181818;stroke-width:1.0;"/><polygon fill="none" points="63.53,258.25,72.4787,274.9808,80.7275,266.2654,63.53,258.25" style="stroke:#181818;stroke-width:1.0;"/></g><!--reverse link Impact to Detriment--><g id="link_Impact_Detriment"><path codeLine="26" d="M92.2617,263.9208 C128.3317,280.1108 175.87,301.46 213.96,318.57 " fill="none" id="Impact-backto-Detriment" style="stroke:#181818;stroke-width:1.0;"/><polygon fill="none" points="75.84,256.55,89.8047,269.3947,94.7186,258.447,75.84,256.55" style="stroke:#181818;stroke-width:1.0;"/></g><!--reverse link Damage to Harm--><g id="link_Damage_Harm"><path codeLine="27" d="M113.2965,360.2756 C94.9865,376.7156 77.93,392.04 59.53,408.56 " fill="none" id="Damage-backto-Harm" style="stroke:#181818;stroke-width:1.0;"/><polygon fill="none" points="126.69,348.25,109.288,355.8111,117.3051,364.7401,126.69,348.25" style="stroke:#181818;stroke-width:1.0;"/></g><!--reverse link Damage to MaterialDamage--><g id="link_Damage_MaterialDamage"><path codeLine="28" d="M148.4143,365.8854 C151.7743,382.3254 153.77,392.04 157.15,408.56 " fill="none" id="Damage-backto-MaterialDamage" style="stroke:#181818;stroke-width:1.0;"/><polygon fill="none" points="144.81,348.25,142.5358,367.0869,154.2928,364.684,144.81,348.25" style="stroke:#181818;stroke-width:1.0;"/></g><!--reverse link Damage to NonMaterialDamage--><g id="link_Damage_NonMaterialDamage"><path codeLine="29" d="M187.5643,356.173 C222.2043,372.653 263.24,392.17 297.82,408.62 " fill="none" id="Damage-backto-NonMaterialDamage" style="stroke:#181818;stroke-width:1.0;"/><polygon fill="none" points="171.31,348.44,184.9866,361.5911,190.1419,350.7549,171.31,348.44" style="stroke:#181818;stroke-width:1.0;"/></g><!--SRC=[VP3BJiCm44NN-2i6iM1LFW0X99w21R0eFp0uasI47y4ULqB0lnDm7TmsT6UVUssFpo4xRL934ENTqCbWq4coHXqRQWN4G-2k5sWua1RsJeaVVl2B5_6suaeRZ16UUtOT74KsAmfgGFsA7K4phE137UJAbNUHtX8vJGNTsx4fCuMBkEI6RjgMPkEdzXRPf42psJ9fJJ6Mx98SjJnTSurs76tQaGIsvARu3eCjwmSK2encyyYZTrl1byhVNopgGU0KUemrE5VrxknpxAyDxF3_NEmh_bdPtof-yjkvK2JLRFsx3JJfoc6clyvgiEMdZdRjVGC0]--></g></svg>