<svg xmlns="http://www.w3.org/2000/svg" xmlns:xlink="http://www.w3.org/1999/xlink" contentStyleType="text/css" height="325px" preserveAspectRatio="none" style="width:1820px;height:325px;background:#FFFFFF;" version="1.1" viewBox="0 0 1820 325" width="1820px" zoomAndPan="magnify"><defs/><g><!--cluster dpv--><g id="cluster_dpv"><path d="M68.48,101 L95.7925,101 A3.75,3.75 0 0 1 98.2925,103.5 L105.2925,126.0679 L1738.48,126.0679 A2.5,2.5 0 0 1 1740.98,128.5679 L1740.98,181.5 A2.5,2.5 0 0 1 1738.48,184 L68.48,184 A2.5,2.5 0 0 1 65.98,181.5 L65.98,103.5 A2.5,2.5 0 0 1 68.48,101 " fill="none" style="stroke:#000000;stroke-width:1.5;"/><line style="stroke:#000000;stroke-width:1.5;" x1="65.98" x2="105.2925" y1="126.0679" y2="126.0679"/><text fill="#000000" font-family="sans-serif" font-size="14" font-weight="bold" lengthAdjust="spacing" textLength="26.3125" x="69.98" y="117.9659">dpv</text></g><!--class Context--><g id="elem_Context"><rect codeLine="10" fill="#F1F1F1" height="29.0679" id="Context" rx="2.5" ry="2.5" style="stroke:#181818;stroke-width:0.5;" width="57" x="385.48" y="139"/><text fill="#000000" font-family="sans-serif" font-size="14" lengthAdjust="spacing" textLength="51" x="388.48" y="158.9659">Context</text></g><!--class Importance--><g id="elem_Importance"><rect codeLine="11" fill="#F1F1F1" height="29.0679" id="Importance" rx="2.5" ry="2.5" style="stroke:#181818;stroke-width:0.5;" width="84" x="81.98" y="139"/><text fill="#000000" font-family="sans-serif" font-size="14" lengthAdjust="spacing" textLength="78" x="84.98" y="158.9659">Importance</text></g><!--class Necessity--><g id="elem_Necessity"><rect codeLine="12" fill="#F1F1F1" height="29.0679" id="Necessity" rx="2.5" ry="2.5" style="stroke:#181818;stroke-width:0.5;" width="70" x="200.98" y="139"/><text fill="#000000" font-family="sans-serif" font-size="14" lengthAdjust="spacing" textLength="64" x="203.98" y="158.9659">Necessity</text></g><!--class Entity--><g id="elem_Entity"><rect codeLine="13" fill="#F1F1F1" height="29.0679" id="Entity" rx="2.5" ry="2.5" style="stroke:#181818;stroke-width:0.5;" width="44" x="305.98" y="139"/><text fill="#000000" font-family="sans-serif" font-size="14" lengthAdjust="spacing" textLength="38" x="308.98" y="158.9659">Entity</text></g><!--class Technology--><g id="elem_Technology"><rect codeLine="14" fill="#F1F1F1" height="29.0679" id="Technology" rx="2.5" ry="2.5" style="stroke:#181818;stroke-width:0.5;" width="83" x="1641.48" y="139"/><text fill="#000000" font-family="sans-serif" font-size="14" lengthAdjust="spacing" textLength="77" x="1644.48" y="158.9659">Technology</text></g><!--class Justification--><g id="elem_Justification"><rect codeLine="15" fill="#F1F1F1" height="29.0679" id="Justification" rx="2.5" ry="2.5" style="stroke:#181818;stroke-width:0.5;" width="85" x="1521.48" y="139"/><text fill="#000000" font-family="sans-serif" font-size="14" lengthAdjust="spacing" textLength="79" x="1524.48" y="158.9659">Justification</text></g><!--class Frequency--><g id="elem_Frequency"><rect codeLine="16" fill="#F1F1F1" height="29.0679" id="Frequency" rx="2.5" ry="2.5" style="stroke:#181818;stroke-width:0.5;" width="76" x="1409.98" y="139"/><text fill="#000000" font-family="sans-serif" font-size="14" lengthAdjust="spacing" textLength="70" x="1412.98" y="158.9659">Frequency</text></g><!--class Duration--><g id="elem_Duration"><rect codeLine="17" fill="#F1F1F1" height="29.0679" id="Duration" rx="2.5" ry="2.5" style="stroke:#181818;stroke-width:0.5;" width="65" x="1309.48" y="139"/><text fill="#000000" font-family="sans-serif" font-size="14" lengthAdjust="spacing" textLength="59" x="1312.48" y="158.9659">Duration</text></g><!--class Scope--><g id="elem_Scope"><rect codeLine="18" fill="#F1F1F1" height="29.0679" id="Scope" rx="2.5" ry="2.5" style="stroke:#181818;stroke-width:0.5;" width="46" x="1227.98" y="139"/><text fill="#000000" font-family="sans-serif" font-size="14" lengthAdjust="spacing" textLength="40" x="1230.98" y="158.9659">Scope</text></g><!--class Status--><g id="elem_Status"><rect codeLine="19" fill="#F1F1F1" height="29.0679" id="Status" rx="2.5" ry="2.5" style="stroke:#181818;stroke-width:0.5;" width="48" x="1144.98" y="139"/><text fill="#000000" font-family="sans-serif" font-size="14" lengthAdjust="spacing" textLength="42" x="1147.98" y="158.9659">Status</text></g><!--class ActivityStatus--><g id="elem_ActivityStatus"><rect codeLine="20" fill="#F1F1F1" height="29.0679" id="ActivityStatus" rx="2.5" ry="2.5" style="stroke:#181818;stroke-width:0.5;" width="96" x="593.98" y="139"/><text fill="#000000" font-family="sans-serif" font-size="14" lengthAdjust="spacing" textLength="90" x="596.98" y="158.9659">ActivityStatus</text></g><!--class AuditStatus--><g id="elem_AuditStatus"><rect codeLine="21" fill="#F1F1F1" height="29.0679" id="AuditStatus" rx="2.5" ry="2.5" style="stroke:#181818;stroke-width:0.5;" width="84" x="724.98" y="139"/><text fill="#000000" font-family="sans-serif" font-size="14" lengthAdjust="spacing" textLength="78" x="727.98" y="158.9659">AuditStatus</text></g><!--class RequestStatus--><g id="elem_RequestStatus"><rect codeLine="22" fill="#F1F1F1" height="29.0679" id="RequestStatus" rx="2.5" ry="2.5" style="stroke:#181818;stroke-width:0.5;" width="103" x="844.48" y="139"/><text fill="#000000" font-family="sans-serif" font-size="14" lengthAdjust="spacing" textLength="97" x="847.48" y="158.9659">RequestStatus</text></g><!--class ComplianceStatus--><g id="elem_ComplianceStatus"><rect codeLine="23" fill="#F1F1F1" height="29.0679" id="ComplianceStatus" rx="2.5" ry="2.5" style="stroke:#181818;stroke-width:0.5;" width="127" x="982.48" y="139"/><text fill="#000000" font-family="sans-serif" font-size="14" lengthAdjust="spacing" textLength="121" x="985.48" y="158.9659">ComplianceStatus</text></g><!--class Lawfulness--><g id="elem_Lawfulness"><rect codeLine="24" fill="#F1F1F1" height="29.0679" id="Lawfulness" rx="2.5" ry="2.5" style="stroke:#181818;stroke-width:0.5;" width="81" x="477.48" y="139"/><text fill="#000000" font-family="sans-serif" font-size="14" lengthAdjust="spacing" textLength="75" x="480.48" y="158.9659">Lawfulness</text></g><!--class Thing1--><g id="elem_Thing1"><rect codeLine="4" fill="#C0C0C0" height="29.0679" id="Thing1" rx="2.5" ry="2.5" style="stroke:#181818;stroke-width:0.5;" width="45" x="194.48" y="7"/><text fill="#000000" font-family="sans-serif" font-size="14" lengthAdjust="spacing" textLength="39" x="197.48" y="26.9659">Thing</text></g><!--class Thing2--><g id="elem_Thing2"><rect codeLine="5" fill="#C0C0C0" height="29.0679" id="Thing2" rx="2.5" ry="2.5" style="stroke:#181818;stroke-width:0.5;" width="45" x="1604.48" y="249"/><text fill="#000000" font-family="sans-serif" font-size="14" lengthAdjust="spacing" textLength="39" x="1607.48" y="268.9659">Thing</text></g><!--class Thing3--><g id="elem_Thing3"><rect codeLine="6" fill="#C0C0C0" height="29.0679" id="Thing3" rx="2.5" ry="2.5" style="stroke:#181818;stroke-width:0.5;" width="45" x="1277.48" y="249"/><text fill="#000000" font-family="sans-serif" font-size="14" lengthAdjust="spacing" textLength="39" x="1280.48" y="268.9659">Thing</text></g><!--class Thing4--><g id="elem_Thing4"><rect codeLine="7" fill="#C0C0C0" height="29.0679" id="Thing4" rx="2.5" ry="2.5" style="stroke:#181818;stroke-width:0.5;" width="45" x="795.48" y="7"/><text fill="#000000" font-family="sans-serif" font-size="14" lengthAdjust="spacing" textLength="39" x="798.48" y="26.9659">Thing</text></g><!--class Resource--><g id="elem_Resource"><rect fill="#F1F1F1" height="29.0679" id="Resource" rx="2.5" ry="2.5" style="stroke:#181818;stroke-width:0.5;" width="68" x="1409.98" y="249"/><text fill="#000000" font-family="sans-serif" font-size="14" lengthAdjust="spacing" textLength="62" x="1412.98" y="268.9659">Resource</text></g><!--link Thing1 to Context--><g id="link_Thing1_Context"><path codeLine="27" d="M239.83,25.04 C269.04,29.27 319.99,40.01 354.98,66 C380.95,85.29 399.33,119.57 408.12,138.67 " fill="none" id="Thing1-Context" style="stroke:#181818;stroke-width:1.0;"/><polygon fill="#000000" points="383.1239,78.651,377.2721,71.1537,373.983,76.0251,383.1239,78.651" style="stroke:#000000;stroke-width:1.0;"/><text fill="#000000" font-family="sans-serif" font-size="13" lengthAdjust="spacing" textLength="69" x="387.98" y="80.897">hasContext</text></g><!--link Thing1 to Importance--><g id="link_Thing1_Importance"><path codeLine="28" d="M194.2,24.31 C148.76,28.45 49.41,40.3 28.98,66 C6,94.89 52.44,122.58 88.14,138.54 " fill="none" id="Thing1-Importance" style="stroke:#181818;stroke-width:1.0;"/><polygon fill="#000000" points="30.5779,79.5171,38.8861,74.8883,34.5786,70.889,30.5779,79.5171" style="stroke:#000000;stroke-width:1.0;"/><text fill="#000000" font-family="sans-serif" font-size="13" lengthAdjust="spacing" textLength="91" x="42.98" y="80.897">hasImportance</text></g><!--link Thing1 to Necessity--><g id="link_Thing1_Necessity"><path codeLine="29" d="M194.11,31.01 C167.51,42.2 129.34,63.01 146.98,85 C157.23,97.78 168.84,84.7 182.98,93 C202.18,104.27 218.19,124.9 227.43,138.66 " fill="none" id="Thing1-Necessity" style="stroke:#181818;stroke-width:1.0;"/><polygon fill="#000000" points="153.4584,80.6294,153.5915,71.1198,147.9764,72.8578,153.4584,80.6294" style="stroke:#000000;stroke-width:1.0;"/><text fill="#000000" font-family="sans-serif" font-size="13" lengthAdjust="spacing" textLength="78" x="160.98" y="80.897">hasNecessity</text></g><!--link Thing1 to Entity--><g id="link_Thing1_Entity"><path codeLine="30" d="M230.85,36.24 C251.34,56.54 287.34,92.23 287.98,93 C300.18,107.78 312.18,126.31 319.8,138.73 " fill="none" id="Thing1-Entity" style="stroke:#181818;stroke-width:1.0;"/><polygon fill="#000000" points="287.2573,79.6292,283.5482,70.8717,279.109,74.7244,287.2573,79.6292" style="stroke:#000000;stroke-width:1.0;"/><text fill="#000000" font-family="sans-serif" font-size="13" lengthAdjust="spacing" textLength="56" x="292.98" y="80.897">hasEntity</text></g><!--link Technology to Thing2--><g id="link_Technology_Thing2"><path codeLine="31" d="M1694.16,168.27 C1703.71,181.82 1714.5,202.78 1704.98,219 C1693.2,239.05 1668.44,250.54 1649.96,256.62 " fill="none" id="Technology-Thing2" style="stroke:#181818;stroke-width:1.0;"/><polygon fill="#000000" points="1715.2171,205.3814,1708.5418,212.1557,1713.7985,214.7856,1715.2171,205.3814" style="stroke:#000000;stroke-width:1.0;"/><text fill="#000000" font-family="sans-serif" font-size="13" lengthAdjust="spacing" textLength="91" x="1721.98" y="214.897">hasTechnology</text></g><!--link Justification to Thing2--><g id="link_Justification_Thing2"><path codeLine="32" d="M1568.45,168.4 C1573.09,181.86 1581.05,202.59 1590.98,219 C1597.47,229.74 1606.47,240.61 1613.85,248.8 " fill="none" id="Justification-Thing2" style="stroke:#181818;stroke-width:1.0;"/><polygon fill="#000000" points="1593.5215,205.4992,1595.4099,214.8204,1600.5281,211.9303,1593.5215,205.4992" style="stroke:#000000;stroke-width:1.0;"/><text fill="#000000" font-family="sans-serif" font-size="13" lengthAdjust="spacing" textLength="91" x="1604.98" y="214.897">hasJustification</text></g><!--link Frequency to Thing3--><g id="link_Frequency_Thing3"><path codeLine="33" d="M1445.32,168.45 C1441.86,182.95 1434.48,205.37 1419.98,219 C1392.69,244.65 1349.13,255.39 1322.68,259.73 " fill="none" id="Frequency-Thing3" style="stroke:#181818;stroke-width:1.0;"/><polygon fill="#000000" points="1441.991,206.8677,1432.9803,209.9106,1436.4898,214.6258,1441.991,206.8677" style="stroke:#000000;stroke-width:1.0;"/><text fill="#000000" font-family="sans-serif" font-size="13" lengthAdjust="spacing" textLength="84" x="1446.98" y="214.897">hasFrequency</text></g><!--link Duration to Thing3--><g id="link_Duration_Thing3"><path codeLine="34" d="M1336.66,168.18 C1328.62,188.84 1313.47,227.79 1305.39,248.59 " fill="none" id="Duration-Thing3" style="stroke:#181818;stroke-width:1.0;"/><polygon fill="#000000" points="1329.7922,205.193,1323.7748,212.5579,1329.253,214.6882,1329.7922,205.193" style="stroke:#000000;stroke-width:1.0;"/><text fill="#000000" font-family="sans-serif" font-size="13" lengthAdjust="spacing" textLength="74" x="1336.98" y="214.897">hasDuration</text></g><!--link Scope to Thing3--><g id="link_Scope_Thing3"><path codeLine="35" d="M1242.82,168.31 C1235.96,181.89 1228.51,202.86 1236.98,219 C1245.44,235.12 1262.89,246.45 1277.28,253.49 " fill="none" id="Scope-Thing3" style="stroke:#181818;stroke-width:1.0;"/><polygon fill="#000000" points="1240.1049,205.2179,1240.7726,214.705,1246.2214,212.5007,1240.1049,205.2179" style="stroke:#000000;stroke-width:1.0;"/><text fill="#000000" font-family="sans-serif" font-size="13" lengthAdjust="spacing" textLength="57" x="1250.98" y="214.897">hasScope</text></g><!--link Status to Thing3--><g id="link_Status_Thing3"><path codeLine="36" d="M1158.74,168.37 C1149.76,182.37 1139.75,204.02 1150.98,219 C1166.17,239.26 1239.41,253.22 1277.24,259.21 " fill="none" id="Status-Thing3" style="stroke:#181818;stroke-width:1.0;"/><polygon fill="#000000" points="1152.0118,206.8111,1157.4023,214.6464,1160.9783,209.9815,1152.0118,206.8111" style="stroke:#000000;stroke-width:1.0;"/><text fill="#000000" font-family="sans-serif" font-size="13" lengthAdjust="spacing" textLength="59" x="1164.98" y="214.897">hasStatus</text></g><!--link Thing4 to ActivityStatus--><g id="link_Thing4_ActivityStatus"><path codeLine="37" d="M795.06,22.66 C762.39,24.14 702.56,31.75 667.98,66 C648.14,85.64 643.32,119.79 642.22,138.77 " fill="none" id="Thing4-ActivityStatus" style="stroke:#181818;stroke-width:1.0;"/><polygon fill="#000000" points="668.9986,78.8776,677.9789,75.7463,674.4232,71.0658,668.9986,78.8776" style="stroke:#000000;stroke-width:1.0;"/><text fill="#000000" font-family="sans-serif" font-size="13" lengthAdjust="spacing" textLength="103" x="681.98" y="80.897">hasActivityStatus</text></g><!--link Thing4 to AuditStatus--><g id="link_Thing4_AuditStatus"><path codeLine="38" d="M812.52,36.41 C802.7,61.43 782.18,113.74 772.4,138.69 " fill="none" id="Thing4-AuditStatus" style="stroke:#181818;stroke-width:1.0;"/><polygon fill="#000000" points="803.1542,80.5077,809.1931,73.1605,803.7212,71.0141,803.1542,80.5077" style="stroke:#000000;stroke-width:1.0;"/><text fill="#000000" font-family="sans-serif" font-size="13" lengthAdjust="spacing" textLength="91" x="813.98" y="80.897">hasAuditStatus</text></g><!--link Thing4 to RequestStatus--><g id="link_Thing4_RequestStatus"><path codeLine="39" d="M840.81,25.71 C863.74,30.28 897.91,41.08 913.98,66 C928.52,88.56 914.77,120.7 904.61,138.77 " fill="none" id="Thing4-RequestStatus" style="stroke:#181818;stroke-width:1.0;"/><polygon fill="#000000" points="926.4373,80.2075,924.5516,70.8858,919.4325,73.7745,926.4373,80.2075" style="stroke:#000000;stroke-width:1.0;"/><text fill="#000000" font-family="sans-serif" font-size="13" lengthAdjust="spacing" textLength="108" x="932.98" y="80.897">hasRequestStatus</text></g><!--link Thing4 to ComplianceStatus--><g id="link_Thing4_ComplianceStatus"><path codeLine="40" d="M840.67,23.22 C893.74,25.43 1023.48,34.07 1049.98,66 C1066.97,86.47 1058.55,119.99 1051.74,138.72 " fill="none" id="Thing4-ComplianceStatus" style="stroke:#181818;stroke-width:1.0;"/><polygon fill="#000000" points="1067.3662,78.2532,1060.8423,71.333,1058.0207,76.4894,1067.3662,78.2532" style="stroke:#000000;stroke-width:1.0;"/><text fill="#000000" font-family="sans-serif" font-size="13" lengthAdjust="spacing" textLength="129" x="1071.98" y="80.897">hasComplianceStatus</text></g><!--link Thing4 to Lawfulness--><g id="link_Thing4_Lawfulness"><path codeLine="41" d="M795.08,23.13 C736.36,25.2 582.36,33.66 544.98,66 C523.68,84.42 518.96,119.37 518.06,138.73 " fill="none" id="Thing4-Lawfulness" style="stroke:#181818;stroke-width:1.0;"/><polygon fill="#000000" points="545.3657,77.7786,554.8449,77.0074,552.5813,71.583,545.3657,77.7786" style="stroke:#000000;stroke-width:1.0;"/><text fill="#000000" font-family="sans-serif" font-size="13" lengthAdjust="spacing" textLength="87" x="558.98" y="80.897">hasLawfulness</text></g><!--link Thing2 to Resource--><g id="link_Thing2_Resource"><path codeLine="43" d="M1604.09,278.39 C1598.47,281.32 1592.31,283.96 1586.23,285.5 C1566.84,290.4 1515.83,289.46 1496.23,285.5 C1488.7,283.98 1480.91,281.34 1473.72,278.41 " fill="none" id="Thing2-Resource" style="stroke:#181818;stroke-width:1.0;"/><polygon fill="#000000" points="1496.23,276.3538,1505.2755,279.2913,1505.2746,273.4135,1496.23,276.3538" style="stroke:#000000;stroke-width:1.0;"/><text fill="#000000" font-family="sans-serif" font-size="13" lengthAdjust="spacing" textLength="75" x="1510.23" y="281.397">hasIdentifier</text></g><!--link Thing2 to Resource--><g id="link_Thing2_Resource"><path codeLine="44" d="M1604,263.5 C1572.37,263.5 1515.15,263.5 1478.4,263.5 " fill="none" id="Thing2-Resource-1" style="stroke:#181818;stroke-width:1.0;"/><polygon fill="#000000" points="1495.23,251.353,1504.2751,254.2919,1504.2751,248.4141,1495.23,251.353" style="stroke:#000000;stroke-width:1.0;"/><text fill="#000000" font-family="sans-serif" font-size="13" lengthAdjust="spacing" textLength="77" x="1509.23" y="256.397">hasOutcome</text></g><!--link Resource to Thing2--><g id="link_Resource_Thing2"><path codeLine="45" d="M1455.03,278.08 C1464.54,289.33 1479.37,304.03 1496.23,310.5 C1514.9,317.66 1568.03,318.8 1586.23,310.5 C1600.57,303.95 1611.81,289.58 1618.82,278.45 " fill="none" id="Resource-Thing2" style="stroke:#181818;stroke-width:1.0;"/><polygon fill="#000000" points="1514.73,301.3417,1523.7684,304.3011,1523.7817,298.4232,1514.73,301.3417" style="stroke:#000000;stroke-width:1.0;"/><text fill="#000000" font-family="sans-serif" font-size="13" lengthAdjust="spacing" textLength="38" x="1528.73" y="306.397">isAfter</text></g><!--link Resource to Thing2--><g id="link_Resource_Thing2"><path codeLine="46" d="M1473.12,248.59 C1480.18,245.66 1487.83,243.02 1495.23,241.5 C1515.25,237.38 1567.43,236.39 1587.23,241.5 C1593.18,243.04 1599.2,245.68 1604.69,248.61 " fill="none" id="Resource-Thing2-1" style="stroke:#181818;stroke-width:1.0;"/><polygon fill="#000000" points="1509.73,226.3522,1518.7746,229.2925,1518.7755,223.4147,1509.73,226.3522" style="stroke:#000000;stroke-width:1.0;"/><text fill="#000000" font-family="sans-serif" font-size="13" lengthAdjust="spacing" textLength="48" x="1523.73" y="231.397">isBefore</text></g><!--SRC=[XPB1JiCm44JFv2jCEGU9jYSEIAM0148WqVw0SPpMmh63lIvKY7ydsSHEDXBgRMVcfQvtVAwCqA6GpCDHoyjQSmEXqXdOce5bxnR0LgnGJWfGrcIPqDnxDjlkbTdD6FSCfojsuPK-IFTFFZ-HBqxaovHdDHSVV2TPKH_OJtRMyMjhG7v3b8zLRHrm8sHqNgIGtYiuHkFUm4XjfTWRg-qkEK_1WogLu7ZjtdnmyZD88n9r5nm1DiBMwSmDS0W-gbMpm4DpvCGDXG9glRLd-8cvjbMjLNiZwZ_php9eqzmj-ysolekyoED6hjcU-tvcDsDWs14oWwHOMXnIIL6eMoOItHZZESj3Fjek8eEa65avaiI9y0BXL0M2IL4ereDC51J1nZ37QHBYhhiKnnWlyTgqKiIeDS67hZjsq1GaBm1Hub1u-ZBwngb9FnaU3SA3RB1KY6l_XxV1nGTIIDEM8TsejIdq6a3OIeu8FIQKNvL0Vc0ItyhIklRpFm00]--></g></svg>