<svg xmlns="http://www.w3.org/2000/svg" xmlns:xlink="http://www.w3.org/1999/xlink" contentStyleType="text/css" height="819px" preserveAspectRatio="none" style="width:751px;height:819px;background:#FFFFFF;" version="1.1" viewBox="0 0 751 819" width="751px" zoomAndPan="magnify"><defs/><g><!--cluster dpv--><g id="cluster_dpv"><path d="M13.9389,6.602 L41.2514,6.602 A3.75,3.75 0 0 1 43.7514,9.102 L50.7514,31.6699 L741.9389,31.6699 A2.5,2.5 0 0 1 744.4389,34.1699 L744.4389,810.102 A2.5,2.5 0 0 1 741.9389,812.602 L13.9389,812.602 A2.5,2.5 0 0 1 11.4389,810.102 L11.4389,9.102 A2.5,2.5 0 0 1 13.9389,6.602 " fill="none" style="stroke:#000000;stroke-width:1.5;"/><line style="stroke:#000000;stroke-width:1.5;" x1="11.4389" x2="50.7514" y1="31.6699" y2="31.6699"/><text fill="#000000" font-family="sans-serif" font-size="14" font-weight="bold" lengthAdjust="spacing" textLength="26.3125" x="15.4389" y="23.5679">dpv</text></g><!--cluster legal--><g id="cluster_legal"><path d="M305.9389,52.602 L342.1264,52.602 A3.75,3.75 0 0 1 344.6264,55.102 L351.6264,77.6699 L717.9389,77.6699 A2.5,2.5 0 0 1 720.4389,80.1699 L720.4389,786.102 A2.5,2.5 0 0 1 717.9389,788.602 L305.9389,788.602 A2.5,2.5 0 0 1 303.4389,786.102 L303.4389,55.102 A2.5,2.5 0 0 1 305.9389,52.602 " fill="none" style="stroke:#000000;stroke-width:1.5;"/><line style="stroke:#000000;stroke-width:1.5;" x1="303.4389" x2="351.6264" y1="77.6699" y2="77.6699"/><text fill="#000000" font-family="sans-serif" font-size="14" font-weight="bold" lengthAdjust="spacing" textLength="35.1875" x="307.4389" y="69.5679">legal</text></g><!--cluster eu--><g id="cluster_eu"><path d="M329.9389,98.602 L348.8139,98.602 A3.75,3.75 0 0 1 351.3139,101.102 L358.3139,123.6699 L693.9389,123.6699 A2.5,2.5 0 0 1 696.4389,126.1699 L696.4389,762.102 A2.5,2.5 0 0 1 693.9389,764.602 L329.9389,764.602 A2.5,2.5 0 0 1 327.4389,762.102 L327.4389,101.102 A2.5,2.5 0 0 1 329.9389,98.602 " fill="none" style="stroke:#000000;stroke-width:1.5;"/><line style="stroke:#000000;stroke-width:1.5;" x1="327.4389" x2="358.3139" y1="123.6699" y2="123.6699"/><text fill="#000000" font-family="sans-serif" font-size="14" font-weight="bold" lengthAdjust="spacing" textLength="17.875" x="331.4389" y="115.5679">eu</text></g><!--cluster gdpr--><g id="cluster_gdpr"><path d="M353.9389,144.602 L389.6889,144.602 A3.75,3.75 0 0 1 392.1889,147.102 L399.1889,169.6699 L669.9389,169.6699 A2.5,2.5 0 0 1 672.4389,172.1699 L672.4389,738.102 A2.5,2.5 0 0 1 669.9389,740.602 L353.9389,740.602 A2.5,2.5 0 0 1 351.4389,738.102 L351.4389,147.102 A2.5,2.5 0 0 1 353.9389,144.602 " fill="none" style="stroke:#000000;stroke-width:1.5;"/><line style="stroke:#000000;stroke-width:1.5;" x1="351.4389" x2="399.1889" y1="169.6699" y2="169.6699"/><text fill="#000000" font-family="sans-serif" font-size="14" font-weight="bold" lengthAdjust="spacing" textLength="34.75" x="355.4389" y="161.5679">gdpr</text></g><!--class Process--><g id="elem_Process"><rect codeLine="6" fill="#F1F1F1" height="29.0679" id="Process" rx="2.5" ry="2.5" style="stroke:#181818;stroke-width:0.5;" width="57" x="113.4389" y="272.102"/><text fill="#000000" font-family="sans-serif" font-size="14" lengthAdjust="spacing" textLength="51" x="116.4389" y="292.0679">Process</text></g><!--class TechnicalOrganisationalMeasure--><g id="elem_TechnicalOrganisationalMeasure"><rect codeLine="7" fill="#F1F1F1" height="29.0679" id="TechnicalOrganisationalMeasure" rx="2.5" ry="2.5" style="stroke:#181818;stroke-width:0.5;" width="229" x="27.4389" y="355.102"/><text fill="#000000" font-family="sans-serif" font-size="14" lengthAdjust="spacing" textLength="223" x="30.4389" y="375.0679">TechnicalOrganisationalMeasure</text></g><!--class OrganisationalMeasure--><g id="elem_OrganisationalMeasure"><rect codeLine="8" fill="#F1F1F1" height="29.0679" id="OrganisationalMeasure" rx="2.5" ry="2.5" style="stroke:#181818;stroke-width:0.5;" width="165" x="59.4389" y="439.102"/><text fill="#000000" font-family="sans-serif" font-size="14" lengthAdjust="spacing" textLength="159" x="62.4389" y="459.0679">OrganisationalMeasure</text></g><polygon fill="none" points="224.4389,453.609,244.4366,446.6025,244.4412,460.6025" style="stroke:#181818;stroke-width:1.0;"/><line style="stroke:#181818;stroke-width:1.0;" x1="244.4389" x2="245.9389" y1="453.6025" y2="453.602"/><line style="stroke:#181818;stroke-width:1.0;" x1="141.9389" x2="141.9389" y1="439.102" y2="418.822"/><!--class DataTransferTool--><g id="elem_DataTransferTool"><rect codeLine="11" fill="#F1F1F1" height="29.0679" id="DataTransferTool" rx="2.5" ry="2.5" style="stroke:#181818;stroke-width:0.5;" width="122" x="450.9389" y="695.102"/><text fill="#000000" font-family="sans-serif" font-size="14" lengthAdjust="spacing" textLength="116" x="453.9389" y="715.0679">DataTransferTool</text></g><!--class AdHocContractualClauses--><g id="elem_AdHocContractualClauses"><rect codeLine="12" fill="#F1F1F1" height="29.0679" id="AdHocContractualClauses" rx="2.5" ry="2.5" style="stroke:#181818;stroke-width:0.5;" width="179" x="422.4389" y="631.102"/><text fill="#000000" font-family="sans-serif" font-size="14" lengthAdjust="spacing" textLength="173" x="425.4389" y="651.0679">AdHocContractualClauses</text></g><!--class BindingCorporateRules--><g id="elem_BindingCorporateRules"><rect codeLine="13" fill="#F1F1F1" height="29.0679" id="BindingCorporateRules" rx="2.5" ry="2.5" style="stroke:#181818;stroke-width:0.5;" width="163" x="430.4389" y="567.102"/><text fill="#000000" font-family="sans-serif" font-size="14" lengthAdjust="spacing" textLength="157" x="433.4389" y="587.0679">BindingCorporateRules</text></g><!--class CertificationMechanismsForDataTransfers--><g id="elem_CertificationMechanismsForDataTransfers"><rect codeLine="14" fill="#F1F1F1" height="29.0679" id="CertificationMechanismsForDataTransfers" rx="2.5" ry="2.5" style="stroke:#181818;stroke-width:0.5;" width="289" x="367.4389" y="503.102"/><text fill="#000000" font-family="sans-serif" font-size="14" lengthAdjust="spacing" textLength="283" x="370.4389" y="523.0679">CertificationMechanismsForDataTransfers</text></g><!--class CodesOfConductForDataTransfers--><g id="elem_CodesOfConductForDataTransfers"><rect codeLine="15" fill="#F1F1F1" height="29.0679" id="CodesOfConductForDataTransfers" rx="2.5" ry="2.5" style="stroke:#181818;stroke-width:0.5;" width="235" x="394.4389" y="439.102"/><text fill="#000000" font-family="sans-serif" font-size="14" lengthAdjust="spacing" textLength="229" x="397.4389" y="459.0679">CodesOfConductForDataTransfers</text></g><!--class SCCByCommission--><g id="elem_SCCByCommission"><rect codeLine="16" fill="#F1F1F1" height="29.0679" id="SCCByCommission" rx="2.5" ry="2.5" style="stroke:#181818;stroke-width:0.5;" width="130" x="446.9389" y="375.102"/><text fill="#000000" font-family="sans-serif" font-size="14" lengthAdjust="spacing" textLength="124" x="449.9389" y="395.0679">SCCByCommission</text></g><!--class SCCBySupervisoryAuthority--><g id="elem_SCCBySupervisoryAuthority"><rect codeLine="17" fill="#F1F1F1" height="29.0679" id="SCCBySupervisoryAuthority" rx="2.5" ry="2.5" style="stroke:#181818;stroke-width:0.5;" width="189" x="417.4389" y="311.102"/><text fill="#000000" font-family="sans-serif" font-size="14" lengthAdjust="spacing" textLength="183" x="420.4389" y="331.0679">SCCBySupervisoryAuthority</text></g><!--class StandardContractualClauses--><g id="elem_StandardContractualClauses"><rect codeLine="18" fill="#F1F1F1" height="29.0679" id="StandardContractualClauses" rx="2.5" ry="2.5" style="stroke:#181818;stroke-width:0.5;" width="198" x="412.9389" y="247.102"/><text fill="#000000" font-family="sans-serif" font-size="14" lengthAdjust="spacing" textLength="192" x="415.9389" y="267.0679">StandardContractualClauses</text></g><!--class SupplementaryMeasure--><g id="elem_SupplementaryMeasure"><rect codeLine="19" fill="#F1F1F1" height="29.0679" id="SupplementaryMeasure" rx="2.5" ry="2.5" style="stroke:#181818;stroke-width:0.5;" width="168" x="427.9389" y="183.102"/><text fill="#000000" font-family="sans-serif" font-size="14" lengthAdjust="spacing" textLength="162" x="430.9389" y="203.0679">SupplementaryMeasure</text></g><!--link TechnicalOrganisationalMeasure to Process--><g id="link_TechnicalOrganisationalMeasure_Process"><path codeLine="22" d="M141.9389,354.762 C141.9389,339.752 141.9389,316.662 141.9389,301.592 " fill="none" id="TechnicalOrganisationalMeasure-Process" style="stroke:#181818;stroke-width:1.0;"/><polygon fill="#000000" points="18.9389,333.455,21.8779,324.4099,16,324.4099,18.9389,333.455" style="stroke:#000000;stroke-width:1.0;"/><text fill="#000000" font-family="sans-serif" font-size="13" lengthAdjust="spacing" textLength="216" x="27.9389" y="333.499">hasTechnicalOrganisationalMeasure</text></g><!--link OrganisationalMeasure to TechnicalOrganisationalMeasure--><g id="link_OrganisationalMeasure_TechnicalOrganisationalMeasure"><path codeLine="23" d="M141.9389,418.822 C141.9389,407.412 141.9389,414.002 141.9389,402.602 " fill="none" id="OrganisationalMeasure-to-TechnicalOrganisationalMeasure" style="stroke:#181818;stroke-width:1.0;"/><polygon fill="none" points="141.9389,384.602,135.9389,402.602,147.9389,402.602,141.9389,384.602" style="stroke:#181818;stroke-width:1.0;"/></g><!--reverse link OrganisationalMeasure to DataTransferTool--><g id="link_OrganisationalMeasure_DataTransferTool"><path codeLine="24" d="M245.9389,453.602 C245.9389,453.602 258.1489,642.842 295.4389,677.602 C336.5189,715.902 402.4589,720.532 450.5889,717.672 " fill="none" id="OrganisationalMeasure-backto-DataTransferTool" style="stroke:#181818;stroke-width:1.0;"/></g><!--reverse link OrganisationalMeasure to AdHocContractualClauses--><g id="link_OrganisationalMeasure_AdHocContractualClauses"><path codeLine="25" d="M245.9389,453.602 C245.9389,453.602 238.9489,565.132 295.4389,613.602 C329.8189,643.092 379.1889,652.002 421.9989,653.122 " fill="none" id="OrganisationalMeasure-backto-AdHocContractualClauses" style="stroke:#181818;stroke-width:1.0;"/></g><!--reverse link OrganisationalMeasure to BindingCorporateRules--><g id="link_OrganisationalMeasure_BindingCorporateRules"><path codeLine="26" d="M245.9389,453.602 C245.9389,453.602 256.3989,521.672 295.4389,549.602 C334.0389,577.222 386.5889,585.452 430.1289,586.672 " fill="none" id="OrganisationalMeasure-backto-BindingCorporateRules" style="stroke:#181818;stroke-width:1.0;"/></g><!--reverse link OrganisationalMeasure to CertificationMechanismsForDataTransfers--><g id="link_OrganisationalMeasure_CertificationMechanismsForDataTransfers"><path codeLine="27" d="M245.9389,453.602 C245.9389,453.602 270.9289,476.362 295.4389,485.602 C317.9989,494.112 342.6889,500.362 367.0489,504.962 " fill="none" id="OrganisationalMeasure-backto-CertificationMechanismsForDataTransfers" style="stroke:#181818;stroke-width:1.0;"/></g><!--reverse link OrganisationalMeasure to CodesOfConductForDataTransfers--><g id="link_OrganisationalMeasure_CodesOfConductForDataTransfers"><path codeLine="28" d="M245.9389,453.602 C245.9389,453.602 323.2289,453.602 394.3189,453.602 " fill="none" id="OrganisationalMeasure-backto-CodesOfConductForDataTransfers" style="stroke:#181818;stroke-width:1.0;"/></g><!--reverse link OrganisationalMeasure to SCCByCommission--><g id="link_OrganisationalMeasure_SCCByCommission"><path codeLine="29" d="M245.9389,453.602 C245.9389,453.602 270.9289,430.842 295.4389,421.602 C344.0989,403.252 402.6589,395.382 446.4389,392.032 " fill="none" id="OrganisationalMeasure-backto-SCCByCommission" style="stroke:#181818;stroke-width:1.0;"/></g><!--reverse link OrganisationalMeasure to SCCBySupervisoryAuthority--><g id="link_OrganisationalMeasure_SCCBySupervisoryAuthority"><path codeLine="30" d="M245.9389,453.602 C245.9389,453.602 256.3989,385.532 295.4389,357.602 C330.2789,332.672 376.4589,323.542 417.1389,321.102 " fill="none" id="OrganisationalMeasure-backto-SCCBySupervisoryAuthority" style="stroke:#181818;stroke-width:1.0;"/></g><!--reverse link OrganisationalMeasure to StandardContractualClauses--><g id="link_OrganisationalMeasure_StandardContractualClauses"><path codeLine="31" d="M245.9389,453.602 C245.9389,453.602 281.3189,305.722 295.4389,293.602 C327.2989,266.262 372.0489,256.622 412.5189,254.462 " fill="none" id="OrganisationalMeasure-backto-StandardContractualClauses" style="stroke:#181818;stroke-width:1.0;"/></g><!--reverse link OrganisationalMeasure to SupplementaryMeasure--><g id="link_OrganisationalMeasure_SupplementaryMeasure"><path codeLine="32" d="M245.9389,453.602 C245.9389,453.602 290.7789,233.952 295.4389,229.602 C330.2989,197.102 383.0489,188.842 427.6289,188.832 " fill="none" id="OrganisationalMeasure-backto-SupplementaryMeasure" style="stroke:#181818;stroke-width:1.0;"/></g><!--SRC=[ZLB1JiCm33tJhmWVq1uu8eIq5I4uJ4DiFs0bRXlDJI8xcLG1_quhiNM2jkCO-xtusU_TMgSf6LGIEy8Y4BYOMihaO5q0XbRLx5DuTGsoZU0qghkCi8egUiMsRg8obb57wrsM1T07g56PS5GVsOqc455lx3MAd9vxr8sp6cZBDJWhC521DWYI64-ewURNvOI2i0OgC1Mr2JpEUu88UmOd5VBUUphLL-R5wzAxoA1Z0Ye9ak1PrzewOrrTUWwU8U9xeh5P8aTRzQe7FPj-Wq5SAy-UBwUDS6zGjbK_p2GTvr2xibntfMzRApASxxAyIm7vQCLpjqgnyVtnkpEWzy40c_bTUdOWRD55u6uyNlPZXShJ5HlKlMf0hc0Uiok0Xy-SyXahPndvNmCNi7EcBb2cZLuW_DVyfI-M0x70_1sIQz39u2oHviEqn9eAs3S0]--></g></svg>