<svg xmlns="http://www.w3.org/2000/svg" xmlns:xlink="http://www.w3.org/1999/xlink" contentStyleType="text/css" height="1138px" preserveAspectRatio="none" style="width:1173px;height:1138px;background:#FFFFFF;" version="1.1" viewBox="0 0 1173 1138" width="1173px" zoomAndPan="magnify"><defs/><g><!--cluster dpv--><g id="cluster_dpv"><path d="M8.5,6.602 L35.8125,6.602 A3.75,3.75 0 0 1 38.3125,9.102 L45.3125,31.6699 L1163.5,31.6699 A2.5,2.5 0 0 1 1166,34.1699 L1166,1129.102 A2.5,2.5 0 0 1 1163.5,1131.602 L8.5,1131.602 A2.5,2.5 0 0 1 6,1129.102 L6,9.102 A2.5,2.5 0 0 1 8.5,6.602 " fill="none" style="stroke:#000000;stroke-width:1.5;"/><line style="stroke:#000000;stroke-width:1.5;" x1="6" x2="45.3125" y1="31.6699" y2="31.6699"/><text fill="#000000" font-family="sans-serif" font-size="14" font-weight="bold" lengthAdjust="spacing" textLength="26.3125" x="10" y="23.5679">dpv</text></g><!--cluster risk--><g id="cluster_risk"><path d="M354,145.602 L380.75,145.602 A3.75,3.75 0 0 1 383.25,148.102 L390.25,170.6699 L443,170.6699 A2.5,2.5 0 0 1 445.5,173.1699 L445.5,227.102 A2.5,2.5 0 0 1 443,229.602 L354,229.602 A2.5,2.5 0 0 1 351.5,227.102 L351.5,148.102 A2.5,2.5 0 0 1 354,145.602 " fill="none" style="stroke:#000000;stroke-width:1.5;"/><line style="stroke:#000000;stroke-width:1.5;" x1="351.5" x2="390.25" y1="170.6699" y2="170.6699"/><text fill="#000000" font-family="sans-serif" font-size="14" font-weight="bold" lengthAdjust="spacing" textLength="25.75" x="355.5" y="162.5679">risk</text></g><!--cluster legal--><g id="cluster_legal"><path d="M531.5,52.602 L567.6875,52.602 A3.75,3.75 0 0 1 570.1875,55.102 L577.1875,77.6699 L1139.5,77.6699 A2.5,2.5 0 0 1 1142,80.1699 L1142,1105.102 A2.5,2.5 0 0 1 1139.5,1107.602 L531.5,1107.602 A2.5,2.5 0 0 1 529,1105.102 L529,55.102 A2.5,2.5 0 0 1 531.5,52.602 " fill="none" style="stroke:#000000;stroke-width:1.5;"/><line style="stroke:#000000;stroke-width:1.5;" x1="529" x2="577.1875" y1="77.6699" y2="77.6699"/><text fill="#000000" font-family="sans-serif" font-size="14" font-weight="bold" lengthAdjust="spacing" textLength="35.1875" x="533" y="69.5679">legal</text></g><!--cluster eu--><g id="cluster_eu"><path d="M555.5,98.602 L574.375,98.602 A3.75,3.75 0 0 1 576.875,101.102 L583.875,123.6699 L1115.5,123.6699 A2.5,2.5 0 0 1 1118,126.1699 L1118,1081.102 A2.5,2.5 0 0 1 1115.5,1083.602 L555.5,1083.602 A2.5,2.5 0 0 1 553,1081.102 L553,101.102 A2.5,2.5 0 0 1 555.5,98.602 " fill="none" style="stroke:#000000;stroke-width:1.5;"/><line style="stroke:#000000;stroke-width:1.5;" x1="553" x2="583.875" y1="123.6699" y2="123.6699"/><text fill="#000000" font-family="sans-serif" font-size="14" font-weight="bold" lengthAdjust="spacing" textLength="17.875" x="557" y="115.5679">eu</text></g><!--cluster gdpr--><g id="cluster_gdpr"><path d="M579.5,144.602 L615.25,144.602 A3.75,3.75 0 0 1 617.75,147.102 L624.75,169.6699 L1091.5,169.6699 A2.5,2.5 0 0 1 1094,172.1699 L1094,1057.102 A2.5,2.5 0 0 1 1091.5,1059.602 L579.5,1059.602 A2.5,2.5 0 0 1 577,1057.102 L577,147.102 A2.5,2.5 0 0 1 579.5,144.602 " fill="none" style="stroke:#000000;stroke-width:1.5;"/><line style="stroke:#000000;stroke-width:1.5;" x1="577" x2="624.75" y1="169.6699" y2="169.6699"/><text fill="#000000" font-family="sans-serif" font-size="14" font-weight="bold" lengthAdjust="spacing" textLength="34.75" x="581" y="161.5679">gdpr</text></g><!--class Process--><g id="elem_Process"><rect codeLine="5" fill="#F1F1F1" height="29.0679" id="Process" rx="2.5" ry="2.5" style="stroke:#181818;stroke-width:0.5;" width="57" x="22" y="418.102"/><text fill="#000000" font-family="sans-serif" font-size="14" lengthAdjust="spacing" textLength="51" x="25" y="438.0679">Process</text></g><!--class LegalBasis--><g id="elem_LegalBasis"><rect codeLine="6" fill="#F1F1F1" height="29.0679" id="LegalBasis" rx="2.5" ry="2.5" style="stroke:#181818;stroke-width:0.5;" width="77" x="360" y="873.102"/><text fill="#000000" font-family="sans-serif" font-size="14" lengthAdjust="spacing" textLength="71" x="363" y="893.0679">LegalBasis</text></g><!--class Principle--><g id="elem_Principle"><rect codeLine="7" fill="#F1F1F1" height="29.0679" id="Principle" rx="2.5" ry="2.5" style="stroke:#181818;stroke-width:0.5;" width="65" x="366" y="663.102"/><text fill="#000000" font-family="sans-serif" font-size="14" lengthAdjust="spacing" textLength="59" x="369" y="683.0679">Principle</text></g><!--class OrganisationalMeasure--><g id="elem_OrganisationalMeasure"><rect codeLine="9" fill="#F1F1F1" height="29.0679" id="OrganisationalMeasure" rx="2.5" ry="2.5" style="stroke:#181818;stroke-width:0.5;" width="165" x="316" y="523.102"/><text fill="#000000" font-family="sans-serif" font-size="14" lengthAdjust="spacing" textLength="159" x="319" y="543.0679">OrganisationalMeasure</text></g><!--class DataSubjectRight--><g id="elem_DataSubjectRight"><rect codeLine="11" fill="#F1F1F1" height="29.0679" id="DataSubjectRight" rx="2.5" ry="2.5" style="stroke:#181818;stroke-width:0.5;" width="123" x="337" y="449.102"/><text fill="#000000" font-family="sans-serif" font-size="14" lengthAdjust="spacing" textLength="117" x="340" y="469.0679">DataSubjectRight</text></g><!--class Organisation--><g id="elem_Organisation"><rect codeLine="12" fill="#F1F1F1" height="29.0679" id="Organisation" rx="2.5" ry="2.5" style="stroke:#181818;stroke-width:0.5;" width="94" x="351.5" y="380.102"/><text fill="#000000" font-family="sans-serif" font-size="14" lengthAdjust="spacing" textLength="88" x="354.5" y="400.0679">Organisation</text></g><!--class DataProtectionAuthority--><g id="elem_DataProtectionAuthority"><rect codeLine="15" fill="#F1F1F1" height="29.0679" id="DataProtectionAuthority" rx="2.5" ry="2.5" style="stroke:#181818;stroke-width:0.5;" width="167" x="315" y="314.102"/><text fill="#000000" font-family="sans-serif" font-size="14" lengthAdjust="spacing" textLength="161" x="318" y="334.0679">DataProtectionAuthority</text></g><!--class Lawfulness--><g id="elem_Lawfulness"><rect codeLine="16" fill="#F1F1F1" height="29.0679" id="Lawfulness" rx="2.5" ry="2.5" style="stroke:#181818;stroke-width:0.5;" width="81" x="358" y="249.102"/><text fill="#000000" font-family="sans-serif" font-size="14" lengthAdjust="spacing" textLength="75" x="361" y="269.0679">Lawfulness</text></g><!--class Incident--><g id="elem_Incident"><rect codeLine="52" fill="#F1F1F1" height="29.0679" id="Incident" rx="2.5" ry="2.5" style="stroke:#181818;stroke-width:0.5;" width="62" x="367.5" y="184.102"/><text fill="#000000" font-family="sans-serif" font-size="14" lengthAdjust="spacing" textLength="56" x="370.5" y="204.0679">Incident</text></g><!--class LegalBasesA6--><g id="elem_LegalBasesA6"><rect codeLine="58" fill="#ADD8E6" height="48.1358" id="LegalBasesA6" rx="2.5" ry="2.5" style="stroke:#181818;stroke-width:0.5;" width="166" x="612" y="995.602"/><a href="../legal/eu/gdpr/index.html#vocab-legal-basis-core" target="_top" title="../legal/eu/gdpr/index.html#vocab-legal-basis-core" xlink:actuate="onRequest" xlink:href="../legal/eu/gdpr/index.html#vocab-legal-basis-core" xlink:show="new" xlink:title="../legal/eu/gdpr/index.html#vocab-legal-basis-core" xlink:type="simple"><text fill="#0000FF" font-family="sans-serif" font-size="14" font-style="italic" lengthAdjust="spacing" text-decoration="underline" textLength="103" x="615" y="1015.5679">Core legal bases</text></a><a href="../legal/eu/gdpr/index.html#vocab-legal-basis-core" target="_top" title="../legal/eu/gdpr/index.html#vocab-legal-basis-core" xlink:actuate="onRequest" xlink:href="../legal/eu/gdpr/index.html#vocab-legal-basis-core" xlink:show="new" xlink:title="../legal/eu/gdpr/index.html#vocab-legal-basis-core" xlink:type="simple"><text fill="#0000FF" font-family="sans-serif" font-size="14" font-style="italic" lengthAdjust="spacing" text-decoration="underline" textLength="160" x="615" y="1034.6358">as defined by GDPR Art. 6</text></a></g><!--class LegalBasesSpecialA9--><g id="elem_LegalBasesSpecialA9"><rect codeLine="59" fill="#ADD8E6" height="67.2038" id="LegalBasesSpecialA9" rx="2.5" ry="2.5" style="stroke:#181818;stroke-width:0.5;" width="166" x="612" y="893.102"/><a href="../legal/eu/gdpr/index.html#vocab-legal-basis-special" target="_top" title="../legal/eu/gdpr/index.html#vocab-legal-basis-special" xlink:actuate="onRequest" xlink:href="../legal/eu/gdpr/index.html#vocab-legal-basis-special" xlink:show="new" xlink:title="../legal/eu/gdpr/index.html#vocab-legal-basis-special" xlink:type="simple"><text fill="#0000FF" font-family="sans-serif" font-size="14" font-style="italic" lengthAdjust="spacing" text-decoration="underline" textLength="142" x="615" y="913.0679">Legal bases for special</text></a><a href="../legal/eu/gdpr/index.html#vocab-legal-basis-special" target="_top" title="../legal/eu/gdpr/index.html#vocab-legal-basis-special" xlink:actuate="onRequest" xlink:href="../legal/eu/gdpr/index.html#vocab-legal-basis-special" xlink:show="new" xlink:title="../legal/eu/gdpr/index.html#vocab-legal-basis-special" xlink:type="simple"><text fill="#0000FF" font-family="sans-serif" font-size="14" font-style="italic" lengthAdjust="spacing" text-decoration="underline" textLength="147" x="615" y="932.1358">category personal data</text></a><a href="../legal/eu/gdpr/index.html#vocab-legal-basis-special" target="_top" title="../legal/eu/gdpr/index.html#vocab-legal-basis-special" xlink:actuate="onRequest" xlink:href="../legal/eu/gdpr/index.html#vocab-legal-basis-special" xlink:show="new" xlink:title="../legal/eu/gdpr/index.html#vocab-legal-basis-special" xlink:type="simple"><text fill="#0000FF" font-family="sans-serif" font-size="14" font-style="italic" lengthAdjust="spacing" text-decoration="underline" textLength="160" x="615" y="951.2038">as defined by GDPR Art. 9</text></a></g><!--class LegalBasesDataTransfersA45_49--><g id="elem_LegalBasesDataTransfersA45_49"><rect codeLine="60" fill="#ADD8E6" height="67.2038" id="LegalBasesDataTransfersA45_49" rx="2.5" ry="2.5" style="stroke:#181818;stroke-width:0.5;" width="194" x="598" y="791.102"/><a href="../legal/eu/gdpr/index.html#vocab-legal-basis-data-transfer" target="_top" title="../legal/eu/gdpr/index.html#vocab-legal-basis-data-transfer" xlink:actuate="onRequest" xlink:href="../legal/eu/gdpr/index.html#vocab-legal-basis-data-transfer" xlink:show="new" xlink:title="../legal/eu/gdpr/index.html#vocab-legal-basis-data-transfer" xlink:type="simple"><text fill="#0000FF" font-family="sans-serif" font-size="14" font-style="italic" lengthAdjust="spacing" text-decoration="underline" textLength="95" x="601" y="811.0679">Legal bases for</text></a><a href="../legal/eu/gdpr/index.html#vocab-legal-basis-data-transfer" target="_top" title="../legal/eu/gdpr/index.html#vocab-legal-basis-data-transfer" xlink:actuate="onRequest" xlink:href="../legal/eu/gdpr/index.html#vocab-legal-basis-data-transfer" xlink:show="new" xlink:title="../legal/eu/gdpr/index.html#vocab-legal-basis-data-transfer" xlink:type="simple"><text fill="#0000FF" font-family="sans-serif" font-size="14" font-style="italic" lengthAdjust="spacing" text-decoration="underline" textLength="83" x="601" y="830.1358">data transfer</text></a><a href="../legal/eu/gdpr/index.html#vocab-legal-basis-data-transfer" target="_top" title="../legal/eu/gdpr/index.html#vocab-legal-basis-data-transfer" xlink:actuate="onRequest" xlink:href="../legal/eu/gdpr/index.html#vocab-legal-basis-data-transfer" xlink:show="new" xlink:title="../legal/eu/gdpr/index.html#vocab-legal-basis-data-transfer" xlink:type="simple"><text fill="#0000FF" font-family="sans-serif" font-size="14" font-style="italic" lengthAdjust="spacing" text-decoration="underline" textLength="188" x="601" y="849.2038">as defined by GDPR Art. 45-49</text></a></g><!--class PrinciplesA5--><g id="elem_PrinciplesA5"><rect codeLine="61" fill="#ADD8E6" height="67.2038" id="PrinciplesA5" rx="2.5" ry="2.5" style="stroke:#181818;stroke-width:0.5;" width="166" x="612" y="689.102"/><a href="../legal/eu/gdpr/index.html#vocab-principles" target="_top" title="../legal/eu/gdpr/index.html#vocab-principles" xlink:actuate="onRequest" xlink:href="../legal/eu/gdpr/index.html#vocab-principles" xlink:show="new" xlink:title="../legal/eu/gdpr/index.html#vocab-principles" xlink:type="simple"><text fill="#0000FF" font-family="sans-serif" font-size="14" font-style="italic" lengthAdjust="spacing" text-decoration="underline" textLength="142" x="615" y="709.0679">Principles for personal</text></a><a href="../legal/eu/gdpr/index.html#vocab-principles" target="_top" title="../legal/eu/gdpr/index.html#vocab-principles" xlink:actuate="onRequest" xlink:href="../legal/eu/gdpr/index.html#vocab-principles" xlink:show="new" xlink:title="../legal/eu/gdpr/index.html#vocab-principles" xlink:type="simple"><text fill="#0000FF" font-family="sans-serif" font-size="14" font-style="italic" lengthAdjust="spacing" text-decoration="underline" textLength="100" x="615" y="728.1358">data processing</text></a><a href="../legal/eu/gdpr/index.html#vocab-principles" target="_top" title="../legal/eu/gdpr/index.html#vocab-principles" xlink:actuate="onRequest" xlink:href="../legal/eu/gdpr/index.html#vocab-principles" xlink:show="new" xlink:title="../legal/eu/gdpr/index.html#vocab-principles" xlink:type="simple"><text fill="#0000FF" font-family="sans-serif" font-size="14" font-style="italic" lengthAdjust="spacing" text-decoration="underline" textLength="160" x="615" y="747.2038">as defined by GDPR Art. 5</text></a></g><!--class DataSubjectRightsGDPR--><g id="elem_DataSubjectRightsGDPR"><rect codeLine="62" fill="#ADD8E6" height="48.1358" id="DataSubjectRightsGDPR" rx="2.5" ry="2.5" style="stroke:#181818;stroke-width:0.5;" width="127" x="631.5" y="439.602"/><a href="../legal/eu/gdpr/index.html#vocab-rights" target="_top" title="../legal/eu/gdpr/index.html#vocab-rights" xlink:actuate="onRequest" xlink:href="../legal/eu/gdpr/index.html#vocab-rights" xlink:show="new" xlink:title="../legal/eu/gdpr/index.html#vocab-rights" xlink:type="simple"><text fill="#0000FF" font-family="sans-serif" font-size="14" font-style="italic" lengthAdjust="spacing" text-decoration="underline" textLength="119" x="634.5" y="459.5679">Data subject rights</text></a><a href="../legal/eu/gdpr/index.html#vocab-rights" target="_top" title="../legal/eu/gdpr/index.html#vocab-rights" xlink:actuate="onRequest" xlink:href="../legal/eu/gdpr/index.html#vocab-rights" xlink:show="new" xlink:title="../legal/eu/gdpr/index.html#vocab-rights" xlink:type="simple"><text fill="#0000FF" font-family="sans-serif" font-size="14" font-style="italic" lengthAdjust="spacing" text-decoration="underline" textLength="121" x="634.5" y="478.6358">as defined by GDPR</text></a></g><!--class DataTransferToolsGDPR--><g id="elem_DataTransferToolsGDPR"><rect codeLine="63" fill="#ADD8E6" height="48.1358" id="DataTransferToolsGDPR" rx="2.5" ry="2.5" style="stroke:#181818;stroke-width:0.5;" width="127" x="631.5" y="522.602"/><a href="../legal/eu/gdpr/index.html#vocab-data-transfers" target="_top" title="../legal/eu/gdpr/index.html#vocab-data-transfers" xlink:actuate="onRequest" xlink:href="../legal/eu/gdpr/index.html#vocab-data-transfers" xlink:show="new" xlink:title="../legal/eu/gdpr/index.html#vocab-data-transfers" xlink:type="simple"><text fill="#0000FF" font-family="sans-serif" font-size="14" font-style="italic" lengthAdjust="spacing" text-decoration="underline" textLength="119" x="634.5" y="542.5679">Data transfer tools</text></a><a href="../legal/eu/gdpr/index.html#vocab-data-transfers" target="_top" title="../legal/eu/gdpr/index.html#vocab-data-transfers" xlink:actuate="onRequest" xlink:href="../legal/eu/gdpr/index.html#vocab-data-transfers" xlink:show="new" xlink:title="../legal/eu/gdpr/index.html#vocab-data-transfers" xlink:type="simple"><text fill="#0000FF" font-family="sans-serif" font-size="14" font-style="italic" lengthAdjust="spacing" text-decoration="underline" textLength="121" x="634.5" y="561.6358">as defined by GDPR</text></a></g><!--class DataProtectionImpactAssessment--><g id="elem_DataProtectionImpactAssessment"><rect codeLine="64" fill="#ADD8E6" height="48.1358" id="DataProtectionImpactAssessment" rx="2.5" ry="2.5" style="stroke:#181818;stroke-width:0.5;" width="127" x="631.5" y="605.602"/><a href="../legal/eu/gdpr/index.html#vocab-dpia" target="_top" title="../legal/eu/gdpr/index.html#vocab-dpia" xlink:actuate="onRequest" xlink:href="../legal/eu/gdpr/index.html#vocab-dpia" xlink:show="new" xlink:title="../legal/eu/gdpr/index.html#vocab-dpia" xlink:type="simple"><text fill="#0000FF" font-family="sans-serif" font-size="14" font-style="italic" lengthAdjust="spacing" text-decoration="underline" textLength="88" x="634.5" y="625.5679">DPIA concepts</text></a><a href="../legal/eu/gdpr/index.html#vocab-dpia" target="_top" title="../legal/eu/gdpr/index.html#vocab-dpia" xlink:actuate="onRequest" xlink:href="../legal/eu/gdpr/index.html#vocab-dpia" xlink:show="new" xlink:title="../legal/eu/gdpr/index.html#vocab-dpia" xlink:type="simple"><text fill="#0000FF" font-family="sans-serif" font-size="14" font-style="italic" lengthAdjust="spacing" text-decoration="underline" textLength="121" x="634.5" y="644.6358">as defined by GDPR</text></a></g><!--class DataBreachObligations--><g id="elem_DataBreachObligations"><rect codeLine="65" fill="#ADD8E6" height="48.1358" id="DataBreachObligations" rx="2.5" ry="2.5" style="stroke:#181818;stroke-width:0.5;" width="158" x="889" y="182.602"/><a href="../legal/eu/gdpr/index.html#vocab-data-breach" target="_top" title="../legal/eu/gdpr/index.html#vocab-data-breach" xlink:actuate="onRequest" xlink:href="../legal/eu/gdpr/index.html#vocab-data-breach" xlink:show="new" xlink:title="../legal/eu/gdpr/index.html#vocab-data-breach" xlink:type="simple"><text fill="#0000FF" font-family="sans-serif" font-size="14" font-style="italic" lengthAdjust="spacing" text-decoration="underline" textLength="152" x="892" y="202.5679">Data breach obligations</text></a><a href="../legal/eu/gdpr/index.html#vocab-data-breach" target="_top" title="../legal/eu/gdpr/index.html#vocab-data-breach" xlink:actuate="onRequest" xlink:href="../legal/eu/gdpr/index.html#vocab-data-breach" xlink:show="new" xlink:title="../legal/eu/gdpr/index.html#vocab-data-breach" xlink:type="simple"><text fill="#0000FF" font-family="sans-serif" font-size="14" font-style="italic" lengthAdjust="spacing" text-decoration="underline" textLength="121" x="892" y="221.6358">as defined by GDPR</text></a></g><!--class DataBreach--><g id="elem_DataBreach"><rect codeLine="66" fill="#F1F1F1" height="29.0679" id="DataBreach" rx="2.5" ry="2.5" style="stroke:#181818;stroke-width:0.5;" width="84" x="653" y="183.102"/><text fill="#000000" font-family="sans-serif" font-size="14" lengthAdjust="spacing" textLength="78" x="656" y="203.0679">DataBreach</text></g><!--class Establishment--><g id="elem_Establishment"><rect codeLine="67" fill="#F1F1F1" height="29.0679" id="Establishment" rx="2.5" ry="2.5" style="stroke:#181818;stroke-width:0.5;" width="102" x="644" y="375.102"/><text fill="#000000" font-family="sans-serif" font-size="14" lengthAdjust="spacing" textLength="96" x="647" y="395.0679">Establishment</text></g><!--class MainEstablishment--><g id="elem_MainEstablishment"><rect codeLine="68" fill="#F1F1F1" height="29.0679" id="MainEstablishment" rx="2.5" ry="2.5" style="stroke:#181818;stroke-width:0.5;" width="136" x="900" y="650.102"/><text fill="#000000" font-family="sans-serif" font-size="14" lengthAdjust="spacing" textLength="130" x="903" y="670.0679">MainEstablishment</text></g><!--class SingleEstablishment--><g id="elem_SingleEstablishment"><rect codeLine="69" fill="#F1F1F1" height="29.0679" id="SingleEstablishment" rx="2.5" ry="2.5" style="stroke:#181818;stroke-width:0.5;" width="144" x="896" y="714.102"/><text fill="#000000" font-family="sans-serif" font-size="14" lengthAdjust="spacing" textLength="138" x="899" y="734.0679">SingleEstablishment</text></g><!--class GdprDataProtectionAuthority--><g id="elem_GdprDataProtectionAuthority"><rect codeLine="70" fill="#F1F1F1" height="29.0679" id="GdprDataProtectionAuthority" rx="2.5" ry="2.5" style="stroke:#181818;stroke-width:0.5;" width="204" x="593" y="311.102"/><text fill="#000000" font-family="sans-serif" font-size="14" lengthAdjust="spacing" textLength="198" x="596" y="331.0679">GDPRDataProtectionAuthority</text></g><!--class ConcernedSupervisoryAuthority--><g id="elem_ConcernedSupervisoryAuthority"><rect codeLine="71" fill="#F1F1F1" height="29.0679" id="ConcernedSupervisoryAuthority" rx="2.5" ry="2.5" style="stroke:#181818;stroke-width:0.5;" width="220" x="858" y="586.102"/><text fill="#000000" font-family="sans-serif" font-size="14" lengthAdjust="spacing" textLength="214" x="861" y="606.0679">ConcernedSupervisoryAuthority</text></g><!--class LeadSupervisoryAuthority--><g id="elem_LeadSupervisoryAuthority"><rect codeLine="72" fill="#F1F1F1" height="29.0679" id="LeadSupervisoryAuthority" rx="2.5" ry="2.5" style="stroke:#181818;stroke-width:0.5;" width="179" x="878.5" y="522.102"/><text fill="#000000" font-family="sans-serif" font-size="14" lengthAdjust="spacing" textLength="173" x="881.5" y="542.0679">LeadSupervisoryAuthority</text></g><!--class LocalSupervisoryAuthority--><g id="elem_LocalSupervisoryAuthority"><rect codeLine="73" fill="#F1F1F1" height="29.0679" id="LocalSupervisoryAuthority" rx="2.5" ry="2.5" style="stroke:#181818;stroke-width:0.5;" width="181" x="877.5" y="458.102"/><text fill="#000000" font-family="sans-serif" font-size="14" lengthAdjust="spacing" textLength="175" x="880.5" y="478.0679">LocalSupervisoryAuthority</text></g><!--class GDPRLawfulness--><g id="elem_GDPRLawfulness"><rect codeLine="74" fill="#F1F1F1" height="29.0679" id="GDPRLawfulness" rx="2.5" ry="2.5" style="stroke:#181818;stroke-width:0.5;" width="118" x="636" y="247.102"/><text fill="#000000" font-family="sans-serif" font-size="14" lengthAdjust="spacing" textLength="112" x="639" y="267.0679">GDPRLawfulness</text></g><!--class GDPRComplianceUnknown--><g id="elem_GDPRComplianceUnknown"><rect codeLine="75" fill="#F1F1F1" height="29.0679" id="GDPRComplianceUnknown" rx="2.5" ry="2.5" style="stroke:#181818;stroke-width:0.5;" width="185" x="875.5" y="394.102"/><text fill="#000000" font-family="sans-serif" font-size="14" lengthAdjust="spacing" textLength="179" x="878.5" y="414.0679">GDPRComplianceUnknown</text></g><!--class GDPRCompliant--><g id="elem_GDPRCompliant"><rect codeLine="76" fill="#F1F1F1" height="29.0679" id="GDPRCompliant" rx="2.5" ry="2.5" style="stroke:#181818;stroke-width:0.5;" width="112" x="912" y="330.102"/><text fill="#000000" font-family="sans-serif" font-size="14" lengthAdjust="spacing" textLength="106" x="915" y="350.0679">GDPRCompliant</text></g><!--class GDPRNonCompliant--><g id="elem_GDPRNonCompliant"><rect codeLine="77" fill="#F1F1F1" height="29.0679" id="GDPRNonCompliant" rx="2.5" ry="2.5" style="stroke:#181818;stroke-width:0.5;" width="140" x="898" y="266.102"/><text fill="#000000" font-family="sans-serif" font-size="14" lengthAdjust="spacing" textLength="134" x="901" y="286.0679">GDPRNonCompliant</text></g><!--link Process to LegalBasis--><g id="link_Process_LegalBasis"><path codeLine="28" d="M51.29,447.452 C51.42,488.852 56.61,607.652 109,685.602 C173.12,781.012 298.65,845.222 360.82,872.612 " fill="none" id="Process-LegalBasis" style="stroke:#181818;stroke-width:1.0;"/><polygon fill="#000000" points="155.9429,680.4972,152.9951,671.455,148.2432,674.9145,155.9429,680.4972" style="stroke:#000000;stroke-width:1.0;"/><text fill="#000000" font-family="sans-serif" font-size="13" lengthAdjust="spacing" textLength="83" x="162" y="681.499">hasLegalBasis</text></g><!--link Process to OrganisationalMeasure--><g id="link_Process_OrganisationalMeasure"><path codeLine="29" d="M58.71,447.362 C67.86,464.332 85.34,491.512 109,504.602 C172.19,539.562 255,545.732 315.68,544.382 " fill="none" id="Process-OrganisationalMeasure" style="stroke:#181818;stroke-width:1.0;"/><polygon fill="#000000" points="118.6777,497.2211,111.2537,491.2767,109.1776,496.7757,118.6777,497.2211" style="stroke:#000000;stroke-width:1.0;"/><text fill="#000000" font-family="sans-serif" font-size="13" lengthAdjust="spacing" textLength="161" x="123" y="500.499">hasOrganisationalMeasure</text></g><!--link Process to Principle--><g id="link_Process_Principle"><path codeLine="30" d="M53.63,447.372 C58.43,475.412 72.65,536.682 109,571.602 C182.69,642.392 307.57,666.592 365.82,674.292 " fill="none" id="Process-Principle" style="stroke:#181818;stroke-width:1.0;"/><polygon fill="#000000" points="118.0445,565.3948,112.4559,557.6994,109,562.4539,118.0445,565.3948" style="stroke:#000000;stroke-width:1.0;"/><text fill="#000000" font-family="sans-serif" font-size="13" lengthAdjust="spacing" textLength="161" x="123" y="567.499">hasOrganisationalMeasure</text></g><!--link Process to DataSubjectRight--><g id="link_Process_DataSubjectRight"><path codeLine="32" d="M73.11,447.552 C83.47,453.832 96.35,460.412 109,463.602 C185.73,482.972 277.64,478.432 336.77,472.112 " fill="none" id="Process-DataSubjectRight" style="stroke:#181818;stroke-width:1.0;"/><polygon fill="#000000" points="172.9784,454.9187,164.2449,451.1536,163.6998,457.0061,172.9784,454.9187" style="stroke:#000000;stroke-width:1.0;"/><text fill="#000000" font-family="sans-serif" font-size="13" lengthAdjust="spacing" textLength="53" x="177" y="459.499">hasRight</text></g><!--link Process to Organisation--><g id="link_Process_Organisation"><path codeLine="34" d="M79.23,429.552 C138.48,423.052 277.97,407.732 351.03,399.702 " fill="none" id="Process-Organisation" style="stroke:#181818;stroke-width:1.0;"/><polygon fill="#000000" points="171.4701,398.9092,162.1583,396.9752,162.7999,402.8179,171.4701,398.9092" style="stroke:#000000;stroke-width:1.0;"/><text fill="#000000" font-family="sans-serif" font-size="13" lengthAdjust="spacing" textLength="56" x="175.5" y="404.499">hasEntity</text></g><!--link Process to Lawfulness--><g id="link_Process_Lawfulness"><path codeLine="35" d="M54.37,417.782 C60.07,392.682 75.26,342.042 109,316.602 C147.63,287.472 287.83,272.392 357.56,266.542 " fill="none" id="Process-Lawfulness" style="stroke:#181818;stroke-width:1.0;"/><polygon fill="#000000" points="155.4742,263.2231,146.0684,264.6307,148.6921,269.8905,155.4742,263.2231" style="stroke:#000000;stroke-width:1.0;"/><text fill="#000000" font-family="sans-serif" font-size="13" lengthAdjust="spacing" textLength="87" x="160" y="270.499">hasLawfulness</text></g><!--link Process to DataProtectionAuthority--><g id="link_Process_DataProtectionAuthority"><path codeLine="36" d="M64.09,417.652 C74.8,405.952 91.25,390.252 109,381.602 C144.48,364.302 242.75,348.522 314.78,338.762 " fill="none" id="Process-DataProtectionAuthority" style="stroke:#181818;stroke-width:1.0;"/><polygon fill="#000000" points="160.2694,332.9541,150.7593,332.8658,152.5237,338.4726,160.2694,332.9541" style="stroke:#000000;stroke-width:1.0;"/><text fill="#000000" font-family="sans-serif" font-size="13" lengthAdjust="spacing" textLength="78" x="164.5" y="339.499">hasAuthority</text></g><!--link Process to Incident--><g id="link_Process_Incident"><path codeLine="55" d="M51.39,417.622 C52,382.572 58.75,294.812 109,250.602 C182.75,185.722 309.27,189.112 367.08,194.712 " fill="none" id="Process-Incident" style="stroke:#181818;stroke-width:1.0;"/><polygon fill="#000000" points="163.5844,181.571,154.5005,184.3875,157.8908,189.189,163.5844,181.571" style="stroke:#000000;stroke-width:1.0;"/><text fill="#000000" font-family="sans-serif" font-size="13" lengthAdjust="spacing" textLength="70" x="168.5" y="189.499">hasIncident</text></g><!--reverse link LegalBasis to LegalBasesA6--><g id="link_LegalBasis_LegalBasesA6"><path codeLine="79" d="M428.3324,914.5402 C450.2324,934.5702 478.92,957.902 521,977.602 C549.27,990.842 582.16,1000.172 611.63,1006.612 " fill="none" id="LegalBasis-backto-LegalBasesA6" style="stroke:#181818;stroke-width:1.0;stroke-dasharray:7.0,7.0;"/><polygon fill="none" points="415.05,902.392,424.283,918.9676,432.3818,910.1127,415.05,902.392" style="stroke:#181818;stroke-width:1.0;"/></g><!--reverse link LegalBasis to LegalBasesSpecialA9--><g id="link_LegalBasis_LegalBasesSpecialA9"><path codeLine="80" d="M455.2443,894.9844 C499.0543,900.7844 554.6,908.142 611.7,915.702 " fill="none" id="LegalBasis-backto-LegalBasesSpecialA9" style="stroke:#181818;stroke-width:1.0;stroke-dasharray:7.0,7.0;"/><polygon fill="none" points="437.4,892.622,454.4568,900.9325,456.0318,889.0363,437.4,892.622" style="stroke:#181818;stroke-width:1.0;"/></g><!--reverse link LegalBasis to LegalBasesDataTransfersA45_49--><g id="link_LegalBasis_LegalBasesDataTransfersA45_49"><path codeLine="81" d="M455.002,875.7279 C495.312,867.1079 543.08,856.892 597.74,845.192 " fill="none" id="LegalBasis-backto-LegalBasesDataTransfersA45_49" style="stroke:#181818;stroke-width:1.0;stroke-dasharray:7.0,7.0;"/><polygon fill="none" points="437.4,879.492,456.2567,881.5953,453.7474,869.8606,437.4,879.492" style="stroke:#181818;stroke-width:1.0;"/></g><!--reverse link Principle to PrinciplesA5--><g id="link_Principle_PrinciplesA5"><path codeLine="82" d="M449.0938,685.179 C491.9238,691.719 551.9,700.892 611.75,710.032 " fill="none" id="Principle-backto-PrinciplesA5" style="stroke:#181818;stroke-width:1.0;stroke-dasharray:7.0,7.0;"/><polygon fill="none" points="431.3,682.462,448.1881,691.1103,449.9994,679.2478,431.3,682.462" style="stroke:#181818;stroke-width:1.0;"/></g><!--reverse link DataSubjectRight to DataSubjectRightsGDPR--><g id="link_DataSubjectRight_DataSubjectRightsGDPR"><path codeLine="83" d="M478.16,463.602 C528.09,463.602 580.61,463.602 631.13,463.602 " fill="none" id="DataSubjectRight-backto-DataSubjectRightsGDPR" style="stroke:#181818;stroke-width:1.0;stroke-dasharray:7.0,7.0;"/><polygon fill="none" points="460.16,463.602,478.16,469.602,478.16,457.602,460.16,463.602" style="stroke:#181818;stroke-width:1.0;"/></g><!--reverse link OrganisationalMeasure to DataTransferToolsGDPR--><g id="link_OrganisationalMeasure_DataTransferToolsGDPR"><path codeLine="84" d="M499.1316,540.6512 C546.6316,542.1012 587.58,543.352 631.38,544.692 " fill="none" id="OrganisationalMeasure-backto-DataTransferToolsGDPR" style="stroke:#181818;stroke-width:1.0;stroke-dasharray:7.0,7.0;"/><polygon fill="none" points="481.14,540.102,498.9485,546.6484,499.3147,534.654,481.14,540.102" style="stroke:#181818;stroke-width:1.0;"/></g><!--reverse link Incident to DataBreach--><g id="link_Incident_DataBreach"><path codeLine="85" d="M447.9099,198.4411 C501.1099,198.2611 593.1,197.942 652.98,197.742 " fill="none" id="Incident-backto-DataBreach" style="stroke:#181818;stroke-width:1.0;"/><polygon fill="none" points="429.91,198.502,447.9302,204.441,447.8896,192.4411,429.91,198.502" style="stroke:#181818;stroke-width:1.0;"/></g><!--reverse link DataBreach to DataBreachObligations--><g id="link_DataBreach_DataBreachObligations"><path codeLine="86" d="M755.4401,199.5785 C795.5501,200.9085 839.36,202.362 888.74,204.002 " fill="none" id="DataBreach-backto-DataBreachObligations" style="stroke:#181818;stroke-width:1.0;stroke-dasharray:7.0,7.0;"/><polygon fill="none" points="737.45,198.982,755.2413,205.5752,755.639,193.5818,737.45,198.982" style="stroke:#181818;stroke-width:1.0;"/></g><!--reverse link Organisation to Establishment--><g id="link_Organisation_Establishment"><path codeLine="88" d="M463.8374,393.5084 C517.7774,392.5984 588.53,391.392 643.99,390.452 " fill="none" id="Organisation-backto-Establishment" style="stroke:#181818;stroke-width:1.0;"/><polygon fill="none" points="445.84,393.812,463.9386,399.5075,463.7362,387.5092,445.84,393.812" style="stroke:#181818;stroke-width:1.0;"/></g><!--reverse link Establishment to MainEstablishment--><g id="link_Establishment_MainEstablishment"><path codeLine="89" d="M763.9002,399.1743 C782.1802,403.5743 784,407.322 797,421.602 C862.7,493.802 784.93,567.872 858,632.602 C869.74,643.002 884.7,650.022 899.74,654.772 " fill="none" id="Establishment-backto-MainEstablishment" style="stroke:#181818;stroke-width:1.0;"/><polygon fill="none" points="746.4,394.962,762.4961,405.0077,765.3043,393.3409,746.4,394.962" style="stroke:#181818;stroke-width:1.0;"/></g><!--reverse link Establishment to SingleEstablishment--><g id="link_Establishment_SingleEstablishment"><path codeLine="90" d="M763.9445,398.7844 C782.3345,403.1444 784.22,407.002 797,421.602 C847.81,479.672 809.28,517.502 827,592.602 C838.07,639.542 823.82,662.572 858,696.602 C868.34,706.902 881.81,713.922 895.74,718.692 " fill="none" id="Establishment-backto-SingleEstablishment" style="stroke:#181818;stroke-width:1.0;"/><polygon fill="none" points="746.43,394.632,762.5603,404.6226,765.3286,392.9462,746.43,394.632" style="stroke:#181818;stroke-width:1.0;"/></g><!--reverse link DataProtectionAuthority to GdprDataProtectionAuthority--><g id="link_DataProtectionAuthority_GdprDataProtectionAuthority"><path codeLine="92" d="M500.3191,327.5782 C534.5991,327.2282 556.68,327.002 592.69,326.632 " fill="none" id="DataProtectionAuthority-backto-GdprDataProtectionAuthority" style="stroke:#181818;stroke-width:1.0;"/><polygon fill="none" points="482.32,327.762,500.3803,333.5779,500.2578,321.5785,482.32,327.762" style="stroke:#181818;stroke-width:1.0;"/></g><!--reverse link GdprDataProtectionAuthority to ConcernedSupervisoryAuthority--><g id="link_GdprDataProtectionAuthority_ConcernedSupervisoryAuthority"><path codeLine="93" d="M788.5032,348.1827 C797.7032,352.5027 790,350.422 797,357.602 C831.07,392.552 823.56,534.022 858,568.602 C865.1,575.732 873.69,581.282 882.91,585.612 " fill="none" id="GdprDataProtectionAuthority-backto-ConcernedSupervisoryAuthority" style="stroke:#181818;stroke-width:1.0;"/><polygon fill="none" points="772.21,340.532,785.9529,353.6137,791.0534,342.7516,772.21,340.532" style="stroke:#181818;stroke-width:1.0;"/></g><!--reverse link GdprDataProtectionAuthority to LeadSupervisoryAuthority--><g id="link_GdprDataProtectionAuthority_LeadSupervisoryAuthority"><path codeLine="94" d="M786.4385,347.7892 C796.3185,352.0992 789.2,350.452 797,357.602 C849.13,405.412 805.36,457.352 858,504.602 C866,511.782 875.53,517.352 885.58,521.682 " fill="none" id="GdprDataProtectionAuthority-backto-LeadSupervisoryAuthority" style="stroke:#181818;stroke-width:1.0;"/><polygon fill="none" points="769.94,340.592,784.0394,353.2887,788.8376,342.2897,769.94,340.592" style="stroke:#181818;stroke-width:1.0;"/></g><!--reverse link GdprDataProtectionAuthority to LocalSupervisoryAuthority--><g id="link_GdprDataProtectionAuthority_LocalSupervisoryAuthority"><path codeLine="95" d="M780.6204,346.808 C792.3404,351.168 787.06,350.472 797,357.602 C834.21,384.272 820.51,414.332 858,440.602 C868.18,447.732 879.94,453.292 891.9,457.622 " fill="none" id="GdprDataProtectionAuthority-backto-LocalSupervisoryAuthority" style="stroke:#181818;stroke-width:1.0;"/><polygon fill="none" points="763.75,340.532,778.5284,352.4315,782.7124,341.1845,763.75,340.532" style="stroke:#181818;stroke-width:1.0;"/></g><!--reverse link Lawfulness to GDPRLawfulness--><g id="link_Lawfulness_GDPRLawfulness"><path codeLine="97" d="M457.2196,263.2109 C507.7696,262.8709 577.51,262.392 635.67,262.002 " fill="none" id="Lawfulness-backto-GDPRLawfulness" style="stroke:#181818;stroke-width:1.0;"/><polygon fill="none" points="439.22,263.332,457.2599,269.2108,457.1792,257.2111,439.22,263.332" style="stroke:#181818;stroke-width:1.0;"/></g><!--reverse link GDPRLawfulness to GDPRComplianceUnknown--><g id="link_GDPRLawfulness_GDPRComplianceUnknown"><path codeLine="98" d="M771.3889,278.7216 C786.2189,283.4516 784.37,284.542 797,293.602 C834.21,320.272 820.51,350.332 858,376.602 C868.18,383.732 879.94,389.292 891.9,393.622 " fill="none" id="GDPRLawfulness-backto-GDPRComplianceUnknown" style="stroke:#181818;stroke-width:1.0;"/><polygon fill="none" points="754.24,273.252,769.5657,284.4379,773.2121,273.0053,754.24,273.252" style="stroke:#181818;stroke-width:1.0;"/></g><!--reverse link GDPRLawfulness to GDPRCompliant--><g id="link_GDPRLawfulness_GDPRCompliant"><path codeLine="99" d="M760.2508,281.9739 C799.9308,294.5339 836.42,306.042 858,312.602 C876.68,318.282 897.21,324.352 915.37,329.672 " fill="none" id="GDPRLawfulness-backto-GDPRCompliant" style="stroke:#181818;stroke-width:1.0;"/><polygon fill="none" points="743.09,276.542,758.4402,287.6942,762.0615,276.2537,743.09,276.542" style="stroke:#181818;stroke-width:1.0;"/></g><!--reverse link GDPRLawfulness to GDPRNonCompliant--><g id="link_GDPRLawfulness_GDPRNonCompliant"><path codeLine="100" d="M772.4261,266.9586 C814.4361,269.8986 853.29,272.632 897.6,275.732 " fill="none" id="GDPRLawfulness-backto-GDPRNonCompliant" style="stroke:#181818;stroke-width:1.0;"/><polygon fill="none" points="754.47,265.702,772.0072,272.944,772.845,260.9732,754.47,265.702" style="stroke:#181818;stroke-width:1.0;"/></g><!--SRC=[dLPBRzGm43xZNs7A8QTa9TGYWH3Izg5gfG8LBQUsGjx4cvXwxSXs2YleVyUFFEoiixlq4japtqo-iMV6yvgmd3O5Xb9jACvgYfXgrXGayf6mQoJG6fQ2D_M2LLWGXLYEuLj0yKf1nQ4WPQLWGGJE5U4Cr2X_H2M6HVq4_u1NEKLImcl1Sonbjxt29QAdI18v03G9KbCCNYMjwB8X1QQ4OUafdUghA14Z4faV8leP8za833h3RuPH1pr72jqqov-QNI3tNGp_jCGkc29gCmYx_U1GXwDSkFD6LLnuwYlqQzLGPeET9Ptq5kSL8pcYSUQHOqdWyBjRWPXSOJ7euG2u-5rJaXD5Dtebz7znSSQPn4m5c0dDWgsuM4SKWs06dW5eBn2cHUhH_00h93rMdm9SD5Ph4jMChFjBtscH-2RsWYtShaOEnvaG00C_xiAjtYrt13QD6ZB17LE_7U5qeMGJIMKD-vss0uaZ_F5lB2AGn8_9eMFrb4I4BTm3jU4vkLyYYRTfrK5T0Lq1YPSl1fFsgPLqAoSUfs8obZZOLYudMw8UE5KOEgVzFfK98X-7PhNGSHS6vkTzseljfNGRSoU-9sfYpN2JbKKjZ4kqb4gWNC6mnB6SluD8mgExkooRMQiPRcR6QaPOWNzdbLhJDqyyHylKgjEbES4qv_f2pyp7Ik7I-BfdsbM1L_eU2xZSmClpwszmBbG6tpqy7C4tLoOxJcc3T_2vgN5E49s_Vn4jwQoTFqSAwik3hVoUvKZXaeiDhB6G9ZbXeRDtclZxWudx7LBEZqz-7Byi1CCdLQsZSI3tpAXXfvxcVNoI7k_ZtfUMd9ySJBNkZJnxUyRTYROSQvUoX9NJB4_sC1nt5cbD3wLgHmBd14hdnOq9qKGzW4ftlRUSq_-Z4bngIwc_OsNSlP3IqAqNQzq0r5pt5odNfYKSpAqc29vVB-OmvtgcgbzyFAS2expwkgIaj7rN_j_nBAsvEvjspGTVXt0QK-aa5r8XxKbMQpjAEE5dH5XKSQDJbkAewbApdtWZRQo6r8J-gFDnPWvPw2Xk6bqnJqJgRhGzlc6qMw-FZUu262R-33X8p_XQFqXcUlxE7Xd_nM9AvGk_S3R8dq7uZjuLI5QuU4Y3D-K0KD_e3y16UYi81eN1o6zgODm_GcYqku39sIKqtEe5e7-BxRFlPU6mt7QpLJCW8D1ECs4o1Zltj-raZe1YYGscqjbQxCXtiAiMklbgHwBlDPyiWVsMayK1lEdN1HYMIRWT8Dirim-f9X51DVq3]--></g></svg>