<svg xmlns="http://www.w3.org/2000/svg" xmlns:xlink="http://www.w3.org/1999/xlink" contentStyleType="text/css" height="1331px" preserveAspectRatio="none" style="width:618px;height:1331px;background:#FFFFFF;" version="1.1" viewBox="0 0 618 1331" width="618px" zoomAndPan="magnify"><defs/><g><!--cluster dpv--><g id="cluster_dpv"><path d="M8.5,6.602 L35.8125,6.602 A3.75,3.75 0 0 1 38.3125,9.102 L45.3125,31.6699 L608.5,31.6699 A2.5,2.5 0 0 1 611,34.1699 L611,1322.102 A2.5,2.5 0 0 1 608.5,1324.602 L8.5,1324.602 A2.5,2.5 0 0 1 6,1322.102 L6,9.102 A2.5,2.5 0 0 1 8.5,6.602 " fill="none" style="stroke:#000000;stroke-width:1.5;"/><line style="stroke:#000000;stroke-width:1.5;" x1="6" x2="45.3125" y1="31.6699" y2="31.6699"/><text fill="#000000" font-family="sans-serif" font-size="14" font-weight="bold" lengthAdjust="spacing" textLength="26.3125" x="10" y="23.5679">dpv</text></g><!--cluster legal--><g id="cluster_legal"><path d="M403.5,52.602 L439.6875,52.602 A3.75,3.75 0 0 1 442.1875,55.102 L449.1875,77.6699 L584.5,77.6699 A2.5,2.5 0 0 1 587,80.1699 L587,1298.102 A2.5,2.5 0 0 1 584.5,1300.602 L403.5,1300.602 A2.5,2.5 0 0 1 401,1298.102 L401,55.102 A2.5,2.5 0 0 1 403.5,52.602 " fill="none" style="stroke:#000000;stroke-width:1.5;"/><line style="stroke:#000000;stroke-width:1.5;" x1="401" x2="449.1875" y1="77.6699" y2="77.6699"/><text fill="#000000" font-family="sans-serif" font-size="14" font-weight="bold" lengthAdjust="spacing" textLength="35.1875" x="405" y="69.5679">legal</text></g><!--cluster eu--><g id="cluster_eu"><path d="M427.5,98.602 L446.375,98.602 A3.75,3.75 0 0 1 448.875,101.102 L455.875,123.6699 L560.5,123.6699 A2.5,2.5 0 0 1 563,126.1699 L563,1274.102 A2.5,2.5 0 0 1 560.5,1276.602 L427.5,1276.602 A2.5,2.5 0 0 1 425,1274.102 L425,101.102 A2.5,2.5 0 0 1 427.5,98.602 " fill="none" style="stroke:#000000;stroke-width:1.5;"/><line style="stroke:#000000;stroke-width:1.5;" x1="425" x2="455.875" y1="123.6699" y2="123.6699"/><text fill="#000000" font-family="sans-serif" font-size="14" font-weight="bold" lengthAdjust="spacing" textLength="17.875" x="429" y="115.5679">eu</text></g><!--cluster gdpr--><g id="cluster_gdpr"><path d="M451.5,144.602 L487.25,144.602 A3.75,3.75 0 0 1 489.75,147.102 L496.75,169.6699 L536.5,169.6699 A2.5,2.5 0 0 1 539,172.1699 L539,1250.102 A2.5,2.5 0 0 1 536.5,1252.602 L451.5,1252.602 A2.5,2.5 0 0 1 449,1250.102 L449,147.102 A2.5,2.5 0 0 1 451.5,144.602 " fill="none" style="stroke:#000000;stroke-width:1.5;"/><line style="stroke:#000000;stroke-width:1.5;" x1="449" x2="496.75" y1="169.6699" y2="169.6699"/><text fill="#000000" font-family="sans-serif" font-size="14" font-weight="bold" lengthAdjust="spacing" textLength="34.75" x="453" y="161.5679">gdpr</text></g><!--class Process--><g id="elem_Process"><rect codeLine="6" fill="#F1F1F1" height="29.0679" id="Process" rx="2.5" ry="2.5" style="stroke:#181818;stroke-width:0.5;" width="57" x="22" y="695.102"/><text fill="#000000" font-family="sans-serif" font-size="14" lengthAdjust="spacing" textLength="51" x="25" y="715.0679">Process</text></g><!--class LegalBasis--><g id="elem_LegalBasis"><rect codeLine="7" fill="#F1F1F1" height="29.0679" id="LegalBasis" rx="2.5" ry="2.5" style="stroke:#181818;stroke-width:0.5;" width="77" x="257" y="695.102"/><text fill="#000000" font-family="sans-serif" font-size="14" lengthAdjust="spacing" textLength="71" x="260" y="715.0679">LegalBasis</text></g><polygon fill="none" points="334,709.6142,353.996,702.6028,354.004,716.6028" style="stroke:#181818;stroke-width:1.0;"/><line style="stroke:#181818;stroke-width:1.0;" x1="354" x2="355.5" y1="709.6028" y2="709.602"/><line style="stroke:#181818;stroke-width:1.0;" x1="257" x2="236.58" y1="709.6138" y2="709.602"/><!--class A45_3--><g id="elem_A45_3"><rect codeLine="10" fill="#F1F1F1" height="29.0679" id="A45_3" rx="2.5" ry="2.5" style="stroke:#181818;stroke-width:0.5;" width="44" x="472" y="1207.102"/><text fill="#000000" font-family="sans-serif" font-size="14" lengthAdjust="spacing" textLength="38" x="475" y="1227.0679">A45-3</text></g><!--class A46_2_a--><g id="elem_A46_2_a"><rect codeLine="11" fill="#F1F1F1" height="29.0679" id="A46_2_a" rx="2.5" ry="2.5" style="stroke:#181818;stroke-width:0.5;" width="57" x="465.5" y="1143.102"/><text fill="#000000" font-family="sans-serif" font-size="14" lengthAdjust="spacing" textLength="51" x="468.5" y="1163.0679">A46-2-a</text></g><!--class A46_2_b--><g id="elem_A46_2_b"><rect codeLine="12" fill="#F1F1F1" height="29.0679" id="A46_2_b" rx="2.5" ry="2.5" style="stroke:#181818;stroke-width:0.5;" width="58" x="465" y="1079.102"/><text fill="#000000" font-family="sans-serif" font-size="14" lengthAdjust="spacing" textLength="52" x="468" y="1099.0679">A46-2-b</text></g><!--class A46_2_c--><g id="elem_A46_2_c"><rect codeLine="13" fill="#F1F1F1" height="29.0679" id="A46_2_c" rx="2.5" ry="2.5" style="stroke:#181818;stroke-width:0.5;" width="56" x="466" y="1015.102"/><text fill="#000000" font-family="sans-serif" font-size="14" lengthAdjust="spacing" textLength="50" x="469" y="1035.0679">A46-2-c</text></g><!--class A46_2_d--><g id="elem_A46_2_d"><rect codeLine="14" fill="#F1F1F1" height="29.0679" id="A46_2_d" rx="2.5" ry="2.5" style="stroke:#181818;stroke-width:0.5;" width="58" x="465" y="951.102"/><text fill="#000000" font-family="sans-serif" font-size="14" lengthAdjust="spacing" textLength="52" x="468" y="971.0679">A46-2-d</text></g><!--class A46_2_e--><g id="elem_A46_2_e"><rect codeLine="15" fill="#F1F1F1" height="29.0679" id="A46_2_e" rx="2.5" ry="2.5" style="stroke:#181818;stroke-width:0.5;" width="57" x="465.5" y="887.102"/><text fill="#000000" font-family="sans-serif" font-size="14" lengthAdjust="spacing" textLength="51" x="468.5" y="907.0679">A46-2-e</text></g><!--class A46_2_f--><g id="elem_A46_2_f"><rect codeLine="16" fill="#F1F1F1" height="29.0679" id="A46_2_f" rx="2.5" ry="2.5" style="stroke:#181818;stroke-width:0.5;" width="54" x="467" y="823.102"/><text fill="#000000" font-family="sans-serif" font-size="14" lengthAdjust="spacing" textLength="48" x="470" y="843.0679">A46-2-f</text></g><!--class A46_3_a--><g id="elem_A46_3_a"><rect codeLine="17" fill="#F1F1F1" height="29.0679" id="A46_3_a" rx="2.5" ry="2.5" style="stroke:#181818;stroke-width:0.5;" width="57" x="465.5" y="759.102"/><text fill="#000000" font-family="sans-serif" font-size="14" lengthAdjust="spacing" textLength="51" x="468.5" y="779.0679">A46-3-a</text></g><!--class A46_3_b--><g id="elem_A46_3_b"><rect codeLine="18" fill="#F1F1F1" height="29.0679" id="A46_3_b" rx="2.5" ry="2.5" style="stroke:#181818;stroke-width:0.5;" width="58" x="465" y="695.102"/><text fill="#000000" font-family="sans-serif" font-size="14" lengthAdjust="spacing" textLength="52" x="468" y="715.0679">A46-3-b</text></g><!--class A49_1_a--><g id="elem_A49_1_a"><rect codeLine="19" fill="#F1F1F1" height="29.0679" id="A49_1_a" rx="2.5" ry="2.5" style="stroke:#181818;stroke-width:0.5;" width="57" x="465.5" y="631.102"/><text fill="#000000" font-family="sans-serif" font-size="14" lengthAdjust="spacing" textLength="51" x="468.5" y="651.0679">A49-1-a</text></g><!--class A49_1_b--><g id="elem_A49_1_b"><rect codeLine="20" fill="#F1F1F1" height="29.0679" id="A49_1_b" rx="2.5" ry="2.5" style="stroke:#181818;stroke-width:0.5;" width="58" x="465" y="567.102"/><text fill="#000000" font-family="sans-serif" font-size="14" lengthAdjust="spacing" textLength="52" x="468" y="587.0679">A49-1-b</text></g><!--class A49_1_c--><g id="elem_A49_1_c"><rect codeLine="21" fill="#F1F1F1" height="29.0679" id="A49_1_c" rx="2.5" ry="2.5" style="stroke:#181818;stroke-width:0.5;" width="56" x="466" y="503.102"/><text fill="#000000" font-family="sans-serif" font-size="14" lengthAdjust="spacing" textLength="50" x="469" y="523.0679">A49-1-c</text></g><!--class A49_1_d--><g id="elem_A49_1_d"><rect codeLine="22" fill="#F1F1F1" height="29.0679" id="A49_1_d" rx="2.5" ry="2.5" style="stroke:#181818;stroke-width:0.5;" width="58" x="465" y="439.102"/><text fill="#000000" font-family="sans-serif" font-size="14" lengthAdjust="spacing" textLength="52" x="468" y="459.0679">A49-1-d</text></g><!--class A49_1_e--><g id="elem_A49_1_e"><rect codeLine="23" fill="#F1F1F1" height="29.0679" id="A49_1_e" rx="2.5" ry="2.5" style="stroke:#181818;stroke-width:0.5;" width="57" x="465.5" y="375.102"/><text fill="#000000" font-family="sans-serif" font-size="14" lengthAdjust="spacing" textLength="51" x="468.5" y="395.0679">A49-1-e</text></g><!--class A49_1_f--><g id="elem_A49_1_f"><rect codeLine="24" fill="#F1F1F1" height="29.0679" id="A49_1_f" rx="2.5" ry="2.5" style="stroke:#181818;stroke-width:0.5;" width="54" x="467" y="311.102"/><text fill="#000000" font-family="sans-serif" font-size="14" lengthAdjust="spacing" textLength="48" x="470" y="331.0679">A49-1-f</text></g><!--class A49_1_g--><g id="elem_A49_1_g"><rect codeLine="25" fill="#F1F1F1" height="29.0679" id="A49_1_g" rx="2.5" ry="2.5" style="stroke:#181818;stroke-width:0.5;" width="58" x="465" y="247.102"/><text fill="#000000" font-family="sans-serif" font-size="14" lengthAdjust="spacing" textLength="52" x="468" y="267.0679">A49-1-g</text></g><!--class A49_2--><g id="elem_A49_2"><rect codeLine="26" fill="#F1F1F1" height="29.0679" id="A49_2" rx="2.5" ry="2.5" style="stroke:#181818;stroke-width:0.5;" width="44" x="472" y="183.102"/><text fill="#000000" font-family="sans-serif" font-size="14" lengthAdjust="spacing" textLength="38" x="475" y="203.0679">A49-2</text></g><!--link Process to LegalBasis--><g id="link_Process_LegalBasis"><path codeLine="29" d="M79.38,709.602 C117.52,709.602 186.91,709.602 236.58,709.602 " fill="none" id="Process-LegalBasis" style="stroke:#181818;stroke-width:1.0;"/><polygon fill="#000000" points="119,700.455,109.9549,697.5161,109.9549,703.3939,119,700.455" style="stroke:#000000;stroke-width:1.0;"/><text fill="#000000" font-family="sans-serif" font-size="13" lengthAdjust="spacing" textLength="83" x="123" y="705.499">hasLegalBasis</text></g><!--reverse link LegalBasis to A45_3--><g id="link_LegalBasis_A45_3"><path codeLine="31" d="M355.5,709.602 C355.5,709.602 358.97,1148.322 393,1189.602 C412.25,1212.952 448.58,1219.472 471.75,1221.172 " fill="none" id="LegalBasis-backto-A45_3" style="stroke:#181818;stroke-width:1.0;"/></g><!--reverse link LegalBasis to A46_2_a--><g id="link_LegalBasis_A46_2_a"><path codeLine="32" d="M355.5,709.602 C355.5,709.602 363.27,1089.972 393,1125.602 C410.63,1146.732 442.26,1154.072 465.23,1156.532 " fill="none" id="LegalBasis-backto-A46_2_a" style="stroke:#181818;stroke-width:1.0;"/></g><!--reverse link LegalBasis to A46_2_b--><g id="link_LegalBasis_A46_2_b"><path codeLine="33" d="M355.5,709.602 C355.5,709.602 342.66,1001.162 393,1061.602 C410.5,1082.612 441.82,1089.982 464.76,1092.492 " fill="none" id="LegalBasis-backto-A46_2_b" style="stroke:#181818;stroke-width:1.0;"/></g><!--reverse link LegalBasis to A46_2_c--><g id="link_LegalBasis_A46_2_c"><path codeLine="34" d="M355.5,709.602 C355.5,709.602 351.65,948.052 393,997.602 C410.75,1018.872 442.68,1026.172 465.69,1028.582 " fill="none" id="LegalBasis-backto-A46_2_c" style="stroke:#181818;stroke-width:1.0;"/></g><!--reverse link LegalBasis to A46_2_d--><g id="link_LegalBasis_A46_2_d"><path codeLine="35" d="M355.5,709.602 C355.5,709.602 359.97,895.442 393,933.602 C410.78,954.142 441.74,961.612 464.51,964.262 " fill="none" id="LegalBasis-backto-A46_2_d" style="stroke:#181818;stroke-width:1.0;"/></g><!--reverse link LegalBasis to A46_2_e--><g id="link_LegalBasis_A46_2_e"><path codeLine="36" d="M355.5,709.602 C355.5,709.602 343.45,815.942 393,869.602 C411.55,889.692 442.69,897.222 465.31,900.022 " fill="none" id="LegalBasis-backto-A46_2_e" style="stroke:#181818;stroke-width:1.0;"/></g><!--reverse link LegalBasis to A46_2_f--><g id="link_LegalBasis_A46_2_f"><path codeLine="37" d="M355.5,709.602 C355.5,709.602 359.61,774.242 393,805.602 C413.2,824.572 444.66,832.292 466.9,835.442 " fill="none" id="LegalBasis-backto-A46_2_f" style="stroke:#181818;stroke-width:1.0;"/></g><!--reverse link LegalBasis to A46_3_a--><g id="link_LegalBasis_A46_3_a"><path codeLine="38" d="M355.5,709.602 C355.5,709.602 373.86,730.942 393,741.602 C415.77,754.282 444.31,762.782 465.06,767.812 " fill="none" id="LegalBasis-backto-A46_3_a" style="stroke:#181818;stroke-width:1.0;"/></g><!--reverse link LegalBasis to A46_3_b--><g id="link_LegalBasis_A46_3_b"><path codeLine="39" d="M355.5,709.602 C355.5,709.602 424.24,709.602 464.51,709.602 " fill="none" id="LegalBasis-backto-A46_3_b" style="stroke:#181818;stroke-width:1.0;"/></g><!--reverse link LegalBasis to A49_1_a--><g id="link_LegalBasis_A49_1_a"><path codeLine="40" d="M355.5,709.602 C355.5,709.602 373.86,688.262 393,677.602 C415.77,664.922 444.31,656.422 465.06,651.392 " fill="none" id="LegalBasis-backto-A49_1_a" style="stroke:#181818;stroke-width:1.0;"/></g><!--reverse link LegalBasis to A49_1_b--><g id="link_LegalBasis_A49_1_b"><path codeLine="41" d="M355.5,709.602 C355.5,709.602 359.61,644.962 393,613.602 C412.53,595.262 442.61,587.432 464.67,584.092 " fill="none" id="LegalBasis-backto-A49_1_b" style="stroke:#181818;stroke-width:1.0;"/></g><!--reverse link LegalBasis to A49_1_c--><g id="link_LegalBasis_A49_1_c"><path codeLine="42" d="M355.5,709.602 C355.5,709.602 343.45,603.262 393,549.602 C411.67,529.382 443.11,521.882 465.76,519.132 " fill="none" id="LegalBasis-backto-A49_1_c" style="stroke:#181818;stroke-width:1.0;"/></g><!--reverse link LegalBasis to A49_1_d--><g id="link_LegalBasis_A49_1_d"><path codeLine="43" d="M355.5,709.602 C355.5,709.602 359.97,523.762 393,485.602 C410.78,465.062 441.74,457.592 464.51,454.942 " fill="none" id="LegalBasis-backto-A49_1_d" style="stroke:#181818;stroke-width:1.0;"/></g><!--reverse link LegalBasis to A49_1_e--><g id="link_LegalBasis_A49_1_e"><path codeLine="44" d="M355.5,709.602 C355.5,709.602 351.65,471.152 393,421.602 C410.63,400.472 442.26,393.132 465.23,390.672 " fill="none" id="LegalBasis-backto-A49_1_e" style="stroke:#181818;stroke-width:1.0;"/></g><!--reverse link LegalBasis to A49_1_f--><g id="link_LegalBasis_A49_1_f"><path codeLine="45" d="M355.5,709.602 C355.5,709.602 342.66,418.042 393,357.602 C410.97,336.032 443.5,328.832 466.58,326.522 " fill="none" id="LegalBasis-backto-A49_1_f" style="stroke:#181818;stroke-width:1.0;"/></g><!--reverse link LegalBasis to A49_1_g--><g id="link_LegalBasis_A49_1_g"><path codeLine="46" d="M355.5,709.602 C355.5,709.602 363.27,329.232 393,293.602 C410.52,272.612 441.84,265.232 464.77,262.722 " fill="none" id="LegalBasis-backto-A49_1_g" style="stroke:#181818;stroke-width:1.0;"/></g><!--reverse link LegalBasis to A49_2--><g id="link_LegalBasis_A49_2"><path codeLine="47" d="M355.5,709.602 C355.5,709.602 358.97,270.882 393,229.602 C412.25,206.252 448.58,199.732 471.75,198.032 " fill="none" id="LegalBasis-backto-A49_2" style="stroke:#181818;stroke-width:1.0;"/></g><!--SRC=[TTBHIiCm583XQ_CKnzwti4O74n7qJl1YRr3Iv2GBozgIf8AexsvNvdOQchlc_thWG79lE-b6XH3YbyDgSAABuycnSBJTNdXn0kFxSNZl3kXj59r4g9b37I7suAqvH53MeuosxnWRX3mAWw26J_XcTzA9463lUuaX_1y_q0Zt9e8Dx9SELEuC5OwLKOE_ZRy-F3OSH81Y-YfvSUlRfcx4HRPbNOh4Mc9jOfAOJ4mHKuaXCKnC4zCBusHFdkp9oPvyiUUksLpdTkLcCNUsbbWw9ud9n1GnbHWImyGqCPsO8MOMLb-bBgORPvVd06L9di8J74Iu7U65CN9w_fb-dj_1IfrVGQQtcIupNMKwPhfUxJop3r_TPxxbJC_zBpDTPJfckivqizfhzWS0]--></g></svg>