<svg xmlns="http://www.w3.org/2000/svg" xmlns:xlink="http://www.w3.org/1999/xlink" contentStyleType="text/css" height="883px" preserveAspectRatio="none" style="width:698px;height:883px;background:#FFFFFF;" version="1.1" viewBox="0 0 698 883" width="698px" zoomAndPan="magnify"><defs/><g><!--cluster dpv--><g id="cluster_dpv"><path d="M8.5,6.602 L35.8125,6.602 A3.75,3.75 0 0 1 38.3125,9.102 L45.3125,31.6699 L688.5,31.6699 A2.5,2.5 0 0 1 691,34.1699 L691,874.102 A2.5,2.5 0 0 1 688.5,876.602 L8.5,876.602 A2.5,2.5 0 0 1 6,874.102 L6,9.102 A2.5,2.5 0 0 1 8.5,6.602 " fill="none" style="stroke:#000000;stroke-width:1.5;"/><line style="stroke:#000000;stroke-width:1.5;" x1="6" x2="45.3125" y1="31.6699" y2="31.6699"/><text fill="#000000" font-family="sans-serif" font-size="14" font-weight="bold" lengthAdjust="spacing" textLength="26.3125" x="10" y="23.5679">dpv</text></g><!--cluster legal--><g id="cluster_legal"><path d="M188.5,52.602 L224.6875,52.602 A3.75,3.75 0 0 1 227.1875,55.102 L234.1875,77.6699 L664.5,77.6699 A2.5,2.5 0 0 1 667,80.1699 L667,850.102 A2.5,2.5 0 0 1 664.5,852.602 L188.5,852.602 A2.5,2.5 0 0 1 186,850.102 L186,55.102 A2.5,2.5 0 0 1 188.5,52.602 " fill="none" style="stroke:#000000;stroke-width:1.5;"/><line style="stroke:#000000;stroke-width:1.5;" x1="186" x2="234.1875" y1="77.6699" y2="77.6699"/><text fill="#000000" font-family="sans-serif" font-size="14" font-weight="bold" lengthAdjust="spacing" textLength="35.1875" x="190" y="69.5679">legal</text></g><!--cluster eu--><g id="cluster_eu"><path d="M212.5,98.602 L231.375,98.602 A3.75,3.75 0 0 1 233.875,101.102 L240.875,123.6699 L640.5,123.6699 A2.5,2.5 0 0 1 643,126.1699 L643,826.102 A2.5,2.5 0 0 1 640.5,828.602 L212.5,828.602 A2.5,2.5 0 0 1 210,826.102 L210,101.102 A2.5,2.5 0 0 1 212.5,98.602 " fill="none" style="stroke:#000000;stroke-width:1.5;"/><line style="stroke:#000000;stroke-width:1.5;" x1="210" x2="240.875" y1="123.6699" y2="123.6699"/><text fill="#000000" font-family="sans-serif" font-size="14" font-weight="bold" lengthAdjust="spacing" textLength="17.875" x="214" y="115.5679">eu</text></g><!--cluster gdpr--><g id="cluster_gdpr"><path d="M236.5,144.602 L272.25,144.602 A3.75,3.75 0 0 1 274.75,147.102 L281.75,169.6699 L616.5,169.6699 A2.5,2.5 0 0 1 619,172.1699 L619,802.102 A2.5,2.5 0 0 1 616.5,804.602 L236.5,804.602 A2.5,2.5 0 0 1 234,802.102 L234,147.102 A2.5,2.5 0 0 1 236.5,144.602 " fill="none" style="stroke:#000000;stroke-width:1.5;"/><line style="stroke:#000000;stroke-width:1.5;" x1="234" x2="281.75" y1="169.6699" y2="169.6699"/><text fill="#000000" font-family="sans-serif" font-size="14" font-weight="bold" lengthAdjust="spacing" textLength="34.75" x="238" y="161.5679">gdpr</text></g><!--class Process--><g id="elem_Process"><rect codeLine="7" fill="#F1F1F1" height="29.0679" id="Process" rx="2.5" ry="2.5" style="stroke:#181818;stroke-width:0.5;" width="57" x="52" y="592.102"/><text fill="#000000" font-family="sans-serif" font-size="14" lengthAdjust="spacing" textLength="51" x="55" y="612.0679">Process</text></g><!--class LegalBasis--><g id="elem_LegalBasis"><rect codeLine="8" fill="#F1F1F1" height="29.0679" id="LegalBasis" rx="2.5" ry="2.5" style="stroke:#181818;stroke-width:0.5;" width="77" x="42" y="489.102"/><text fill="#000000" font-family="sans-serif" font-size="14" lengthAdjust="spacing" textLength="71" x="45" y="509.0679">LegalBasis</text></g><polygon fill="none" points="119,502.9725,138.8764,495.6289,139.1176,509.6268" style="stroke:#181818;stroke-width:1.0;"/><line style="stroke:#181818;stroke-width:1.0;" x1="138.997" x2="140.5" y1="502.6279" y2="502.602"/><line style="stroke:#181818;stroke-width:1.0;" x1="80.5" x2="80.5" y1="518.1699" y2="538.352"/><!--class A6_1_a--><g id="elem_A6_1_a"><rect codeLine="11" fill="#F1F1F1" height="29.0679" id="A6_1_a" rx="2.5" ry="2.5" style="stroke:#181818;stroke-width:0.5;" width="49" x="270.5" y="719.102"/><text fill="#000000" font-family="sans-serif" font-size="14" lengthAdjust="spacing" textLength="43" x="273.5" y="739.0679">A6-1-a</text></g><polygon fill="none" points="319.5,734.6831,339.7807,728.5435,339.1829,742.5307" style="stroke:#181818;stroke-width:1.0;"/><line style="stroke:#181818;stroke-width:1.0;" x1="339.4818" x2="341" y1="735.5371" y2="735.602"/><line style="stroke:#181818;stroke-width:1.0;" x1="270.5" x2="250.15" y1="728.5699" y2="724.362"/><!--class A6_1_a_explicit_consent--><g id="elem_A6_1_a_explicit_consent"><rect codeLine="12" fill="#F1F1F1" height="29.0679" id="A6_1_a_explicit_consent" rx="2.5" ry="2.5" style="stroke:#181818;stroke-width:0.5;" width="160" x="422" y="759.102"/><text fill="#000000" font-family="sans-serif" font-size="14" lengthAdjust="spacing" textLength="154" x="425" y="779.0679">A6-1-a-explicit-consent</text></g><!--class A6_1_a_non_explicit_consent--><g id="elem_A6_1_a_non_explicit_consent"><rect codeLine="13" fill="#F1F1F1" height="29.0679" id="A6_1_a_non_explicit_consent" rx="2.5" ry="2.5" style="stroke:#181818;stroke-width:0.5;" width="191" x="406.5" y="695.102"/><text fill="#000000" font-family="sans-serif" font-size="14" lengthAdjust="spacing" textLength="185" x="409.5" y="715.0679">A6-1-a-non-explicit-consent</text></g><!--class A6_1_b--><g id="elem_A6_1_b"><rect codeLine="14" fill="#F1F1F1" height="29.0679" id="A6_1_b" rx="2.5" ry="2.5" style="stroke:#181818;stroke-width:0.5;" width="50" x="270" y="615.102"/><text fill="#000000" font-family="sans-serif" font-size="14" lengthAdjust="spacing" textLength="44" x="273" y="635.0679">A6-1-b</text></g><polygon fill="none" points="320,627.9871,339.496,619.686,340.4173,633.6556" style="stroke:#181818;stroke-width:1.0;"/><line style="stroke:#181818;stroke-width:1.0;" x1="339.9566" x2="341" y1="626.6708" y2="626.602"/><line style="stroke:#181818;stroke-width:1.0;" x1="270" x2="249.61" y1="623.0519" y2="617.682"/><!--class A6_1_b_contract_performance--><g id="elem_A6_1_b_contract_performance"><rect codeLine="15" fill="#F1F1F1" height="29.0679" id="A6_1_b_contract_performance" rx="2.5" ry="2.5" style="stroke:#181818;stroke-width:0.5;" width="202" x="401" y="631.102"/><text fill="#000000" font-family="sans-serif" font-size="14" lengthAdjust="spacing" textLength="196" x="404" y="651.0679">A6-1-b-contract-performance</text></g><!--class A6_1_b_enter_into_contract--><g id="elem_A6_1_b_enter_into_contract"><rect codeLine="16" fill="#F1F1F1" height="29.0679" id="A6_1_b_enter_into_contract" rx="2.5" ry="2.5" style="stroke:#181818;stroke-width:0.5;" width="182" x="411" y="567.102"/><text fill="#000000" font-family="sans-serif" font-size="14" lengthAdjust="spacing" textLength="176" x="414" y="587.0679">A6-1-b-enter-into-contract</text></g><!--class A6_1_c--><g id="elem_A6_1_c"><rect codeLine="17" fill="#F1F1F1" height="29.0679" id="A6_1_c" rx="2.5" ry="2.5" style="stroke:#181818;stroke-width:0.5;" width="48" x="271" y="531.102"/><text fill="#000000" font-family="sans-serif" font-size="14" lengthAdjust="spacing" textLength="42" x="274" y="551.0679">A6-1-c</text></g><!--class A6_1_d--><g id="elem_A6_1_d"><rect codeLine="18" fill="#F1F1F1" height="29.0679" id="A6_1_d" rx="2.5" ry="2.5" style="stroke:#181818;stroke-width:0.5;" width="50" x="270" y="447.102"/><text fill="#000000" font-family="sans-serif" font-size="14" lengthAdjust="spacing" textLength="44" x="273" y="467.0679">A6-1-d</text></g><polygon fill="none" points="320,464.3349,340.6358,459.522,339.1331,473.4411" style="stroke:#181818;stroke-width:1.0;"/><line style="stroke:#181818;stroke-width:1.0;" x1="339.8845" x2="341" y1="466.4816" y2="466.602"/><line style="stroke:#181818;stroke-width:1.0;" x1="270" x2="249.6" y1="468.1481" y2="473.462"/><!--class A6_1_d_data_subject--><g id="elem_A6_1_d_data_subject"><rect codeLine="19" fill="#F1F1F1" height="29.0679" id="A6_1_d_data_subject" rx="2.5" ry="2.5" style="stroke:#181818;stroke-width:0.5;" width="139" x="432.5" y="503.102"/><text fill="#000000" font-family="sans-serif" font-size="14" lengthAdjust="spacing" textLength="133" x="435.5" y="523.0679">A6-1-d-data-subject</text></g><!--class A6_1_d_natural_person--><g id="elem_A6_1_d_natural_person"><rect codeLine="20" fill="#F1F1F1" height="29.0679" id="A6_1_d_natural_person" rx="2.5" ry="2.5" style="stroke:#181818;stroke-width:0.5;" width="156" x="424" y="439.102"/><text fill="#000000" font-family="sans-serif" font-size="14" lengthAdjust="spacing" textLength="150" x="427" y="459.0679">A6-1-d-natural-person</text></g><!--class A6_1_e--><g id="elem_A6_1_e"><rect codeLine="21" fill="#F1F1F1" height="29.0679" id="A6_1_e" rx="2.5" ry="2.5" style="stroke:#181818;stroke-width:0.5;" width="49" x="270.5" y="343.102"/><text fill="#000000" font-family="sans-serif" font-size="14" lengthAdjust="spacing" textLength="43" x="273.5" y="363.0679">A6-1-e</text></g><polygon fill="none" points="319.5,357.6179,339.4948,350.6031,339.5052,364.6031" style="stroke:#181818;stroke-width:1.0;"/><line style="stroke:#181818;stroke-width:1.0;" x1="339.5" x2="341" y1="357.6031" y2="357.602"/><line style="stroke:#181818;stroke-width:1.0;" x1="270.5" x2="250.13" y1="363.58" y2="368.522"/><!--class A6_1_e_official_authority--><g id="elem_A6_1_e_official_authority"><rect codeLine="22" fill="#F1F1F1" height="29.0679" id="A6_1_e_official_authority" rx="2.5" ry="2.5" style="stroke:#181818;stroke-width:0.5;" width="165" x="419.5" y="375.102"/><text fill="#000000" font-family="sans-serif" font-size="14" lengthAdjust="spacing" textLength="159" x="422.5" y="395.0679">A6-1-e-official-authority</text></g><!--class A6_1_e_public_interest--><g id="elem_A6_1_e_public_interest"><rect codeLine="23" fill="#F1F1F1" height="29.0679" id="A6_1_e_public_interest" rx="2.5" ry="2.5" style="stroke:#181818;stroke-width:0.5;" width="153" x="425.5" y="311.102"/><text fill="#000000" font-family="sans-serif" font-size="14" lengthAdjust="spacing" textLength="147" x="428.5" y="331.0679">A6-1-e-public-interest</text></g><!--class A6_1_f--><g id="elem_A6_1_f"><rect codeLine="24" fill="#F1F1F1" height="29.0679" id="A6_1_f" rx="2.5" ry="2.5" style="stroke:#181818;stroke-width:0.5;" width="46" x="272" y="239.102"/><text fill="#000000" font-family="sans-serif" font-size="14" lengthAdjust="spacing" textLength="40" x="275" y="259.0679">A6-1-f</text></g><polygon fill="none" points="318,251.0046,337.0747,241.7766,338.666,255.6859" style="stroke:#181818;stroke-width:1.0;"/><line style="stroke:#181818;stroke-width:1.0;" x1="337.8704" x2="339" y1="248.7312" y2="248.602"/><line style="stroke:#181818;stroke-width:1.0;" x1="272" x2="251.72" y1="258.1934" y2="262.212"/><!--class A6_1_f_controller--><g id="elem_A6_1_f_controller"><rect codeLine="25" fill="#F1F1F1" height="29.0679" id="A6_1_f_controller" rx="2.5" ry="2.5" style="stroke:#181818;stroke-width:0.5;" width="116" x="444" y="247.102"/><text fill="#000000" font-family="sans-serif" font-size="14" lengthAdjust="spacing" textLength="110" x="447" y="267.0679">A6-1-f-controller</text></g><!--class A6_1_f_third_party--><g id="elem_A6_1_f_third_party"><rect codeLine="26" fill="#F1F1F1" height="29.0679" id="A6_1_f_third_party" rx="2.5" ry="2.5" style="stroke:#181818;stroke-width:0.5;" width="124" x="440" y="183.102"/><text fill="#000000" font-family="sans-serif" font-size="14" lengthAdjust="spacing" textLength="118" x="443" y="203.0679">A6-1-f-third-party</text></g><!--link Process to LegalBasis--><g id="link_Process_LegalBasis"><path codeLine="29" d="M80.5,591.842 C80.5,577.942 80.5,556.572 80.5,538.352 " fill="none" id="Process-LegalBasis" style="stroke:#181818;stroke-width:1.0;"/><polygon fill="#000000" points="24,560.455,21.0611,569.5001,26.9389,569.5001,24,560.455" style="stroke:#000000;stroke-width:1.0;"/><text fill="#000000" font-family="sans-serif" font-size="13" lengthAdjust="spacing" textLength="83" x="33" y="570.499">hasLegalBasis</text></g><!--reverse link LegalBasis to A6_1_a--><g id="link_LegalBasis_A6_1_a"><path codeLine="31" d="M140.5,502.602 C140.5,502.602 152.51,649.952 178,681.602 C195.93,703.862 225.4,716.912 250.15,724.362 " fill="none" id="LegalBasis-backto-A6_1_a" style="stroke:#181818;stroke-width:1.0;"/></g><!--reverse link LegalBasis to A6_1_b--><g id="link_LegalBasis_A6_1_b"><path codeLine="32" d="M140.5,502.602 C140.5,502.602 151.1,551.812 178,577.602 C197.91,596.692 226.04,609.542 249.61,617.682 " fill="none" id="LegalBasis-backto-A6_1_b" style="stroke:#181818;stroke-width:1.0;"/></g><!--reverse link LegalBasis to A6_1_c--><g id="link_LegalBasis_A6_1_c"><path codeLine="33" d="M140.5,502.602 C140.5,502.602 161.29,508.852 178,513.602 C210.15,522.752 247.42,532.962 270.86,539.332 " fill="none" id="LegalBasis-backto-A6_1_c" style="stroke:#181818;stroke-width:1.0;"/></g><!--reverse link LegalBasis to A6_1_d--><g id="link_LegalBasis_A6_1_d"><path codeLine="34" d="M140.5,502.602 C140.5,502.602 204.27,485.572 249.6,473.462 " fill="none" id="LegalBasis-backto-A6_1_d" style="stroke:#181818;stroke-width:1.0;"/></g><!--reverse link LegalBasis to A6_1_e--><g id="link_LegalBasis_A6_1_e"><path codeLine="35" d="M140.5,502.602 C140.5,502.602 147.09,441.712 178,409.602 C197.44,389.412 226.14,376.452 250.13,368.522 " fill="none" id="LegalBasis-backto-A6_1_e" style="stroke:#181818;stroke-width:1.0;"/></g><!--reverse link LegalBasis to A6_1_f--><g id="link_LegalBasis_A6_1_f"><path codeLine="36" d="M140.5,502.602 C140.5,502.602 150.37,340.562 178,305.602 C196.13,282.662 226.57,269.532 251.72,262.212 " fill="none" id="LegalBasis-backto-A6_1_f" style="stroke:#181818;stroke-width:1.0;"/></g><!--reverse link A6_1_a to A6_1_a_explicit_consent--><g id="link_A6_1_a_A6_1_a_explicit_consent"><path codeLine="37" d="M341,735.602 C341,735.602 393.4,748.042 438.22,758.692 " fill="none" id="A6_1_a-backto-A6_1_a_explicit_consent" style="stroke:#181818;stroke-width:1.0;"/></g><!--reverse link A6_1_a to A6_1_a_non_explicit_consent--><g id="link_A6_1_a_A6_1_a_non_explicit_consent"><path codeLine="38" d="M341,735.602 C341,735.602 373.29,730.352 408.85,724.572 " fill="none" id="A6_1_a-backto-A6_1_a_non_explicit_consent" style="stroke:#181818;stroke-width:1.0;"/></g><!--reverse link A6_1_b to A6_1_b_contract_performance--><g id="link_A6_1_b_A6_1_b_contract_performance"><path codeLine="39" d="M341,626.602 C341,626.602 368.43,629.862 400.58,633.672 " fill="none" id="A6_1_b-backto-A6_1_b_contract_performance" style="stroke:#181818;stroke-width:1.0;"/></g><!--reverse link A6_1_b to A6_1_b_enter_into_contract--><g id="link_A6_1_b_A6_1_b_enter_into_contract"><path codeLine="40" d="M341,626.602 C341,626.602 401.18,609.672 447.72,596.582 " fill="none" id="A6_1_b-backto-A6_1_b_enter_into_contract" style="stroke:#181818;stroke-width:1.0;"/></g><!--reverse link A6_1_d to A6_1_d_data_subject--><g id="link_A6_1_d_A6_1_d_data_subject"><path codeLine="41" d="M341,466.602 C341,466.602 407.07,487.662 454.29,502.712 " fill="none" id="A6_1_d-backto-A6_1_d_data_subject" style="stroke:#181818;stroke-width:1.0;"/></g><!--reverse link A6_1_d to A6_1_d_natural_person--><g id="link_A6_1_d_A6_1_d_natural_person"><path codeLine="42" d="M341,466.602 C341,466.602 382.9,463.202 423.81,459.872 " fill="none" id="A6_1_d-backto-A6_1_d_natural_person" style="stroke:#181818;stroke-width:1.0;"/></g><!--reverse link A6_1_e to A6_1_e_official_authority--><g id="link_A6_1_e_A6_1_e_official_authority"><path codeLine="43" d="M341,357.602 C341,357.602 384.51,366.302 426.15,374.632 " fill="none" id="A6_1_e-backto-A6_1_e_official_authority" style="stroke:#181818;stroke-width:1.0;"/></g><!--reverse link A6_1_e to A6_1_e_public_interest--><g id="link_A6_1_e_A6_1_e_public_interest"><path codeLine="44" d="M341,357.602 C341,357.602 384.51,348.902 426.15,340.572 " fill="none" id="A6_1_e-backto-A6_1_e_public_interest" style="stroke:#181818;stroke-width:1.0;"/></g><!--reverse link A6_1_f to A6_1_f_controller--><g id="link_A6_1_f_A6_1_f_controller"><path codeLine="45" d="M339,248.602 C339,248.602 356.07,252.892 370,254.602 C394.07,257.562 420.79,259.272 443.78,260.252 " fill="none" id="A6_1_f-backto-A6_1_f_controller" style="stroke:#181818;stroke-width:1.0;"/></g><!--reverse link A6_1_f to A6_1_f_third_party--><g id="link_A6_1_f_A6_1_f_third_party"><path codeLine="46" d="M339,248.602 C339,248.602 405.89,227.542 453.71,212.492 " fill="none" id="A6_1_f-backto-A6_1_f_third_party" style="stroke:#181818;stroke-width:1.0;"/></g><!--SRC=[XPCnZzGm48Lh_2lCKbpbbOxY2eIGZWw9uWfwQs9F4dDUsxAT4oVWlvDidCt4M515dk-zYJDvyzOuPIUDFELNY-TWmUNfObbwDku98bpu4FqKlhWHeydW5FBtp6AVUVOycc7CN9k8AXll6BjJ5bBYtqRZ1luk6Vk2aGLGpp0Wr-65_sHlLibJz0fJsevVSG3x6P99x3SrdEq2pZYT1ntYRdzyaFSIE2H-UdmGzm9EHoBnHx16cIoLTmbT9bAnCL5OxNNU_TC_y__qw7PvLv6bOOwWiWmOUnylrvdkSh5nGNZTOtuXHcbSzhTsjCKLYmNVkXqxg5sjZaJlH5T4QiWWqzHzH_ewBPQwAFNQuo1F4UpoiSaxwYf4hEJe8mEflXsbx_jvy7DBcFBevr2-4h7OgBZHsX-cRlvpo_0mOihKl2AneQEptvLzHTQVuAt5I4HYhzRwF9gePO18Bz-BQrbSowTv3-xMFVhuIzpMfJov81lpWO-GzYF_n1WvpMvHWjqkT-soQfTrkupjSi_Aef9R_BLQBKrh1LbPBNBrvZArT8s5OINlvDiE2M_nOvfPoIePGoETBLMLGLO2HWP78jMY943i3m00]--></g></svg>