<svg xmlns="http://www.w3.org/2000/svg" xmlns:xlink="http://www.w3.org/1999/xlink" contentStyleType="text/css" height="369px" preserveAspectRatio="none" style="width:832px;height:369px;background:#FFFFFF;" version="1.1" viewBox="0 0 832 369" width="832px" zoomAndPan="magnify"><defs/><g><!--cluster dpv--><g id="cluster_dpv"><path d="M307.5,6.602 L334.8125,6.602 A3.75,3.75 0 0 1 337.3125,9.102 L344.3125,31.6699 L822.5,31.6699 A2.5,2.5 0 0 1 825,34.1699 L825,280.102 A2.5,2.5 0 0 1 822.5,282.602 L307.5,282.602 A2.5,2.5 0 0 1 305,280.102 L305,9.102 A2.5,2.5 0 0 1 307.5,6.602 " fill="none" style="stroke:#000000;stroke-width:1.5;"/><line style="stroke:#000000;stroke-width:1.5;" x1="305" x2="344.3125" y1="31.6699" y2="31.6699"/><text fill="#000000" font-family="sans-serif" font-size="14" font-weight="bold" lengthAdjust="spacing" textLength="26.3125" x="309" y="23.5679">dpv</text></g><!--class TechnicalOrganisationalMeasure--><g id="elem_TechnicalOrganisationalMeasure"><rect codeLine="9" fill="#F1F1F1" height="29.0679" id="TechnicalOrganisationalMeasure" rx="2.5" ry="2.5" style="stroke:#181818;stroke-width:0.5;" width="229" x="580" y="173.102"/><text fill="#000000" font-family="sans-serif" font-size="14" lengthAdjust="spacing" textLength="223" x="583" y="193.0679">TechnicalOrganisationalMeasure</text></g><!--class TechnicalMeasure--><g id="elem_TechnicalMeasure"><rect codeLine="10" fill="#F1F1F1" height="29.0679" id="TechnicalMeasure" rx="2.5" ry="2.5" style="stroke:#181818;stroke-width:0.5;" width="129" x="339" y="237.102"/><text fill="#000000" font-family="sans-serif" font-size="14" lengthAdjust="spacing" textLength="123" x="342" y="257.0679">TechnicalMeasure</text></g><!--class OrganisationalMeasure--><g id="elem_OrganisationalMeasure"><rect codeLine="11" fill="#F1F1F1" height="29.0679" id="OrganisationalMeasure" rx="2.5" ry="2.5" style="stroke:#181818;stroke-width:0.5;" width="165" x="321" y="173.102"/><text fill="#000000" font-family="sans-serif" font-size="14" lengthAdjust="spacing" textLength="159" x="324" y="193.0679">OrganisationalMeasure</text></g><!--class LegalMeasure--><g id="elem_LegalMeasure"><rect codeLine="12" fill="#F1F1F1" height="29.0679" id="LegalMeasure" rx="2.5" ry="2.5" style="stroke:#181818;stroke-width:0.5;" width="101" x="353" y="109.102"/><text fill="#000000" font-family="sans-serif" font-size="14" lengthAdjust="spacing" textLength="95" x="356" y="129.0679">LegalMeasure</text></g><!--class PhysicalMeasure--><g id="elem_PhysicalMeasure"><rect codeLine="13" fill="#F1F1F1" height="29.0679" id="PhysicalMeasure" rx="2.5" ry="2.5" style="stroke:#181818;stroke-width:0.5;" width="119" x="344" y="45.102"/><text fill="#000000" font-family="sans-serif" font-size="14" lengthAdjust="spacing" textLength="113" x="347" y="65.0679">PhysicalMeasure</text></g><!--class Thing--><g id="elem_Thing"><rect codeLine="7" fill="#C0C0C0" height="29.0679" id="Thing" rx="2.5" ry="2.5" style="stroke:#181818;stroke-width:0.5;" width="45" x="7" y="173.102"/><text fill="#000000" font-family="sans-serif" font-size="14" lengthAdjust="spacing" textLength="39" x="10" y="193.0679">Thing</text></g><!--link TechnicalMeasure to TechnicalOrganisationalMeasure--><g id="link_TechnicalMeasure_TechnicalOrganisationalMeasure"><path codeLine="16" d="M468.28,237.482 C514.99,227.132 560.6959,217.0142 608.2859,206.4742 " fill="none" id="TechnicalMeasure-to-TechnicalOrganisationalMeasure" style="stroke:#181818;stroke-width:1.0;"/><polygon fill="none" points="625.86,202.582,606.9884,200.6162,609.5833,212.3323,625.86,202.582" style="stroke:#181818;stroke-width:1.0;"/></g><!--link OrganisationalMeasure to TechnicalOrganisationalMeasure--><g id="link_OrganisationalMeasure_TechnicalOrganisationalMeasure"><path codeLine="17" d="M486.16,187.602 C515.2,187.602 530.45,187.602 561.69,187.602 " fill="none" id="OrganisationalMeasure-to-TechnicalOrganisationalMeasure" style="stroke:#181818;stroke-width:1.0;"/><polygon fill="none" points="579.69,187.602,561.69,181.602,561.69,193.602,579.69,187.602" style="stroke:#181818;stroke-width:1.0;"/></g><!--link LegalMeasure to TechnicalOrganisationalMeasure--><g id="link_LegalMeasure_TechnicalOrganisationalMeasure"><path codeLine="18" d="M454.18,134.602 C501.55,145.092 555.6764,157.0775 608.2464,168.7275 " fill="none" id="LegalMeasure-to-TechnicalOrganisationalMeasure" style="stroke:#181818;stroke-width:1.0;"/><polygon fill="none" points="625.82,172.622,609.5445,162.8696,606.9482,174.5854,625.82,172.622" style="stroke:#181818;stroke-width:1.0;"/></g><!--link PhysicalMeasure to TechnicalOrganisationalMeasure--><g id="link_PhysicalMeasure_TechnicalOrganisationalMeasure"><path codeLine="19" d="M463.33,73.252 C481.47,78.202 501.33,84.382 519,91.602 C575.82,114.812 622.5215,142.3796 655.1515,162.9896 " fill="none" id="PhysicalMeasure-to-TechnicalOrganisationalMeasure" style="stroke:#181818;stroke-width:1.0;"/><polygon fill="none" points="670.37,172.602,658.3557,157.9168,651.9474,168.0624,670.37,172.602" style="stroke:#181818;stroke-width:1.0;"/></g><!--link Thing to TechnicalOrganisationalMeasure--><g id="link_Thing_TechnicalOrganisationalMeasure"><path codeLine="21" d="M37.55,202.482 C45.89,218.412 61.3,243.202 82,256.602 C245.93,362.752 331.93,358.702 519,302.602 C585.38,282.702 649.84,228.482 678.3,202.232 " fill="none" id="Thing-TechnicalOrganisationalMeasure" style="stroke:#181818;stroke-width:1.0;"/><polygon fill="#000000" points="298,293.453,288.9538,290.5176,288.9561,296.3955,298,293.453" style="stroke:#000000;stroke-width:1.0;"/><text fill="#000000" font-family="sans-serif" font-size="13" lengthAdjust="spacing" textLength="216" x="302" y="298.499">hasTechnicalOrganisationalMeasure</text></g><!--link Thing to OrganisationalMeasure--><g id="link_Thing_OrganisationalMeasure"><path codeLine="22" d="M52.3,188.122 C61.47,188.312 72.25,188.512 82,188.602 C163.23,189.392 256.06,188.952 320.83,188.432 " fill="none" id="Thing-OrganisationalMeasure" style="stroke:#181818;stroke-width:1.0;"/><polygon fill="#000000" points="92,179.4608,82.9583,176.5114,82.9515,182.3892,92,179.4608" style="stroke:#000000;stroke-width:1.0;"/><text fill="#000000" font-family="sans-serif" font-size="13" lengthAdjust="spacing" textLength="161" x="96" y="184.499">hasOrganisationalMeasure</text></g><!--link Thing to TechnicalMeasure--><g id="link_Thing_TechnicalMeasure"><path codeLine="23" d="M52.41,202.532 C61.24,207.842 71.74,213.312 82,216.602 C167.93,244.212 272.77,250.922 338.6,252.112 " fill="none" id="Thing-TechnicalMeasure" style="stroke:#181818;stroke-width:1.0;"/><polygon fill="#000000" points="108.4266,208.3085,100.016,203.8687,99.0126,209.6603,108.4266,208.3085" style="stroke:#000000;stroke-width:1.0;"/><text fill="#000000" font-family="sans-serif" font-size="13" lengthAdjust="spacing" textLength="128" x="112.5" y="212.499">hasTechnicalMeasure</text></g><!--link Thing to LegalMeasure--><g id="link_Thing_LegalMeasure"><path codeLine="24" d="M52.33,176.712 C61.32,172.642 71.97,168.352 82,165.602 C175.51,140.022 288.76,129.842 352.53,125.922 " fill="none" id="Thing-LegalMeasure" style="stroke:#181818;stroke-width:1.0;"/><polygon fill="#000000" points="119.9299,124.6209,110.5213,123.232,111.5019,129.0275,119.9299,124.6209" style="stroke:#000000;stroke-width:1.0;"/><text fill="#000000" font-family="sans-serif" font-size="13" lengthAdjust="spacing" textLength="105" x="124" y="130.499">hasLegalMeasure</text></g><!--link Thing to PhysicalMeasure--><g id="link_Thing_PhysicalMeasure"><path codeLine="25" d="M35.66,172.722 C42.92,154.192 58,123.112 82,107.602 C161.62,56.152 275.28,51.632 343.67,54.562 " fill="none" id="Thing-PhysicalMeasure" style="stroke:#181818;stroke-width:1.0;"/><polygon fill="#000000" points="111.6683,45.6641,102.1706,46.1599,104.2759,51.6478,111.6683,45.6641" style="stroke:#000000;stroke-width:1.0;"/><text fill="#000000" font-family="sans-serif" font-size="13" lengthAdjust="spacing" textLength="121" x="116" y="52.499">hasPhysicalMeasure</text></g><!--SRC=[ZP11JiGm34NN-1H6B5YL0o0q9m31WWkOr3JMk4cKk2DLmDtHg4Xqqb7RxSz_Fz__LeBJeMKiDYe_9ALWGw-W_6be4RDqth2LpCua1hYtcCxwHpIB_VoX72KaojIZIc0R4sFCvYE0Koe5txs43k-Aw8ap9797wXZRTC8lkFcpiFD17EbhxYX8eNCowGjJ6J8lN9M-2Zrpjz3U_5ZcEJy0wmtmwRiPccM1NTJrUhlGY_AxYFeqcDPlcesDyH4zbGtFuJzj9MIJhMUi_hv2p7UOt1VAp5dTFvbhyG3m2m00]--></g></svg>