<svg xmlns="http://www.w3.org/2000/svg" xmlns:xlink="http://www.w3.org/1999/xlink" contentStyleType="text/css" height="121px" preserveAspectRatio="none" style="width:466px;height:121px;background:#FFFFFF;" version="1.1" viewBox="0 0 466 121" width="466px" zoomAndPan="magnify"><defs/><g><!--cluster dpv--><g id="cluster_dpv"><path d="M186.5,6.602 L213.8125,6.602 A3.75,3.75 0 0 1 216.3125,9.102 L223.3125,31.6699 L456.5,31.6699 A2.5,2.5 0 0 1 459,34.1699 L459,112.102 A2.5,2.5 0 0 1 456.5,114.602 L186.5,114.602 A2.5,2.5 0 0 1 184,112.102 L184,9.102 A2.5,2.5 0 0 1 186.5,6.602 " fill="none" style="stroke:#000000;stroke-width:1.5;"/><line style="stroke:#000000;stroke-width:1.5;" x1="184" x2="223.3125" y1="31.6699" y2="31.6699"/><text fill="#000000" font-family="sans-serif" font-size="14" font-weight="bold" lengthAdjust="spacing" textLength="26.3125" x="188" y="23.5679">dpv</text></g><!--class Purpose--><g id="elem_Purpose"><rect codeLine="6" fill="#F1F1F1" height="29.0679" id="Purpose" rx="2.5" ry="2.5" style="stroke:#181818;stroke-width:0.5;" width="61" x="200" y="49.102"/><text fill="#000000" font-family="sans-serif" font-size="14" lengthAdjust="spacing" textLength="55" x="203" y="69.0679">Purpose</text></g><!--class Sector--><g id="elem_Sector"><rect codeLine="7" fill="#F1F1F1" height="29.0679" id="Sector" rx="2.5" ry="2.5" style="stroke:#181818;stroke-width:0.5;" width="48" x="395" y="49.102"/><text fill="#000000" font-family="sans-serif" font-size="14" lengthAdjust="spacing" textLength="42" x="398" y="69.0679">Sector</text></g><!--class Thing--><g id="elem_Thing"><rect codeLine="4" fill="#C0C0C0" height="29.0679" id="Thing" rx="2.5" ry="2.5" style="stroke:#181818;stroke-width:0.5;" width="45" x="7" y="49.102"/><text fill="#000000" font-family="sans-serif" font-size="14" lengthAdjust="spacing" textLength="39" x="10" y="69.0679">Thing</text></g><!--link Thing to Purpose--><g id="link_Thing_Purpose"><path codeLine="9" d="M52.18,63.602 C87.94,63.602 159.36,63.602 199.79,63.602 " fill="none" id="Thing-Purpose" style="stroke:#181818;stroke-width:1.0;"/><polygon fill="#000000" points="92,54.455,82.9549,51.5161,82.9549,57.3939,92,54.455" style="stroke:#000000;stroke-width:1.0;"/><text fill="#000000" font-family="sans-serif" font-size="13" lengthAdjust="spacing" textLength="71" x="96" y="59.499">hasPurpose</text></g><!--link Purpose to Sector--><g id="link_Purpose_Sector"><path codeLine="10" d="M261.46,63.602 C298.53,63.602 360.86,63.602 394.6,63.602 " fill="none" id="Purpose-Sector" style="stroke:#181818;stroke-width:1.0;"/><polygon fill="#000000" points="301,54.455,291.9549,51.5161,291.9549,57.3939,301,54.455" style="stroke:#000000;stroke-width:1.0;"/><text fill="#000000" font-family="sans-serif" font-size="13" lengthAdjust="spacing" textLength="59" x="305" y="59.499">hasSector</text></g><!--SRC=[DOn12W8n34NNvXGHr-C1NCmP1Br0QMCRZ6rfqW4Hx-v0xUvzUEyVENlfWL3jBNIkuhBrbu3Gmz0ADex9C70ZRrmoW1UdYlV4EU99MJPgK9r_kaWOweOVE0pbsbijIdFUzeFIu0iZNPOfu0MJqpbMcBGRend2drVu0G00]--></g></svg>