<svg xmlns="http://www.w3.org/2000/svg" xmlns:xlink="http://www.w3.org/1999/xlink" contentStyleType="text/css" height="717px" preserveAspectRatio="none" style="width:804px;height:717px;background:#FFFFFF;" version="1.1" viewBox="0 0 804 717" width="804px" zoomAndPan="magnify"><defs/><g><!--cluster dpv--><g id="cluster_dpv"><path d="M8.5,355.602 L35.8125,355.602 A3.75,3.75 0 0 1 38.3125,358.102 L45.3125,380.6699 L118.5,380.6699 A2.5,2.5 0 0 1 121,383.1699 L121,437.102 A2.5,2.5 0 0 1 118.5,439.602 L8.5,439.602 A2.5,2.5 0 0 1 6,437.102 L6,358.102 A2.5,2.5 0 0 1 8.5,355.602 " fill="none" style="stroke:#000000;stroke-width:1.5;"/><line style="stroke:#000000;stroke-width:1.5;" x1="6" x2="45.3125" y1="380.6699" y2="380.6699"/><text fill="#000000" font-family="sans-serif" font-size="14" font-weight="bold" lengthAdjust="spacing" textLength="26.3125" x="10" y="372.5679">dpv</text></g><!--cluster tech--><g id="cluster_tech"><path d="M642.5,434.602 L674.25,434.602 A3.75,3.75 0 0 1 676.75,437.102 L683.75,459.6699 L794.5,459.6699 A2.5,2.5 0 0 1 797,462.1699 L797,708.102 A2.5,2.5 0 0 1 794.5,710.602 L642.5,710.602 A2.5,2.5 0 0 1 640,708.102 L640,437.102 A2.5,2.5 0 0 1 642.5,434.602 " fill="none" style="stroke:#000000;stroke-width:1.5;"/><line style="stroke:#000000;stroke-width:1.5;" x1="640" x2="683.75" y1="459.6699" y2="459.6699"/><text fill="#000000" font-family="sans-serif" font-size="14" font-weight="bold" lengthAdjust="spacing" textLength="30.75" x="644" y="451.5679">tech</text></g><!--cluster ai--><g id="cluster_ai"><path d="M391.5,6.602 L405.375,6.602 A3.75,3.75 0 0 1 407.875,9.102 L414.875,31.6699 L770.5,31.6699 A2.5,2.5 0 0 1 773,34.1699 L773,408.102 A2.5,2.5 0 0 1 770.5,410.602 L391.5,410.602 A2.5,2.5 0 0 1 389,408.102 L389,9.102 A2.5,2.5 0 0 1 391.5,6.602 " fill="none" style="stroke:#000000;stroke-width:1.5;"/><line style="stroke:#000000;stroke-width:1.5;" x1="389" x2="414.875" y1="31.6699" y2="31.6699"/><text fill="#000000" font-family="sans-serif" font-size="14" font-weight="bold" lengthAdjust="spacing" textLength="12.875" x="393" y="23.5679">ai</text></g><!--class Technology--><g id="elem_Technology"><rect codeLine="7" fill="#F1F1F1" height="29.0679" id="Technology" rx="2.5" ry="2.5" style="stroke:#181818;stroke-width:0.5;" width="83" x="22" y="394.102"/><text fill="#000000" font-family="sans-serif" font-size="14" lengthAdjust="spacing" textLength="77" x="25" y="414.0679">Technology</text></g><!--class ProvisionMethod--><g id="elem_ProvisionMethod"><rect codeLine="11" fill="#F1F1F1" height="29.0679" id="ProvisionMethod" rx="2.5" ry="2.5" style="stroke:#181818;stroke-width:0.5;" width="119" x="659" y="473.102"/><text fill="#000000" font-family="sans-serif" font-size="14" lengthAdjust="spacing" textLength="113" x="662" y="493.0679">ProvisionMethod</text></g><!--class Documentation--><g id="elem_Documentation"><rect codeLine="12" fill="#F1F1F1" height="29.0679" id="Documentation" rx="2.5" ry="2.5" style="stroke:#181818;stroke-width:0.5;" width="109" x="664" y="537.102"/><text fill="#000000" font-family="sans-serif" font-size="14" lengthAdjust="spacing" textLength="103" x="667" y="557.0679">Documentation</text></g><!--class IntendedUse--><g id="elem_IntendedUse"><rect codeLine="13" fill="#F1F1F1" height="29.0679" id="IntendedUse" rx="2.5" ry="2.5" style="stroke:#181818;stroke-width:0.5;" width="93" x="672" y="601.102"/><text fill="#000000" font-family="sans-serif" font-size="14" lengthAdjust="spacing" textLength="87" x="675" y="621.0679">IntendedUse</text></g><!--class TechnologyStatus--><g id="elem_TechnologyStatus"><rect codeLine="14" fill="#F1F1F1" height="29.0679" id="TechnologyStatus" rx="2.5" ry="2.5" style="stroke:#181818;stroke-width:0.5;" width="125" x="656" y="665.102"/><text fill="#000000" font-family="sans-serif" font-size="14" lengthAdjust="spacing" textLength="119" x="659" y="685.0679">TechnologyStatus</text></g><!--class AI--><g id="elem_AI"><rect codeLine="18" fill="#F1F1F1" height="29.0679" id="AI" rx="2.5" ry="2.5" style="stroke:#181818;stroke-width:0.5;" width="20" x="405" y="345.102"/><text fill="#000000" font-family="sans-serif" font-size="14" lengthAdjust="spacing" textLength="14" x="408" y="365.0679">AI</text></g><!--class AISystem--><g id="elem_AISystem"><rect codeLine="19" fill="#F1F1F1" height="29.0679" id="AISystem" rx="2.5" ry="2.5" style="stroke:#181818;stroke-width:0.5;" width="68" x="684.5" y="365.102"/><text fill="#000000" font-family="sans-serif" font-size="14" lengthAdjust="spacing" textLength="62" x="687.5" y="385.0679">AISystem</text></g><!--class Capability--><g id="elem_Capability"><rect codeLine="20" fill="#F1F1F1" height="29.0679" id="Capability" rx="2.5" ry="2.5" style="stroke:#181818;stroke-width:0.5;" width="73" x="682" y="301.102"/><text fill="#000000" font-family="sans-serif" font-size="14" lengthAdjust="spacing" textLength="67" x="685" y="321.0679">Capability</text></g><!--class Measure--><g id="elem_Measure"><rect codeLine="21" fill="#F1F1F1" height="29.0679" id="Measure" rx="2.5" ry="2.5" style="stroke:#181818;stroke-width:0.5;" width="65" x="686" y="237.102"/><text fill="#000000" font-family="sans-serif" font-size="14" lengthAdjust="spacing" textLength="59" x="689" y="257.0679">Measure</text></g><!--class Model--><g id="elem_Model"><rect codeLine="22" fill="#F1F1F1" height="29.0679" id="Model" rx="2.5" ry="2.5" style="stroke:#181818;stroke-width:0.5;" width="48" x="694.5" y="173.102"/><text fill="#000000" font-family="sans-serif" font-size="14" lengthAdjust="spacing" textLength="42" x="697.5" y="193.0679">Model</text></g><!--class Risk--><g id="elem_Risk"><rect codeLine="23" fill="#F1F1F1" height="29.0679" id="Risk" rx="2.5" ry="2.5" style="stroke:#181818;stroke-width:0.5;" width="33" x="702" y="109.102"/><text fill="#000000" font-family="sans-serif" font-size="14" lengthAdjust="spacing" textLength="27" x="705" y="129.0679">Risk</text></g><!--class Technique--><g id="elem_Technique"><rect codeLine="24" fill="#F1F1F1" height="29.0679" id="Technique" rx="2.5" ry="2.5" style="stroke:#181818;stroke-width:0.5;" width="77" x="680" y="45.102"/><text fill="#000000" font-family="sans-serif" font-size="14" lengthAdjust="spacing" textLength="71" x="683" y="65.0679">Technique</text></g><!--class Thing--><g id="elem_Thing"><rect codeLine="4" fill="#C0C0C0" height="29.0679" id="Thing" rx="2.5" ry="2.5" style="stroke:#181818;stroke-width:0.5;" width="45" x="41" y="310.102"/><text fill="#000000" font-family="sans-serif" font-size="14" lengthAdjust="spacing" textLength="39" x="44" y="330.0679">Thing</text></g><!--link Thing to AI--><g id="link_Thing_AI"><path codeLine="27" d="M86.36,326.792 C154.06,333.572 358.44,354.042 404.65,358.662 " fill="none" id="Thing-AI" style="stroke:#181818;stroke-width:1.0;"/><polygon fill="#000000" points="146.9751,323.9531,138.2678,320.1277,137.6822,325.9763,146.9751,323.9531" style="stroke:#000000;stroke-width:1.0;"/><text fill="#000000" font-family="sans-serif" font-size="13" lengthAdjust="spacing" textLength="221" x="151" y="328.499">dpv:isImplementedUsingTechnology</text></g><!--reverse link Technology to AI--><g id="link_Technology_AI"><path codeLine="28" d="M123.1057,400.3828 C203.7757,389.0728 361.81,366.922 404.52,360.932 " fill="none" id="Technology-backto-AI" style="stroke:#181818;stroke-width:1.0;"/><polygon fill="none" points="105.28,402.882,123.9387,406.3247,122.2726,394.4409,105.28,402.882" style="stroke:#181818;stroke-width:1.0;"/></g><!--link AI to ProvisionMethod--><g id="link_AI_ProvisionMethod"><path codeLine="29" d="M425.24,374.392 C432.26,384.512 442.78,397.502 455,405.602 C517.69,447.132 602.6,468.602 658.66,478.972 " fill="none" id="AI-ProvisionMethod" style="stroke:#181818;stroke-width:1.0;"/><polygon fill="#000000" points="464.563,398.4993,457.5101,392.119,455.1068,397.4831,464.563,398.4993" style="stroke:#000000;stroke-width:1.0;"/><text fill="#000000" font-family="sans-serif" font-size="13" lengthAdjust="spacing" textLength="154" x="469" y="401.499">tech:hasProvisionMethod</text></g><!--link AI to Documentation--><g id="link_AI_Documentation"><path codeLine="30" d="M415.53,374.172 C415.47,402.422 419.63,464.712 455,497.602 C511.47,550.122 604.86,557.272 663.69,555.782 " fill="none" id="AI-Documentation" style="stroke:#181818;stroke-width:1.0;"/><polygon fill="#000000" points="469.0349,491.4079,463.4713,483.6944,460,488.4377,469.0349,491.4079" style="stroke:#000000;stroke-width:1.0;"/><text fill="#000000" font-family="sans-serif" font-size="13" lengthAdjust="spacing" textLength="144" x="474" y="493.499">tech:hasDocumentation</text></g><!--link AI to IntendedUse--><g id="link_AI_IntendedUse"><path codeLine="31" d="M416.39,374.552 C417.89,419.792 424.84,553.862 455,582.602 C512.77,637.662 613.04,633.182 671.51,624.622 " fill="none" id="AI-IntendedUse" style="stroke:#181818;stroke-width:1.0;"/><polygon fill="#000000" points="476.5707,576.955,472.1685,568.5246,468.054,572.7222,476.5707,576.955" style="stroke:#000000;stroke-width:1.0;"/><text fill="#000000" font-family="sans-serif" font-size="13" lengthAdjust="spacing" textLength="128" x="482" y="578.499">tech:hasIntendedUse</text></g><!--link AI to TechnologyStatus--><g id="link_AI_TechnologyStatus"><path codeLine="32" d="M415.61,374.382 C414.51,428.982 413.77,618.242 455,657.602 C507.6,707.812 596.12,704.132 655.65,694.142 " fill="none" id="AI-TechnologyStatus" style="stroke:#181818;stroke-width:1.0;"/><polygon fill="#000000" points="497.5018,652.4537,494.4219,643.4556,489.7212,646.9844,497.5018,652.4537" style="stroke:#000000;stroke-width:1.0;"/><text fill="#000000" font-family="sans-serif" font-size="13" lengthAdjust="spacing" textLength="85" x="503.5" y="653.499">dpv:hasStatus</text></g><!--link AI to Capability--><g id="link_AI_Capability"><path codeLine="33" d="M425.35,358.232 C464.02,352.592 612.57,330.912 681.71,320.822 " fill="none" id="AI-Capability" style="stroke:#181818;stroke-width:1.0;"/><polygon fill="#000000" points="495.4476,320.733,486.0729,319.131,486.9217,324.9472,495.4476,320.733" style="stroke:#000000;stroke-width:1.0;"/><text fill="#000000" font-family="sans-serif" font-size="13" lengthAdjust="spacing" textLength="93" x="499.5" y="326.499">ai:hasCapability</text></g><!--link AI to Measure--><g id="link_AI_Measure"><path codeLine="34" d="M422.37,344.772 C428.72,331.822 439.73,313.582 455,303.602 C527.33,256.312 633.13,250.292 685.58,250.532 " fill="none" id="AI-Measure" style="stroke:#181818;stroke-width:1.0;"/><polygon fill="#000000" points="498.7074,242.7696,489.201,243.0516,491.1823,248.5855,498.7074,242.7696" style="stroke:#000000;stroke-width:1.0;"/><text fill="#000000" font-family="sans-serif" font-size="13" lengthAdjust="spacing" textLength="86" x="503" y="249.499">ai:hasMeasure</text></g><!--reverse link AI to Model--><g id="link_AI_Model"><path codeLine="35" d="M415.586,326.942 C415.626,299.212 419.98,257.102 455,226.602 C490.53,195.662 636.8,189.262 694.22,187.942 " fill="none" id="AI-backto-Model" style="stroke:#181818;stroke-width:1.0;"/><polygon fill="none" points="415.56,344.942,421.586,326.9507,409.586,326.9333,415.56,344.942" style="stroke:#181818;stroke-width:1.0;"/></g><!--reverse link AI to AISystem--><g id="link_AI_AISystem"><path codeLine="36" d="M442.8804,365.2411 C450.7504,366.8611 444.75,365.432 455,366.602 C537.06,375.962 634.3,378.582 684.24,379.322 " fill="none" id="AI-backto-AISystem" style="stroke:#181818;stroke-width:1.0;"/><polygon fill="none" points="425.25,361.612,441.6707,371.1179,444.0901,359.3643,425.25,361.612" style="stroke:#181818;stroke-width:1.0;"/></g><!--link AI to Risk--><g id="link_AI_Risk"><path codeLine="37" d="M417.76,344.662 C422.22,309.212 435.06,221.452 455,200.602 C490.2,163.782 650.7,134.612 701.82,126.112 " fill="none" id="AI-Risk" style="stroke:#181818;stroke-width:1.0;"/><polygon fill="#000000" points="505.4628,129.4061,496.5019,132.5923,500.0861,137.2509,505.4628,129.4061" style="stroke:#000000;stroke-width:1.0;"/><text fill="#000000" font-family="sans-serif" font-size="13" lengthAdjust="spacing" textLength="71" x="510.5" y="137.499">dpv:hasRisk</text></g><!--link AI to Technique--><g id="link_AI_Technique"><path codeLine="38" d="M416.24,344.672 C417.32,296.752 423.22,147.972 455,114.602 C513.61,53.072 622.06,51.322 679.5,55.382 " fill="none" id="AI-Technique" style="stroke:#181818;stroke-width:1.0;"/><polygon fill="#000000" points="492.3652,41.757,484.1038,46.4687,488.4511,50.4248,492.3652,41.757" style="stroke:#000000;stroke-width:1.0;"/><text fill="#000000" font-family="sans-serif" font-size="13" lengthAdjust="spacing" textLength="96" x="498" y="50.499">ai:hasTechnique</text></g><!--SRC=[RL71JiKW4Bpp5HZFpmzuCKsCNdfeOjxJ3q1OsysZK0iqQTH_5zfIeB6dpkpipkvmXufB9u0QEqju62HJrlMIIFYqr6ewOjjPAd04Rb4hGhXanj2t3bLBxmtA2KP21iPlh0KgXeb-4-g_JGQyKrhgTYQ_IMKzMyXUHpsXyUCRi9qMMUL5SzU3icmnJtojB2W1ujt0ltPNt-5CRigmi7og2t2TZOK-evxPm3vGefqpiW5ct9WxDbg0pF05pUsu47uv29kicPrEtewUGrHdD7K_I0W7XbDyELr0AvA1nv-bZ_XM_tF8oqyBaPuxPewLQkieSipq9H_LMRgPDcUZyfZuTfXNRpWAKvvUmZ0eCYggje1tISHBVSbW3JoY_U7Mzf1-sc11nQBX9VRPYQd87m00]--></g></svg>