<svg xmlns="http://www.w3.org/2000/svg" xmlns:xlink="http://www.w3.org/1999/xlink" contentStyleType="text/css" height="1107px" preserveAspectRatio="none" style="width:1341px;height:1107px;background:#FFFFFF;" version="1.1" viewBox="0 0 1341 1107" width="1341px" zoomAndPan="magnify"><defs/><g><!--cluster dpv--><g id="cluster_dpv"><path d="M247.5,6.602 L274.8125,6.602 A3.75,3.75 0 0 1 277.3125,9.102 L284.3125,31.6699 L1331.5,31.6699 A2.5,2.5 0 0 1 1334,34.1699 L1334,1098.102 A2.5,2.5 0 0 1 1331.5,1100.602 L247.5,1100.602 A2.5,2.5 0 0 1 245,1098.102 L245,9.102 A2.5,2.5 0 0 1 247.5,6.602 " fill="none" style="stroke:#000000;stroke-width:1.5;"/><line style="stroke:#000000;stroke-width:1.5;" x1="245" x2="284.3125" y1="31.6699" y2="31.6699"/><text fill="#000000" font-family="sans-serif" font-size="14" font-weight="bold" lengthAdjust="spacing" textLength="26.3125" x="249" y="23.5679">dpv</text></g><!--cluster Automation--><g id="cluster_Automation"><rect fill="none" height="468" rx="2.5" ry="2.5" style="stroke:#181818;stroke-width:1.0;stroke-dasharray:7.0,7.0;" width="532.5" x="273.5" y="52.602"/><text fill="#000000" font-family="sans-serif" font-size="14" font-weight="bold" lengthAdjust="spacing" textLength="82.375" x="498.5625" y="69.5679">Automation</text></g><!--cluster Human--><g id="cluster_Human"><rect fill="none" height="532" rx="2.5" ry="2.5" style="stroke:#181818;stroke-width:1.0;stroke-dasharray:7.0,7.0;" width="1041" x="269" y="544.602"/><text fill="#000000" font-family="sans-serif" font-size="14" font-weight="bold" lengthAdjust="spacing" textLength="51.1875" x="763.9063" y="561.5679">Human</text></g><!--class AutomationLevel--><g id="elem_AutomationLevel"><rect codeLine="7" fill="#F1F1F1" height="29.0679" id="AutomationLevel" rx="2.5" ry="2.5" style="stroke:#181818;stroke-width:0.5;" width="118" x="289.5" y="316.102"/><text fill="#000000" font-family="sans-serif" font-size="14" lengthAdjust="spacing" textLength="112" x="292.5" y="336.0679">AutomationLevel</text></g><!--class AssistiveAutomation--><g id="elem_AssistiveAutomation"><rect codeLine="8" fill="#F1F1F1" height="29.0679" id="AssistiveAutomation" rx="2.5" ry="2.5" style="stroke:#181818;stroke-width:0.5;" width="142" x="638.5" y="475.102"/><text fill="#000000" font-family="sans-serif" font-size="14" lengthAdjust="spacing" textLength="136" x="641.5" y="495.0679">AssistiveAutomation</text></g><!--class Autonomous--><g id="elem_Autonomous"><rect codeLine="9" fill="#F1F1F1" height="29.0679" id="Autonomous" rx="2.5" ry="2.5" style="stroke:#181818;stroke-width:0.5;" width="91" x="664" y="411.102"/><text fill="#000000" font-family="sans-serif" font-size="14" lengthAdjust="spacing" textLength="85" x="667" y="431.0679">Autonomous</text></g><!--class ConditionalAutomation--><g id="elem_ConditionalAutomation"><rect codeLine="10" fill="#F1F1F1" height="29.0679" id="ConditionalAutomation" rx="2.5" ry="2.5" style="stroke:#181818;stroke-width:0.5;" width="161" x="629" y="347.102"/><text fill="#000000" font-family="sans-serif" font-size="14" lengthAdjust="spacing" textLength="155" x="632" y="367.0679">ConditionalAutomation</text></g><!--class FullAutomation--><g id="elem_FullAutomation"><rect codeLine="11" fill="#F1F1F1" height="29.0679" id="FullAutomation" rx="2.5" ry="2.5" style="stroke:#181818;stroke-width:0.5;" width="108" x="655.5" y="283.102"/><text fill="#000000" font-family="sans-serif" font-size="14" lengthAdjust="spacing" textLength="102" x="658.5" y="303.0679">FullAutomation</text></g><!--class HighAutomation--><g id="elem_HighAutomation"><rect codeLine="12" fill="#F1F1F1" height="29.0679" id="HighAutomation" rx="2.5" ry="2.5" style="stroke:#181818;stroke-width:0.5;" width="116" x="651.5" y="219.102"/><text fill="#000000" font-family="sans-serif" font-size="14" lengthAdjust="spacing" textLength="110" x="654.5" y="239.0679">HighAutomation</text></g><!--class NotAutomated--><g id="elem_NotAutomated"><rect codeLine="13" fill="#F1F1F1" height="29.0679" id="NotAutomated" rx="2.5" ry="2.5" style="stroke:#181818;stroke-width:0.5;" width="104" x="657.5" y="155.102"/><text fill="#000000" font-family="sans-serif" font-size="14" lengthAdjust="spacing" textLength="98" x="660.5" y="175.0679">NotAutomated</text></g><!--class PartialAutomation--><g id="elem_PartialAutomation"><rect codeLine="14" fill="#F1F1F1" height="29.0679" id="PartialAutomation" rx="2.5" ry="2.5" style="stroke:#181818;stroke-width:0.5;" width="127" x="646" y="91.102"/><text fill="#000000" font-family="sans-serif" font-size="14" lengthAdjust="spacing" textLength="121" x="649" y="111.0679">PartialAutomation</text></g><!--class EntityInvolvement--><g id="elem_EntityInvolvement"><rect codeLine="17" fill="#F1F1F1" height="29.0679" id="EntityInvolvement" rx="2.5" ry="2.5" style="stroke:#181818;stroke-width:0.5;" width="127" x="285" y="707.102"/><text fill="#000000" font-family="sans-serif" font-size="14" lengthAdjust="spacing" textLength="121" x="288" y="727.0679">EntityInvolvement</text></g><!--class HumanInvolvement--><g id="elem_HumanInvolvement"><rect codeLine="18" fill="#F1F1F1" height="29.0679" id="HumanInvolvement" rx="2.5" ry="2.5" style="stroke:#181818;stroke-width:0.5;" width="138" x="853" y="775.102"/><text fill="#000000" font-family="sans-serif" font-size="14" lengthAdjust="spacing" textLength="132" x="856" y="795.0679">HumanInvolvement</text></g><!--class HumanInvolved--><g id="elem_HumanInvolved"><rect codeLine="19" fill="#F1F1F1" height="29.0679" id="HumanInvolved" rx="2.5" ry="2.5" style="stroke:#181818;stroke-width:0.5;" width="112" x="1117" y="1031.102"/><text fill="#000000" font-family="sans-serif" font-size="14" lengthAdjust="spacing" textLength="106" x="1120" y="1051.0679">HumanInvolved</text></g><!--class HumanInvolvementForControl--><g id="elem_HumanInvolvementForControl"><rect codeLine="20" fill="#F1F1F1" height="29.0679" id="HumanInvolvementForControl" rx="2.5" ry="2.5" style="stroke:#181818;stroke-width:0.5;" width="208" x="1069" y="967.102"/><text fill="#000000" font-family="sans-serif" font-size="14" lengthAdjust="spacing" textLength="202" x="1072" y="987.0679">HumanInvolvementForControl</text></g><!--class HumanInvolvementForIntervention--><g id="elem_HumanInvolvementForIntervention"><rect codeLine="21" fill="#F1F1F1" height="29.0679" id="HumanInvolvementForIntervention" rx="2.5" ry="2.5" style="stroke:#181818;stroke-width:0.5;" width="242" x="1052" y="903.102"/><text fill="#000000" font-family="sans-serif" font-size="14" lengthAdjust="spacing" textLength="236" x="1055" y="923.0679">HumanInvolvementForIntervention</text></g><!--class HumanInvolvementForDecision--><g id="elem_HumanInvolvementForDecision"><rect codeLine="22" fill="#F1F1F1" height="29.0679" id="HumanInvolvementForDecision" rx="2.5" ry="2.5" style="stroke:#181818;stroke-width:0.5;" width="216" x="1065" y="839.102"/><text fill="#000000" font-family="sans-serif" font-size="14" lengthAdjust="spacing" textLength="210" x="1068" y="859.0679">HumanInvolvementForDecision</text></g><!--class HumanInvolvementForInput--><g id="elem_HumanInvolvementForInput"><rect codeLine="23" fill="#F1F1F1" height="29.0679" id="HumanInvolvementForInput" rx="2.5" ry="2.5" style="stroke:#181818;stroke-width:0.5;" width="196" x="1075" y="775.102"/><text fill="#000000" font-family="sans-serif" font-size="14" lengthAdjust="spacing" textLength="190" x="1078" y="795.0679">HumanInvolvementForInput</text></g><!--class HumanInvolvementForOversight--><g id="elem_HumanInvolvementForOversight"><rect codeLine="24" fill="#F1F1F1" height="29.0679" id="HumanInvolvementForOversight" rx="2.5" ry="2.5" style="stroke:#181818;stroke-width:0.5;" width="225" x="1060.5" y="711.102"/><text fill="#000000" font-family="sans-serif" font-size="14" lengthAdjust="spacing" textLength="219" x="1063.5" y="731.0679">HumanInvolvementForOversight</text></g><!--class HumanInvolvementForVerification--><g id="elem_HumanInvolvementForVerification"><rect codeLine="25" fill="#F1F1F1" height="29.0679" id="HumanInvolvementForVerification" rx="2.5" ry="2.5" style="stroke:#181818;stroke-width:0.5;" width="235" x="1055.5" y="647.102"/><text fill="#000000" font-family="sans-serif" font-size="14" lengthAdjust="spacing" textLength="229" x="1058.5" y="667.0679">HumanInvolvementForVerification</text></g><!--class HumanNotInvolved--><g id="elem_HumanNotInvolved"><rect codeLine="26" fill="#F1F1F1" height="29.0679" id="HumanNotInvolved" rx="2.5" ry="2.5" style="stroke:#181818;stroke-width:0.5;" width="136" x="1105" y="583.102"/><text fill="#000000" font-family="sans-serif" font-size="14" lengthAdjust="spacing" textLength="130" x="1108" y="603.0679">HumanNotInvolved</text></g><!--class Thing--><g id="elem_Thing"><rect codeLine="4" fill="#C0C0C0" height="29.0679" id="Thing" rx="2.5" ry="2.5" style="stroke:#181818;stroke-width:0.5;" width="45" x="7" y="707.102"/><text fill="#000000" font-family="sans-serif" font-size="14" lengthAdjust="spacing" textLength="39" x="10" y="727.0679">Thing</text></g><!--link Thing to AutomationLevel--><g id="link_Thing_AutomationLevel"><path codeLine="30" d="M42.54,706.752 C92.75,644.812 285.21,407.432 335.45,345.472 " fill="none" id="Thing-AutomationLevel" style="stroke:#181818;stroke-width:1.0;"/><polygon fill="#000000" points="94.1489,466.5711,86.1696,471.7463,90.7354,475.448,94.1489,466.5711" style="stroke:#000000;stroke-width:1.0;"/><text fill="#000000" font-family="sans-serif" font-size="13" lengthAdjust="spacing" textLength="124" x="100" y="475.499">hasAutomationLevel</text></g><!--reverse link AutomationLevel to AssistiveAutomation--><g id="link_AutomationLevel_AssistiveAutomation"><path codeLine="31" d="M376.2021,358.1955 C393.2521,375.3955 410.95,390.782 442,407.602 C504.36,441.372 582.62,463.352 638.16,475.962 " fill="none" id="AutomationLevel-backto-AssistiveAutomation" style="stroke:#181818;stroke-width:1.0;"/><polygon fill="none" points="363.53,345.412,371.9409,362.4195,380.4632,353.9715,363.53,345.412" style="stroke:#181818;stroke-width:1.0;"/></g><!--reverse link AutomationLevel to Autonomous--><g id="link_AutomationLevel_Autonomous"><path codeLine="32" d="M412.1327,350.8878 C427.0627,355.6078 426.61,355.282 442,359.602 C519.56,381.342 610.86,403.142 663.96,415.452 " fill="none" id="AutomationLevel-backto-Autonomous" style="stroke:#181818;stroke-width:1.0;"/><polygon fill="none" points="394.97,345.462,410.3241,356.6088,413.9414,345.1669,394.97,345.462" style="stroke:#181818;stroke-width:1.0;"/></g><!--reverse link AutomationLevel to ConditionalAutomation--><g id="link_AutomationLevel_ConditionalAutomation"><path codeLine="33" d="M425.9133,337.2002 C485.9133,342.3802 561.76,348.932 628.59,354.702 " fill="none" id="AutomationLevel-backto-ConditionalAutomation" style="stroke:#181818;stroke-width:1.0;"/><polygon fill="none" points="407.98,335.652,425.3972,343.178,426.4294,331.2225,407.98,335.652" style="stroke:#181818;stroke-width:1.0;"/></g><!--reverse link AutomationLevel to FullAutomation--><g id="link_AutomationLevel_FullAutomation"><path codeLine="34" d="M425.9045,323.5749 C494.3545,317.2849 588.82,308.602 655.03,302.522 " fill="none" id="AutomationLevel-backto-FullAutomation" style="stroke:#181818;stroke-width:1.0;"/><polygon fill="none" points="407.98,325.222,426.4535,329.5497,425.3554,317.6,407.98,325.222" style="stroke:#181818;stroke-width:1.0;"/></g><!--reverse link AutomationLevel to HighAutomation--><g id="link_AutomationLevel_HighAutomation"><path codeLine="35" d="M422.1867,310.9662 C489.6467,292.7362 585.64,266.802 653.13,248.562 " fill="none" id="AutomationLevel-backto-HighAutomation" style="stroke:#181818;stroke-width:1.0;"/><polygon fill="none" points="404.81,315.662,423.752,316.7584,420.6214,305.174,404.81,315.662" style="stroke:#181818;stroke-width:1.0;"/></g><!--reverse link AutomationLevel to NotAutomated--><g id="link_AutomationLevel_NotAutomated"><path codeLine="36" d="M388.2177,306.1301 C406.6077,294.7001 417.78,288.452 442,276.602 C518.8,239.022 612.31,203.772 665.66,184.592 " fill="none" id="AutomationLevel-backto-NotAutomated" style="stroke:#181818;stroke-width:1.0;"/><polygon fill="none" points="372.93,315.632,391.385,311.2261,385.0505,301.0342,372.93,315.632" style="stroke:#181818;stroke-width:1.0;"/></g><!--reverse link AutomationLevel to PartialAutomation--><g id="link_AutomationLevel_PartialAutomation"><path codeLine="37" d="M372.4596,301.8511 C388.8696,281.6511 409.17,259.112 442,234.602 C513.47,181.252 610.47,140.962 665.57,120.542 " fill="none" id="AutomationLevel-backto-PartialAutomation" style="stroke:#181818;stroke-width:1.0;"/><polygon fill="none" points="361.11,315.822,377.1166,305.6343,367.8027,298.0679,361.11,315.822" style="stroke:#181818;stroke-width:1.0;"/></g><!--link Thing to EntityInvolvement--><g id="link_Thing_EntityInvolvement"><path codeLine="39" d="M52.29,721.602 C99.57,721.602 213.08,721.602 284.77,721.602 " fill="none" id="Thing-EntityInvolvement" style="stroke:#181818;stroke-width:1.0;"/><polygon fill="#000000" points="92,712.455,82.9549,709.5161,82.9549,715.3939,92,712.455" style="stroke:#000000;stroke-width:1.0;"/><text fill="#000000" font-family="sans-serif" font-size="13" lengthAdjust="spacing" textLength="132" x="96" y="717.499">hasEntityInvolvement</text></g><!--link Thing to HumanInvolvement--><g id="link_Thing_HumanInvolvement"><path codeLine="40" d="M52.41,725.742 C90.02,732.692 169.34,746.602 237,753.602 C461.74,776.852 729.66,785.422 852.86,788.292 " fill="none" id="Thing-HumanInvolvement" style="stroke:#181818;stroke-width:1.0;"/><polygon fill="#000000" points="451.9848,761.8445,443.1962,758.2099,442.7382,764.0698,451.9848,761.8445" style="stroke:#000000;stroke-width:1.0;"/><text fill="#000000" font-family="sans-serif" font-size="13" lengthAdjust="spacing" textLength="142" x="456" y="766.499">hasHumanInvolvement</text></g><!--reverse link EntityInvolvement to HumanInvolvement--><g id="link_EntityInvolvement_HumanInvolvement"><path codeLine="41" d="M430.3535,724.5317 C521.4735,728.4317 677.3,738.002 823,763.602 C838.86,766.392 855.91,770.502 871.26,774.642 " fill="none" id="EntityInvolvement-backto-HumanInvolvement" style="stroke:#181818;stroke-width:1.0;"/><polygon fill="none" points="412.37,723.762,430.097,730.5262,430.6101,718.5372,412.37,723.762" style="stroke:#181818;stroke-width:1.0;"/></g><!--reverse link HumanInvolvement to HumanInvolved--><g id="link_HumanInvolvement_HumanInvolved"><path codeLine="42" d="M932.3378,821.8172 C944.4178,862.2072 978.12,956.922 1052,1013.602 C1070.47,1027.772 1094.72,1035.682 1116.58,1040.092 " fill="none" id="HumanInvolvement-backto-HumanInvolved" style="stroke:#181818;stroke-width:1.0;"/><polygon fill="none" points="927.18,804.572,926.5894,823.5365,938.0862,820.0979,927.18,804.572" style="stroke:#181818;stroke-width:1.0;"/></g><!--reverse link HumanInvolvement to HumanInvolvementForControl--><g id="link_HumanInvolvement_HumanInvolvementForControl"><path codeLine="43" d="M939.3123,820.4197 C956.5623,852.2697 992.77,911.092 1052,949.602 C1063.03,956.772 1075.61,962.342 1088.39,966.662 " fill="none" id="HumanInvolvement-backto-HumanInvolvementForControl" style="stroke:#181818;stroke-width:1.0;"/><polygon fill="none" points="930.74,804.592,934.0364,823.2771,944.5882,817.5622,930.74,804.592" style="stroke:#181818;stroke-width:1.0;"/></g><!--reverse link HumanInvolvement to HumanInvolvementForIntervention--><g id="link_HumanInvolvement_HumanInvolvementForIntervention"><path codeLine="44" d="M952.082,816.6587 C975.172,837.7087 1007.01,863.862 1052,885.602 C1066.37,892.542 1082.45,898.152 1098.07,902.602 " fill="none" id="HumanInvolvement-backto-HumanInvolvementForIntervention" style="stroke:#181818;stroke-width:1.0;"/><polygon fill="none" points="938.78,804.532,948.0397,821.0927,956.1242,812.2247,938.78,804.532" style="stroke:#181818;stroke-width:1.0;"/></g><!--reverse link HumanInvolvement to HumanInvolvementForDecision--><g id="link_HumanInvolvement_HumanInvolvementForDecision"><path codeLine="45" d="M998.5032,809.0036 C1038.4532,819.2736 1073.87,828.382 1113.84,838.652 " fill="none" id="HumanInvolvement-backto-HumanInvolvementForDecision" style="stroke:#181818;stroke-width:1.0;"/><polygon fill="none" points="981.07,804.522,997.0093,814.8146,999.997,803.1925,981.07,804.522" style="stroke:#181818;stroke-width:1.0;"/></g><!--reverse link HumanInvolvement to HumanInvolvementForInput--><g id="link_HumanInvolvement_HumanInvolvementForInput"><path codeLine="46" d="M1009.37,789.602 C1035.14,789.602 1046.97,789.602 1074.87,789.602 " fill="none" id="HumanInvolvement-backto-HumanInvolvementForInput" style="stroke:#181818;stroke-width:1.0;"/><polygon fill="none" points="991.37,789.602,1009.37,795.602,1009.37,783.602,991.37,789.602" style="stroke:#181818;stroke-width:1.0;"/></g><!--reverse link HumanInvolvement to HumanInvolvementForOversight--><g id="link_HumanInvolvement_HumanInvolvementForOversight"><path codeLine="47" d="M998.5032,770.2004 C1038.4532,759.9304 1073.87,750.822 1113.84,740.552 " fill="none" id="HumanInvolvement-backto-HumanInvolvementForOversight" style="stroke:#181818;stroke-width:1.0;"/><polygon fill="none" points="981.07,774.682,999.997,776.0115,997.0093,764.3894,981.07,774.682" style="stroke:#181818;stroke-width:1.0;"/></g><!--reverse link HumanInvolvement to HumanInvolvementForVerification--><g id="link_HumanInvolvement_HumanInvolvementForVerification"><path codeLine="48" d="M952.082,762.5452 C975.172,741.4952 1007.01,715.342 1052,693.602 C1066.37,686.662 1082.45,681.052 1098.07,676.602 " fill="none" id="HumanInvolvement-backto-HumanInvolvementForVerification" style="stroke:#181818;stroke-width:1.0;"/><polygon fill="none" points="938.78,774.672,956.1242,766.9792,948.0397,758.1113,938.78,774.672" style="stroke:#181818;stroke-width:1.0;"/></g><!--reverse link HumanInvolvement to HumanNotInvolved--><g id="link_HumanInvolvement_HumanNotInvolved"><path codeLine="49" d="M939.3123,758.7843 C956.5623,726.9343 992.77,668.112 1052,629.602 C1067.73,619.382 1086.62,612.412 1104.72,607.662 " fill="none" id="HumanInvolvement-backto-HumanNotInvolved" style="stroke:#181818;stroke-width:1.0;"/><polygon fill="none" points="930.74,774.612,944.5882,761.6417,934.0364,755.9269,930.74,774.612" style="stroke:#181818;stroke-width:1.0;"/></g><!--SRC=[bLFHIiCm57tFLqJsl7s0Z8Aemu6eYFWUchisc2ObkIaCtR-Rq6bjagwrJ-MUSsxJatEkX2gbuq0j7YLiMiaKkaOI2GUagAaHLOsK2mCb2gq8AIMpbhxLGbLqPONim92MbH-i0ihRZduIwf-VoOr3tR2WfDljgz_1L2MXAEXA2WKRpcmD_Am9JxzzK3r21p96hHKMHGS3BQDNkj7EHi2jLbm40PEJufsJq-23jsCIVD9une17q0ipA9AFdaPUFRY6NRQ9Hbll5GeyxbMd_JKqe30-RTYu3EOpqfqstZmqMiuJzmh1TFuzur_AleDIs4NClMeTpjEUVIHjYEqyzHsCE8YIJPtKt-Z8dnCv4T9dVxsEOqglQSriF2n8FDb-1Mqcn7dYaEKidezqbXebEyk90fxbZ7AUPQHn7rnBGjlxbewBGHDVNIz9fWL9juJpf0j8ekt_VjI8UKxKZCM2KKCMgtwRye_lXCOifW_DMImPDUY2wc-JlW40]--></g></svg>