<svg xmlns="http://www.w3.org/2000/svg" xmlns:xlink="http://www.w3.org/1999/xlink" contentStyleType="text/css" height="106px" preserveAspectRatio="none" style="width:467px;height:106px;background:#FFFFFF;" version="1.1" viewBox="0 0 467 106" width="467px" zoomAndPan="magnify"><defs/><g><!--class c1--><g id="elem_c1"><rect codeLine="5" fill="#F1F1F1" height="29.0679" id="c1" rx="2.5" ry="2.5" style="stroke:#181818;stroke-width:0.5;" width="61" x="217" y="7"/><text fill="#000000" font-family="sans-serif" font-size="14" lengthAdjust="spacing" textLength="55" x="220" y="26.9659">Concept</text></g><!--class c2--><g id="elem_c2"><rect codeLine="6" fill="#F1F1F1" height="29.0679" id="c2" rx="2.5" ry="2.5" style="stroke:#181818;stroke-width:0.5;" width="61" x="7" y="71"/><text fill="#000000" font-family="sans-serif" font-size="14" lengthAdjust="spacing" textLength="55" x="10" y="90.9659">Concept</text></g><!--class c3--><g id="elem_c3"><rect codeLine="7" fill="#F1F1F1" height="29.0679" id="c3" rx="2.5" ry="2.5" style="stroke:#181818;stroke-width:0.5;" width="61" x="217" y="71"/><text fill="#000000" font-family="sans-serif" font-size="14" lengthAdjust="spacing" textLength="55" x="220" y="90.9659">Concept</text></g><!--class c4--><g id="elem_c4"><rect codeLine="8" fill="#F1F1F1" height="29.0679" id="c4" rx="2.5" ry="2.5" style="stroke:#181818;stroke-width:0.5;" width="61" x="399" y="71"/><text fill="#000000" font-family="sans-serif" font-size="14" lengthAdjust="spacing" textLength="55" x="402" y="90.9659">Concept</text></g><!--reverse link c1 to c3--><g id="link_c1_c3"><path codeLine="9" d="M247.5,54.43 C247.5,65.79 247.5,59.14 247.5,70.5 " fill="none" id="c1-backto-c3" style="stroke:#181818;stroke-width:1.0;"/><polygon fill="none" points="247.5,36.43,241.5,54.43,253.5,54.43,247.5,36.43" style="stroke:#181818;stroke-width:1.0;"/></g><!--link c2 to c3--><g id="link_c2_c3"><path codeLine="10" d="M68.3,85.5 C107.84,85.5 177.24,85.5 216.75,85.5 " fill="none" id="c2-c3" style="stroke:#181818;stroke-width:1.0;"/><polygon fill="#000000" points="108,76.353,98.9549,73.4141,98.9549,79.2919,108,76.353" style="stroke:#000000;stroke-width:1.0;"/><text fill="#000000" font-family="sans-serif" font-size="13" lengthAdjust="spacing" textLength="74" x="112" y="81.397">isInstanceOf</text></g><!--link c3 to c4--><g id="link_c3_c4"><path codeLine="11" d="M278.22,85.5 C311.57,85.5 365.36,85.5 398.73,85.5 " fill="none" id="c3-c4" style="stroke:#181818;stroke-width:1.0;"/><polygon fill="#000000" points="318,76.353,308.9549,73.4141,308.9549,79.2919,318,76.353" style="stroke:#000000;stroke-width:1.0;"/><text fill="#000000" font-family="sans-serif" font-size="13" lengthAdjust="spacing" textLength="46" x="322" y="81.397">relation</text></g><!--SRC=[RSwn2i9030RW_PuYTd6gKEqaukBav3DShwaUf9VZaWw23z_S88Xq2z__yvDTJ86M4K7qJNZ8v9CkCpd2IK4PIdo-5CPOC6ZavFRAkVh0gZp_12wG5u7GWHTeRfm2Pcs-UjpKqwRsVzh1vTDQsTbAMmyuGvHx4lLMUKnmTMOrwIqfIBu-PBe2]--></g></svg>