<svg xmlns="http://www.w3.org/2000/svg" xmlns:xlink="http://www.w3.org/1999/xlink" contentStyleType="text/css" height="881px" preserveAspectRatio="none" style="width:980px;height:881px;background:#FFFFFF;" version="1.1" viewBox="0 0 980 881" width="980px" zoomAndPan="magnify"><defs/><g><!--cluster dpv--><g id="cluster_dpv"><path d="M198.5,6.602 L225.8125,6.602 A3.75,3.75 0 0 1 228.3125,9.102 L235.3125,31.6699 L970.5,31.6699 A2.5,2.5 0 0 1 973,34.1699 L973,872.102 A2.5,2.5 0 0 1 970.5,874.602 L198.5,874.602 A2.5,2.5 0 0 1 196,872.102 L196,9.102 A2.5,2.5 0 0 1 198.5,6.602 " fill="none" style="stroke:#000000;stroke-width:1.5;"/><line style="stroke:#000000;stroke-width:1.5;" x1="196" x2="235.3125" y1="31.6699" y2="31.6699"/><text fill="#000000" font-family="sans-serif" font-size="14" font-weight="bold" lengthAdjust="spacing" textLength="26.3125" x="200" y="23.5679">dpv</text></g><!--class LegalBasis--><g id="elem_LegalBasis"><rect codeLine="6" fill="#F1F1F1" height="29.0679" id="LegalBasis" rx="2.5" ry="2.5" style="stroke:#181818;stroke-width:0.5;" width="77" x="228.5" y="109.102"/><text fill="#000000" font-family="sans-serif" font-size="14" lengthAdjust="spacing" textLength="71" x="231.5" y="129.0679">LegalBasis</text></g><!--class Consent--><g id="elem_Consent"><rect codeLine="7" fill="#F1F1F1" height="29.0679" id="Consent" rx="2.5" ry="2.5" style="stroke:#181818;stroke-width:0.5;" width="61" x="236.5" y="268.102"/><text fill="#000000" font-family="sans-serif" font-size="14" lengthAdjust="spacing" textLength="55" x="239.5" y="288.0679">Consent</text></g><!--class InformedConsent--><g id="elem_InformedConsent"><rect codeLine="8" fill="#F1F1F1" height="29.0679" id="InformedConsent" rx="2.5" ry="2.5" style="stroke:#181818;stroke-width:0.5;" width="124" x="530.5" y="301.102"/><text fill="#000000" font-family="sans-serif" font-size="14" lengthAdjust="spacing" textLength="118" x="533.5" y="321.0679">InformedConsent</text></g><!--class ExpressedConsent--><g id="elem_ExpressedConsent"><rect codeLine="9" fill="#F1F1F1" height="29.0679" id="ExpressedConsent" rx="2.5" ry="2.5" style="stroke:#181818;stroke-width:0.5;" width="130" x="801" y="45.102"/><text fill="#000000" font-family="sans-serif" font-size="14" lengthAdjust="spacing" textLength="124" x="804" y="65.0679">ExpressedConsent</text></g><!--class ImpliedConsent--><g id="elem_ImpliedConsent"><rect codeLine="10" fill="#F1F1F1" height="29.0679" id="ImpliedConsent" rx="2.5" ry="2.5" style="stroke:#181818;stroke-width:0.5;" width="113" x="809.5" y="109.102"/><text fill="#000000" font-family="sans-serif" font-size="14" lengthAdjust="spacing" textLength="107" x="812.5" y="129.0679">ImpliedConsent</text></g><!--class UninformedConsent--><g id="elem_UninformedConsent"><rect codeLine="11" fill="#F1F1F1" height="29.0679" id="UninformedConsent" rx="2.5" ry="2.5" style="stroke:#181818;stroke-width:0.5;" width="142" x="521.5" y="237.102"/><text fill="#000000" font-family="sans-serif" font-size="14" lengthAdjust="spacing" textLength="136" x="524.5" y="257.0679">UninformedConsent</text></g><!--class ConsentStatus--><g id="elem_ConsentStatus"><rect codeLine="13" fill="#ADD8E6" height="29.0679" id="ConsentStatus" rx="2.5" ry="2.5" style="stroke:#181818;stroke-width:0.5;" width="103" x="215.5" y="484.102"/><text fill="#000000" font-family="sans-serif" font-size="14" lengthAdjust="spacing" textLength="97" x="218.5" y="504.0679">ConsentStatus</text></g><!--class ConsentStatusInvalidForProcessing--><g id="elem_ConsentStatusInvalidForProcessing"><rect codeLine="14" fill="#ADD8E6" height="29.0679" id="ConsentStatusInvalidForProcessing" rx="2.5" ry="2.5" style="stroke:#181818;stroke-width:0.5;" width="243" x="471" y="484.102"/><text fill="#000000" font-family="sans-serif" font-size="14" lengthAdjust="spacing" textLength="237" x="474" y="504.0679">ConsentStatusInvalidForProcessing</text></g><!--class ConsentStatusValidForProcessing--><g id="elem_ConsentStatusValidForProcessing"><rect codeLine="15" fill="#ADD8E6" height="29.0679" id="ConsentStatusValidForProcessing" rx="2.5" ry="2.5" style="stroke:#181818;stroke-width:0.5;" width="230" x="477.5" y="765.102"/><text fill="#000000" font-family="sans-serif" font-size="14" lengthAdjust="spacing" textLength="224" x="480.5" y="785.0679">ConsentStatusValidForProcessing</text></g><!--class ConsentExpired--><g id="elem_ConsentExpired"><rect codeLine="16" fill="#ADD8E6" height="29.0679" id="ConsentExpired" rx="2.5" ry="2.5" style="stroke:#181818;stroke-width:0.5;" width="112" x="810" y="509.102"/><text fill="#000000" font-family="sans-serif" font-size="14" lengthAdjust="spacing" textLength="106" x="813" y="529.0679">ConsentExpired</text></g><!--class ConsentInvalidated--><g id="elem_ConsentInvalidated"><rect codeLine="17" fill="#ADD8E6" height="29.0679" id="ConsentInvalidated" rx="2.5" ry="2.5" style="stroke:#181818;stroke-width:0.5;" width="137" x="797.5" y="445.102"/><text fill="#000000" font-family="sans-serif" font-size="14" lengthAdjust="spacing" textLength="131" x="800.5" y="465.0679">ConsentInvalidated</text></g><!--class ConsentRefused--><g id="elem_ConsentRefused"><rect codeLine="18" fill="#ADD8E6" height="29.0679" id="ConsentRefused" rx="2.5" ry="2.5" style="stroke:#181818;stroke-width:0.5;" width="116" x="808" y="381.102"/><text fill="#000000" font-family="sans-serif" font-size="14" lengthAdjust="spacing" textLength="110" x="811" y="401.0679">ConsentRefused</text></g><!--class ConsentRequestDeferred--><g id="elem_ConsentRequestDeferred"><rect codeLine="19" fill="#ADD8E6" height="29.0679" id="ConsentRequestDeferred" rx="2.5" ry="2.5" style="stroke:#181818;stroke-width:0.5;" width="176" x="778" y="317.102"/><text fill="#000000" font-family="sans-serif" font-size="14" lengthAdjust="spacing" textLength="170" x="781" y="337.0679">ConsentRequestDeferred</text></g><!--class ConsentRequested--><g id="elem_ConsentRequested"><rect codeLine="20" fill="#ADD8E6" height="29.0679" id="ConsentRequested" rx="2.5" ry="2.5" style="stroke:#181818;stroke-width:0.5;" width="133" x="799.5" y="253.102"/><text fill="#000000" font-family="sans-serif" font-size="14" lengthAdjust="spacing" textLength="127" x="802.5" y="273.0679">ConsentRequested</text></g><!--class ConsentRevoked--><g id="elem_ConsentRevoked"><rect codeLine="21" fill="#ADD8E6" height="29.0679" id="ConsentRevoked" rx="2.5" ry="2.5" style="stroke:#181818;stroke-width:0.5;" width="117" x="807.5" y="701.102"/><text fill="#000000" font-family="sans-serif" font-size="14" lengthAdjust="spacing" textLength="111" x="810.5" y="721.0679">ConsentRevoked</text></g><!--class ConsentUnknown--><g id="elem_ConsentUnknown"><rect codeLine="22" fill="#ADD8E6" height="29.0679" id="ConsentUnknown" rx="2.5" ry="2.5" style="stroke:#181818;stroke-width:0.5;" width="124" x="804" y="637.102"/><text fill="#000000" font-family="sans-serif" font-size="14" lengthAdjust="spacing" textLength="118" x="807" y="657.0679">ConsentUnknown</text></g><!--class ConsentWithdrawn--><g id="elem_ConsentWithdrawn"><rect codeLine="23" fill="#ADD8E6" height="29.0679" id="ConsentWithdrawn" rx="2.5" ry="2.5" style="stroke:#181818;stroke-width:0.5;" width="135" x="798.5" y="573.102"/><text fill="#000000" font-family="sans-serif" font-size="14" lengthAdjust="spacing" textLength="129" x="801.5" y="593.0679">ConsentWithdrawn</text></g><!--class ConsentGiven--><g id="elem_ConsentGiven"><rect codeLine="24" fill="#ADD8E6" height="29.0679" id="ConsentGiven" rx="2.5" ry="2.5" style="stroke:#181818;stroke-width:0.5;" width="99" x="816.5" y="765.102"/><text fill="#000000" font-family="sans-serif" font-size="14" lengthAdjust="spacing" textLength="93" x="819.5" y="785.0679">ConsentGiven</text></g><!--class RenewedConsentGiven--><g id="elem_RenewedConsentGiven"><rect codeLine="25" fill="#ADD8E6" height="29.0679" id="RenewedConsentGiven" rx="2.5" ry="2.5" style="stroke:#181818;stroke-width:0.5;" width="161" x="785.5" y="829.102"/><text fill="#000000" font-family="sans-serif" font-size="14" lengthAdjust="spacing" textLength="155" x="788.5" y="849.0679">RenewedConsentGiven</text></g><!--class Duration--><g id="elem_Duration"><rect codeLine="27" fill="#F1F1F1" height="29.0679" id="Duration" rx="2.5" ry="2.5" style="stroke:#181818;stroke-width:0.5;" width="65" x="560" y="365.102"/><text fill="#000000" font-family="sans-serif" font-size="14" lengthAdjust="spacing" textLength="59" x="563" y="385.0679">Duration</text></g><g id="elem_GMN24"><path d="M775,173.102 L775,218.514 L957,218.514 L957,183.102 L947,173.102 L775,173.102 " fill="#FEFFDD" style="stroke:#181818;stroke-width:0.5;"/><path d="M947,173.102 L947,183.102 L957,183.102 L947,173.102 " fill="#FEFFDD" style="stroke:#181818;stroke-width:1.0;"/><text fill="#000000" font-family="sans-serif" font-size="13" lengthAdjust="spacing" textLength="161" x="781" y="191.999">e.g. 6 months,31-DEC-2024,</text><text fill="#000000" font-family="sans-serif" font-size="13" lengthAdjust="spacing" textLength="124" x="781" y="209.705">until account closure</text></g><!--class ConsentControl--><g id="elem_ConsentControl"><rect codeLine="30" fill="#F1F1F1" height="29.0679" id="ConsentControl" rx="2.5" ry="2.5" style="stroke:#181818;stroke-width:0.5;" width="110" x="212" y="173.102"/><text fill="#000000" font-family="sans-serif" font-size="14" lengthAdjust="spacing" textLength="104" x="215" y="193.0679">ConsentControl</text></g><!--class ObtainConsent--><g id="elem_ObtainConsent"><rect codeLine="31" fill="#F1F1F1" height="29.0679" id="ObtainConsent" rx="2.5" ry="2.5" style="stroke:#181818;stroke-width:0.5;" width="107" x="539" y="109.102"/><text fill="#000000" font-family="sans-serif" font-size="14" lengthAdjust="spacing" textLength="101" x="542" y="129.0679">ObtainConsent</text></g><!--class ProvideConsent--><g id="elem_ProvideConsent"><rect codeLine="32" fill="#F1F1F1" height="29.0679" id="ProvideConsent" rx="2.5" ry="2.5" style="stroke:#181818;stroke-width:0.5;" width="111" x="537" y="45.102"/><text fill="#000000" font-family="sans-serif" font-size="14" lengthAdjust="spacing" textLength="105" x="540" y="65.0679">ProvideConsent</text></g><!--class ReaffirmConsent--><g id="elem_ReaffirmConsent"><rect codeLine="33" fill="#F1F1F1" height="29.0679" id="ReaffirmConsent" rx="2.5" ry="2.5" style="stroke:#181818;stroke-width:0.5;" width="119" x="533" y="173.102"/><text fill="#000000" font-family="sans-serif" font-size="14" lengthAdjust="spacing" textLength="113" x="536" y="193.0679">ReaffirmConsent</text></g><!--class Thing--><g id="elem_Thing"><rect codeLine="4" fill="#C0C0C0" height="29.0679" id="Thing" rx="2.5" ry="2.5" style="stroke:#181818;stroke-width:0.5;" width="45" x="7" y="109.102"/><text fill="#000000" font-family="sans-serif" font-size="14" lengthAdjust="spacing" textLength="39" x="10" y="129.0679">Thing</text></g><!--link Duration to GMN24--><g id="link_Duration_GMN24"><path d="M625.5,377.972 C651.73,375.142 688.55,367.592 714,347.602 C758.58,312.592 733.34,274.032 775,235.602 C782.16,228.992 790.6,223.342 799.38,218.552 " fill="none" id="Duration-GMN24" style="stroke:#181818;stroke-width:1.0;stroke-dasharray:7.0,7.0;"/></g><!--link Thing to LegalBasis--><g id="link_Thing_LegalBasis"><path codeLine="36" d="M52.23,123.602 C92.31,123.602 178.32,123.602 228.16,123.602 " fill="none" id="Thing-LegalBasis" style="stroke:#181818;stroke-width:1.0;"/><polygon fill="#000000" points="92,114.455,82.9549,111.5161,82.9549,117.3939,92,114.455" style="stroke:#000000;stroke-width:1.0;"/><text fill="#000000" font-family="sans-serif" font-size="13" lengthAdjust="spacing" textLength="83" x="96" y="119.499">hasLegalBasis</text></g><!--link Consent to LegalBasis--><g id="link_Consent_LegalBasis"><path codeLine="37" d="M236.11,274.432 C183.3,258.932 84.63,222.332 120,173.102 C144.43,139.092 175.5043,129.8819 210.2043,126.5119 " fill="none" id="Consent-to-LegalBasis" style="stroke:#181818;stroke-width:1.0;"/><polygon fill="none" points="228.12,124.772,209.6243,120.54,210.7843,132.4838,228.12,124.772" style="stroke:#181818;stroke-width:1.0;"/></g><!--link ConsentStatus to Consent--><g id="link_ConsentStatus_Consent"><path codeLine="38" d="M267,483.752 C267,444.292 267,337.132 267,297.552 " fill="none" id="ConsentStatus-Consent" style="stroke:#181818;stroke-width:1.0;"/><polygon fill="#000000" points="197.5,395.955,200.4389,386.9099,194.5611,386.9099,197.5,395.955" style="stroke:#000000;stroke-width:1.0;"/><text fill="#000000" font-family="sans-serif" font-size="13" lengthAdjust="spacing" textLength="109" x="206.5" y="395.999">hasConsentStatus</text></g><!--link Consent to ConsentControl--><g id="link_Consent_ConsentControl"><path codeLine="39" d="M267,267.762 C267,249.912 267,220.142 267,202.342 " fill="none" id="Consent-ConsentControl" style="stroke:#181818;stroke-width:1.0;"/><polygon fill="#000000" points="194,230.455,191.0611,239.5001,196.9389,239.5001,194,230.455" style="stroke:#000000;stroke-width:1.0;"/><text fill="#000000" font-family="sans-serif" font-size="13" lengthAdjust="spacing" textLength="116" x="203" y="240.499">hasConsentControl</text></g><!--reverse link ConsentStatus to ConsentStatusValidForProcessing--><g id="link_ConsentStatus_ConsentStatusValidForProcessing"><path codeLine="40" d="M298.5284,525.1169 C354.2984,573.5669 518.25,715.972 574.34,764.692 " fill="none" id="ConsentStatus-backto-ConsentStatusValidForProcessing" style="stroke:#181818;stroke-width:1.0;"/><polygon fill="none" points="284.94,513.312,294.5934,529.6463,302.4634,520.5874,284.94,513.312" style="stroke:#181818;stroke-width:1.0;"/></g><!--reverse link ConsentStatus to ConsentStatusInvalidForProcessing--><g id="link_ConsentStatus_ConsentStatusInvalidForProcessing"><path codeLine="41" d="M336.9,498.602 C377.56,498.602 418.22,498.602 470.72,498.602 " fill="none" id="ConsentStatus-backto-ConsentStatusInvalidForProcessing" style="stroke:#181818;stroke-width:1.0;"/><polygon fill="none" points="318.9,498.602,336.9,504.602,336.9,492.602,318.9,498.602" style="stroke:#181818;stroke-width:1.0;"/></g><!--reverse link ConsentControl to ObtainConsent--><g id="link_ConsentControl_ObtainConsent"><path codeLine="43" d="M339.8073,173.3963 C399.9673,161.4863 478.83,145.892 538.52,134.082 " fill="none" id="ConsentControl-backto-ObtainConsent" style="stroke:#181818;stroke-width:1.0;"/><polygon fill="none" points="322.15,176.892,340.9725,179.2821,338.6421,167.5106,322.15,176.892" style="stroke:#181818;stroke-width:1.0;"/></g><!--reverse link ConsentControl to ProvideConsent--><g id="link_ConsentControl_ProvideConsent"><path codeLine="44" d="M311.1136,164.2938 C349.4336,143.8638 406.01,115.372 471,91.602 C492.04,83.902 515.76,77.202 536.56,71.942 " fill="none" id="ConsentControl-backto-ProvideConsent" style="stroke:#181818;stroke-width:1.0;"/><polygon fill="none" points="295.23,172.762,313.9364,169.5883,308.2909,158.9992,295.23,172.762" style="stroke:#181818;stroke-width:1.0;"/></g><!--reverse link ConsentControl to ReaffirmConsent--><g id="link_ConsentControl_ReaffirmConsent"><path codeLine="45" d="M340.15,187.602 C398.33,187.602 472.52,187.602 532.52,187.602 " fill="none" id="ConsentControl-backto-ReaffirmConsent" style="stroke:#181818;stroke-width:1.0;"/><polygon fill="none" points="322.15,187.602,340.15,193.602,340.15,181.602,322.15,187.602" style="stroke:#181818;stroke-width:1.0;"/></g><!--reverse link Consent to InformedConsent--><g id="link_Consent_InformedConsent"><path codeLine="47" d="M315.7574,287.4754 C368.3974,292.8354 460.78,302.272 530.2,309.352 " fill="none" id="Consent-backto-InformedConsent" style="stroke:#181818;stroke-width:1.0;"/><polygon fill="none" points="297.85,285.652,315.1496,293.4445,316.3652,281.5062,297.85,285.652" style="stroke:#181818;stroke-width:1.0;"/></g><!--reverse link InformedConsent to ExpressedConsent--><g id="link_InformedConsent_ExpressedConsent"><path codeLine="48" d="M672.4505,307.6336 C693.4905,303.3036 698.1,298.762 714,283.602 C746.41,252.712 743.89,123.792 775,91.602 C782.15,84.212 791.11,78.522 800.59,74.142 " fill="none" id="InformedConsent-backto-ExpressedConsent" style="stroke:#181818;stroke-width:1.0;"/><polygon fill="none" points="654.82,311.262,673.66,313.5105,671.2411,301.7568,654.82,311.262" style="stroke:#181818;stroke-width:1.0;"/></g><!--reverse link InformedConsent to ImpliedConsent--><g id="link_InformedConsent_ImpliedConsent"><path codeLine="49" d="M672.541,305.9107 C693.121,301.3907 697.43,297.362 714,283.602 C762.49,243.352 728.2,197.812 775,155.602 C784.73,146.832 797.02,140.422 809.37,135.762 " fill="none" id="InformedConsent-backto-ImpliedConsent" style="stroke:#181818;stroke-width:1.0;"/><polygon fill="none" points="654.96,309.772,673.8281,311.771,671.2539,300.0503,654.96,309.772" style="stroke:#181818;stroke-width:1.0;"/></g><!--reverse link Consent to UninformedConsent--><g id="link_Consent_UninformedConsent"><path codeLine="50" d="M315.7678,278.0238 C366.1378,273.1938 451.38,265.032 521.01,258.362 " fill="none" id="Consent-backto-UninformedConsent" style="stroke:#181818;stroke-width:1.0;"/><polygon fill="none" points="297.85,279.742,316.3405,283.9964,315.1951,272.0512,297.85,279.742" style="stroke:#181818;stroke-width:1.0;"/></g><!--reverse link ConsentStatusInvalidForProcessing to ConsentExpired--><g id="link_ConsentStatusInvalidForProcessing_ConsentExpired"><path codeLine="52" d="M732.0839,511.3649 C765.3739,514.4349 781.95,515.952 809.55,518.492 " fill="none" id="ConsentStatusInvalidForProcessing-backto-ConsentExpired" style="stroke:#181818;stroke-width:1.0;"/><polygon fill="none" points="714.16,509.712,731.533,517.3396,732.6349,505.3903,714.16,509.712" style="stroke:#181818;stroke-width:1.0;"/></g><!--reverse link ConsentStatusInvalidForProcessing to ConsentInvalidated--><g id="link_ConsentStatusInvalidForProcessing_ConsentInvalidated"><path codeLine="53" d="M715.5072,481.0729 C748.8572,476.2829 767.08,473.672 797.13,469.352 " fill="none" id="ConsentStatusInvalidForProcessing-backto-ConsentInvalidated" style="stroke:#181818;stroke-width:1.0;"/><polygon fill="none" points="697.69,483.632,716.3602,487.012,714.6541,475.1339,697.69,483.632" style="stroke:#181818;stroke-width:1.0;"/></g><!--reverse link ConsentStatusInvalidForProcessing to ConsentRefused--><g id="link_ConsentStatusInvalidForProcessing_ConsentRefused"><path codeLine="54" d="M647.2767,477.0372 C683.8667,462.4272 724.76,446.352 775,427.602 C790.38,421.862 807.33,415.772 822.32,410.472 " fill="none" id="ConsentStatusInvalidForProcessing-backto-ConsentRefused" style="stroke:#181818;stroke-width:1.0;"/><polygon fill="none" points="630.56,483.712,649.5016,482.6094,645.0517,471.465,630.56,483.712" style="stroke:#181818;stroke-width:1.0;"/></g><!--reverse link ConsentStatusInvalidForProcessing to ConsentRequestDeferred--><g id="link_ConsentStatusInvalidForProcessing_ConsentRequestDeferred"><path codeLine="55" d="M629.2895,473.3833 C653.4995,456.2733 679.59,437.542 714,411.602 C741.55,390.832 744.79,380.262 775,363.602 C787.05,356.952 800.75,351.252 813.76,346.582 " fill="none" id="ConsentStatusInvalidForProcessing-backto-ConsentRequestDeferred" style="stroke:#181818;stroke-width:1.0;"/><polygon fill="none" points="614.59,483.772,632.7524,478.2832,625.8267,468.4835,614.59,483.772" style="stroke:#181818;stroke-width:1.0;"/></g><!--reverse link ConsentStatusInvalidForProcessing to ConsentRequested--><g id="link_ConsentStatusInvalidForProcessing_ConsentRequested"><path codeLine="56" d="M636.1623,474.7896 C662.5223,459.4296 686.88,442.392 714,411.602 C751.46,369.062 731.9,336.412 775,299.602 C783.32,292.492 793.34,286.922 803.62,282.572 " fill="none" id="ConsentStatusInvalidForProcessing-backto-ConsentRequested" style="stroke:#181818;stroke-width:1.0;"/><polygon fill="none" points="620.61,483.852,639.1831,479.9737,633.1415,469.6055,620.61,483.852" style="stroke:#181818;stroke-width:1.0;"/></g><!--reverse link ConsentStatusInvalidForProcessing to ConsentRevoked--><g id="link_ConsentStatusInvalidForProcessing_ConsentRevoked"><path codeLine="57" d="M615.0191,528.0048 C640.7491,562.6648 698.59,634.812 775,683.602 C785.76,690.472 798.19,696.112 810.31,700.622 " fill="none" id="ConsentStatusInvalidForProcessing-backto-ConsentRevoked" style="stroke:#181818;stroke-width:1.0;"/><polygon fill="none" points="604.29,513.552,610.2015,531.5812,619.8368,524.4285,604.29,513.552" style="stroke:#181818;stroke-width:1.0;"/></g><!--reverse link ConsentStatusInvalidForProcessing to ConsentUnknown--><g id="link_ConsentStatusInvalidForProcessing_ConsentUnknown"><path codeLine="58" d="M626.66,524.5092 C658.64,549.1892 711.86,587.942 775,619.602 C787.9,626.072 802.42,631.832 815.98,636.632 " fill="none" id="ConsentStatusInvalidForProcessing-backto-ConsentUnknown" style="stroke:#181818;stroke-width:1.0;"/><polygon fill="none" points="612.41,513.512,622.9943,529.2592,630.3257,519.7592,612.41,513.512" style="stroke:#181818;stroke-width:1.0;"/></g><!--reverse link ConsentStatusInvalidForProcessing to ConsentWithdrawn--><g id="link_ConsentStatusInvalidForProcessing_ConsentWithdrawn"><path codeLine="59" d="M656.3551,519.2071 C706.5251,535.6471 769.45,556.282 819.52,572.692 " fill="none" id="ConsentStatusInvalidForProcessing-backto-ConsentWithdrawn" style="stroke:#181818;stroke-width:1.0;"/><polygon fill="none" points="639.25,513.602,654.4867,524.9088,658.2234,513.5054,639.25,513.602" style="stroke:#181818;stroke-width:1.0;"/></g><!--reverse link ConsentStatusValidForProcessing to ConsentGiven--><g id="link_ConsentStatusValidForProcessing_ConsentGiven"><path codeLine="60" d="M725.85,779.602 C763.82,779.602 786.08,779.602 816.35,779.602 " fill="none" id="ConsentStatusValidForProcessing-backto-ConsentGiven" style="stroke:#181818;stroke-width:1.0;"/><polygon fill="none" points="707.85,779.602,725.85,785.602,725.85,773.602,707.85,779.602" style="stroke:#181818;stroke-width:1.0;"/></g><!--reverse link ConsentStatusValidForProcessing to RenewedConsentGiven--><g id="link_ConsentStatusValidForProcessing_RenewedConsentGiven"><path codeLine="61" d="M674.3297,798.6525 C717.8897,808.9225 758.01,818.382 801.59,828.652 " fill="none" id="ConsentStatusValidForProcessing-backto-RenewedConsentGiven" style="stroke:#181818;stroke-width:1.0;"/><polygon fill="none" points="656.81,794.522,672.9528,804.4924,675.7065,792.8126,656.81,794.522" style="stroke:#181818;stroke-width:1.0;"/></g><!--link Consent to Duration--><g id="link_Consent_Duration"><path codeLine="63" d="M291.43,297.442 C307.84,307.252 330.58,319.712 352,327.602 C423.87,354.062 513.08,369.022 559.71,375.572 " fill="none" id="Consent-Duration" style="stroke:#181818;stroke-width:1.0;"/><polygon fill="#000000" points="361.8006,319.853,353.938,314.5022,352.2945,320.1456,361.8006,319.853" style="stroke:#000000;stroke-width:1.0;"/><text fill="#000000" font-family="sans-serif" font-size="13" lengthAdjust="spacing" textLength="74" x="366" y="323.499">hasDuration</text></g><!--SRC=[dLHDJzj043spls8ghZYY5FM0gXmWj8g4r2ejSEbbiSVsAkjPTpyCLTl_tiMn7MTZ7Cp9cJVlURsJD- -Te5Yw1C7Otn9dfUHaNI6PnDI2LQ15bbj8XCRO2aMCnP8R0pzoGHaS6o4hrApayPfd24bPmHzsjA7SOCRb9JV2jCYL8eDast99gT859W5y_LHgD6OFNnQb57leBOdWDS5ftostpi3npVD5BgN3mVwIAYv5ybdfRrh5_lZwUkEQkmaAVoa_mkHbGlC1t8wHLfWwCqxuvT3O1QQezIk8uvHAhSS8jxGczKWl4-w5pHFDnoXVH8L3xHKIFdR_wHwhfIsSvhKjZqXPRCogqWw72y1PDeEFK2YokJdvy3vQN5z5PwTdvoS_oP4L4dWSA_yBOgcCqnWQo3-iLh95lpvOBYXmeRT09H8Cq1NoD1MwQE5_Z6ts9efwst41EJVR4kQiLtpw6yceMvpc2JriOyNw7Rk6ds_PEWhkqgStq9RVwFt9qI6_7vGChHLZmScrR7UiGunWnaEKSE3T2Efkc3T1lI7jfSyWAyYYdTv08XsEclxecgoOgEe5o4HbaogJLJjHypRr6tHrA4rKDKarKTN55piK-trLdLMlKmo4tDQoljzBCR-lNJLdx3y0]--></g></svg>