<svg xmlns="http://www.w3.org/2000/svg" xmlns:xlink="http://www.w3.org/1999/xlink" contentStyleType="text/css" height="461px" preserveAspectRatio="none" style="width:960px;height:461px;background:#FFFFFF;" version="1.1" viewBox="0 0 960 461" width="960px" zoomAndPan="magnify"><defs/><g><!--cluster dpv--><g id="cluster_dpv"><path d="M8.5,101 L35.8125,101 A3.75,3.75 0 0 1 38.3125,103.5 L45.3125,126.0679 L950.5,126.0679 A2.5,2.5 0 0 1 953,128.5679 L953,451.5 A2.5,2.5 0 0 1 950.5,454 L8.5,454 A2.5,2.5 0 0 1 6,451.5 L6,103.5 A2.5,2.5 0 0 1 8.5,101 " fill="none" style="stroke:#000000;stroke-width:1.5;"/><line style="stroke:#000000;stroke-width:1.5;" x1="6" x2="45.3125" y1="126.0679" y2="126.0679"/><text fill="#000000" font-family="sans-serif" font-size="14" font-weight="bold" lengthAdjust="spacing" textLength="26.3125" x="10" y="117.9659">dpv</text></g><!--class DataSource--><g id="elem_DataSource"><rect codeLine="6" fill="#F1F1F1" height="29.0679" id="DataSource" rx="2.5" ry="2.5" style="stroke:#181818;stroke-width:0.5;" width="83" x="472.5" y="139"/><text fill="#000000" font-family="sans-serif" font-size="14" lengthAdjust="spacing" textLength="77" x="475.5" y="158.9659">DataSource</text></g><!--class DataSubjectDataSource--><g id="elem_DataSubjectDataSource"><rect codeLine="7" fill="#F1F1F1" height="29.0679" id="DataSubjectDataSource" rx="2.5" ry="2.5" style="stroke:#181818;stroke-width:0.5;" width="164" x="22" y="229"/><text fill="#000000" font-family="sans-serif" font-size="14" lengthAdjust="spacing" textLength="158" x="25" y="248.9659">DataSubjectDataSource</text></g><!--class DataPublishedByDataSubject--><g id="elem_DataPublishedByDataSubject"><rect codeLine="8" fill="#F1F1F1" height="29.0679" id="DataPublishedByDataSubject" rx="2.5" ry="2.5" style="stroke:#181818;stroke-width:0.5;" width="201" x="22.5" y="319"/><text fill="#000000" font-family="sans-serif" font-size="14" lengthAdjust="spacing" textLength="195" x="25.5" y="338.9659">DataPublishedByDataSubject</text></g><!--class DataControllerDataSource--><g id="elem_DataControllerDataSource"><rect codeLine="9" fill="#F1F1F1" height="29.0679" id="DataControllerDataSource" rx="2.5" ry="2.5" style="stroke:#181818;stroke-width:0.5;" width="181" x="221.5" y="229"/><text fill="#000000" font-family="sans-serif" font-size="14" lengthAdjust="spacing" textLength="175" x="224.5" y="248.9659">DataControllerDataSource</text></g><!--class ThirdPartyDataSource--><g id="elem_ThirdPartyDataSource"><rect codeLine="10" fill="#F1F1F1" height="29.0679" id="ThirdPartyDataSource" rx="2.5" ry="2.5" style="stroke:#181818;stroke-width:0.5;" width="153" x="437.5" y="229"/><text fill="#000000" font-family="sans-serif" font-size="14" lengthAdjust="spacing" textLength="147" x="440.5" y="248.9659">ThirdPartyDataSource</text></g><!--class PublicDataSource--><g id="elem_PublicDataSource"><rect codeLine="11" fill="#F1F1F1" height="29.0679" id="PublicDataSource" rx="2.5" ry="2.5" style="stroke:#181818;stroke-width:0.5;" width="124" x="626" y="229"/><text fill="#000000" font-family="sans-serif" font-size="14" lengthAdjust="spacing" textLength="118" x="629" y="248.9659">PublicDataSource</text></g><!--class NonPublicDataSource--><g id="elem_NonPublicDataSource"><rect codeLine="12" fill="#F1F1F1" height="29.0679" id="NonPublicDataSource" rx="2.5" ry="2.5" style="stroke:#181818;stroke-width:0.5;" width="152" x="785" y="229"/><text fill="#000000" font-family="sans-serif" font-size="14" lengthAdjust="spacing" textLength="146" x="788" y="248.9659">NonPublicDataSource</text></g><!--class DataSubject--><g id="elem_DataSubject"><rect codeLine="13" fill="#F1F1F1" height="29.0679" id="DataSubject" rx="2.5" ry="2.5" style="stroke:#181818;stroke-width:0.5;" width="87" x="148.5" y="409"/><text fill="#000000" font-family="sans-serif" font-size="14" lengthAdjust="spacing" textLength="81" x="151.5" y="428.9659">DataSubject</text></g><!--class DataController--><g id="elem_DataController"><rect codeLine="14" fill="#F1F1F1" height="29.0679" id="DataController" rx="2.5" ry="2.5" style="stroke:#181818;stroke-width:0.5;" width="104" x="296" y="319"/><text fill="#000000" font-family="sans-serif" font-size="14" lengthAdjust="spacing" textLength="98" x="299" y="338.9659">DataController</text></g><!--class ThirdParty--><g id="elem_ThirdParty"><rect codeLine="15" fill="#F1F1F1" height="29.0679" id="ThirdParty" rx="2.5" ry="2.5" style="stroke:#181818;stroke-width:0.5;" width="76" x="476" y="319"/><text fill="#000000" font-family="sans-serif" font-size="14" lengthAdjust="spacing" textLength="70" x="479" y="338.9659">ThirdParty</text></g><!--class Thing--><g id="elem_Thing"><rect codeLine="3" fill="#C0C0C0" height="29.0679" id="Thing" rx="2.5" ry="2.5" style="stroke:#181818;stroke-width:0.5;" width="45" x="491.5" y="7"/><text fill="#000000" font-family="sans-serif" font-size="14" lengthAdjust="spacing" textLength="39" x="494.5" y="26.9659">Thing</text></g><!--link Thing to DataSource--><g id="link_Thing_DataSource"><path codeLine="18" d="M514,36.41 C514,61.43 514,113.74 514,138.69 " fill="none" id="Thing-DataSource" style="stroke:#181818;stroke-width:1.0;"/><polygon fill="#000000" points="519,80.853,521.9389,71.8079,516.0611,71.8079,519,80.853" style="stroke:#000000;stroke-width:1.0;"/><text fill="#000000" font-family="sans-serif" font-size="13" lengthAdjust="spacing" textLength="90" x="528" y="80.897">hasDataSource</text></g><!--reverse link DataSource to DataSubjectDataSource--><g id="link_DataSource_DataSubjectDataSource"><path codeLine="20" d="M454.451,167.2782 C382.811,182.6582 254.02,210.3 169.04,228.54 " fill="none" id="DataSource-backto-DataSubjectDataSource" style="stroke:#181818;stroke-width:1.0;"/><polygon fill="none" points="472.05,163.5,453.1916,161.4119,455.7104,173.1446,472.05,163.5" style="stroke:#181818;stroke-width:1.0;"/></g><!--reverse link DataSubjectDataSource to DataPublishedByDataSubject--><g id="link_DataSubjectDataSource_DataPublishedByDataSubject"><path codeLine="21" d="M110.7693,275.8445 C114.3193,292.2845 116.42,302.04 119.99,318.56 " fill="none" id="DataSubjectDataSource-backto-DataPublishedByDataSubject" style="stroke:#181818;stroke-width:1.0;"/><polygon fill="none" points="106.97,258.25,104.9045,277.1109,116.6341,274.578,106.97,258.25" style="stroke:#181818;stroke-width:1.0;"/></g><!--reverse link DataSource to DataControllerDataSource--><g id="link_DataSource_DataControllerDataSource"><path codeLine="22" d="M465.4886,175.6305 C427.6686,192.1105 381.62,212.17 343.86,228.62 " fill="none" id="DataSource-backto-DataControllerDataSource" style="stroke:#181818;stroke-width:1.0;"/><polygon fill="none" points="481.99,168.44,463.0917,170.13,467.8854,181.1309,481.99,168.44" style="stroke:#181818;stroke-width:1.0;"/></g><!--reverse link DataSource to ThirdPartyDataSource--><g id="link_DataSource_ThirdPartyDataSource"><path codeLine="23" d="M514,186.25 C514,202.69 514,212.04 514,228.56 " fill="none" id="DataSource-backto-ThirdPartyDataSource" style="stroke:#181818;stroke-width:1.0;"/><polygon fill="none" points="514,168.25,508,186.25,520,186.25,514,168.25" style="stroke:#181818;stroke-width:1.0;"/></g><!--reverse link DataSource to PublicDataSource--><g id="link_DataSource_PublicDataSource"><path codeLine="24" d="M557.632,176.5647 C590.212,193.0447 628.03,212.17 660.56,228.62 " fill="none" id="DataSource-backto-PublicDataSource" style="stroke:#181818;stroke-width:1.0;"/><polygon fill="none" points="541.57,168.44,554.9238,181.9187,560.3403,171.2107,541.57,168.44" style="stroke:#181818;stroke-width:1.0;"/></g><!--reverse link DataSource to NonPublicDataSource--><g id="link_DataSource_NonPublicDataSource"><path codeLine="25" d="M573.3072,169.5367 C635.8572,185.4067 736.33,210.88 805.84,228.51 " fill="none" id="DataSource-backto-NonPublicDataSource" style="stroke:#181818;stroke-width:1.0;"/><polygon fill="none" points="555.86,165.11,571.8316,175.3524,574.7827,163.7209,555.86,165.11" style="stroke:#181818;stroke-width:1.0;"/></g><!--link DataSubjectDataSource to DataSubject--><g id="link_DataSubjectDataSource_DataSubject"><path codeLine="27" d="M156.44,258.38 C186.88,269.43 222.74,288.28 241,319 C259.29,349.76 227.63,388.43 207.23,408.68 " fill="none" id="DataSubjectDataSource-DataSubject" style="stroke:#181818;stroke-width:1.0;stroke-dasharray:7.0,7.0;"/></g><!--link DataPublishedByDataSubject to DataSubject--><g id="link_DataPublishedByDataSubject_DataSubject"><path codeLine="28" d="M133.78,348.25 C146.67,364.69 168.11,392.04 181.07,408.56 " fill="none" id="DataPublishedByDataSubject-DataSubject" style="stroke:#181818;stroke-width:1.0;stroke-dasharray:7.0,7.0;"/></g><!--link DataControllerDataSource to DataController--><g id="link_DataControllerDataSource_DataController"><path codeLine="29" d="M317.62,258.25 C324.35,274.69 335.54,302.04 342.3,318.56 " fill="none" id="DataControllerDataSource-DataController" style="stroke:#181818;stroke-width:1.0;stroke-dasharray:7.0,7.0;"/></g><!--link ThirdPartyDataSource to ThirdParty--><g id="link_ThirdPartyDataSource_ThirdParty"><path codeLine="30" d="M514,258.25 C514,274.69 514,302.04 514,318.56 " fill="none" id="ThirdPartyDataSource-ThirdParty" style="stroke:#181818;stroke-width:1.0;stroke-dasharray:7.0,7.0;"/></g><!--SRC=[ZP5D2i8m48NtSueHr-q1H5oeQn7q0caIR7LCItuAHRsxrL8CSIfcbtbValTUPfMH59H6vplIUKF2-70b04d2EJoMbJdXt5NKQWlG27aH9usgQV46sAy1smel3dMmKgV3K9orz9FwFXHKkLAhTHVX2RIfZRSraRRiFRr7g_R2-ewLtqz8LjhLveVwZo7M1Zm0XkAoBAe65rWA5-rN0D5kUH_fhyxOwUV0H8aSobQPWcoXAVHLN0fmvKuaoNDCZVEPE9ABD7BHHt6XNjXd_WG0]--></g></svg>