<svg xmlns="http://www.w3.org/2000/svg" xmlns:xlink="http://www.w3.org/1999/xlink" contentStyleType="text/css" height="789px" preserveAspectRatio="none" style="width:1257px;height:789px;background:#FFFFFF;" version="1.1" viewBox="0 0 1257 789" width="1257px" zoomAndPan="magnify"><defs/><g><rect fill="#F1F1F1" height="39.0679" rx="12.5" ry="12.5" style="stroke:#181818;stroke-width:1.5;" width="145" x="586" y="374.4075"/><text fill="#000000" font-family="sans-serif" font-size="14" lengthAdjust="spacing" textLength="121" x="596" y="399.3734">EntityInvolvement</text><rect fill="#F1F1F1" height="39.0679" rx="12.5" ry="12.5" style="stroke:#181818;stroke-width:1.5;" width="181" x="781" y="315.3396"/><text fill="#000000" font-family="sans-serif" font-size="14" lengthAdjust="spacing" textLength="161" x="791" y="340.3055">EntityActiveInvolvement</text><path d="M731,393.9415 L741,393.9415 C756,393.9415 756,334.8735 771,334.8735 L781,334.8735 " fill="none" style="stroke:#181818;stroke-width:1.0;"/><rect fill="#F1F1F1" height="39.0679" rx="12.5" ry="12.5" style="stroke:#181818;stroke-width:1.5;" width="213" x="781" y="374.4075"/><text fill="#000000" font-family="sans-serif" font-size="14" lengthAdjust="spacing" textLength="193" x="791" y="399.3734">EntityPermissiveInvolvement</text><rect fill="#F1F1F1" height="39.0679" rx="12.5" ry="12.5" style="stroke:#181818;stroke-width:1.5;" width="148" x="1044" y="20"/><text fill="#000000" font-family="sans-serif" font-size="14" lengthAdjust="spacing" textLength="128" x="1054" y="44.9659">OptingInToProcess</text><path d="M994,393.9415 L1004,393.9415 C1019,393.9415 1019,39.534 1034,39.534 L1044,39.534 " fill="none" style="stroke:#181818;stroke-width:1.0;"/><rect fill="#F1F1F1" height="39.0679" rx="12.5" ry="12.5" style="stroke:#181818;stroke-width:1.5;" width="177" x="1044" y="79.0679"/><text fill="#000000" font-family="sans-serif" font-size="14" lengthAdjust="spacing" textLength="157" x="1054" y="104.0339">OptingOutFromProcess</text><path d="M994,393.9415 L1004,393.9415 C1019,393.9415 1019,98.6019 1034,98.6019 L1044,98.6019 " fill="none" style="stroke:#181818;stroke-width:1.0;"/><rect fill="#F1F1F1" height="39.0679" rx="12.5" ry="12.5" style="stroke:#181818;stroke-width:1.5;" width="153" x="1044" y="138.1358"/><text fill="#000000" font-family="sans-serif" font-size="14" lengthAdjust="spacing" textLength="133" x="1054" y="163.1018">ObjectingToProcess</text><path d="M994,393.9415 L1004,393.9415 C1019,393.9415 1019,157.6698 1034,157.6698 L1044,157.6698 " fill="none" style="stroke:#181818;stroke-width:1.0;"/><rect fill="#F1F1F1" height="39.0679" rx="12.5" ry="12.5" style="stroke:#181818;stroke-width:1.5;" width="192" x="1044" y="197.2038"/><text fill="#000000" font-family="sans-serif" font-size="14" lengthAdjust="spacing" textLength="172" x="1054" y="222.1697">WithdrawingFromProcess</text><path d="M994,393.9415 L1004,393.9415 C1019,393.9415 1019,216.7377 1034,216.7377 L1044,216.7377 " fill="none" style="stroke:#181818;stroke-width:1.0;"/><rect fill="#F1F1F1" height="39.0679" rx="12.5" ry="12.5" style="stroke:#181818;stroke-width:1.5;" width="153" x="1044" y="256.2717"/><text fill="#000000" font-family="sans-serif" font-size="14" lengthAdjust="spacing" textLength="133" x="1054" y="281.2376">ChallengingProcess</text><path d="M994,393.9415 L1004,393.9415 C1019,393.9415 1019,275.8056 1034,275.8056 L1044,275.8056 " fill="none" style="stroke:#181818;stroke-width:1.0;"/><rect fill="#F1F1F1" height="39.0679" rx="12.5" ry="12.5" style="stroke:#181818;stroke-width:1.5;" width="201" x="1044" y="315.3396"/><text fill="#000000" font-family="sans-serif" font-size="14" lengthAdjust="spacing" textLength="181" x="1054" y="340.3055">ChallengingProcessOutput</text><path d="M994,393.9415 L1004,393.9415 C1019,393.9415 1019,334.8735 1034,334.8735 L1044,334.8735 " fill="none" style="stroke:#181818;stroke-width:1.0;"/><rect fill="#F1F1F1" height="39.0679" rx="12.5" ry="12.5" style="stroke:#181818;stroke-width:1.5;" width="142" x="1044" y="374.4075"/><text fill="#000000" font-family="sans-serif" font-size="14" lengthAdjust="spacing" textLength="122" x="1054" y="399.3734">CorrectingProcess</text><path d="M994,393.9415 L1004,393.9415 C1019,393.9415 1019,393.9415 1034,393.9415 L1044,393.9415 " fill="none" style="stroke:#181818;stroke-width:1.0;"/><rect fill="#F1F1F1" height="39.0679" rx="12.5" ry="12.5" style="stroke:#181818;stroke-width:1.5;" width="190" x="1044" y="433.4754"/><text fill="#000000" font-family="sans-serif" font-size="14" lengthAdjust="spacing" textLength="170" x="1054" y="458.4414">CorrectingProcessOutput</text><path d="M994,393.9415 L1004,393.9415 C1019,393.9415 1019,453.0094 1034,453.0094 L1044,453.0094 " fill="none" style="stroke:#181818;stroke-width:1.0;"/><rect fill="#F1F1F1" height="39.0679" rx="12.5" ry="12.5" style="stroke:#181818;stroke-width:1.5;" width="183" x="1044" y="492.5433"/><text fill="#000000" font-family="sans-serif" font-size="14" lengthAdjust="spacing" textLength="163" x="1054" y="517.5093">ReversingProcessEffects</text><path d="M994,393.9415 L1004,393.9415 C1019,393.9415 1019,512.0773 1034,512.0773 L1044,512.0773 " fill="none" style="stroke:#181818;stroke-width:1.0;"/><rect fill="#F1F1F1" height="39.0679" rx="12.5" ry="12.5" style="stroke:#181818;stroke-width:1.5;" width="186" x="1044" y="551.6113"/><text fill="#000000" font-family="sans-serif" font-size="14" lengthAdjust="spacing" textLength="166" x="1054" y="576.5772">ReversingProcessOutput</text><path d="M994,393.9415 L1004,393.9415 C1019,393.9415 1019,571.1452 1034,571.1452 L1044,571.1452 " fill="none" style="stroke:#181818;stroke-width:1.0;"/><rect fill="#F1F1F1" height="39.0679" rx="12.5" ry="12.5" style="stroke:#181818;stroke-width:1.5;" width="190" x="1044" y="610.6792"/><text fill="#000000" font-family="sans-serif" font-size="14" lengthAdjust="spacing" textLength="170" x="1054" y="635.6451">ChallengingProcessInput</text><path d="M994,393.9415 L1004,393.9415 C1019,393.9415 1019,630.2131 1034,630.2131 L1044,630.2131 " fill="none" style="stroke:#181818;stroke-width:1.0;"/><rect fill="#F1F1F1" height="39.0679" rx="12.5" ry="12.5" style="stroke:#181818;stroke-width:1.5;" width="179" x="1044" y="669.7471"/><text fill="#000000" font-family="sans-serif" font-size="14" lengthAdjust="spacing" textLength="159" x="1054" y="694.713">CorrectingProcessInput</text><path d="M994,393.9415 L1004,393.9415 C1019,393.9415 1019,689.281 1034,689.281 L1044,689.281 " fill="none" style="stroke:#181818;stroke-width:1.0;"/><rect fill="#F1F1F1" height="39.0679" rx="12.5" ry="12.5" style="stroke:#181818;stroke-width:1.5;" width="175" x="1044" y="728.815"/><text fill="#000000" font-family="sans-serif" font-size="14" lengthAdjust="spacing" textLength="155" x="1054" y="753.7809">ReversingProcessInput</text><path d="M994,393.9415 L1004,393.9415 C1019,393.9415 1019,748.349 1034,748.349 L1044,748.349 " fill="none" style="stroke:#181818;stroke-width:1.0;"/><path d="M731,393.9415 L741,393.9415 C756,393.9415 756,393.9415 771,393.9415 L781,393.9415 " fill="none" style="stroke:#181818;stroke-width:1.0;"/><rect fill="#F1F1F1" height="39.0679" rx="12.5" ry="12.5" style="stroke:#181818;stroke-width:1.5;" width="190" x="346" y="256.2717"/><text fill="#000000" font-family="sans-serif" font-size="14" lengthAdjust="spacing" textLength="170" x="356" y="281.2376">EntityPassiveInvolvement</text><path d="M586,393.9415 L576,393.9415 C561,393.9415 561,275.8056 546,275.8056 L536,275.8056 " fill="none" style="stroke:#181818;stroke-width:1.0;"/><rect fill="#F1F1F1" height="39.0679" rx="12.5" ry="12.5" style="stroke:#181818;stroke-width:1.5;" width="169" x="367" y="315.3396"/><text fill="#000000" font-family="sans-serif" font-size="14" lengthAdjust="spacing" textLength="149" x="377" y="340.3055">EntityNonInvolvement</text><path d="M586,393.9415 L576,393.9415 C561,393.9415 561,334.8735 546,334.8735 L536,334.8735 " fill="none" style="stroke:#181818;stroke-width:1.0;"/><rect fill="#F1F1F1" height="39.0679" rx="12.5" ry="12.5" style="stroke:#181818;stroke-width:1.5;" width="241" x="295" y="374.4075"/><text fill="#000000" font-family="sans-serif" font-size="14" lengthAdjust="spacing" textLength="221" x="305" y="399.3734">EntityNonPermissiveInvolvement</text><rect fill="#F1F1F1" height="39.0679" rx="12.5" ry="12.5" style="stroke:#181818;stroke-width:1.5;" width="174" x="71" y="20"/><text fill="#000000" font-family="sans-serif" font-size="14" lengthAdjust="spacing" textLength="154" x="81" y="44.9659">CannotOptInToProcess</text><path d="M295,393.9415 L285,393.9415 C270,393.9415 270,39.534 255,39.534 L245,39.534 " fill="none" style="stroke:#181818;stroke-width:1.0;"/><rect fill="#F1F1F1" height="39.0679" rx="12.5" ry="12.5" style="stroke:#181818;stroke-width:1.5;" width="203" x="42" y="79.0679"/><text fill="#000000" font-family="sans-serif" font-size="14" lengthAdjust="spacing" textLength="183" x="52" y="104.0339">CannotOptOutFromProcess</text><path d="M295,393.9415 L285,393.9415 C270,393.9415 270,98.6019 255,98.6019 L245,98.6019 " fill="none" style="stroke:#181818;stroke-width:1.0;"/><rect fill="#F1F1F1" height="39.0679" rx="12.5" ry="12.5" style="stroke:#181818;stroke-width:1.5;" width="179" x="66" y="138.1358"/><text fill="#000000" font-family="sans-serif" font-size="14" lengthAdjust="spacing" textLength="159" x="76" y="163.1018">CannotObjectToProcess</text><path d="M295,393.9415 L285,393.9415 C270,393.9415 270,157.6698 255,157.6698 L245,157.6698 " fill="none" style="stroke:#181818;stroke-width:1.0;"/><rect fill="#F1F1F1" height="39.0679" rx="12.5" ry="12.5" style="stroke:#181818;stroke-width:1.5;" width="218" x="27" y="197.2038"/><text fill="#000000" font-family="sans-serif" font-size="14" lengthAdjust="spacing" textLength="198" x="37" y="222.1697">CannotWithdrawFromProcess</text><path d="M295,393.9415 L285,393.9415 C270,393.9415 270,216.7377 255,216.7377 L245,216.7377 " fill="none" style="stroke:#181818;stroke-width:1.0;"/><rect fill="#F1F1F1" height="39.0679" rx="12.5" ry="12.5" style="stroke:#181818;stroke-width:1.5;" width="187" x="58" y="256.2717"/><text fill="#000000" font-family="sans-serif" font-size="14" lengthAdjust="spacing" textLength="167" x="68" y="281.2376">CannotChallengeProcess</text><path d="M295,393.9415 L285,393.9415 C270,393.9415 270,275.8056 255,275.8056 L245,275.8056 " fill="none" style="stroke:#181818;stroke-width:1.0;"/><rect fill="#F1F1F1" height="39.0679" rx="12.5" ry="12.5" style="stroke:#181818;stroke-width:1.5;" width="235" x="10" y="315.3396"/><text fill="#000000" font-family="sans-serif" font-size="14" lengthAdjust="spacing" textLength="215" x="20" y="340.3055">CannotChallengeProcessOutput</text><path d="M295,393.9415 L285,393.9415 C270,393.9415 270,334.8735 255,334.8735 L245,334.8735 " fill="none" style="stroke:#181818;stroke-width:1.0;"/><rect fill="#F1F1F1" height="39.0679" rx="12.5" ry="12.5" style="stroke:#181818;stroke-width:1.5;" width="168" x="77" y="374.4075"/><text fill="#000000" font-family="sans-serif" font-size="14" lengthAdjust="spacing" textLength="148" x="87" y="399.3734">CannotCorrectProcess</text><path d="M295,393.9415 L285,393.9415 C270,393.9415 270,393.9415 255,393.9415 L245,393.9415 " fill="none" style="stroke:#181818;stroke-width:1.0;"/><rect fill="#F1F1F1" height="39.0679" rx="12.5" ry="12.5" style="stroke:#181818;stroke-width:1.5;" width="216" x="29" y="433.4754"/><text fill="#000000" font-family="sans-serif" font-size="14" lengthAdjust="spacing" textLength="196" x="39" y="458.4414">CannotCorrectProcessOutput</text><path d="M295,393.9415 L285,393.9415 C270,393.9415 270,453.0094 255,453.0094 L245,453.0094 " fill="none" style="stroke:#181818;stroke-width:1.0;"/><rect fill="#F1F1F1" height="39.0679" rx="12.5" ry="12.5" style="stroke:#181818;stroke-width:1.5;" width="217" x="28" y="492.5433"/><text fill="#000000" font-family="sans-serif" font-size="14" lengthAdjust="spacing" textLength="197" x="38" y="517.5093">CannotReverseProcessEffects</text><path d="M295,393.9415 L285,393.9415 C270,393.9415 270,512.0773 255,512.0773 L245,512.0773 " fill="none" style="stroke:#181818;stroke-width:1.0;"/><rect fill="#F1F1F1" height="39.0679" rx="12.5" ry="12.5" style="stroke:#181818;stroke-width:1.5;" width="220" x="25" y="551.6113"/><text fill="#000000" font-family="sans-serif" font-size="14" lengthAdjust="spacing" textLength="200" x="35" y="576.5772">CannotReverseProcessOutput</text><path d="M295,393.9415 L285,393.9415 C270,393.9415 270,571.1452 255,571.1452 L245,571.1452 " fill="none" style="stroke:#181818;stroke-width:1.0;"/><rect fill="#F1F1F1" height="39.0679" rx="12.5" ry="12.5" style="stroke:#181818;stroke-width:1.5;" width="224" x="21" y="610.6792"/><text fill="#000000" font-family="sans-serif" font-size="14" lengthAdjust="spacing" textLength="204" x="31" y="635.6451">CannotChallengeProcessInput</text><path d="M295,393.9415 L285,393.9415 C270,393.9415 270,630.2131 255,630.2131 L245,630.2131 " fill="none" style="stroke:#181818;stroke-width:1.0;"/><rect fill="#F1F1F1" height="39.0679" rx="12.5" ry="12.5" style="stroke:#181818;stroke-width:1.5;" width="205" x="40" y="669.7471"/><text fill="#000000" font-family="sans-serif" font-size="14" lengthAdjust="spacing" textLength="185" x="50" y="694.713">CannotCorrectProcessInput</text><path d="M295,393.9415 L285,393.9415 C270,393.9415 270,689.281 255,689.281 L245,689.281 " fill="none" style="stroke:#181818;stroke-width:1.0;"/><rect fill="#F1F1F1" height="39.0679" rx="12.5" ry="12.5" style="stroke:#181818;stroke-width:1.5;" width="209" x="36" y="728.815"/><text fill="#000000" font-family="sans-serif" font-size="14" lengthAdjust="spacing" textLength="189" x="46" y="753.7809">CannotReverseProcessInput</text><path d="M295,393.9415 L285,393.9415 C270,393.9415 270,748.349 255,748.349 L245,748.349 " fill="none" style="stroke:#181818;stroke-width:1.0;"/><path d="M586,393.9415 L576,393.9415 C561,393.9415 561,393.9415 546,393.9415 L536,393.9415 " fill="none" style="stroke:#181818;stroke-width:1.0;"/><!--SRC=[xPNBRk9044Nt_HMTNI9aDA0GHQoOCH1184619EkENK2FsjMe7nxnzrFWEFZ5p38RThXElLIthnXO9unB9CQ9sB4hYP7oCN3hzWhQEoNG-KGnrk8ZTDBj9vXgbK82w3XhvT6VaPCf5DW9BS0aqjeQRl7ddPEucU1ABuoEmDf2zDcxiT592NpyXkZ0oldlqcrZ8_uGg5Q4Mw4Ku8RGlyCqRUUpfK9jJ3QcL5AD5YfU80LZJsYqNbEgRMJ5GRKj9dXsYHEgTin84EJN5hLJVx4dZUVYpI85b18AHEr8bA9E9L2Hgi2EWZLLvPerr-MNWV-ZptiM4hBBDLIMGAqkEojK93p7wsChU-MgD4-lqdBpZB81a2C_NSa69PDk9HbqBK75DlkTWDlg_2EI9b9WsSMp5yzUFFjzdbqS_ZjVvpD-55yZxxIxFxgtxTxrqYEVYptltl5Efz_fzNltF1mjL_p0RzZrmsB6hVOc0XvBwupyy8uQtB2fI0L_yVG24kYJwm2dmySyG2yZbKRZyHbCt-QdXBlRu9TqV0c6Lk5lSpQ4jV3AKKMaOtgNVVww6WVtR2PmuyM6UWEoK5DVioUs_0i0]--></g></svg>