<svg xmlns="http://www.w3.org/2000/svg" xmlns:xlink="http://www.w3.org/1999/xlink" contentStyleType="text/css" height="749px" preserveAspectRatio="none" style="width:875px;height:749px;background:#FFFFFF;" version="1.1" viewBox="0 0 875 749" width="875px" zoomAndPan="magnify"><defs/><g><line style="stroke:#181818;stroke-width:1.5;" x1="60.5" x2="60.5" y1="66.3441" y2="86.3441"/><rect fill="#F1F1F1" height="36.3441" style="stroke:#181818;stroke-width:1.5;" width="101" x="10" y="86.3441"/><text fill="#000000" font-family="sans-serif" font-size="12" lengthAdjust="spacing" textLength="81" x="20" y="109.1722">NaturalPerson</text><line style="stroke:#181818;stroke-width:1.5;" x1="60.5" x2="70.5" y1="155.8603" y2="155.8603"/><rect fill="#F1F1F1" height="36.3441" style="stroke:#181818;stroke-width:1.5;" width="88" x="70.5" y="137.6882"/><text fill="#000000" font-family="sans-serif" font-size="12" lengthAdjust="spacing" textLength="68" x="80.5" y="160.5163">DataSubject</text><line style="stroke:#181818;stroke-width:1.5;" x1="114.5" x2="124.5" y1="207.2044" y2="207.2044"/><rect fill="#F1F1F1" height="36.3441" style="stroke:#181818;stroke-width:1.5;" width="49" x="124.5" y="189.0323"/><text fill="#000000" font-family="sans-serif" font-size="12" lengthAdjust="spacing" textLength="29" x="134.5" y="211.8604">Adult</text><line style="stroke:#181818;stroke-width:1.5;" x1="114.5" x2="124.5" y1="258.5485" y2="258.5485"/><rect fill="#F1F1F1" height="36.3441" style="stroke:#181818;stroke-width:1.5;" width="48" x="124.5" y="240.3765"/><text fill="#000000" font-family="sans-serif" font-size="12" lengthAdjust="spacing" textLength="28" x="134.5" y="263.2045">Child</text><line style="stroke:#181818;stroke-width:1.5;" x1="114.5" x2="124.5" y1="309.8926" y2="309.8926"/><rect fill="#F1F1F1" height="36.3441" style="stroke:#181818;stroke-width:1.5;" width="138" x="124.5" y="291.7206"/><text fill="#000000" font-family="sans-serif" font-size="12" lengthAdjust="spacing" textLength="118" x="134.5" y="314.5487">ParentOfDataSubject</text><line style="stroke:#181818;stroke-width:1.5;" x1="114.5" x2="124.5" y1="361.2367" y2="361.2367"/><rect fill="#F1F1F1" height="36.3441" style="stroke:#181818;stroke-width:1.5;" width="148" x="124.5" y="343.0647"/><text fill="#000000" font-family="sans-serif" font-size="12" lengthAdjust="spacing" textLength="128" x="134.5" y="365.8928">VulnerableDataSubject</text><line style="stroke:#181818;stroke-width:1.5;" x1="114.5" x2="114.5" y1="174.0323" y2="361.2367"/><line style="stroke:#181818;stroke-width:1.5;" x1="60.5" x2="70.5" y1="412.5809" y2="412.5809"/><rect fill="#F1F1F1" height="36.3441" style="stroke:#181818;stroke-width:1.5;" width="104" x="70.5" y="394.4088"/><text fill="#000000" font-family="sans-serif" font-size="12" lengthAdjust="spacing" textLength="84" x="80.5" y="417.2369">Representative</text><line style="stroke:#181818;stroke-width:1.5;" x1="60.5" x2="60.5" y1="122.6882" y2="412.5809"/><line style="stroke:#181818;stroke-width:1.5;" x1="333" x2="333" y1="66.3441" y2="86.3441"/><rect fill="#F1F1F1" height="36.3441" style="stroke:#181818;stroke-width:1.5;" width="81" x="292.5" y="86.3441"/><text fill="#000000" font-family="sans-serif" font-size="12" lengthAdjust="spacing" textLength="61" x="302.5" y="109.1722">LegalEntity</text><line style="stroke:#181818;stroke-width:1.5;" x1="333" x2="343" y1="155.8603" y2="155.8603"/><rect fill="#F1F1F1" height="36.3441" style="stroke:#181818;stroke-width:1.5;" width="103" x="343" y="137.6882"/><text fill="#000000" font-family="sans-serif" font-size="12" lengthAdjust="spacing" textLength="83" x="353" y="160.5163">DataController</text><line style="stroke:#181818;stroke-width:1.5;" x1="333" x2="343" y1="207.2044" y2="207.2044"/><rect fill="#F1F1F1" height="36.3441" style="stroke:#181818;stroke-width:1.5;" width="133" x="343" y="189.0323"/><text fill="#000000" font-family="sans-serif" font-size="12" lengthAdjust="spacing" textLength="113" x="353" y="211.8604">JointDataControllers</text><line style="stroke:#181818;stroke-width:1.5;" x1="333" x2="343" y1="258.5485" y2="258.5485"/><rect fill="#F1F1F1" height="36.3441" style="stroke:#181818;stroke-width:1.5;" width="95" x="343" y="240.3765"/><text fill="#000000" font-family="sans-serif" font-size="12" lengthAdjust="spacing" textLength="75" x="353" y="263.2045">DataExporter</text><line style="stroke:#181818;stroke-width:1.5;" x1="333" x2="343" y1="309.8926" y2="309.8926"/><rect fill="#F1F1F1" height="36.3441" style="stroke:#181818;stroke-width:1.5;" width="71" x="343" y="291.7206"/><text fill="#000000" font-family="sans-serif" font-size="12" lengthAdjust="spacing" textLength="51" x="353" y="314.5487">Recipient</text><line style="stroke:#181818;stroke-width:1.5;" x1="378.5" x2="388.5" y1="361.2367" y2="361.2367"/><rect fill="#F1F1F1" height="36.3441" style="stroke:#181818;stroke-width:1.5;" width="97" x="388.5" y="343.0647"/><text fill="#000000" font-family="sans-serif" font-size="12" lengthAdjust="spacing" textLength="77" x="398.5" y="365.8928">DataImporter</text><line style="stroke:#181818;stroke-width:1.5;" x1="378.5" x2="388.5" y1="412.5809" y2="412.5809"/><rect fill="#F1F1F1" height="36.3441" style="stroke:#181818;stroke-width:1.5;" width="103" x="388.5" y="394.4088"/><text fill="#000000" font-family="sans-serif" font-size="12" lengthAdjust="spacing" textLength="83" x="398.5" y="417.2369">DataProcessor</text><line style="stroke:#181818;stroke-width:1.5;" x1="378.5" x2="388.5" y1="463.925" y2="463.925"/><rect fill="#F1F1F1" height="36.3441" style="stroke:#181818;stroke-width:1.5;" width="78" x="388.5" y="445.7529"/><text fill="#000000" font-family="sans-serif" font-size="12" lengthAdjust="spacing" textLength="58" x="398.5" y="468.581">ThirdParty</text><line style="stroke:#181818;stroke-width:1.5;" x1="378.5" x2="378.5" y1="328.0647" y2="463.925"/><line style="stroke:#181818;stroke-width:1.5;" x1="333" x2="343" y1="515.2691" y2="515.2691"/><rect fill="#F1F1F1" height="36.3441" style="stroke:#181818;stroke-width:1.5;" width="119" x="343" y="497.097"/><text fill="#000000" font-family="sans-serif" font-size="12" lengthAdjust="spacing" textLength="99" x="353" y="519.9251">ServiceConsumer</text><line style="stroke:#181818;stroke-width:1.5;" x1="333" x2="343" y1="566.6132" y2="566.6132"/><rect fill="#F1F1F1" height="36.3441" style="stroke:#181818;stroke-width:1.5;" width="108" x="343" y="548.4411"/><text fill="#000000" font-family="sans-serif" font-size="12" lengthAdjust="spacing" textLength="88" x="353" y="571.2692">ServiceProvider</text><line style="stroke:#181818;stroke-width:1.5;" x1="333" x2="333" y1="122.6882" y2="566.6132"/><line style="stroke:#181818;stroke-width:1.5;" x1="557.5" x2="557.5" y1="66.3441" y2="86.3441"/><rect fill="#F1F1F1" height="36.3441" style="stroke:#181818;stroke-width:1.5;" width="92" x="511.5" y="86.3441"/><text fill="#000000" font-family="sans-serif" font-size="12" lengthAdjust="spacing" textLength="72" x="521.5" y="109.1722">Organisation</text><line style="stroke:#181818;stroke-width:1.5;" x1="557.5" x2="567.5" y1="155.8603" y2="155.8603"/><rect fill="#F1F1F1" height="36.3441" style="stroke:#181818;stroke-width:1.5;" width="172" x="567.5" y="137.6882"/><text fill="#000000" font-family="sans-serif" font-size="12" lengthAdjust="spacing" textLength="152" x="577.5" y="160.5163">GovernmentalOrganisation</text><line style="stroke:#181818;stroke-width:1.5;" x1="653.5" x2="663.5" y1="207.2044" y2="207.2044"/><rect fill="#F1F1F1" height="36.3441" style="stroke:#181818;stroke-width:1.5;" width="71" x="663.5" y="189.0323"/><text fill="#000000" font-family="sans-serif" font-size="12" lengthAdjust="spacing" textLength="51" x="673.5" y="211.8604">Authority</text><line style="stroke:#181818;stroke-width:1.5;" x1="699" x2="709" y1="258.5485" y2="258.5485"/><rect fill="#F1F1F1" height="36.3441" style="stroke:#181818;stroke-width:1.5;" width="155" x="709" y="240.3765"/><text fill="#000000" font-family="sans-serif" font-size="12" lengthAdjust="spacing" textLength="135" x="719" y="263.2045">DataProtectionAuthority</text><line style="stroke:#181818;stroke-width:1.5;" x1="699" x2="709" y1="309.8926" y2="309.8926"/><rect fill="#F1F1F1" height="36.3441" style="stroke:#181818;stroke-width:1.5;" width="118" x="709" y="291.7206"/><text fill="#000000" font-family="sans-serif" font-size="12" lengthAdjust="spacing" textLength="98" x="719" y="314.5487">NationalAuthority</text><line style="stroke:#181818;stroke-width:1.5;" x1="699" x2="709" y1="361.2367" y2="361.2367"/><rect fill="#F1F1F1" height="36.3441" style="stroke:#181818;stroke-width:1.5;" width="119" x="709" y="343.0647"/><text fill="#000000" font-family="sans-serif" font-size="12" lengthAdjust="spacing" textLength="99" x="719" y="365.8928">RegionalAuthority</text><line style="stroke:#181818;stroke-width:1.5;" x1="699" x2="709" y1="412.5809" y2="412.5809"/><rect fill="#F1F1F1" height="36.3441" style="stroke:#181818;stroke-width:1.5;" width="151" x="709" y="394.4088"/><text fill="#000000" font-family="sans-serif" font-size="12" lengthAdjust="spacing" textLength="131" x="719" y="417.2369">SupraNationalAuthority</text><line style="stroke:#181818;stroke-width:1.5;" x1="699" x2="699" y1="225.3765" y2="412.5809"/><line style="stroke:#181818;stroke-width:1.5;" x1="653.5" x2="653.5" y1="174.0323" y2="207.2044"/><line style="stroke:#181818;stroke-width:1.5;" x1="557.5" x2="567.5" y1="463.925" y2="463.925"/><rect fill="#F1F1F1" height="36.3441" style="stroke:#181818;stroke-width:1.5;" width="197" x="567.5" y="445.7529"/><text fill="#000000" font-family="sans-serif" font-size="12" lengthAdjust="spacing" textLength="177" x="577.5" y="468.581">AcademicScientificOrganisation</text><line style="stroke:#181818;stroke-width:1.5;" x1="557.5" x2="567.5" y1="515.2691" y2="515.2691"/><rect fill="#F1F1F1" height="36.3441" style="stroke:#181818;stroke-width:1.5;" width="140" x="567.5" y="497.097"/><text fill="#000000" font-family="sans-serif" font-size="12" lengthAdjust="spacing" textLength="120" x="577.5" y="519.9251">ForProfitOrganisation</text><line style="stroke:#181818;stroke-width:1.5;" x1="557.5" x2="567.5" y1="566.6132" y2="566.6132"/><rect fill="#F1F1F1" height="36.3441" style="stroke:#181818;stroke-width:1.5;" width="131" x="567.5" y="548.4411"/><text fill="#000000" font-family="sans-serif" font-size="12" lengthAdjust="spacing" textLength="111" x="577.5" y="571.2692">IndustryConsortium</text><line style="stroke:#181818;stroke-width:1.5;" x1="557.5" x2="567.5" y1="617.9573" y2="617.9573"/><rect fill="#F1F1F1" height="36.3441" style="stroke:#181818;stroke-width:1.5;" width="164" x="567.5" y="599.7853"/><text fill="#000000" font-family="sans-serif" font-size="12" lengthAdjust="spacing" textLength="144" x="577.5" y="622.6133">InternationalOrganisation</text><line style="stroke:#181818;stroke-width:1.5;" x1="557.5" x2="567.5" y1="669.3014" y2="669.3014"/><rect fill="#F1F1F1" height="36.3441" style="stroke:#181818;stroke-width:1.5;" width="195" x="567.5" y="651.1294"/><text fill="#000000" font-family="sans-serif" font-size="12" lengthAdjust="spacing" textLength="175" x="577.5" y="673.9575">NonGovernmentalOrganisation</text><line style="stroke:#181818;stroke-width:1.5;" x1="557.5" x2="567.5" y1="720.6455" y2="720.6455"/><rect fill="#F1F1F1" height="36.3441" style="stroke:#181818;stroke-width:1.5;" width="145" x="567.5" y="702.4735"/><text fill="#000000" font-family="sans-serif" font-size="12" lengthAdjust="spacing" textLength="125" x="577.5" y="725.3016">NonProfitOrganisation</text><line style="stroke:#181818;stroke-width:1.5;" x1="557.5" x2="557.5" y1="122.6882" y2="720.6455"/><line style="stroke:#181818;stroke-width:1.5;" x1="60.5" x2="557.5" y1="66.3441" y2="66.3441"/><rect fill="#F1F1F1" height="36.3441" style="stroke:#181818;stroke-width:1.5;" width="51" x="283.5" y="10"/><text fill="#000000" font-family="sans-serif" font-size="12" lengthAdjust="spacing" textLength="31" x="293.5" y="32.8281">Entity</text><line style="stroke:#181818;stroke-width:1.5;" x1="309" x2="309" y1="46.3441" y2="66.3441"/><!--SRC=[xLHDR-8m4BtxLtXlBL9HGQMgED42hSho9KAv6sS8itBiQ6ndbt-_4qX11RJdFVHclpSVRrx6wVcWAFnUU_43hJOn1Ud3pa2pCCg6c1iX6d9e0uQTQ3JaL8L8oio1lBCCDEH01PN4zI_GeRetv7CQJNtiRz6aX-DS4TWmsro4hwAnG6fju8oI2oW8F6UfW2LKtSUGANCKS-ZTTpQGCmPe3uqSsl0LzyVOuP_2KQWZ5w2nG2v_q57nx_c9Fo1pSXgyTpMqt2AbF4hTFm4gKGEtyZ6lozOO9vQOxZ4veqnPz3n6xTcRAu5iNercpaasC8Qjeth6aux0ld3CEJlTPofpZYyWkuediI1rDKa-QvL2ZZhHbIsuGNsX_DKHIzbWk63URHfze5rb1fk8CQzXzjFMxIwIfix-oukAlz9EzC2crSgAtd5xjsost22Oj3xdmADzNZIIDi09tylylSp_wpBFgp_knsGikOPdIhQQxVlsGxDpaqGh9sedsu-orUgsEjtEa-mFawMi-5jnypOVI-yYQP0ficvSnwhshHYfKib5vFbpwCfP0NOq-Fa9y4ieaTnUhXYj9gU0nuUx5mpxhmyaLnCnW8tYXy0PsgLeiwxyMBxUFOcnibbK6TS6A_gEwzAEkUGl]--></g></svg>