<svg xmlns="http://www.w3.org/2000/svg" xmlns:xlink="http://www.w3.org/1999/xlink" contentStyleType="text/css" height="1213px" preserveAspectRatio="none" style="width:882px;height:1213px;background:#FFFFFF;" version="1.1" viewBox="0 0 882 1213" width="882px" zoomAndPan="magnify"><defs/><g><!--cluster dpv--><g id="cluster_dpv"><path d="M8.5,6.602 L35.8125,6.602 A3.75,3.75 0 0 1 38.3125,9.102 L45.3125,31.6699 L872.5,31.6699 A2.5,2.5 0 0 1 875,34.1699 L875,1204.102 A2.5,2.5 0 0 1 872.5,1206.602 L8.5,1206.602 A2.5,2.5 0 0 1 6,1204.102 L6,9.102 A2.5,2.5 0 0 1 8.5,6.602 " fill="none" style="stroke:#000000;stroke-width:1.5;"/><line style="stroke:#000000;stroke-width:1.5;" x1="6" x2="45.3125" y1="31.6699" y2="31.6699"/><text fill="#000000" font-family="sans-serif" font-size="14" font-weight="bold" lengthAdjust="spacing" textLength="26.3125" x="10" y="23.5679">dpv</text></g><!--cluster risk--><g id="cluster_risk"><path d="M354,171.602 L380.75,171.602 A3.75,3.75 0 0 1 383.25,174.102 L390.25,196.6699 L443,196.6699 A2.5,2.5 0 0 1 445.5,199.1699 L445.5,253.102 A2.5,2.5 0 0 1 443,255.602 L354,255.602 A2.5,2.5 0 0 1 351.5,253.102 L351.5,174.102 A2.5,2.5 0 0 1 354,171.602 " fill="none" style="stroke:#000000;stroke-width:1.5;"/><line style="stroke:#000000;stroke-width:1.5;" x1="351.5" x2="390.25" y1="196.6699" y2="196.6699"/><text fill="#000000" font-family="sans-serif" font-size="14" font-weight="bold" lengthAdjust="spacing" textLength="25.75" x="355.5" y="188.5679">risk</text></g><!--cluster legal--><g id="cluster_legal"><path d="M531.5,52.602 L567.6875,52.602 A3.75,3.75 0 0 1 570.1875,55.102 L577.1875,77.6699 L848.5,77.6699 A2.5,2.5 0 0 1 851,80.1699 L851,1180.102 A2.5,2.5 0 0 1 848.5,1182.602 L531.5,1182.602 A2.5,2.5 0 0 1 529,1180.102 L529,55.102 A2.5,2.5 0 0 1 531.5,52.602 " fill="none" style="stroke:#000000;stroke-width:1.5;"/><line style="stroke:#000000;stroke-width:1.5;" x1="529" x2="577.1875" y1="77.6699" y2="77.6699"/><text fill="#000000" font-family="sans-serif" font-size="14" font-weight="bold" lengthAdjust="spacing" textLength="35.1875" x="533" y="69.5679">legal</text></g><!--cluster eu--><g id="cluster_eu"><path d="M555.5,98.602 L574.375,98.602 A3.75,3.75 0 0 1 576.875,101.102 L583.875,123.6699 L824.5,123.6699 A2.5,2.5 0 0 1 827,126.1699 L827,1156.102 A2.5,2.5 0 0 1 824.5,1158.602 L555.5,1158.602 A2.5,2.5 0 0 1 553,1156.102 L553,101.102 A2.5,2.5 0 0 1 555.5,98.602 " fill="none" style="stroke:#000000;stroke-width:1.5;"/><line style="stroke:#000000;stroke-width:1.5;" x1="553" x2="583.875" y1="123.6699" y2="123.6699"/><text fill="#000000" font-family="sans-serif" font-size="14" font-weight="bold" lengthAdjust="spacing" textLength="17.875" x="557" y="115.5679">eu</text></g><!--cluster gdpr--><g id="cluster_gdpr"><path d="M579.5,144.602 L615.25,144.602 A3.75,3.75 0 0 1 617.75,147.102 L624.75,169.6699 L800.5,169.6699 A2.5,2.5 0 0 1 803,172.1699 L803,1132.102 A2.5,2.5 0 0 1 800.5,1134.602 L579.5,1134.602 A2.5,2.5 0 0 1 577,1132.102 L577,147.102 A2.5,2.5 0 0 1 579.5,144.602 " fill="none" style="stroke:#000000;stroke-width:1.5;"/><line style="stroke:#000000;stroke-width:1.5;" x1="577" x2="624.75" y1="169.6699" y2="169.6699"/><text fill="#000000" font-family="sans-serif" font-size="14" font-weight="bold" lengthAdjust="spacing" textLength="34.75" x="581" y="161.5679">gdpr</text></g><!--class Process--><g id="elem_Process"><rect codeLine="6" fill="#F1F1F1" height="29.0679" id="Process" rx="2.5" ry="2.5" style="stroke:#181818;stroke-width:0.5;" width="57" x="22" y="524.102"/><text fill="#000000" font-family="sans-serif" font-size="14" lengthAdjust="spacing" textLength="51" x="25" y="544.0679">Process</text></g><!--class LegalBasis--><g id="elem_LegalBasis"><rect codeLine="7" fill="#F1F1F1" height="29.0679" id="LegalBasis" rx="2.5" ry="2.5" style="stroke:#181818;stroke-width:0.5;" width="77" x="360" y="955.102"/><text fill="#000000" font-family="sans-serif" font-size="14" lengthAdjust="spacing" textLength="71" x="363" y="975.0679">LegalBasis</text></g><!--class Principle--><g id="elem_Principle"><rect codeLine="8" fill="#F1F1F1" height="29.0679" id="Principle" rx="2.5" ry="2.5" style="stroke:#181818;stroke-width:0.5;" width="65" x="366" y="775.102"/><text fill="#000000" font-family="sans-serif" font-size="14" lengthAdjust="spacing" textLength="59" x="369" y="795.0679">Principle</text></g><!--class OrganisationalMeasure--><g id="elem_OrganisationalMeasure"><rect codeLine="9" fill="#F1F1F1" height="29.0679" id="OrganisationalMeasure" rx="2.5" ry="2.5" style="stroke:#181818;stroke-width:0.5;" width="165" x="316" y="677.102"/><text fill="#000000" font-family="sans-serif" font-size="14" lengthAdjust="spacing" textLength="159" x="319" y="697.0679">OrganisationalMeasure</text></g><!--class DataSubjectRight--><g id="elem_DataSubjectRight"><rect codeLine="10" fill="#F1F1F1" height="29.0679" id="DataSubjectRight" rx="2.5" ry="2.5" style="stroke:#181818;stroke-width:0.5;" width="123" x="337" y="597.102"/><text fill="#000000" font-family="sans-serif" font-size="14" lengthAdjust="spacing" textLength="117" x="340" y="617.0679">DataSubjectRight</text></g><!--class Organisation--><g id="elem_Organisation"><rect codeLine="11" fill="#F1F1F1" height="29.0679" id="Organisation" rx="2.5" ry="2.5" style="stroke:#181818;stroke-width:0.5;" width="94" x="351.5" y="524.102"/><text fill="#000000" font-family="sans-serif" font-size="14" lengthAdjust="spacing" textLength="88" x="354.5" y="544.0679">Organisation</text></g><!--class DataProtectionAuthority--><g id="elem_DataProtectionAuthority"><rect codeLine="12" fill="#F1F1F1" height="29.0679" id="DataProtectionAuthority" rx="2.5" ry="2.5" style="stroke:#181818;stroke-width:0.5;" width="167" x="315" y="451.102"/><text fill="#000000" font-family="sans-serif" font-size="14" lengthAdjust="spacing" textLength="161" x="318" y="471.0679">DataProtectionAuthority</text></g><!--class Lawfulness--><g id="elem_Lawfulness"><rect codeLine="13" fill="#F1F1F1" height="29.0679" id="Lawfulness" rx="2.5" ry="2.5" style="stroke:#181818;stroke-width:0.5;" width="81" x="358" y="373.102"/><text fill="#000000" font-family="sans-serif" font-size="14" lengthAdjust="spacing" textLength="75" x="361" y="393.0679">Lawfulness</text></g><!--class Dpia--><g id="elem_Dpia"><rect codeLine="14" fill="#F1F1F1" height="29.0679" id="Dpia" rx="2.5" ry="2.5" style="stroke:#181818;stroke-width:0.5;" width="38" x="379.5" y="292.102"/><text fill="#000000" font-family="sans-serif" font-size="14" lengthAdjust="spacing" textLength="32" x="382.5" y="312.0679">DPIA</text></g><!--class Incident--><g id="elem_Incident"><rect codeLine="18" fill="#F1F1F1" height="29.0679" id="Incident" rx="2.5" ry="2.5" style="stroke:#181818;stroke-width:0.5;" width="62" x="367.5" y="210.102"/><text fill="#000000" font-family="sans-serif" font-size="14" lengthAdjust="spacing" textLength="56" x="370.5" y="230.0679">Incident</text></g><!--class LegalBasesA6--><g id="elem_LegalBasesA6"><rect codeLine="33" fill="#ADD8E6" height="48.1358" id="LegalBasesA6" rx="2.5" ry="2.5" style="stroke:#181818;stroke-width:0.5;" width="166" x="607" y="1070.602"/><a href="../legal/eu/gdpr/index.html#vocab-legal-basis-core" target="_top" title="../legal/eu/gdpr/index.html#vocab-legal-basis-core" xlink:actuate="onRequest" xlink:href="../legal/eu/gdpr/index.html#vocab-legal-basis-core" xlink:show="new" xlink:title="../legal/eu/gdpr/index.html#vocab-legal-basis-core" xlink:type="simple"><text fill="#0000FF" font-family="sans-serif" font-size="14" font-style="italic" lengthAdjust="spacing" text-decoration="underline" textLength="103" x="610" y="1090.5679">Core legal bases</text></a><a href="../legal/eu/gdpr/index.html#vocab-legal-basis-core" target="_top" title="../legal/eu/gdpr/index.html#vocab-legal-basis-core" xlink:actuate="onRequest" xlink:href="../legal/eu/gdpr/index.html#vocab-legal-basis-core" xlink:show="new" xlink:title="../legal/eu/gdpr/index.html#vocab-legal-basis-core" xlink:type="simple"><text fill="#0000FF" font-family="sans-serif" font-size="14" font-style="italic" lengthAdjust="spacing" text-decoration="underline" textLength="160" x="610" y="1109.6358">as defined by GDPR Art. 6</text></a></g><!--class LegalBasesSpecialA9--><g id="elem_LegalBasesSpecialA9"><rect codeLine="34" fill="#ADD8E6" height="67.2038" id="LegalBasesSpecialA9" rx="2.5" ry="2.5" style="stroke:#181818;stroke-width:0.5;" width="166" x="607" y="968.102"/><a href="../legal/eu/gdpr/index.html#vocab-legal-basis-special" target="_top" title="../legal/eu/gdpr/index.html#vocab-legal-basis-special" xlink:actuate="onRequest" xlink:href="../legal/eu/gdpr/index.html#vocab-legal-basis-special" xlink:show="new" xlink:title="../legal/eu/gdpr/index.html#vocab-legal-basis-special" xlink:type="simple"><text fill="#0000FF" font-family="sans-serif" font-size="14" font-style="italic" lengthAdjust="spacing" text-decoration="underline" textLength="142" x="610" y="988.0679">Legal bases for special</text></a><a href="../legal/eu/gdpr/index.html#vocab-legal-basis-special" target="_top" title="../legal/eu/gdpr/index.html#vocab-legal-basis-special" xlink:actuate="onRequest" xlink:href="../legal/eu/gdpr/index.html#vocab-legal-basis-special" xlink:show="new" xlink:title="../legal/eu/gdpr/index.html#vocab-legal-basis-special" xlink:type="simple"><text fill="#0000FF" font-family="sans-serif" font-size="14" font-style="italic" lengthAdjust="spacing" text-decoration="underline" textLength="147" x="610" y="1007.1358">category personal data</text></a><a href="../legal/eu/gdpr/index.html#vocab-legal-basis-special" target="_top" title="../legal/eu/gdpr/index.html#vocab-legal-basis-special" xlink:actuate="onRequest" xlink:href="../legal/eu/gdpr/index.html#vocab-legal-basis-special" xlink:show="new" xlink:title="../legal/eu/gdpr/index.html#vocab-legal-basis-special" xlink:type="simple"><text fill="#0000FF" font-family="sans-serif" font-size="14" font-style="italic" lengthAdjust="spacing" text-decoration="underline" textLength="160" x="610" y="1026.2038">as defined by GDPR Art. 9</text></a></g><!--class LegalBasesDataTransfersA45_49--><g id="elem_LegalBasesDataTransfersA45_49"><rect codeLine="35" fill="#ADD8E6" height="67.2038" id="LegalBasesDataTransfersA45_49" rx="2.5" ry="2.5" style="stroke:#181818;stroke-width:0.5;" width="194" x="593" y="866.102"/><a href="../legal/eu/gdpr/index.html#vocab-legal-basis-data-transfer" target="_top" title="../legal/eu/gdpr/index.html#vocab-legal-basis-data-transfer" xlink:actuate="onRequest" xlink:href="../legal/eu/gdpr/index.html#vocab-legal-basis-data-transfer" xlink:show="new" xlink:title="../legal/eu/gdpr/index.html#vocab-legal-basis-data-transfer" xlink:type="simple"><text fill="#0000FF" font-family="sans-serif" font-size="14" font-style="italic" lengthAdjust="spacing" text-decoration="underline" textLength="95" x="596" y="886.0679">Legal bases for</text></a><a href="../legal/eu/gdpr/index.html#vocab-legal-basis-data-transfer" target="_top" title="../legal/eu/gdpr/index.html#vocab-legal-basis-data-transfer" xlink:actuate="onRequest" xlink:href="../legal/eu/gdpr/index.html#vocab-legal-basis-data-transfer" xlink:show="new" xlink:title="../legal/eu/gdpr/index.html#vocab-legal-basis-data-transfer" xlink:type="simple"><text fill="#0000FF" font-family="sans-serif" font-size="14" font-style="italic" lengthAdjust="spacing" text-decoration="underline" textLength="83" x="596" y="905.1358">data transfer</text></a><a href="../legal/eu/gdpr/index.html#vocab-legal-basis-data-transfer" target="_top" title="../legal/eu/gdpr/index.html#vocab-legal-basis-data-transfer" xlink:actuate="onRequest" xlink:href="../legal/eu/gdpr/index.html#vocab-legal-basis-data-transfer" xlink:show="new" xlink:title="../legal/eu/gdpr/index.html#vocab-legal-basis-data-transfer" xlink:type="simple"><text fill="#0000FF" font-family="sans-serif" font-size="14" font-style="italic" lengthAdjust="spacing" text-decoration="underline" textLength="188" x="596" y="924.2038">as defined by GDPR Art. 45-49</text></a></g><!--class PrinciplesA5--><g id="elem_PrinciplesA5"><rect codeLine="36" fill="#ADD8E6" height="67.2038" id="PrinciplesA5" rx="2.5" ry="2.5" style="stroke:#181818;stroke-width:0.5;" width="166" x="607" y="764.102"/><a href="../legal/eu/gdpr/index.html#vocab-principles" target="_top" title="../legal/eu/gdpr/index.html#vocab-principles" xlink:actuate="onRequest" xlink:href="../legal/eu/gdpr/index.html#vocab-principles" xlink:show="new" xlink:title="../legal/eu/gdpr/index.html#vocab-principles" xlink:type="simple"><text fill="#0000FF" font-family="sans-serif" font-size="14" font-style="italic" lengthAdjust="spacing" text-decoration="underline" textLength="142" x="610" y="784.0679">Principles for personal</text></a><a href="../legal/eu/gdpr/index.html#vocab-principles" target="_top" title="../legal/eu/gdpr/index.html#vocab-principles" xlink:actuate="onRequest" xlink:href="../legal/eu/gdpr/index.html#vocab-principles" xlink:show="new" xlink:title="../legal/eu/gdpr/index.html#vocab-principles" xlink:type="simple"><text fill="#0000FF" font-family="sans-serif" font-size="14" font-style="italic" lengthAdjust="spacing" text-decoration="underline" textLength="100" x="610" y="803.1358">data processing</text></a><a href="../legal/eu/gdpr/index.html#vocab-principles" target="_top" title="../legal/eu/gdpr/index.html#vocab-principles" xlink:actuate="onRequest" xlink:href="../legal/eu/gdpr/index.html#vocab-principles" xlink:show="new" xlink:title="../legal/eu/gdpr/index.html#vocab-principles" xlink:type="simple"><text fill="#0000FF" font-family="sans-serif" font-size="14" font-style="italic" lengthAdjust="spacing" text-decoration="underline" textLength="160" x="610" y="822.2038">as defined by GDPR Art. 5</text></a></g><!--class DataSubjectRightsGDPR--><g id="elem_DataSubjectRightsGDPR"><rect codeLine="37" fill="#ADD8E6" height="48.1358" id="DataSubjectRightsGDPR" rx="2.5" ry="2.5" style="stroke:#181818;stroke-width:0.5;" width="127" x="626.5" y="597.602"/><a href="../legal/eu/gdpr/index.html#vocab-rights" target="_top" title="../legal/eu/gdpr/index.html#vocab-rights" xlink:actuate="onRequest" xlink:href="../legal/eu/gdpr/index.html#vocab-rights" xlink:show="new" xlink:title="../legal/eu/gdpr/index.html#vocab-rights" xlink:type="simple"><text fill="#0000FF" font-family="sans-serif" font-size="14" font-style="italic" lengthAdjust="spacing" text-decoration="underline" textLength="119" x="629.5" y="617.5679">Data subject rights</text></a><a href="../legal/eu/gdpr/index.html#vocab-rights" target="_top" title="../legal/eu/gdpr/index.html#vocab-rights" xlink:actuate="onRequest" xlink:href="../legal/eu/gdpr/index.html#vocab-rights" xlink:show="new" xlink:title="../legal/eu/gdpr/index.html#vocab-rights" xlink:type="simple"><text fill="#0000FF" font-family="sans-serif" font-size="14" font-style="italic" lengthAdjust="spacing" text-decoration="underline" textLength="121" x="629.5" y="636.6358">as defined by GDPR</text></a></g><!--class DataTransferToolsGDPR--><g id="elem_DataTransferToolsGDPR"><rect codeLine="38" fill="#ADD8E6" height="48.1358" id="DataTransferToolsGDPR" rx="2.5" ry="2.5" style="stroke:#181818;stroke-width:0.5;" width="127" x="626.5" y="680.602"/><a href="../legal/eu/gdpr/index.html#vocab-data-transfers" target="_top" title="../legal/eu/gdpr/index.html#vocab-data-transfers" xlink:actuate="onRequest" xlink:href="../legal/eu/gdpr/index.html#vocab-data-transfers" xlink:show="new" xlink:title="../legal/eu/gdpr/index.html#vocab-data-transfers" xlink:type="simple"><text fill="#0000FF" font-family="sans-serif" font-size="14" font-style="italic" lengthAdjust="spacing" text-decoration="underline" textLength="119" x="629.5" y="700.5679">Data transfer tools</text></a><a href="../legal/eu/gdpr/index.html#vocab-data-transfers" target="_top" title="../legal/eu/gdpr/index.html#vocab-data-transfers" xlink:actuate="onRequest" xlink:href="../legal/eu/gdpr/index.html#vocab-data-transfers" xlink:show="new" xlink:title="../legal/eu/gdpr/index.html#vocab-data-transfers" xlink:type="simple"><text fill="#0000FF" font-family="sans-serif" font-size="14" font-style="italic" lengthAdjust="spacing" text-decoration="underline" textLength="121" x="629.5" y="719.6358">as defined by GDPR</text></a></g><!--class GdprDpia--><g id="elem_GdprDpia"><rect codeLine="39" fill="#ADD8E6" height="48.1358" id="GdprDpia" rx="2.5" ry="2.5" style="stroke:#181818;stroke-width:0.5;" width="127" x="626.5" y="265.602"/><a href="../legal/eu/gdpr/index.html#vocab-dpia" target="_top" title="../legal/eu/gdpr/index.html#vocab-dpia" xlink:actuate="onRequest" xlink:href="../legal/eu/gdpr/index.html#vocab-dpia" xlink:show="new" xlink:title="../legal/eu/gdpr/index.html#vocab-dpia" xlink:type="simple"><text fill="#0000FF" font-family="sans-serif" font-size="14" font-style="italic" lengthAdjust="spacing" text-decoration="underline" textLength="88" x="629.5" y="285.5679">DPIA concepts</text></a><a href="../legal/eu/gdpr/index.html#vocab-dpia" target="_top" title="../legal/eu/gdpr/index.html#vocab-dpia" xlink:actuate="onRequest" xlink:href="../legal/eu/gdpr/index.html#vocab-dpia" xlink:show="new" xlink:title="../legal/eu/gdpr/index.html#vocab-dpia" xlink:type="simple"><text fill="#0000FF" font-family="sans-serif" font-size="14" font-style="italic" lengthAdjust="spacing" text-decoration="underline" textLength="121" x="629.5" y="304.6358">as defined by GDPR</text></a></g><!--class DataBreachObligations--><g id="elem_DataBreachObligations"><rect codeLine="40" fill="#ADD8E6" height="48.1358" id="DataBreachObligations" rx="2.5" ry="2.5" style="stroke:#181818;stroke-width:0.5;" width="158" x="611" y="182.602"/><a href="../legal/eu/gdpr/index.html#vocab-data-breach" target="_top" title="../legal/eu/gdpr/index.html#vocab-data-breach" xlink:actuate="onRequest" xlink:href="../legal/eu/gdpr/index.html#vocab-data-breach" xlink:show="new" xlink:title="../legal/eu/gdpr/index.html#vocab-data-breach" xlink:type="simple"><text fill="#0000FF" font-family="sans-serif" font-size="14" font-style="italic" lengthAdjust="spacing" text-decoration="underline" textLength="152" x="614" y="202.5679">Data breach obligations</text></a><a href="../legal/eu/gdpr/index.html#vocab-data-breach" target="_top" title="../legal/eu/gdpr/index.html#vocab-data-breach" xlink:actuate="onRequest" xlink:href="../legal/eu/gdpr/index.html#vocab-data-breach" xlink:show="new" xlink:title="../legal/eu/gdpr/index.html#vocab-data-breach" xlink:type="simple"><text fill="#0000FF" font-family="sans-serif" font-size="14" font-style="italic" lengthAdjust="spacing" text-decoration="underline" textLength="121" x="614" y="221.6358">as defined by GDPR</text></a></g><!--class Establishment--><g id="elem_Establishment"><rect codeLine="41" fill="#ADD8E6" height="48.1358" id="Establishment" rx="2.5" ry="2.5" style="stroke:#181818;stroke-width:0.5;" width="160" x="610" y="514.602"/><a href="../legal/eu/gdpr/index.html#vocab-entities-establishment" target="_top" title="../legal/eu/gdpr/index.html#vocab-entities-establishment" xlink:actuate="onRequest" xlink:href="../legal/eu/gdpr/index.html#vocab-entities-establishment" xlink:show="new" xlink:title="../legal/eu/gdpr/index.html#vocab-entities-establishment" xlink:type="simple"><text fill="#0000FF" font-family="sans-serif" font-size="14" lengthAdjust="spacing" text-decoration="underline" textLength="154" x="613" y="534.5679">Establishment variants</text></a><a href="../legal/eu/gdpr/index.html#vocab-entities-establishment" target="_top" title="../legal/eu/gdpr/index.html#vocab-entities-establishment" xlink:actuate="onRequest" xlink:href="../legal/eu/gdpr/index.html#vocab-entities-establishment" xlink:show="new" xlink:title="../legal/eu/gdpr/index.html#vocab-entities-establishment" xlink:type="simple"><text fill="#0000FF" font-family="sans-serif" font-size="14" lengthAdjust="spacing" text-decoration="underline" textLength="132" x="613" y="553.6358">as defined by GDPR</text></a></g><!--class GdprDataProtectionAuthority--><g id="elem_GdprDataProtectionAuthority"><rect codeLine="42" fill="#ADD8E6" height="48.1358" id="GdprDataProtectionAuthority" rx="2.5" ry="2.5" style="stroke:#181818;stroke-width:0.5;" width="187" x="596.5" y="431.602"/><a href="../legal/eu/gdpr/index.html#vocab-entities-authorities" target="_top" title="../legal/eu/gdpr/index.html#vocab-entities-authorities" xlink:actuate="onRequest" xlink:href="../legal/eu/gdpr/index.html#vocab-entities-authorities" xlink:show="new" xlink:title="../legal/eu/gdpr/index.html#vocab-entities-authorities" xlink:type="simple"><text fill="#0000FF" font-family="sans-serif" font-size="14" lengthAdjust="spacing" text-decoration="underline" textLength="181" x="599.5" y="451.5679">Data Protection Authorities</text></a><a href="../legal/eu/gdpr/index.html#vocab-entities-authorities" target="_top" title="../legal/eu/gdpr/index.html#vocab-entities-authorities" xlink:actuate="onRequest" xlink:href="../legal/eu/gdpr/index.html#vocab-entities-authorities" xlink:show="new" xlink:title="../legal/eu/gdpr/index.html#vocab-entities-authorities" xlink:type="simple"><text fill="#0000FF" font-family="sans-serif" font-size="14" lengthAdjust="spacing" text-decoration="underline" textLength="132" x="599.5" y="470.6358">as defined by GDPR</text></a></g><!--class GDPRLawfulness--><g id="elem_GDPRLawfulness"><rect codeLine="43" fill="#ADD8E6" height="48.1358" id="GDPRLawfulness" rx="2.5" ry="2.5" style="stroke:#181818;stroke-width:0.5;" width="119" x="630.5" y="348.602"/><a href="../legal/eu/gdpr/index.html#vocab-compliance" target="_top" title="../legal/eu/gdpr/index.html#vocab-compliance" xlink:actuate="onRequest" xlink:href="../legal/eu/gdpr/index.html#vocab-compliance" xlink:show="new" xlink:title="../legal/eu/gdpr/index.html#vocab-compliance" xlink:type="simple"><text fill="#0000FF" font-family="sans-serif" font-size="14" lengthAdjust="spacing" text-decoration="underline" textLength="94" x="633.5" y="368.5679">Lawfulness as</text></a><a href="../legal/eu/gdpr/index.html#vocab-compliance" target="_top" title="../legal/eu/gdpr/index.html#vocab-compliance" xlink:actuate="onRequest" xlink:href="../legal/eu/gdpr/index.html#vocab-compliance" xlink:show="new" xlink:title="../legal/eu/gdpr/index.html#vocab-compliance" xlink:type="simple"><text fill="#0000FF" font-family="sans-serif" font-size="14" lengthAdjust="spacing" text-decoration="underline" textLength="113" x="633.5" y="387.6358">defined by GDPR</text></a></g><!--link Process to LegalBasis--><g id="link_Process_LegalBasis"><path codeLine="21" d="M52.98,553.492 C58.27,604.372 77.67,770.482 109,812.602 C172.56,898.042 296.92,942.372 359.54,960.112 " fill="none" id="Process-LegalBasis" style="stroke:#181818;stroke-width:1.0;"/><polygon fill="#000000" points="156.01,807.4475,152.9116,798.4558,148.2181,801.9943,156.01,807.4475" style="stroke:#000000;stroke-width:1.0;"/><text fill="#000000" font-family="sans-serif" font-size="13" lengthAdjust="spacing" textLength="83" x="162" y="808.499">hasLegalBasis</text></g><!--link Process to OrganisationalMeasure--><g id="link_Process_OrganisationalMeasure"><path codeLine="22" d="M56.66,553.492 C64.58,574.002 81.72,610.562 109,629.602 C169.7,671.982 253.79,686.272 315.53,690.682 " fill="none" id="Process-OrganisationalMeasure" style="stroke:#181818;stroke-width:1.0;"/><polygon fill="#000000" points="118.4179,622.7963,111.802,615.964,109.0496,621.1576,118.4179,622.7963" style="stroke:#000000;stroke-width:1.0;"/><text fill="#000000" font-family="sans-serif" font-size="13" lengthAdjust="spacing" textLength="161" x="123" y="625.499">hasOrganisationalMeasure</text></g><!--link Process to Principle--><g id="link_Process_Principle"><path codeLine="23" d="M51.8,553.352 C53.33,587.082 61.93,670.342 109,714.602 C181.2,782.492 306.82,790.782 365.54,790.652 " fill="none" id="Process-Principle" style="stroke:#181818;stroke-width:1.0;"/><polygon fill="#000000" points="117.9878,708.4712,112.5467,700.6709,109.0009,705.3588,117.9878,708.4712" style="stroke:#000000;stroke-width:1.0;"/><text fill="#000000" font-family="sans-serif" font-size="13" lengthAdjust="spacing" textLength="161" x="123" y="710.499">hasOrganisationalMeasure</text></g><!--link Process to DataSubjectRight--><g id="link_Process_DataSubjectRight"><path codeLine="24" d="M76.81,553.542 C86.58,558.722 98.03,564.102 109,567.602 C185.26,591.962 277.28,603.012 336.56,607.902 " fill="none" id="Process-DataSubjectRight" style="stroke:#181818;stroke-width:1.0;"/><polygon fill="#000000" points="172.894,559.4792,164.6427,554.7498,163.4387,560.503,172.894,559.4792" style="stroke:#000000;stroke-width:1.0;"/><text fill="#000000" font-family="sans-serif" font-size="13" lengthAdjust="spacing" textLength="53" x="177" y="563.499">hasRight</text></g><!--link Process to Organisation--><g id="link_Process_Organisation"><path codeLine="25" d="M79.28,539.182 C88.72,539.352 99.32,539.522 109,539.602 C194.4,540.342 294.01,539.652 351.03,539.112 " fill="none" id="Process-Organisation" style="stroke:#181818;stroke-width:1.0;"/><polygon fill="#000000" points="171.5,530.4537,162.4542,527.5171,162.4557,533.395,171.5,530.4537" style="stroke:#000000;stroke-width:1.0;"/><text fill="#000000" font-family="sans-serif" font-size="13" lengthAdjust="spacing" textLength="56" x="175.5" y="535.499">hasEntity</text></g><!--link Process to Lawfulness--><g id="link_Process_Lawfulness"><path codeLine="26" d="M57.6,523.612 C66.17,504.522 83.61,471.952 109,454.602 C109.65,454.162 278.85,415.022 357.79,396.772 " fill="none" id="Process-Lawfulness" style="stroke:#181818;stroke-width:1.0;"/><polygon fill="#000000" points="155.6057,404.5089,146.13,405.3222,148.4178,410.7366,155.6057,404.5089" style="stroke:#000000;stroke-width:1.0;"/><text fill="#000000" font-family="sans-serif" font-size="13" lengthAdjust="spacing" textLength="87" x="160" y="411.499">hasLawfulness</text></g><!--link Process to DataProtectionAuthority--><g id="link_Process_DataProtectionAuthority"><path codeLine="27" d="M79.22,526.772 C88.55,523.122 99.11,519.342 109,516.602 C177.26,497.692 256.62,484.272 314.81,475.952 " fill="none" id="Process-DataProtectionAuthority" style="stroke:#181818;stroke-width:1.0;"/><polygon fill="#000000" points="160.3876,471.4007,150.9262,470.4351,152.1656,476.1808,160.3876,471.4007" style="stroke:#000000;stroke-width:1.0;"/><text fill="#000000" font-family="sans-serif" font-size="13" lengthAdjust="spacing" textLength="78" x="164.5" y="477.499">hasAuthority</text></g><!--link Process to Dpia--><g id="link_Process_Dpia"><path codeLine="28" d="M52.77,523.862 C56.16,493.952 68.19,426.002 109,390.602 C169.67,337.972 208.2,373.102 285,349.602 C318.79,339.262 356.99,323.832 379.06,314.542 " fill="none" id="Process-Dpia" style="stroke:#181818;stroke-width:1.0;"/><polygon fill="#000000" points="131.7085,337.7552,122.5084,340.1655,125.6822,345.1128,131.7085,337.7552" style="stroke:#000000;stroke-width:1.0;"/><text fill="#000000" font-family="sans-serif" font-size="13" lengthAdjust="spacing" textLength="134" x="136.5" y="345.499">hasImpactAssessment</text></g><!--link Process to Incident--><g id="link_Process_Incident"><path codeLine="29" d="M51.27,523.682 C51.49,485.882 57.2,385.162 109,326.602 C177.46,249.212 308.43,230.542 367.4,226.032 " fill="none" id="Process-Incident" style="stroke:#181818;stroke-width:1.0;"/><polygon fill="#000000" points="163.1403,227.0275,154.5403,231.0882,158.5696,235.3677,163.1403,227.0275" style="stroke:#000000;stroke-width:1.0;"/><text fill="#000000" font-family="sans-serif" font-size="13" lengthAdjust="spacing" textLength="70" x="168.5" y="235.499">hasIncident</text></g><!--reverse link Principle to PrinciplesA5--><g id="link_Principle_PrinciplesA5"><path codeLine="46" d="M449.3031,790.9806 C491.1631,792.1406 548.27,793.712 606.64,795.322 " fill="none" id="Principle-backto-PrinciplesA5" style="stroke:#181818;stroke-width:1.0;stroke-dasharray:7.0,7.0;"/><polygon fill="none" points="431.31,790.482,449.1369,796.9783,449.4693,784.9829,431.31,790.482" style="stroke:#181818;stroke-width:1.0;"/></g><!--reverse link DataSubjectRight to DataSubjectRightsGDPR--><g id="link_DataSubjectRight_DataSubjectRightsGDPR"><path codeLine="47" d="M478.1793,614.3231 C526.8393,616.0031 576.91,617.732 626.14,619.432 " fill="none" id="DataSubjectRight-backto-DataSubjectRightsGDPR" style="stroke:#181818;stroke-width:1.0;stroke-dasharray:7.0,7.0;"/><polygon fill="none" points="460.19,613.702,477.9723,620.3195,478.3863,608.3266,460.19,613.702" style="stroke:#181818;stroke-width:1.0;"/></g><!--reverse link OrganisationalMeasure to DataTransferToolsGDPR--><g id="link_OrganisationalMeasure_DataTransferToolsGDPR"><path codeLine="48" d="M499.2818,696.0815 C545.2618,698.1515 583.79,699.882 626.25,701.782 " fill="none" id="OrganisationalMeasure-backto-DataTransferToolsGDPR" style="stroke:#181818;stroke-width:1.0;stroke-dasharray:7.0,7.0;"/><polygon fill="none" points="481.3,695.272,499.0119,702.0754,499.5516,690.0876,481.3,695.272" style="stroke:#181818;stroke-width:1.0;"/></g><!--reverse link Incident to DataBreachObligations--><g id="link_Incident_DataBreachObligations"><path codeLine="49" d="M447.8952,221.5929 C490.4352,218.9429 551.16,215.172 610.7,211.472 " fill="none" id="Incident-backto-DataBreachObligations" style="stroke:#181818;stroke-width:1.0;stroke-dasharray:7.0,7.0;"/><polygon fill="none" points="429.93,222.712,448.2682,227.5812,447.5221,215.6045,429.93,222.712" style="stroke:#181818;stroke-width:1.0;"/></g><!--reverse link Organisation to Establishment--><g id="link_Organisation_Establishment"><path codeLine="50" d="M463.69,538.602 C507.75,538.602 557.01,538.602 609.66,538.602 " fill="none" id="Organisation-backto-Establishment" style="stroke:#181818;stroke-width:1.0;stroke-dasharray:7.0,7.0;"/><polygon fill="none" points="445.69,538.602,463.69,544.602,463.69,532.602,445.69,538.602" style="stroke:#181818;stroke-width:1.0;"/></g><!--reverse link DataProtectionAuthority to GdprDataProtectionAuthority--><g id="link_DataProtectionAuthority_GdprDataProtectionAuthority"><path codeLine="51" d="M500.4494,462.1138 C535.9494,460.8938 559.58,460.072 596.11,458.812 " fill="none" id="DataProtectionAuthority-backto-GdprDataProtectionAuthority" style="stroke:#181818;stroke-width:1.0;stroke-dasharray:7.0,7.0;"/><polygon fill="none" points="482.46,462.732,500.6555,468.1102,500.2433,456.1173,482.46,462.732" style="stroke:#181818;stroke-width:1.0;"/></g><!--reverse link Lawfulness to GDPRLawfulness--><g id="link_Lawfulness_GDPRLawfulness"><path codeLine="52" d="M457.4259,384.6004 C506.8259,382.0404 573.36,378.592 630.18,375.652 " fill="none" id="Lawfulness-backto-GDPRLawfulness" style="stroke:#181818;stroke-width:1.0;stroke-dasharray:7.0,7.0;"/><polygon fill="none" points="439.45,385.532,457.7364,390.5924,457.1154,378.6085,439.45,385.532" style="stroke:#181818;stroke-width:1.0;"/></g><!--reverse link Dpia to GdprDpia--><g id="link_Dpia_GdprDpia"><path codeLine="53" d="M435.5788,304.4834 C476.4888,302.0734 559.7,297.192 626.29,293.282 " fill="none" id="Dpia-backto-GdprDpia" style="stroke:#181818;stroke-width:1.0;stroke-dasharray:7.0,7.0;"/><polygon fill="none" points="417.61,305.542,435.9317,310.4731,435.226,298.4938,417.61,305.542" style="stroke:#181818;stroke-width:1.0;"/></g><!--reverse link LegalBasis to LegalBasesA6--><g id="link_LegalBasis_LegalBasesA6"><path codeLine="54" d="M430.724,995.8435 C453.274,1014.3835 480.69,1034.492 521,1052.602 C547.88,1064.672 578.8,1073.662 606.72,1080.152 " fill="none" id="LegalBasis-backto-LegalBasesA6" style="stroke:#181818;stroke-width:1.0;stroke-dasharray:7.0,7.0;"/><polygon fill="none" points="416.82,984.412,426.9135,1000.4781,434.5345,991.2088,416.82,984.412" style="stroke:#181818;stroke-width:1.0;"/></g><!--reverse link LegalBasis to LegalBasesSpecialA9--><g id="link_LegalBasis_LegalBasesSpecialA9"><path codeLine="55" d="M455.2409,975.761 C498.0009,980.491 550.99,986.352 606.65,992.502 " fill="none" id="LegalBasis-backto-LegalBasesSpecialA9" style="stroke:#181818;stroke-width:1.0;stroke-dasharray:7.0,7.0;"/><polygon fill="none" points="437.35,973.782,454.5812,981.7246,455.9006,969.7974,437.35,973.782" style="stroke:#181818;stroke-width:1.0;"/></g><!--reverse link LegalBasis to LegalBasesDataTransfersA45_49--><g id="link_LegalBasis_LegalBasesDataTransfersA45_49"><path codeLine="56" d="M454.8454,956.2197 C494.0754,946.7297 539.5,935.752 592.6,922.912 " fill="none" id="LegalBasis-backto-LegalBasesDataTransfersA45_49" style="stroke:#181818;stroke-width:1.0;stroke-dasharray:7.0,7.0;"/><polygon fill="none" points="437.35,960.452,456.2561,962.0515,453.4346,950.3879,437.35,960.452" style="stroke:#181818;stroke-width:1.0;"/></g><!--SRC=[dLPHJzim47wUVyKD7lQKL9fQ9APfKbWHgiH41Rm1cYw9ctYuJcGxRDMs_uxjf6dSff3s9Ofzzvs_-yu- -oCJ2QzI2aglE0rBZa9NIqu-gMScvYXn2Paigd8cSYgPHf5G-4muNMZG1KYMvHfI9ccYMI48AJ5vnen2Mhx0N_8XuQWKp6MHKANMmskQ8Rz0nTJ6mR1W9QVhYHkPeM0ARL3aFoYgIhR6AMgyg-9VPirRktuVgEjhbjSrlwZIUM6oMBLKyFUYug93Rbeo15HmCftFeXFotqifb4mzR_AQ6T8f5TfwDJb247Jo-m8vgiqGldNTUdDqY5wB3suL6mhO5itXtDz-LixdKcWZcE-qaQtEi1tkhjaZliEqeos8aT_PPqkZkuwKCeQbqTXtMojVkpO3u-9NYrlbGrg5MLfAMpQCbPOcBFWRaQhepDNyuI4CHmurejN8eaPCfFHFcEibFtqf4em3PmvYMyyWAOpCt-t7pK9iOpqA4ogb2oPe2l4AhgRpMuYa3k7iwUa4Jg-jw1Uyec_mkIjfmf17vqVHKZMwZbUJWaKXePb_50bgcXLo1IMLocuPI4sfzXC_7qpSblnUeb0B4paQJtwEZql1yWbq4sWxaKTXpR0sx-SzdWJZzxYt9qb5ay5KonRKmJkDrues7CjwppAHxMSvUOVXzj5L3ZgKgclHTH1GTPIwRVTkr05KrkMzBmf-61Mlg0sbjiRQXZk2qfLPgctQWrXOPzlT8IdCRLOUBSI5f9ZaDp5dcMkNwZ0XOWUlLMZ-Yqsi8PngAfTAey6ftBN9eHIeRUkCge1wS3_O2qfctWC7a77Lw6_xXrF31ch-QvasKI7Qs0vWPooToseeeQHObfovfu-7DcVypLNTiw3f3l3rN_2Geiff-XHuJOTids_VjVVqa_uRVmUuSrP9Urdk-EviPsyHtz_R9cHVmJt86pk3T5JrCLwzY3lckq7DBEayiZo7xXK_mAczTmVuzbnrv1K0]--></g></svg>