<svg xmlns="http://www.w3.org/2000/svg" xmlns:xlink="http://www.w3.org/1999/xlink" contentStyleType="text/css" height="522px" preserveAspectRatio="none" style="width:989px;height:522px;background:#FFFFFF;" version="1.1" viewBox="0 0 989 522" width="989px" zoomAndPan="magnify"><defs/><g><!--cluster dpv--><g id="cluster_dpv"><path d="M8.5,6.602 L35.8125,6.602 A3.75,3.75 0 0 1 38.3125,9.102 L45.3125,31.6699 L979.5,31.6699 A2.5,2.5 0 0 1 982,34.1699 L982,513.102 A2.5,2.5 0 0 1 979.5,515.602 L8.5,515.602 A2.5,2.5 0 0 1 6,513.102 L6,9.102 A2.5,2.5 0 0 1 8.5,6.602 " fill="none" style="stroke:#000000;stroke-width:1.5;"/><line style="stroke:#000000;stroke-width:1.5;" x1="6" x2="45.3125" y1="31.6699" y2="31.6699"/><text fill="#000000" font-family="sans-serif" font-size="14" font-weight="bold" lengthAdjust="spacing" textLength="26.3125" x="10" y="23.5679">dpv</text></g><!--cluster legal--><g id="cluster_legal"><path d="M32.5,268.602 L68.6875,268.602 A3.75,3.75 0 0 1 71.1875,271.102 L78.1875,293.6699 L955.5,293.6699 A2.5,2.5 0 0 1 958,296.1699 L958,489.102 A2.5,2.5 0 0 1 955.5,491.602 L32.5,491.602 A2.5,2.5 0 0 1 30,489.102 L30,271.102 A2.5,2.5 0 0 1 32.5,268.602 " fill="none" style="stroke:#000000;stroke-width:1.5;"/><line style="stroke:#000000;stroke-width:1.5;" x1="30" x2="78.1875" y1="293.6699" y2="293.6699"/><text fill="#000000" font-family="sans-serif" font-size="14" font-weight="bold" lengthAdjust="spacing" textLength="35.1875" x="34" y="285.5679">legal</text></g><!--cluster eu--><g id="cluster_eu"><path d="M56.5,314.602 L75.375,314.602 A3.75,3.75 0 0 1 77.875,317.102 L84.875,339.6699 L931.5,339.6699 A2.5,2.5 0 0 1 934,342.1699 L934,465.102 A2.5,2.5 0 0 1 931.5,467.602 L56.5,467.602 A2.5,2.5 0 0 1 54,465.102 L54,317.102 A2.5,2.5 0 0 1 56.5,314.602 " fill="none" style="stroke:#000000;stroke-width:1.5;"/><line style="stroke:#000000;stroke-width:1.5;" x1="54" x2="84.875" y1="339.6699" y2="339.6699"/><text fill="#000000" font-family="sans-serif" font-size="14" font-weight="bold" lengthAdjust="spacing" textLength="17.875" x="58" y="331.5679">eu</text></g><!--cluster gdpr--><g id="cluster_gdpr"><path d="M80.5,360.602 L116.25,360.602 A3.75,3.75 0 0 1 118.75,363.102 L125.75,385.6699 L907.5,385.6699 A2.5,2.5 0 0 1 910,388.1699 L910,441.102 A2.5,2.5 0 0 1 907.5,443.602 L80.5,443.602 A2.5,2.5 0 0 1 78,441.102 L78,363.102 A2.5,2.5 0 0 1 80.5,360.602 " fill="none" style="stroke:#000000;stroke-width:1.5;"/><line style="stroke:#000000;stroke-width:1.5;" x1="78" x2="125.75" y1="385.6699" y2="385.6699"/><text fill="#000000" font-family="sans-serif" font-size="14" font-weight="bold" lengthAdjust="spacing" textLength="34.75" x="82" y="377.5679">gdpr</text></g><!--class Process--><g id="elem_Process"><rect codeLine="5" fill="#F1F1F1" height="29.0679" id="Process" rx="2.5" ry="2.5" style="stroke:#181818;stroke-width:0.5;" width="57" x="469.5" y="44.602"/><text fill="#000000" font-family="sans-serif" font-size="14" lengthAdjust="spacing" textLength="51" x="472.5" y="64.5679">Process</text></g><!--class LegalBasis--><g id="elem_LegalBasis"><rect codeLine="6" fill="#F1F1F1" height="29.0679" id="LegalBasis" rx="2.5" ry="2.5" style="stroke:#181818;stroke-width:0.5;" width="77" x="459.5" y="172.602"/><text fill="#000000" font-family="sans-serif" font-size="14" lengthAdjust="spacing" textLength="71" x="462.5" y="192.5679">LegalBasis</text></g><polygon fill="none" points="498,201.6699,505,221.6699,491,221.6699" style="stroke:#181818;stroke-width:1.0;"/><line style="stroke:#181818;stroke-width:1.0;" x1="498" x2="498" y1="221.6699" y2="223.102"/><line style="stroke:#181818;stroke-width:1.0;" x1="498" x2="498" y1="172.602" y2="152.182"/><!--class A9_2_a--><g id="elem_A9_2_a"><rect codeLine="9" fill="#F1F1F1" height="29.0679" id="A9_2_a" rx="2.5" ry="2.5" style="stroke:#181818;stroke-width:0.5;" width="49" x="94.5" y="398.602"/><text fill="#000000" font-family="sans-serif" font-size="14" lengthAdjust="spacing" textLength="43" x="97.5" y="418.5679">A9-2-a</text></g><!--class A9_2_b--><g id="elem_A9_2_b"><rect codeLine="10" fill="#F1F1F1" height="29.0679" id="A9_2_b" rx="2.5" ry="2.5" style="stroke:#181818;stroke-width:0.5;" width="50" x="179" y="398.602"/><text fill="#000000" font-family="sans-serif" font-size="14" lengthAdjust="spacing" textLength="44" x="182" y="418.5679">A9-2-b</text></g><!--class A9_2_c--><g id="elem_A9_2_c"><rect codeLine="11" fill="#F1F1F1" height="29.0679" id="A9_2_c" rx="2.5" ry="2.5" style="stroke:#181818;stroke-width:0.5;" width="48" x="264" y="398.602"/><text fill="#000000" font-family="sans-serif" font-size="14" lengthAdjust="spacing" textLength="42" x="267" y="418.5679">A9-2-c</text></g><!--class A9_2_d--><g id="elem_A9_2_d"><rect codeLine="12" fill="#F1F1F1" height="29.0679" id="A9_2_d" rx="2.5" ry="2.5" style="stroke:#181818;stroke-width:0.5;" width="50" x="347" y="398.602"/><text fill="#000000" font-family="sans-serif" font-size="14" lengthAdjust="spacing" textLength="44" x="350" y="418.5679">A9-2-d</text></g><!--class A9_2_e--><g id="elem_A9_2_e"><rect codeLine="13" fill="#F1F1F1" height="29.0679" id="A9_2_e" rx="2.5" ry="2.5" style="stroke:#181818;stroke-width:0.5;" width="49" x="432.5" y="398.602"/><text fill="#000000" font-family="sans-serif" font-size="14" lengthAdjust="spacing" textLength="43" x="435.5" y="418.5679">A9-2-e</text></g><!--class A9_2_f--><g id="elem_A9_2_f"><rect codeLine="14" fill="#F1F1F1" height="29.0679" id="A9_2_f" rx="2.5" ry="2.5" style="stroke:#181818;stroke-width:0.5;" width="46" x="517" y="398.602"/><text fill="#000000" font-family="sans-serif" font-size="14" lengthAdjust="spacing" textLength="40" x="520" y="418.5679">A9-2-f</text></g><!--class A9_2_g--><g id="elem_A9_2_g"><rect codeLine="15" fill="#F1F1F1" height="29.0679" id="A9_2_g" rx="2.5" ry="2.5" style="stroke:#181818;stroke-width:0.5;" width="50" x="598" y="398.602"/><text fill="#000000" font-family="sans-serif" font-size="14" lengthAdjust="spacing" textLength="44" x="601" y="418.5679">A9-2-g</text></g><!--class A9_2_h--><g id="elem_A9_2_h"><rect codeLine="16" fill="#F1F1F1" height="29.0679" id="A9_2_h" rx="2.5" ry="2.5" style="stroke:#181818;stroke-width:0.5;" width="50" x="683" y="398.602"/><text fill="#000000" font-family="sans-serif" font-size="14" lengthAdjust="spacing" textLength="44" x="686" y="418.5679">A9-2-h</text></g><!--class A9_2_i--><g id="elem_A9_2_i"><rect codeLine="17" fill="#F1F1F1" height="29.0679" id="A9_2_i" rx="2.5" ry="2.5" style="stroke:#181818;stroke-width:0.5;" width="45" x="768.5" y="398.602"/><text fill="#000000" font-family="sans-serif" font-size="14" lengthAdjust="spacing" textLength="39" x="771.5" y="418.5679">A9-2-i</text></g><!--class A9_2_j--><g id="elem_A9_2_j"><rect codeLine="18" fill="#F1F1F1" height="29.0679" id="A9_2_j" rx="2.5" ry="2.5" style="stroke:#181818;stroke-width:0.5;" width="45" x="848.5" y="398.602"/><text fill="#000000" font-family="sans-serif" font-size="14" lengthAdjust="spacing" textLength="39" x="851.5" y="418.5679">A9-2-j</text></g><!--link Process to LegalBasis--><g id="link_Process_LegalBasis"><path codeLine="21" d="M498,74.072 C498,92.782 498,126.582 498,152.182 " fill="none" id="Process-LegalBasis" style="stroke:#181818;stroke-width:1.0;"/><polygon fill="#000000" points="503,118.455,505.9389,109.4099,500.0611,109.4099,503,118.455" style="stroke:#000000;stroke-width:1.0;"/><text fill="#000000" font-family="sans-serif" font-size="13" lengthAdjust="spacing" textLength="83" x="512" y="118.499">hasLegalBasis</text></g><!--reverse link LegalBasis to A9_2_a--><g id="link_LegalBasis_A9_2_a"><path codeLine="23" d="M498,223.102 C498,223.102 219.33,212.052 162,260.602 C120.48,295.762 117.53,367.802 118.27,398.142 " fill="none" id="LegalBasis-backto-A9_2_a" style="stroke:#181818;stroke-width:1.0;"/></g><!--reverse link LegalBasis to A9_2_b--><g id="link_LegalBasis_A9_2_b"><path codeLine="24" d="M498,223.102 C498,223.102 289.35,223.362 247,260.602 C206.14,296.532 202.82,368.152 203.37,398.262 " fill="none" id="LegalBasis-backto-A9_2_b" style="stroke:#181818;stroke-width:1.0;"/></g><!--reverse link LegalBasis to A9_2_c--><g id="link_LegalBasis_A9_2_c"><path codeLine="25" d="M498,223.102 C498,223.102 357.73,234.252 330,260.602 C290.63,298.022 287.09,368.812 287.46,398.482 " fill="none" id="LegalBasis-backto-A9_2_c" style="stroke:#181818;stroke-width:1.0;"/></g><!--reverse link LegalBasis to A9_2_d--><g id="link_LegalBasis_A9_2_d"><path codeLine="26" d="M498,223.102 C498,223.102 441.43,229.942 415,260.602 C379.83,301.392 373.33,369.122 372.19,398.172 " fill="none" id="LegalBasis-backto-A9_2_d" style="stroke:#181818;stroke-width:1.0;"/></g><!--reverse link LegalBasis to A9_2_e--><g id="link_LegalBasis_A9_2_e"><path codeLine="27" d="M498,223.102 C498,223.102 469.48,354.562 460.01,398.202 " fill="none" id="LegalBasis-backto-A9_2_e" style="stroke:#181818;stroke-width:1.0;"/></g><!--reverse link LegalBasis to A9_2_f--><g id="link_LegalBasis_A9_2_f"><path codeLine="28" d="M498,223.102 C498,223.102 527.21,354.562 536.91,398.202 " fill="none" id="LegalBasis-backto-A9_2_f" style="stroke:#181818;stroke-width:1.0;"/></g><!--reverse link LegalBasis to A9_2_g--><g id="link_LegalBasis_A9_2_g"><path codeLine="29" d="M498,223.102 C498,223.102 554.66,229.862 581,260.602 C615.98,301.432 622,369.142 622.91,398.172 " fill="none" id="LegalBasis-backto-A9_2_g" style="stroke:#181818;stroke-width:1.0;"/></g><!--reverse link LegalBasis to A9_2_h--><g id="link_LegalBasis_A9_2_h"><path codeLine="30" d="M498,223.102 C498,223.102 638.27,234.252 666,260.602 C705.37,298.022 708.91,368.812 708.54,398.482 " fill="none" id="LegalBasis-backto-A9_2_h" style="stroke:#181818;stroke-width:1.0;"/></g><!--reverse link LegalBasis to A9_2_i--><g id="link_LegalBasis_A9_2_i"><path codeLine="31" d="M498,223.102 C498,223.102 708.64,222.702 751,260.602 C791.34,296.702 793.14,368.222 791.93,398.282 " fill="none" id="LegalBasis-backto-A9_2_i" style="stroke:#181818;stroke-width:1.0;"/></g><!--reverse link LegalBasis to A9_2_j--><g id="link_LegalBasis_A9_2_j"><path codeLine="32" d="M498,223.102 C498,223.102 774.64,211.922 831,260.602 C871.97,295.992 873.41,367.902 872.03,398.182 " fill="none" id="LegalBasis-backto-A9_2_j" style="stroke:#181818;stroke-width:1.0;"/></g><!--SRC=[RT2nQiCm4CRnkNgAYtTxy9OG2kbMw90t26VfBCbH5A6p2w7DkpSbBMU1nll_fENR-AZ3OWXulWNgKi0uBvUW-EpZ4JDUmERhajwZe-ndZ9gWLogXFgCbCEaJljIB3iWCntpLnFn_Vf35y8RiMTtN7xhm2nqjdJKfo_V3zjIV492XEMpRliMca45aA4MBw5ACY2c5HAYKKMGinOhOKfo8AyMB-58caQbvBAJ-veEsNKst0uSi9xmgjRhstu_7pztgUQXdNS-cdgcUntgszUpgsTVpf7u0]--></g></svg>