<svg xmlns="http://www.w3.org/2000/svg" xmlns:xlink="http://www.w3.org/1999/xlink" contentStyleType="text/css" height="522px" preserveAspectRatio="none" style="width:1695px;height:522px;background:#FFFFFF;" version="1.1" viewBox="0 0 1695 522" width="1695px" zoomAndPan="magnify"><defs/><g><!--cluster dpv--><g id="cluster_dpv"><path d="M8.5,6.602 L35.8125,6.602 A3.75,3.75 0 0 1 38.3125,9.102 L45.3125,31.6699 L1685.5,31.6699 A2.5,2.5 0 0 1 1688,34.1699 L1688,513.102 A2.5,2.5 0 0 1 1685.5,515.602 L8.5,515.602 A2.5,2.5 0 0 1 6,513.102 L6,9.102 A2.5,2.5 0 0 1 8.5,6.602 " fill="none" style="stroke:#000000;stroke-width:1.5;"/><line style="stroke:#000000;stroke-width:1.5;" x1="6" x2="45.3125" y1="31.6699" y2="31.6699"/><text fill="#000000" font-family="sans-serif" font-size="14" font-weight="bold" lengthAdjust="spacing" textLength="26.3125" x="10" y="23.5679">dpv</text></g><!--cluster legal--><g id="cluster_legal"><path d="M32.5,268.602 L68.6875,268.602 A3.75,3.75 0 0 1 71.1875,271.102 L78.1875,293.6699 L1661.5,293.6699 A2.5,2.5 0 0 1 1664,296.1699 L1664,489.102 A2.5,2.5 0 0 1 1661.5,491.602 L32.5,491.602 A2.5,2.5 0 0 1 30,489.102 L30,271.102 A2.5,2.5 0 0 1 32.5,268.602 " fill="none" style="stroke:#000000;stroke-width:1.5;"/><line style="stroke:#000000;stroke-width:1.5;" x1="30" x2="78.1875" y1="293.6699" y2="293.6699"/><text fill="#000000" font-family="sans-serif" font-size="14" font-weight="bold" lengthAdjust="spacing" textLength="35.1875" x="34" y="285.5679">legal</text></g><!--cluster eu--><g id="cluster_eu"><path d="M56.5,314.602 L75.375,314.602 A3.75,3.75 0 0 1 77.875,317.102 L84.875,339.6699 L1637.5,339.6699 A2.5,2.5 0 0 1 1640,342.1699 L1640,465.102 A2.5,2.5 0 0 1 1637.5,467.602 L56.5,467.602 A2.5,2.5 0 0 1 54,465.102 L54,317.102 A2.5,2.5 0 0 1 56.5,314.602 " fill="none" style="stroke:#000000;stroke-width:1.5;"/><line style="stroke:#000000;stroke-width:1.5;" x1="54" x2="84.875" y1="339.6699" y2="339.6699"/><text fill="#000000" font-family="sans-serif" font-size="14" font-weight="bold" lengthAdjust="spacing" textLength="17.875" x="58" y="331.5679">eu</text></g><!--cluster gdpr--><g id="cluster_gdpr"><path d="M80.5,360.602 L116.25,360.602 A3.75,3.75 0 0 1 118.75,363.102 L125.75,385.6699 L1613.5,385.6699 A2.5,2.5 0 0 1 1616,388.1699 L1616,441.102 A2.5,2.5 0 0 1 1613.5,443.602 L80.5,443.602 A2.5,2.5 0 0 1 78,441.102 L78,363.102 A2.5,2.5 0 0 1 80.5,360.602 " fill="none" style="stroke:#000000;stroke-width:1.5;"/><line style="stroke:#000000;stroke-width:1.5;" x1="78" x2="125.75" y1="385.6699" y2="385.6699"/><text fill="#000000" font-family="sans-serif" font-size="14" font-weight="bold" lengthAdjust="spacing" textLength="34.75" x="82" y="377.5679">gdpr</text></g><!--class Process--><g id="elem_Process"><rect codeLine="5" fill="#F1F1F1" height="29.0679" id="Process" rx="2.5" ry="2.5" style="stroke:#181818;stroke-width:0.5;" width="57" x="818.5" y="44.602"/><text fill="#000000" font-family="sans-serif" font-size="14" lengthAdjust="spacing" textLength="51" x="821.5" y="64.5679">Process</text></g><!--class LegalBasis--><g id="elem_LegalBasis"><rect codeLine="6" fill="#F1F1F1" height="29.0679" id="LegalBasis" rx="2.5" ry="2.5" style="stroke:#181818;stroke-width:0.5;" width="77" x="808.5" y="172.602"/><text fill="#000000" font-family="sans-serif" font-size="14" lengthAdjust="spacing" textLength="71" x="811.5" y="192.5679">LegalBasis</text></g><polygon fill="none" points="847,201.6699,854,221.6699,840,221.6699" style="stroke:#181818;stroke-width:1.0;"/><line style="stroke:#181818;stroke-width:1.0;" x1="847" x2="847" y1="221.6699" y2="223.102"/><line style="stroke:#181818;stroke-width:1.0;" x1="847" x2="847" y1="172.602" y2="152.182"/><!--class A45_3--><g id="elem_A45_3"><rect codeLine="9" fill="#F1F1F1" height="29.0679" id="A45_3" rx="2.5" ry="2.5" style="stroke:#181818;stroke-width:0.5;" width="44" x="94" y="398.602"/><text fill="#000000" font-family="sans-serif" font-size="14" lengthAdjust="spacing" textLength="38" x="97" y="418.5679">A45-3</text></g><!--class A46_2_a--><g id="elem_A46_2_a"><rect codeLine="10" fill="#F1F1F1" height="29.0679" id="A46_2_a" rx="2.5" ry="2.5" style="stroke:#181818;stroke-width:0.5;" width="57" x="173.5" y="398.602"/><text fill="#000000" font-family="sans-serif" font-size="14" lengthAdjust="spacing" textLength="51" x="176.5" y="418.5679">A46-2-a</text></g><!--class A46_2_b--><g id="elem_A46_2_b"><rect codeLine="11" fill="#F1F1F1" height="29.0679" id="A46_2_b" rx="2.5" ry="2.5" style="stroke:#181818;stroke-width:0.5;" width="58" x="266" y="398.602"/><text fill="#000000" font-family="sans-serif" font-size="14" lengthAdjust="spacing" textLength="52" x="269" y="418.5679">A46-2-b</text></g><!--class A46_2_c--><g id="elem_A46_2_c"><rect codeLine="12" fill="#F1F1F1" height="29.0679" id="A46_2_c" rx="2.5" ry="2.5" style="stroke:#181818;stroke-width:0.5;" width="56" x="359" y="398.602"/><text fill="#000000" font-family="sans-serif" font-size="14" lengthAdjust="spacing" textLength="50" x="362" y="418.5679">A46-2-c</text></g><!--class A46_2_d--><g id="elem_A46_2_d"><rect codeLine="13" fill="#F1F1F1" height="29.0679" id="A46_2_d" rx="2.5" ry="2.5" style="stroke:#181818;stroke-width:0.5;" width="58" x="450" y="398.602"/><text fill="#000000" font-family="sans-serif" font-size="14" lengthAdjust="spacing" textLength="52" x="453" y="418.5679">A46-2-d</text></g><!--class A46_2_e--><g id="elem_A46_2_e"><rect codeLine="14" fill="#F1F1F1" height="29.0679" id="A46_2_e" rx="2.5" ry="2.5" style="stroke:#181818;stroke-width:0.5;" width="57" x="543.5" y="398.602"/><text fill="#000000" font-family="sans-serif" font-size="14" lengthAdjust="spacing" textLength="51" x="546.5" y="418.5679">A46-2-e</text></g><!--class A46_2_f--><g id="elem_A46_2_f"><rect codeLine="15" fill="#F1F1F1" height="29.0679" id="A46_2_f" rx="2.5" ry="2.5" style="stroke:#181818;stroke-width:0.5;" width="54" x="636" y="398.602"/><text fill="#000000" font-family="sans-serif" font-size="14" lengthAdjust="spacing" textLength="48" x="639" y="418.5679">A46-2-f</text></g><!--class A46_3_a--><g id="elem_A46_3_a"><rect codeLine="16" fill="#F1F1F1" height="29.0679" id="A46_3_a" rx="2.5" ry="2.5" style="stroke:#181818;stroke-width:0.5;" width="57" x="725.5" y="398.602"/><text fill="#000000" font-family="sans-serif" font-size="14" lengthAdjust="spacing" textLength="51" x="728.5" y="418.5679">A46-3-a</text></g><!--class A46_3_b--><g id="elem_A46_3_b"><rect codeLine="17" fill="#F1F1F1" height="29.0679" id="A46_3_b" rx="2.5" ry="2.5" style="stroke:#181818;stroke-width:0.5;" width="58" x="818" y="398.602"/><text fill="#000000" font-family="sans-serif" font-size="14" lengthAdjust="spacing" textLength="52" x="821" y="418.5679">A46-3-b</text></g><!--class A49_1_a--><g id="elem_A49_1_a"><rect codeLine="18" fill="#F1F1F1" height="29.0679" id="A49_1_a" rx="2.5" ry="2.5" style="stroke:#181818;stroke-width:0.5;" width="57" x="911.5" y="398.602"/><text fill="#000000" font-family="sans-serif" font-size="14" lengthAdjust="spacing" textLength="51" x="914.5" y="418.5679">A49-1-a</text></g><!--class A49_1_b--><g id="elem_A49_1_b"><rect codeLine="19" fill="#F1F1F1" height="29.0679" id="A49_1_b" rx="2.5" ry="2.5" style="stroke:#181818;stroke-width:0.5;" width="58" x="1004" y="398.602"/><text fill="#000000" font-family="sans-serif" font-size="14" lengthAdjust="spacing" textLength="52" x="1007" y="418.5679">A49-1-b</text></g><!--class A49_1_c--><g id="elem_A49_1_c"><rect codeLine="20" fill="#F1F1F1" height="29.0679" id="A49_1_c" rx="2.5" ry="2.5" style="stroke:#181818;stroke-width:0.5;" width="56" x="1097" y="398.602"/><text fill="#000000" font-family="sans-serif" font-size="14" lengthAdjust="spacing" textLength="50" x="1100" y="418.5679">A49-1-c</text></g><!--class A49_1_d--><g id="elem_A49_1_d"><rect codeLine="21" fill="#F1F1F1" height="29.0679" id="A49_1_d" rx="2.5" ry="2.5" style="stroke:#181818;stroke-width:0.5;" width="58" x="1188" y="398.602"/><text fill="#000000" font-family="sans-serif" font-size="14" lengthAdjust="spacing" textLength="52" x="1191" y="418.5679">A49-1-d</text></g><!--class A49_1_e--><g id="elem_A49_1_e"><rect codeLine="22" fill="#F1F1F1" height="29.0679" id="A49_1_e" rx="2.5" ry="2.5" style="stroke:#181818;stroke-width:0.5;" width="57" x="1281.5" y="398.602"/><text fill="#000000" font-family="sans-serif" font-size="14" lengthAdjust="spacing" textLength="51" x="1284.5" y="418.5679">A49-1-e</text></g><!--class A49_1_f--><g id="elem_A49_1_f"><rect codeLine="23" fill="#F1F1F1" height="29.0679" id="A49_1_f" rx="2.5" ry="2.5" style="stroke:#181818;stroke-width:0.5;" width="54" x="1374" y="398.602"/><text fill="#000000" font-family="sans-serif" font-size="14" lengthAdjust="spacing" textLength="48" x="1377" y="418.5679">A49-1-f</text></g><!--class A49_1_g--><g id="elem_A49_1_g"><rect codeLine="24" fill="#F1F1F1" height="29.0679" id="A49_1_g" rx="2.5" ry="2.5" style="stroke:#181818;stroke-width:0.5;" width="58" x="1463" y="398.602"/><text fill="#000000" font-family="sans-serif" font-size="14" lengthAdjust="spacing" textLength="52" x="1466" y="418.5679">A49-1-g</text></g><!--class A49_2--><g id="elem_A49_2"><rect codeLine="25" fill="#F1F1F1" height="29.0679" id="A49_2" rx="2.5" ry="2.5" style="stroke:#181818;stroke-width:0.5;" width="44" x="1556" y="398.602"/><text fill="#000000" font-family="sans-serif" font-size="14" lengthAdjust="spacing" textLength="38" x="1559" y="418.5679">A49-2</text></g><!--link Process to LegalBasis--><g id="link_Process_LegalBasis"><path codeLine="28" d="M847,74.072 C847,92.782 847,126.582 847,152.182 " fill="none" id="Process-LegalBasis" style="stroke:#181818;stroke-width:1.0;"/><polygon fill="#000000" points="852,118.455,854.9389,109.4099,849.0611,109.4099,852,118.455" style="stroke:#000000;stroke-width:1.0;"/><text fill="#000000" font-family="sans-serif" font-size="13" lengthAdjust="spacing" textLength="83" x="861" y="118.499">hasLegalBasis</text></g><!--reverse link LegalBasis to A45_3--><g id="link_LegalBasis_A45_3"><path codeLine="30" d="M847,223.102 C847,223.102 214.83,211.102 156,260.602 C114.37,295.632 113.37,368.392 114.93,398.552 " fill="none" id="LegalBasis-backto-A45_3" style="stroke:#181818;stroke-width:1.0;"/></g><!--reverse link LegalBasis to A46_2_a--><g id="link_LegalBasis_A46_2_a"><path codeLine="31" d="M847,223.102 C847,223.102 300.86,218.862 249,260.602 C206.1,295.142 201.54,368.182 201.6,398.482 " fill="none" id="LegalBasis-backto-A46_2_a" style="stroke:#181818;stroke-width:1.0;"/></g><!--reverse link LegalBasis to A46_2_b--><g id="link_LegalBasis_A46_2_b"><path codeLine="32" d="M847,223.102 C847,223.102 385.8,225.282 342,260.602 C299.12,295.172 294.56,368.192 294.61,398.492 " fill="none" id="LegalBasis-backto-A46_2_b" style="stroke:#181818;stroke-width:1.0;"/></g><!--reverse link LegalBasis to A46_2_c--><g id="link_LegalBasis_A46_2_c"><path codeLine="33" d="M847,223.102 C847,223.102 468.82,231.442 433,260.602 C390.37,295.312 386.27,368.252 386.52,398.512 " fill="none" id="LegalBasis-backto-A46_2_c" style="stroke:#181818;stroke-width:1.0;"/></g><!--reverse link LegalBasis to A46_2_d--><g id="link_LegalBasis_A46_2_d"><path codeLine="34" d="M847,223.102 C847,223.102 581.25,214.712 526,260.602 C483.84,295.622 478.83,367.742 478.68,398.122 " fill="none" id="LegalBasis-backto-A46_2_d" style="stroke:#181818;stroke-width:1.0;"/></g><!--reverse link LegalBasis to A46_2_e--><g id="link_LegalBasis_A46_2_e"><path codeLine="35" d="M847,223.102 C847,223.102 657.72,226.882 619,260.602 C577.67,296.592 572.2,368.172 571.81,398.272 " fill="none" id="LegalBasis-backto-A46_2_e" style="stroke:#181818;stroke-width:1.0;"/></g><!--reverse link LegalBasis to A46_2_f--><g id="link_LegalBasis_A46_2_f"><path codeLine="36" d="M847,223.102 C847,223.102 753.81,215.932 708,260.602 C669.1,298.532 663.46,368.412 662.89,398.132 " fill="none" id="LegalBasis-backto-A46_2_f" style="stroke:#181818;stroke-width:1.0;"/></g><!--reverse link LegalBasis to A46_3_a--><g id="link_LegalBasis_A46_3_a"><path codeLine="37" d="M847,223.102 C847,223.102 815.76,238.742 801,260.602 C770.8,305.342 759.29,370.382 755.56,398.412 " fill="none" id="LegalBasis-backto-A46_3_a" style="stroke:#181818;stroke-width:1.0;"/></g><!--reverse link LegalBasis to A46_3_b--><g id="link_LegalBasis_A46_3_b"><path codeLine="38" d="M847,223.102 C847,223.102 847,354.562 847,398.202 " fill="none" id="LegalBasis-backto-A46_3_b" style="stroke:#181818;stroke-width:1.0;"/></g><!--reverse link LegalBasis to A49_1_a--><g id="link_LegalBasis_A49_1_a"><path codeLine="39" d="M847,223.102 C847,223.102 879,238.492 894,260.602 C924.25,305.192 935.14,370.312 938.59,398.382 " fill="none" id="LegalBasis-backto-A49_1_a" style="stroke:#181818;stroke-width:1.0;"/></g><!--reverse link LegalBasis to A49_1_b--><g id="link_LegalBasis_A49_1_b"><path codeLine="40" d="M847,223.102 C847,223.102 939.92,216.212 986,260.602 C1025.27,298.432 1031.91,368.372 1032.9,398.122 " fill="none" id="LegalBasis-backto-A49_1_b" style="stroke:#181818;stroke-width:1.0;"/></g><!--reverse link LegalBasis to A49_1_c--><g id="link_LegalBasis_A49_1_c"><path codeLine="41" d="M847,223.102 C847,223.102 1040.6,225.992 1080,260.602 C1121.02,296.642 1125.46,368.192 1125.4,398.272 " fill="none" id="LegalBasis-backto-A49_1_c" style="stroke:#181818;stroke-width:1.0;"/></g><!--reverse link LegalBasis to A49_1_d--><g id="link_LegalBasis_A49_1_d"><path codeLine="42" d="M847,223.102 C847,223.102 1115.36,214.152 1171,260.602 C1212.99,295.662 1217.5,367.762 1217.42,398.132 " fill="none" id="LegalBasis-backto-A49_1_d" style="stroke:#181818;stroke-width:1.0;"/></g><!--reverse link LegalBasis to A49_1_e--><g id="link_LegalBasis_A49_1_e"><path codeLine="43" d="M847,223.102 C847,223.102 1227.95,231.192 1264,260.602 C1306.6,295.352 1310.71,368.272 1310.47,398.512 " fill="none" id="LegalBasis-backto-A49_1_e" style="stroke:#181818;stroke-width:1.0;"/></g><!--reverse link LegalBasis to A49_1_f--><g id="link_LegalBasis_A49_1_f"><path codeLine="44" d="M847,223.102 C847,223.102 1312.05,224.762 1356,260.602 C1398.52,295.282 1402.07,368.242 1401.59,398.502 " fill="none" id="LegalBasis-backto-A49_1_f" style="stroke:#181818;stroke-width:1.0;"/></g><!--reverse link LegalBasis to A49_1_g--><g id="link_LegalBasis_A49_1_g"><path codeLine="45" d="M847,223.102 C847,223.102 1394.23,218.562 1446,260.602 C1488.68,295.252 1492.75,368.232 1492.49,398.502 " fill="none" id="LegalBasis-backto-A49_1_g" style="stroke:#181818;stroke-width:1.0;"/></g><!--reverse link LegalBasis to A49_2--><g id="link_LegalBasis_A49_2"><path codeLine="46" d="M847,223.102 C847,223.102 1480.23,210.842 1539,260.602 C1580.25,295.532 1580.93,367.702 1579.2,398.112 " fill="none" id="LegalBasis-backto-A49_2" style="stroke:#181818;stroke-width:1.0;"/></g><!--SRC=[TT9HIyCm4C3nP_CfOjzJMAE3YGZw9lYmRr2koIKhoxhIj8AetzskpFKQUc_D_zU3W-I-RamOBChOVmNCsm1DFvo2YCUwsKC79-cxyz2-DmViwXuQWx8GeWLp18_Ijf_oMzoP037AVNSs6EF_yGCzX3U8THI_T20F5yXnoBrjktdyzU6nr1AYpCOlfREvRykYXAjiLQ4WiOfObPWXPXApn6nYI0mJSyJSmZJPKoTxQhAdNkovApUtkPtQBEOkLX5BvmmnavWbPXD3OfYO8-OIyyJymegR5Dbuu-Bw7AHIv2ayoGF4-IXVX22dvv_nv-aThDJf5J2zOhfXkcKwCjsjTitierVtcMwPwTp_XkcMwSXqntI_sWln1m00]--></g></svg>