<svg xmlns="http://www.w3.org/2000/svg" xmlns:xlink="http://www.w3.org/1999/xlink" contentStyleType="text/css" height="612px" preserveAspectRatio="none" style="width:583px;height:612px;background:#FFFFFF;" version="1.1" viewBox="0 0 583 612" width="583px" zoomAndPan="magnify"><defs/><g><rect fill="#F1F1F1" height="39.0679" rx="12.5" ry="12.5" style="stroke:#181818;stroke-width:1.5;" width="85" x="332" y="285.8056"/><text fill="#000000" font-family="sans-serif" font-size="14" lengthAdjust="spacing" textLength="65" x="342" y="310.7716">dpv:Right</text><rect fill="#F1F1F1" height="39.0679" rx="12.5" ry="12.5" style="stroke:#181818;stroke-width:1.5;" width="104" x="467" y="20"/><text fill="#000000" font-family="sans-serif" font-size="14" lengthAdjust="spacing" textLength="84" x="477" y="44.9659">eu-gdpr:A13</text><path d="M417,305.3396 L427,305.3396 C442,305.3396 442,39.534 457,39.534 L467,39.534 " fill="none" style="stroke:#181818;stroke-width:1.0;"/><rect fill="#F1F1F1" height="39.0679" rx="12.5" ry="12.5" style="stroke:#181818;stroke-width:1.5;" width="104" x="467" y="79.0679"/><text fill="#000000" font-family="sans-serif" font-size="14" lengthAdjust="spacing" textLength="84" x="477" y="104.0339">eu-gdpr:A14</text><path d="M417,305.3396 L427,305.3396 C442,305.3396 442,98.6019 457,98.6019 L467,98.6019 " fill="none" style="stroke:#181818;stroke-width:1.0;"/><rect fill="#F1F1F1" height="39.0679" rx="12.5" ry="12.5" style="stroke:#181818;stroke-width:1.5;" width="104" x="467" y="138.1358"/><text fill="#000000" font-family="sans-serif" font-size="14" lengthAdjust="spacing" textLength="84" x="477" y="163.1018">eu-gdpr:A15</text><path d="M417,305.3396 L427,305.3396 C442,305.3396 442,157.6698 457,157.6698 L467,157.6698 " fill="none" style="stroke:#181818;stroke-width:1.0;"/><rect fill="#F1F1F1" height="39.0679" rx="12.5" ry="12.5" style="stroke:#181818;stroke-width:1.5;" width="104" x="467" y="197.2038"/><text fill="#000000" font-family="sans-serif" font-size="14" lengthAdjust="spacing" textLength="84" x="477" y="222.1697">eu-gdpr:A16</text><path d="M417,305.3396 L427,305.3396 C442,305.3396 442,216.7377 457,216.7377 L467,216.7377 " fill="none" style="stroke:#181818;stroke-width:1.0;"/><rect fill="#F1F1F1" height="39.0679" rx="12.5" ry="12.5" style="stroke:#181818;stroke-width:1.5;" width="104" x="467" y="256.2717"/><text fill="#000000" font-family="sans-serif" font-size="14" lengthAdjust="spacing" textLength="84" x="477" y="281.2376">eu-gdpr:A17</text><path d="M417,305.3396 L427,305.3396 C442,305.3396 442,275.8056 457,275.8056 L467,275.8056 " fill="none" style="stroke:#181818;stroke-width:1.0;"/><rect fill="#F1F1F1" height="39.0679" rx="12.5" ry="12.5" style="stroke:#181818;stroke-width:1.5;" width="104" x="467" y="315.3396"/><text fill="#000000" font-family="sans-serif" font-size="14" lengthAdjust="spacing" textLength="84" x="477" y="340.3055">eu-gdpr:A18</text><path d="M417,305.3396 L427,305.3396 C442,305.3396 442,334.8735 457,334.8735 L467,334.8735 " fill="none" style="stroke:#181818;stroke-width:1.0;"/><rect fill="#F1F1F1" height="39.0679" rx="12.5" ry="12.5" style="stroke:#181818;stroke-width:1.5;" width="104" x="467" y="374.4075"/><text fill="#000000" font-family="sans-serif" font-size="14" lengthAdjust="spacing" textLength="84" x="477" y="399.3734">eu-gdpr:A19</text><path d="M417,305.3396 L427,305.3396 C442,305.3396 442,393.9415 457,393.9415 L467,393.9415 " fill="none" style="stroke:#181818;stroke-width:1.0;"/><rect fill="#F1F1F1" height="39.0679" rx="12.5" ry="12.5" style="stroke:#181818;stroke-width:1.5;" width="104" x="467" y="433.4754"/><text fill="#000000" font-family="sans-serif" font-size="14" lengthAdjust="spacing" textLength="84" x="477" y="458.4414">eu-gdpr:A20</text><path d="M417,305.3396 L427,305.3396 C442,305.3396 442,453.0094 457,453.0094 L467,453.0094 " fill="none" style="stroke:#181818;stroke-width:1.0;"/><rect fill="#F1F1F1" height="39.0679" rx="12.5" ry="12.5" style="stroke:#181818;stroke-width:1.5;" width="104" x="467" y="492.5433"/><text fill="#000000" font-family="sans-serif" font-size="14" lengthAdjust="spacing" textLength="84" x="477" y="517.5093">eu-gdpr:A21</text><path d="M417,305.3396 L427,305.3396 C442,305.3396 442,512.0773 457,512.0773 L467,512.0773 " fill="none" style="stroke:#181818;stroke-width:1.0;"/><rect fill="#F1F1F1" height="39.0679" rx="12.5" ry="12.5" style="stroke:#181818;stroke-width:1.5;" width="104" x="467" y="551.6113"/><text fill="#000000" font-family="sans-serif" font-size="14" lengthAdjust="spacing" textLength="84" x="477" y="576.5772">eu-gdpr:A22</text><path d="M417,305.3396 L427,305.3396 C442,305.3396 442,571.1452 457,571.1452 L467,571.1452 " fill="none" style="stroke:#181818;stroke-width:1.0;"/><rect fill="#F1F1F1" height="39.0679" rx="12.5" ry="12.5" style="stroke:#181818;stroke-width:1.5;" width="109" x="173" y="138.1358"/><text fill="#000000" font-family="sans-serif" font-size="14" lengthAdjust="spacing" textLength="89" x="183" y="163.1018">eu-gdpr:A7-3</text><path d="M332,305.3396 L322,305.3396 C307,305.3396 307,157.6698 292,157.6698 L282,157.6698 " fill="none" style="stroke:#181818;stroke-width:1.0;"/><rect fill="#F1F1F1" height="39.0679" rx="12.5" ry="12.5" style="stroke:#181818;stroke-width:1.5;" width="104" x="178" y="197.2038"/><text fill="#000000" font-family="sans-serif" font-size="14" lengthAdjust="spacing" textLength="84" x="188" y="222.1697">eu-gdpr:A77</text><path d="M332,305.3396 L322,305.3396 C307,305.3396 307,216.7377 292,216.7377 L282,216.7377 " fill="none" style="stroke:#181818;stroke-width:1.0;"/><rect fill="#F1F1F1" height="39.0679" rx="12.5" ry="12.5" style="stroke:#181818;stroke-width:1.5;" width="259" x="23" y="256.2717"/><text fill="#000000" font-family="sans-serif" font-size="14" lengthAdjust="spacing" textLength="239" x="33" y="281.2376">eu-gdpr:DirectDataCollectionNotice</text><path d="M332,305.3396 L322,305.3396 C307,305.3396 307,275.8056 292,275.8056 L282,275.8056 " fill="none" style="stroke:#181818;stroke-width:1.0;"/><rect fill="#F1F1F1" height="39.0679" rx="12.5" ry="12.5" style="stroke:#181818;stroke-width:1.5;" width="272" x="10" y="315.3396"/><text fill="#000000" font-family="sans-serif" font-size="14" lengthAdjust="spacing" textLength="252" x="20" y="340.3055">eu-gdpr:IndirectDataCollectionNotice</text><path d="M332,305.3396 L322,305.3396 C307,305.3396 307,334.8735 292,334.8735 L282,334.8735 " fill="none" style="stroke:#181818;stroke-width:1.0;"/><rect fill="#F1F1F1" height="39.0679" rx="12.5" ry="12.5" style="stroke:#181818;stroke-width:1.5;" width="235" x="47" y="374.4075"/><text fill="#000000" font-family="sans-serif" font-size="14" lengthAdjust="spacing" textLength="215" x="57" y="399.3734">eu-gdpr:RightsRecipientsNotice</text><path d="M332,305.3396 L322,305.3396 C307,305.3396 307,393.9415 292,393.9415 L282,393.9415 " fill="none" style="stroke:#181818;stroke-width:1.0;"/><rect fill="#F1F1F1" height="39.0679" rx="12.5" ry="12.5" style="stroke:#181818;stroke-width:1.5;" width="148" x="134" y="433.4754"/><text fill="#000000" font-family="sans-serif" font-size="14" lengthAdjust="spacing" textLength="128" x="144" y="458.4414">eu-gdpr:SARNotice</text><path d="M332,305.3396 L322,305.3396 C307,305.3396 307,453.0094 292,453.0094 L282,453.0094 " fill="none" style="stroke:#181818;stroke-width:1.0;"/><!--SRC=[xP9DJy9048Rl-ol66uIKqF9fJo158u8I2jpNTYYJRBVDVf3mxrrK0Xil7ZnwcsVctScRTtQi3LUc99cNl6Pt93DXSmHjJWBRjU3Is5Am5kJrCLvJSJ2irGAqGP7NAfw4NHzxFlPz7FWuz77auxs7KSV7qCU81S4LXq7Nv-4j9gGmCmatV5e9uKggv6jbACDRrRFCVwNxp4IlCQEQK1hzKv5Erj_DCRgKlvDcOo_u0xdGzuGYrrzrYUPGNI0ZbGdKxFyEVt-7rVcFRvSBEABIRZM4xQWJzThzHcebBFa9eW64OHpsu_u8fhDq0-TvapMULWlGbLKPGaxQA7gtPszDDkT73cih3PKOmrkDSfwyN1emaqTIbIoTIpRVBQ-2GIzu80CfAcS5TakMu9vROToBhCf95Z5iDu_1Y2suB2mlt6wKR5gvlUhaPka7]--></g></svg>