<svg xmlns="http://www.w3.org/2000/svg" xmlns:xlink="http://www.w3.org/1999/xlink" contentStyleType="text/css" height="544px" preserveAspectRatio="none" style="width:2095px;height:544px;background:#FFFFFF;" version="1.1" viewBox="0 0 2095 544" width="2095px" zoomAndPan="magnify"><defs/><g><!--cluster dpv--><g id="cluster_dpv"><path d="M8.5,6.602 L35.8125,6.602 A3.75,3.75 0 0 1 38.3125,9.102 L45.3125,31.6699 L2085.5,31.6699 A2.5,2.5 0 0 1 2088,34.1699 L2088,535.102 A2.5,2.5 0 0 1 2085.5,537.602 L8.5,537.602 A2.5,2.5 0 0 1 6,535.102 L6,9.102 A2.5,2.5 0 0 1 8.5,6.602 " fill="none" style="stroke:#000000;stroke-width:1.5;"/><line style="stroke:#000000;stroke-width:1.5;" x1="6" x2="45.3125" y1="31.6699" y2="31.6699"/><text fill="#000000" font-family="sans-serif" font-size="14" font-weight="bold" lengthAdjust="spacing" textLength="26.3125" x="10" y="23.5679">dpv</text></g><!--cluster legal--><g id="cluster_legal"><path d="M32.5,160.602 L68.6875,160.602 A3.75,3.75 0 0 1 71.1875,163.102 L78.1875,185.6699 L2061.5,185.6699 A2.5,2.5 0 0 1 2064,188.1699 L2064,511.102 A2.5,2.5 0 0 1 2061.5,513.602 L32.5,513.602 A2.5,2.5 0 0 1 30,511.102 L30,163.102 A2.5,2.5 0 0 1 32.5,160.602 " fill="none" style="stroke:#000000;stroke-width:1.5;"/><line style="stroke:#000000;stroke-width:1.5;" x1="30" x2="78.1875" y1="185.6699" y2="185.6699"/><text fill="#000000" font-family="sans-serif" font-size="14" font-weight="bold" lengthAdjust="spacing" textLength="35.1875" x="34" y="177.5679">legal</text></g><!--cluster eu--><g id="cluster_eu"><path d="M56.5,206.602 L75.375,206.602 A3.75,3.75 0 0 1 77.875,209.102 L84.875,231.6699 L2037.5,231.6699 A2.5,2.5 0 0 1 2040,234.1699 L2040,487.102 A2.5,2.5 0 0 1 2037.5,489.602 L56.5,489.602 A2.5,2.5 0 0 1 54,487.102 L54,209.102 A2.5,2.5 0 0 1 56.5,206.602 " fill="none" style="stroke:#000000;stroke-width:1.5;"/><line style="stroke:#000000;stroke-width:1.5;" x1="54" x2="84.875" y1="231.6699" y2="231.6699"/><text fill="#000000" font-family="sans-serif" font-size="14" font-weight="bold" lengthAdjust="spacing" textLength="17.875" x="58" y="223.5679">eu</text></g><!--cluster gdpr--><g id="cluster_gdpr"><path d="M80.5,252.602 L116.25,252.602 A3.75,3.75 0 0 1 118.75,255.102 L125.75,277.6699 L2013.5,277.6699 A2.5,2.5 0 0 1 2016,280.1699 L2016,463.102 A2.5,2.5 0 0 1 2013.5,465.602 L80.5,465.602 A2.5,2.5 0 0 1 78,463.102 L78,255.102 A2.5,2.5 0 0 1 80.5,252.602 " fill="none" style="stroke:#000000;stroke-width:1.5;"/><line style="stroke:#000000;stroke-width:1.5;" x1="78" x2="125.75" y1="277.6699" y2="277.6699"/><text fill="#000000" font-family="sans-serif" font-size="14" font-weight="bold" lengthAdjust="spacing" textLength="34.75" x="82" y="269.5679">gdpr</text></g><!--class Process--><g id="elem_Process"><rect codeLine="6" fill="#F1F1F1" height="29.0679" id="Process" rx="2.5" ry="2.5" style="stroke:#181818;stroke-width:0.5;" width="57" x="833.5" y="64.602"/><text fill="#000000" font-family="sans-serif" font-size="14" lengthAdjust="spacing" textLength="51" x="836.5" y="84.5679">Process</text></g><!--class LegalBasis--><g id="elem_LegalBasis"><rect codeLine="7" fill="#F1F1F1" height="29.0679" id="LegalBasis" rx="2.5" ry="2.5" style="stroke:#181818;stroke-width:0.5;" width="77" x="1043.5" y="64.602"/><text fill="#000000" font-family="sans-serif" font-size="14" lengthAdjust="spacing" textLength="71" x="1046.5" y="84.5679">LegalBasis</text></g><polygon fill="none" points="1082.4041,93.6699,1089.9573,113.4676,1075.9627,113.8567" style="stroke:#181818;stroke-width:1.0;"/><line style="stroke:#181818;stroke-width:1.0;" x1="1082.96" x2="1083" y1="113.6622" y2="115.102"/><line style="stroke:#181818;stroke-width:1.0;" x1="1043.5" x2="1023.03" y1="79.1138" y2="79.102"/><!--class A6_1_a--><g id="elem_A6_1_a"><rect codeLine="10" fill="#F1F1F1" height="29.0679" id="A6_1_a" rx="2.5" ry="2.5" style="stroke:#181818;stroke-width:0.5;" width="49" x="360.5" y="310.602"/><text fill="#000000" font-family="sans-serif" font-size="14" lengthAdjust="spacing" textLength="43" x="363.5" y="330.5679">A6-1-a</text></g><polygon fill="none" points="376.5139,339.6699,372.4743,360.4709,360.3843,353.4118" style="stroke:#181818;stroke-width:1.0;"/><line style="stroke:#181818;stroke-width:1.0;" x1="366.4293" x2="364" y1="356.9413" y2="361.102"/><line style="stroke:#181818;stroke-width:1.0;" x1="409.5" x2="429.91" y1="311.2335" y2="299.652"/><!--class A6_1_a_explicit_consent--><g id="elem_A6_1_a_explicit_consent"><rect codeLine="11" fill="#F1F1F1" height="29.0679" id="A6_1_a_explicit_consent" rx="2.5" ry="2.5" style="stroke:#181818;stroke-width:0.5;" width="160" x="94" y="420.602"/><text fill="#000000" font-family="sans-serif" font-size="14" lengthAdjust="spacing" textLength="154" x="97" y="440.5679">A6-1-a-explicit-consent</text></g><!--class A6_1_a_non_explicit_consent--><g id="elem_A6_1_a_non_explicit_consent"><rect codeLine="12" fill="#F1F1F1" height="29.0679" id="A6_1_a_non_explicit_consent" rx="2.5" ry="2.5" style="stroke:#181818;stroke-width:0.5;" width="191" x="289.5" y="420.602"/><text fill="#000000" font-family="sans-serif" font-size="14" lengthAdjust="spacing" textLength="185" x="292.5" y="440.5679">A6-1-a-non-explicit-consent</text></g><!--class A6_1_b--><g id="elem_A6_1_b"><rect codeLine="13" fill="#F1F1F1" height="29.0679" id="A6_1_b" rx="2.5" ry="2.5" style="stroke:#181818;stroke-width:0.5;" width="50" x="819" y="310.602"/><text fill="#000000" font-family="sans-serif" font-size="14" lengthAdjust="spacing" textLength="44" x="822" y="330.5679">A6-1-b</text></g><polygon fill="none" points="835.1098,339.6699,830.645,360.3838,818.7021,353.0785" style="stroke:#181818;stroke-width:1.0;"/><line style="stroke:#181818;stroke-width:1.0;" x1="824.6736" x2="822" y1="356.7312" y2="361.102"/><line style="stroke:#181818;stroke-width:1.0;" x1="852.8149" x2="865.23" y1="310.602" y2="290.132"/><!--class A6_1_b_contract_performance--><g id="elem_A6_1_b_contract_performance"><rect codeLine="14" fill="#F1F1F1" height="29.0679" id="A6_1_b_contract_performance" rx="2.5" ry="2.5" style="stroke:#181818;stroke-width:0.5;" width="202" x="516" y="420.602"/><text fill="#000000" font-family="sans-serif" font-size="14" lengthAdjust="spacing" textLength="196" x="519" y="440.5679">A6-1-b-contract-performance</text></g><!--class A6_1_b_enter_into_contract--><g id="elem_A6_1_b_enter_into_contract"><rect codeLine="15" fill="#F1F1F1" height="29.0679" id="A6_1_b_enter_into_contract" rx="2.5" ry="2.5" style="stroke:#181818;stroke-width:0.5;" width="182" x="753" y="420.602"/><text fill="#000000" font-family="sans-serif" font-size="14" lengthAdjust="spacing" textLength="176" x="756" y="440.5679">A6-1-b-enter-into-contract</text></g><!--class A6_1_c--><g id="elem_A6_1_c"><rect codeLine="16" fill="#F1F1F1" height="29.0679" id="A6_1_c" rx="2.5" ry="2.5" style="stroke:#181818;stroke-width:0.5;" width="48" x="1006" y="310.602"/><text fill="#000000" font-family="sans-serif" font-size="14" lengthAdjust="spacing" textLength="42" x="1009" y="330.5679">A6-1-c</text></g><!--class A6_1_d--><g id="elem_A6_1_d"><rect codeLine="17" fill="#F1F1F1" height="29.0679" id="A6_1_d" rx="2.5" ry="2.5" style="stroke:#181818;stroke-width:0.5;" width="50" x="1109" y="310.602"/><text fill="#000000" font-family="sans-serif" font-size="14" lengthAdjust="spacing" textLength="44" x="1112" y="330.5679">A6-1-d</text></g><polygon fill="none" points="1134,339.6699,1141,359.6699,1127,359.6699" style="stroke:#181818;stroke-width:1.0;"/><line style="stroke:#181818;stroke-width:1.0;" x1="1134" x2="1134" y1="359.6699" y2="361.102"/><line style="stroke:#181818;stroke-width:1.0;" x1="1130.5611" x2="1125.81" y1="310.602" y2="290.522"/><!--class A6_1_d_data_subject--><g id="elem_A6_1_d_data_subject"><rect codeLine="18" fill="#F1F1F1" height="29.0679" id="A6_1_d_data_subject" rx="2.5" ry="2.5" style="stroke:#181818;stroke-width:0.5;" width="139" x="970.5" y="420.602"/><text fill="#000000" font-family="sans-serif" font-size="14" lengthAdjust="spacing" textLength="133" x="973.5" y="440.5679">A6-1-d-data-subject</text></g><!--class A6_1_d_natural_person--><g id="elem_A6_1_d_natural_person"><rect codeLine="19" fill="#F1F1F1" height="29.0679" id="A6_1_d_natural_person" rx="2.5" ry="2.5" style="stroke:#181818;stroke-width:0.5;" width="156" x="1145" y="420.602"/><text fill="#000000" font-family="sans-serif" font-size="14" lengthAdjust="spacing" textLength="150" x="1148" y="440.5679">A6-1-d-natural-person</text></g><!--class A6_1_e--><g id="elem_A6_1_e"><rect codeLine="20" fill="#F1F1F1" height="29.0679" id="A6_1_e" rx="2.5" ry="2.5" style="stroke:#181818;stroke-width:0.5;" width="49" x="1394.5" y="310.602"/><text fill="#000000" font-family="sans-serif" font-size="14" lengthAdjust="spacing" textLength="43" x="1397.5" y="330.5679">A6-1-e</text></g><polygon fill="none" points="1427.082,339.6699,1442.9196,353.7472,1430.6842,360.5511" style="stroke:#181818;stroke-width:1.0;"/><line style="stroke:#181818;stroke-width:1.0;" x1="1436.8019" x2="1439" y1="357.1492" y2="361.102"/><line style="stroke:#181818;stroke-width:1.0;" x1="1404.1312" x2="1383.21" y1="310.602" y2="290.152"/><!--class A6_1_e_official_authority--><g id="elem_A6_1_e_official_authority"><rect codeLine="21" fill="#F1F1F1" height="29.0679" id="A6_1_e_official_authority" rx="2.5" ry="2.5" style="stroke:#181818;stroke-width:0.5;" width="165" x="1336.5" y="420.602"/><text fill="#000000" font-family="sans-serif" font-size="14" lengthAdjust="spacing" textLength="159" x="1339.5" y="440.5679">A6-1-e-official-authority</text></g><!--class A6_1_e_public_interest--><g id="elem_A6_1_e_public_interest"><rect codeLine="22" fill="#F1F1F1" height="29.0679" id="A6_1_e_public_interest" rx="2.5" ry="2.5" style="stroke:#181818;stroke-width:0.5;" width="153" x="1536.5" y="420.602"/><text fill="#000000" font-family="sans-serif" font-size="14" lengthAdjust="spacing" textLength="147" x="1539.5" y="440.5679">A6-1-e-public-interest</text></g><!--class A6_1_f--><g id="elem_A6_1_f"><rect codeLine="23" fill="#F1F1F1" height="29.0679" id="A6_1_f" rx="2.5" ry="2.5" style="stroke:#181818;stroke-width:0.5;" width="46" x="1760" y="310.602"/><text fill="#000000" font-family="sans-serif" font-size="14" lengthAdjust="spacing" textLength="40" x="1763" y="330.5679">A6-1-f</text></g><polygon fill="none" points="1790.2738,339.6699,1805.4847,354.4222,1792.9651,360.6879" style="stroke:#181818;stroke-width:1.0;"/><line style="stroke:#181818;stroke-width:1.0;" x1="1799.2249" x2="1801" y1="357.5551" y2="361.102"/><line style="stroke:#181818;stroke-width:1.0;" x1="1764.2476" x2="1739.72" y1="310.602" y2="291.592"/><!--class A6_1_f_controller--><g id="elem_A6_1_f_controller"><rect codeLine="24" fill="#F1F1F1" height="29.0679" id="A6_1_f_controller" rx="2.5" ry="2.5" style="stroke:#181818;stroke-width:0.5;" width="116" x="1725" y="420.602"/><text fill="#000000" font-family="sans-serif" font-size="14" lengthAdjust="spacing" textLength="110" x="1728" y="440.5679">A6-1-f-controller</text></g><!--class A6_1_f_third_party--><g id="elem_A6_1_f_third_party"><rect codeLine="25" fill="#F1F1F1" height="29.0679" id="A6_1_f_third_party" rx="2.5" ry="2.5" style="stroke:#181818;stroke-width:0.5;" width="124" x="1876" y="420.602"/><text fill="#000000" font-family="sans-serif" font-size="14" lengthAdjust="spacing" textLength="118" x="1879" y="440.5679">A6-1-f-third-party</text></g><!--link Process to LegalBasis--><g id="link_Process_LegalBasis"><path codeLine="28" d="M890.76,79.102 C924.19,79.102 980.23,79.102 1023.03,79.102 " fill="none" id="Process-LegalBasis" style="stroke:#181818;stroke-width:1.0;"/><polygon fill="#000000" points="918,66.955,908.9549,64.0161,908.9549,69.8939,918,66.955" style="stroke:#000000;stroke-width:1.0;"/><text fill="#000000" font-family="sans-serif" font-size="13" lengthAdjust="spacing" textLength="83" x="922" y="71.999">hasLegalBasis</text></g><!--reverse link LegalBasis to A6_1_a--><g id="link_LegalBasis_A6_1_a"><path codeLine="30" d="M1083,115.102 C1083,115.102 912.08,117.182 782,152.602 C648.71,188.902 501.93,261.612 429.91,299.652 " fill="none" id="LegalBasis-backto-A6_1_a" style="stroke:#181818;stroke-width:1.0;"/></g><!--reverse link LegalBasis to A6_1_b--><g id="link_LegalBasis_A6_1_b"><path codeLine="31" d="M1083,115.102 C1083,115.102 1025.5,126.312 989,152.602 C936.17,190.662 890.56,252.042 865.23,290.132 " fill="none" id="LegalBasis-backto-A6_1_b" style="stroke:#181818;stroke-width:1.0;"/></g><!--reverse link LegalBasis to A6_1_c--><g id="link_LegalBasis_A6_1_c"><path codeLine="32" d="M1083,115.102 C1083,115.102 1076.51,135.832 1072,152.602 C1056.31,210.922 1039.9,281.042 1033.16,310.262 " fill="none" id="LegalBasis-backto-A6_1_c" style="stroke:#181818;stroke-width:1.0;"/></g><!--reverse link LegalBasis to A6_1_d--><g id="link_LegalBasis_A6_1_d"><path codeLine="33" d="M1083,115.102 C1083,115.102 1111.39,231.442 1125.81,290.522 " fill="none" id="LegalBasis-backto-A6_1_d" style="stroke:#181818;stroke-width:1.0;"/></g><!--reverse link LegalBasis to A6_1_e--><g id="link_LegalBasis_A6_1_e"><path codeLine="34" d="M1083,115.102 C1083,115.102 1149.88,127.602 1197,152.602 C1268.85,190.722 1341.43,252.092 1383.21,290.152 " fill="none" id="LegalBasis-backto-A6_1_e" style="stroke:#181818;stroke-width:1.0;"/></g><!--reverse link LegalBasis to A6_1_f--><g id="link_LegalBasis_A6_1_f"><path codeLine="35" d="M1083,115.102 C1083,115.102 1396.27,125.912 1481,152.602 C1580.49,183.942 1683.43,251.252 1739.72,291.592 " fill="none" id="LegalBasis-backto-A6_1_f" style="stroke:#181818;stroke-width:1.0;"/></g><!--reverse link A6_1_a to A6_1_a_explicit_consent--><g id="link_A6_1_a_A6_1_a_explicit_consent"><path codeLine="36" d="M364,361.102 C364,361.102 265.31,399.022 210.18,420.202 " fill="none" id="A6_1_a-backto-A6_1_a_explicit_consent" style="stroke:#181818;stroke-width:1.0;"/></g><!--reverse link A6_1_a to A6_1_a_non_explicit_consent--><g id="link_A6_1_a_A6_1_a_non_explicit_consent"><path codeLine="37" d="M364,361.102 C364,361.102 374.97,399.222 381.05,420.372 " fill="none" id="A6_1_a-backto-A6_1_a_non_explicit_consent" style="stroke:#181818;stroke-width:1.0;"/></g><!--reverse link A6_1_b to A6_1_b_contract_performance--><g id="link_A6_1_b_A6_1_b_contract_performance"><path codeLine="38" d="M822,361.102 C822,361.102 715.52,399.022 656.04,420.202 " fill="none" id="A6_1_b-backto-A6_1_b_contract_performance" style="stroke:#181818;stroke-width:1.0;"/></g><!--reverse link A6_1_b to A6_1_b_enter_into_contract--><g id="link_A6_1_b_A6_1_b_enter_into_contract"><path codeLine="39" d="M822,361.102 C822,361.102 833.49,399.222 839.86,420.372 " fill="none" id="A6_1_b-backto-A6_1_b_enter_into_contract" style="stroke:#181818;stroke-width:1.0;"/></g><!--reverse link A6_1_d to A6_1_d_data_subject--><g id="link_A6_1_d_A6_1_d_data_subject"><path codeLine="40" d="M1134,361.102 C1134,361.102 1084.91,399.222 1057.68,420.372 " fill="none" id="A6_1_d-backto-A6_1_d_data_subject" style="stroke:#181818;stroke-width:1.0;"/></g><!--reverse link A6_1_d to A6_1_d_natural_person--><g id="link_A6_1_d_A6_1_d_natural_person"><path codeLine="41" d="M1134,361.102 C1134,361.102 1180.48,399.222 1206.26,420.372 " fill="none" id="A6_1_d-backto-A6_1_d_natural_person" style="stroke:#181818;stroke-width:1.0;"/></g><!--reverse link A6_1_e to A6_1_e_official_authority--><g id="link_A6_1_e_A6_1_e_official_authority"><path codeLine="42" d="M1439,361.102 C1439,361.102 1428.56,399.222 1422.76,420.372 " fill="none" id="A6_1_e-backto-A6_1_e_official_authority" style="stroke:#181818;stroke-width:1.0;"/></g><!--reverse link A6_1_e to A6_1_e_public_interest--><g id="link_A6_1_e_A6_1_e_public_interest"><path codeLine="43" d="M1439,361.102 C1439,361.102 1529.38,399.022 1579.86,420.202 " fill="none" id="A6_1_e-backto-A6_1_e_public_interest" style="stroke:#181818;stroke-width:1.0;"/></g><!--reverse link A6_1_f to A6_1_f_controller--><g id="link_A6_1_f_A6_1_f_controller"><path codeLine="44" d="M1801,361.102 C1801,361.102 1791.6,399.222 1786.39,420.372 " fill="none" id="A6_1_f-backto-A6_1_f_controller" style="stroke:#181818;stroke-width:1.0;"/></g><!--reverse link A6_1_f to A6_1_f_third_party--><g id="link_A6_1_f_A6_1_f_third_party"><path codeLine="45" d="M1801,361.102 C1801,361.102 1872.16,399.022 1911.91,420.202 " fill="none" id="A6_1_f-backto-A6_1_f_third_party" style="stroke:#181818;stroke-width:1.0;"/></g><!--SRC=[XPCnZzGm48Lh_2lCKbmrAnt55GWX7HqInHNqriIP9EQyTcGx9qx0VoVPE9k9iQ2AFDzx4sVovgrnsaujoPXUBPr7YovD5olYit5F6F0Y- -2dyOiRA9Y4JfDyByITjXYZ_3OOryjtqTWN2c94_OmzoNPyaJ_5crNo5Boc6BVZL-hHViPeelZD3MUxW3DDvxuTmsv_V53t2YL6UNfyW7l0qv4e-Z5QeqrIshj8BZ4fR0moAxtEkt_wP_wV7iqkRmgoD4m1TL8ZXSw7otLsknms3eoNFUONKb369NzhnrjSCIpurktOGUzgVIJjJjg2g1OJgZWrtuc_heMb3hbUUXocAQ1TFZPwnrsPm4gEFZQGujj9-QwR1p-tn2aDVWxVAnF3Hk56I_yuDVEVMuP7WMBYvXN1XexERbTs1Lb_WhUM0XF1NYtrQJ2XLIC6VlaEhcMuba_p7jojU_Jn5zpM9Jybi8tv80UC-r5-4eATPZVaODVBJRsiw-MsNgPwkHDvKTaj_bgjcgQsWYAl5hjwTPbgkih2Y9ntzcs7XDVuCSqYPvMDePBEcgh8eCW1OuDZaQfH5Y3n1m00]--></g></svg>