<svg xmlns="http://www.w3.org/2000/svg" xmlns:xlink="http://www.w3.org/1999/xlink" contentStyleType="text/css" height="461px" preserveAspectRatio="none" style="width:756px;height:461px;background:#FFFFFF;" version="1.1" viewBox="0 0 756 461" width="756px" zoomAndPan="magnify"><defs/><g><!--cluster dpv--><g id="cluster_dpv"><path d="M8.5,101 L35.8125,101 A3.75,3.75 0 0 1 38.3125,103.5 L45.3125,126.0679 L746.5,126.0679 A2.5,2.5 0 0 1 749,128.5679 L749,451.5 A2.5,2.5 0 0 1 746.5,454 L8.5,454 A2.5,2.5 0 0 1 6,451.5 L6,103.5 A2.5,2.5 0 0 1 8.5,101 " fill="none" style="stroke:#000000;stroke-width:1.5;"/><line style="stroke:#000000;stroke-width:1.5;" x1="6" x2="45.3125" y1="126.0679" y2="126.0679"/><text fill="#000000" font-family="sans-serif" font-size="14" font-weight="bold" lengthAdjust="spacing" textLength="26.3125" x="10" y="117.9659">dpv</text></g><!--class Assessment--><g id="elem_Assessment"><rect codeLine="7" fill="#F1F1F1" height="29.0679" id="Assessment" rx="2.5" ry="2.5" style="stroke:#181818;stroke-width:0.5;" width="86" x="205" y="139"/><text fill="#000000" font-family="sans-serif" font-size="14" lengthAdjust="spacing" textLength="80" x="208" y="158.9659">Assessment</text></g><!--class RiskAssessment--><g id="elem_RiskAssessment"><rect codeLine="8" fill="#F1F1F1" height="29.0679" id="RiskAssessment" rx="2.5" ry="2.5" style="stroke:#181818;stroke-width:0.5;" width="113" x="112.5" y="229"/><text fill="#000000" font-family="sans-serif" font-size="14" lengthAdjust="spacing" textLength="107" x="115.5" y="248.9659">RiskAssessment</text></g><!--class ImpactAssessment--><g id="elem_ImpactAssessment"><rect codeLine="9" fill="#F1F1F1" height="29.0679" id="ImpactAssessment" rx="2.5" ry="2.5" style="stroke:#181818;stroke-width:0.5;" width="133" x="260.5" y="229"/><text fill="#000000" font-family="sans-serif" font-size="14" lengthAdjust="spacing" textLength="127" x="263.5" y="248.9659">ImpactAssessment</text></g><!--class RightsImpactAssessment--><g id="elem_RightsImpactAssessment"><rect codeLine="10" fill="#F1F1F1" height="29.0679" id="RightsImpactAssessment" rx="2.5" ry="2.5" style="stroke:#181818;stroke-width:0.5;" width="176" x="22" y="319"/><text fill="#000000" font-family="sans-serif" font-size="14" lengthAdjust="spacing" textLength="170" x="25" y="338.9659">RightsImpactAssessment</text></g><!--class DPIA--><g id="elem_DPIA"><rect codeLine="11" fill="#F1F1F1" height="29.0679" id="DPIA" rx="2.5" ry="2.5" style="stroke:#181818;stroke-width:0.5;" width="38" x="22" y="409"/><text fill="#000000" font-family="sans-serif" font-size="14" lengthAdjust="spacing" textLength="32" x="25" y="428.9659">DPIA</text></g><!--class DataBreachImpactAssessment--><g id="elem_DataBreachImpactAssessment"><rect codeLine="12" fill="#F1F1F1" height="29.0679" id="DataBreachImpactAssessment" rx="2.5" ry="2.5" style="stroke:#181818;stroke-width:0.5;" width="211" x="95.5" y="409"/><text fill="#000000" font-family="sans-serif" font-size="14" lengthAdjust="spacing" textLength="205" x="98.5" y="428.9659">DataBreachImpactAssessment</text></g><!--class FRIA--><g id="elem_FRIA"><rect codeLine="13" fill="#F1F1F1" height="29.0679" id="FRIA" rx="2.5" ry="2.5" style="stroke:#181818;stroke-width:0.5;" width="36" x="342" y="409"/><text fill="#000000" font-family="sans-serif" font-size="14" lengthAdjust="spacing" textLength="30" x="345" y="428.9659">FRIA</text></g><!--class PIA--><g id="elem_PIA"><rect codeLine="14" fill="#F1F1F1" height="29.0679" id="PIA" rx="2.5" ry="2.5" style="stroke:#181818;stroke-width:0.5;" width="28" x="233" y="319"/><text fill="#000000" font-family="sans-serif" font-size="14" lengthAdjust="spacing" textLength="22" x="236" y="338.9659">PIA</text></g><!--class DataTransferImpactAssessment--><g id="elem_DataTransferImpactAssessment"><rect codeLine="15" fill="#F1F1F1" height="29.0679" id="DataTransferImpactAssessment" rx="2.5" ry="2.5" style="stroke:#181818;stroke-width:0.5;" width="221" x="296.5" y="319"/><text fill="#000000" font-family="sans-serif" font-size="14" lengthAdjust="spacing" textLength="215" x="299.5" y="338.9659">DataTransferImpactAssessment</text></g><!--class ReviewImpactAssessment--><g id="elem_ReviewImpactAssessment"><rect codeLine="16" fill="#F1F1F1" height="29.0679" id="ReviewImpactAssessment" rx="2.5" ry="2.5" style="stroke:#181818;stroke-width:0.5;" width="180" x="553" y="319"/><text fill="#000000" font-family="sans-serif" font-size="14" lengthAdjust="spacing" textLength="174" x="556" y="338.9659">ReviewImpactAssessment</text></g><!--class Thing--><g id="elem_Thing"><rect codeLine="5" fill="#C0C0C0" height="29.0679" id="Thing" rx="2.5" ry="2.5" style="stroke:#181818;stroke-width:0.5;" width="45" x="225.5" y="7"/><text fill="#000000" font-family="sans-serif" font-size="14" lengthAdjust="spacing" textLength="39" x="228.5" y="26.9659">Thing</text></g><!--link Thing to Assessment--><g id="link_Thing_Assessment"><path codeLine="18" d="M248,36.41 C248,61.43 248,113.74 248,138.69 " fill="none" id="Thing-Assessment" style="stroke:#181818;stroke-width:1.0;"/><polygon fill="#000000" points="253,80.853,255.9389,71.8079,250.0611,71.8079,253,80.853" style="stroke:#000000;stroke-width:1.0;"/><text fill="#000000" font-family="sans-serif" font-size="13" lengthAdjust="spacing" textLength="92" x="262" y="80.897">hasAssessment</text></g><!--reverse link Assessment to RiskAssessment--><g id="link_Assessment_RiskAssessment"><path codeLine="19" d="M223.6348,181.6439 C208.8748,198.0839 196.35,212.04 181.52,228.56 " fill="none" id="Assessment-backto-RiskAssessment" style="stroke:#181818;stroke-width:1.0;"/><polygon fill="none" points="235.66,168.25,219.1702,177.6355,228.0995,185.6523,235.66,168.25" style="stroke:#181818;stroke-width:1.0;"/></g><!--reverse link Assessment to ImpactAssessment--><g id="link_Assessment_ImpactAssessment"><path codeLine="20" d="M272.3652,181.6439 C287.1252,198.0839 299.65,212.04 314.48,228.56 " fill="none" id="Assessment-backto-ImpactAssessment" style="stroke:#181818;stroke-width:1.0;"/><polygon fill="none" points="260.34,168.25,267.9005,185.6523,276.8298,177.6355,260.34,168.25" style="stroke:#181818;stroke-width:1.0;"/></g><!--reverse link ImpactAssessment to RightsImpactAssessment--><g id="link_ImpactAssessment_RightsImpactAssessment"><path codeLine="21" d="M275.9393,265.2042 C235.2993,281.6842 184.79,302.17 144.22,318.62 " fill="none" id="ImpactAssessment-backto-RightsImpactAssessment" style="stroke:#181818;stroke-width:1.0;"/><polygon fill="none" points="292.62,258.44,273.6846,259.644,278.1941,270.7644,292.62,258.44" style="stroke:#181818;stroke-width:1.0;"/></g><!--reverse link ImpactAssessment to PIA--><g id="link_ImpactAssessment_PIA"><path codeLine="22" d="M302.3943,271.5711 C287.4543,288.0111 274.7,302.04 259.68,318.56 " fill="none" id="ImpactAssessment-backto-PIA" style="stroke:#181818;stroke-width:1.0;"/><polygon fill="none" points="314.5,258.25,297.9539,267.5359,306.8347,275.6064,314.5,258.25" style="stroke:#181818;stroke-width:1.0;"/></g><!--reverse link ImpactAssessment to DataTransferImpactAssessment--><g id="link_ImpactAssessment_DataTransferImpactAssessment"><path codeLine="23" d="M351.6057,271.5711 C366.5457,288.0111 379.3,302.04 394.32,318.56 " fill="none" id="ImpactAssessment-backto-DataTransferImpactAssessment" style="stroke:#181818;stroke-width:1.0;"/><polygon fill="none" points="339.5,258.25,347.1653,275.6064,356.0461,267.5359,339.5,258.25" style="stroke:#181818;stroke-width:1.0;"/></g><!--reverse link ImpactAssessment to ReviewImpactAssessment--><g id="link_ImpactAssessment_ReviewImpactAssessment"><path codeLine="24" d="M394.4096,263.2709 C453.4896,279.7309 533.81,302.09 592.9,318.55 " fill="none" id="ImpactAssessment-backto-ReviewImpactAssessment" style="stroke:#181818;stroke-width:1.0;"/><polygon fill="none" points="377.07,258.44,392.7993,269.0508,396.0199,257.491,377.07,258.44" style="stroke:#181818;stroke-width:1.0;"/></g><!--reverse link RightsImpactAssessment to DPIA--><g id="link_RightsImpactAssessment_DPIA"><path codeLine="25" d="M88.1137,362.4151 C75.2237,378.8551 64.89,392.04 51.93,408.56 " fill="none" id="RightsImpactAssessment-backto-DPIA" style="stroke:#181818;stroke-width:1.0;"/><polygon fill="none" points="99.22,348.25,83.392,358.713,92.8354,366.1172,99.22,348.25" style="stroke:#181818;stroke-width:1.0;"/></g><!--reverse link RightsImpactAssessment to DataBreachImpactAssessment--><g id="link_RightsImpactAssessment_DataBreachImpactAssessment"><path codeLine="26" d="M137.1556,360.7668 C154.1456,377.2068 169.5,392.04 186.58,408.56 " fill="none" id="RightsImpactAssessment-backto-DataBreachImpactAssessment" style="stroke:#181818;stroke-width:1.0;"/><polygon fill="none" points="124.22,348.25,132.9833,365.0787,141.3278,356.455,124.22,348.25" style="stroke:#181818;stroke-width:1.0;"/></g><!--reverse link RightsImpactAssessment to FRIA--><g id="link_RightsImpactAssessment_FRIA"><path codeLine="27" d="M168.1616,354.3145 C211.3216,369.0745 264.07,387.33 324,409 C329.78,411.09 336.05,413.42 341.72,415.55 " fill="none" id="RightsImpactAssessment-backto-FRIA" style="stroke:#181818;stroke-width:1.0;"/><polygon fill="none" points="151.13,348.49,166.2201,359.9917,170.1031,348.6373,151.13,348.49" style="stroke:#181818;stroke-width:1.0;"/></g><!--SRC=[VL71Ri8m33sJh_34WHDym3GXCKr8lI743tYfQIFIf8fDfsdZtsd7WAfDUelVUuwVdr-Cq_QS4x1yMrhL5fsSAwiMbeu2uY6OeXJ8JI0jnZkr45zt-ASNyLMFKDeYCnnAumgOix4D1LMZFc51aDSD_AZPJR9X9kQAdDoHlU7J6CsgjbrYwjOIfzYFNRPvl57mFH3gCgNUxf_gGUCXeECZXQGDQWnzZTYBkaMmNFOMXLSeaNlrMlMAjzzMFCXWI8_c387xBz5iuk9kuJWpkNzYSZoEkA7_APs1IK7wVbDjVqTLLm00]--></g></svg>