<svg xmlns="http://www.w3.org/2000/svg" xmlns:xlink="http://www.w3.org/1999/xlink" contentStyleType="text/css" height="272px" preserveAspectRatio="none" style="width:697px;height:272px;background:#FFFFFF;" version="1.1" viewBox="0 0 697 272" width="697px" zoomAndPan="magnify"><defs/><g><!--class Thing--><g id="elem_Thing"><rect codeLine="5" fill="#C0C0C0" height="37.0679" id="Thing" rx="2.5" ry="2.5" style="stroke:#181818;stroke-width:0.5;" width="45" x="7" y="132.5"/><text fill="#000000" font-family="sans-serif" font-size="14" lengthAdjust="spacing" textLength="39" x="10" y="152.4659">Thing</text><line style="stroke:#181818;stroke-width:0.5;" x1="8" x2="51" y1="161.5679" y2="161.5679"/></g><!--class Law--><g id="elem_Law"><rect codeLine="7" fill="#F1F1F1" height="56.1358" id="Law" rx="2.5" ry="2.5" style="stroke:#181818;stroke-width:0.5;" width="137" x="538" y="7"/><text fill="#000000" font-family="sans-serif" font-size="14" lengthAdjust="spacing" textLength="26" x="593.5" y="26.9659">Law</text><line style="stroke:#181818;stroke-width:0.5;" x1="539" x2="674" y1="36.0679" y2="36.0679"/><text fill="#000000" font-family="sans-serif" font-size="14" lengthAdjust="spacing" textLength="125" x="544" y="55.0339">IRI foaf:homepage</text></g><!--class Authority--><g id="elem_Authority"><rect codeLine="10" fill="#F1F1F1" height="56.1358" id="Authority" rx="2.5" ry="2.5" style="stroke:#181818;stroke-width:0.5;" width="137" x="205" y="123"/><text fill="#000000" font-family="sans-serif" font-size="14" lengthAdjust="spacing" textLength="62" x="242.5" y="142.9659">Authority</text><line style="stroke:#181818;stroke-width:0.5;" x1="206" x2="341" y1="152.0679" y2="152.0679"/><text fill="#000000" font-family="sans-serif" font-size="14" lengthAdjust="spacing" textLength="125" x="211" y="171.0339">IRI foaf:homepage</text></g><!--class DataProtectionAuthority--><g id="elem_DataProtectionAuthority"><rect codeLine="13" fill="#F1F1F1" height="56.1358" id="DataProtectionAuthority" rx="2.5" ry="2.5" style="stroke:#181818;stroke-width:0.5;" width="167" x="523" y="102"/><text fill="#000000" font-family="sans-serif" font-size="14" lengthAdjust="spacing" textLength="161" x="526" y="121.9659">DataProtectionAuthority</text><line style="stroke:#181818;stroke-width:0.5;" x1="524" x2="689" y1="131.0679" y2="131.0679"/><text fill="#000000" font-family="sans-serif" font-size="14" lengthAdjust="spacing" textLength="125" x="529" y="150.0339">IRI foaf:homepage</text></g><!--class Location--><g id="elem_Location"><rect codeLine="16" fill="#F1F1F1" height="37.0679" id="Location" rx="2.5" ry="2.5" style="stroke:#181818;stroke-width:0.5;" width="62" x="575.5" y="212.5"/><text fill="#000000" font-family="sans-serif" font-size="14" lengthAdjust="spacing" textLength="56" x="578.5" y="232.4659">Location</text><line style="stroke:#181818;stroke-width:0.5;" x1="576.5" x2="636.5" y1="241.5679" y2="241.5679"/></g><!--link Thing to Law--><g id="link_Thing_Law"><path codeLine="18" d="M52.27,138.1 C61.25,133.18 71.9,127.83 82,124 C206.14,76.83 240.85,72.9 372,52 C427.39,43.17 490.92,38.92 537.71,36.88 " fill="none" id="Thing-Law" style="stroke:#181818;stroke-width:1.0;"/><polygon fill="#000000" points="253.3947,47.8324,243.9402,46.8016,245.14,52.5557,253.3947,47.8324" style="stroke:#000000;stroke-width:1.0;"/><text fill="#000000" font-family="sans-serif" font-size="13" lengthAdjust="spacing" textLength="45" x="257.5" y="53.897">hasLaw</text></g><!--link Thing to Authority--><g id="link_Thing_Authority"><path codeLine="19" d="M52.4,151 C86.43,151 153.42,151 204.59,151 " fill="none" id="Thing-Authority" style="stroke:#181818;stroke-width:1.0;"/><polygon fill="#000000" points="92,141.853,82.9549,138.9141,82.9549,144.7919,92,141.853" style="stroke:#000000;stroke-width:1.0;"/><text fill="#000000" font-family="sans-serif" font-size="13" lengthAdjust="spacing" textLength="78" x="96" y="146.897">hasAuthority</text></g><!--reverse link Authority to DataProtectionAuthority--><g id="link_Authority_DataProtectionAuthority"><path codeLine="20" d="M360.2439,145.5609 C412.4439,142.2509 466.89,138.79 522.56,135.26 " fill="none" id="Authority-backto-DataProtectionAuthority" style="stroke:#181818;stroke-width:1.0;"/><polygon fill="none" points="342.28,146.7,360.6236,151.5489,359.8642,139.5729,342.28,146.7" style="stroke:#181818;stroke-width:1.0;"/></g><!--link Authority to Law--><g id="link_Authority_Law"><path codeLine="21" d="M342.37,126.46 C352.3,122.92 362.41,119.35 372,116 C425.61,97.29 439.36,93.62 493,75 C507.49,69.97 523,64.5 537.74,59.28 " fill="none" id="Authority-Law" style="stroke:#181818;stroke-width:1.0;"/><polygon fill="#000000" points="381.7283,64.2271,372.2191,64.3892,374.1304,69.9476,381.7283,64.2271" style="stroke:#000000;stroke-width:1.0;"/><text fill="#000000" font-family="sans-serif" font-size="13" lengthAdjust="spacing" textLength="106" x="386" y="70.897">hasApplicableLaw</text></g><!--link Authority to Location--><g id="link_Authority_Location"><path codeLine="22" d="M342.28,167.38 C413.59,184.61 522.6,210.96 575.12,223.66 " fill="none" id="Authority-Location" style="stroke:#181818;stroke-width:1.0;"/><polygon fill="#000000" points="390.86,167.0277,382.7586,162.046,381.3777,167.7593,390.86,167.0277" style="stroke:#000000;stroke-width:1.0;"/><text fill="#000000" font-family="sans-serif" font-size="13" lengthAdjust="spacing" textLength="88" x="395" y="170.897">hasJurisdiction</text></g><!--link Location to Authority--><g id="link_Location_Authority"><path codeLine="23" d="M575.29,237.07 C529.71,244.89 441.3,254.72 372,230 C343.68,219.9 317.56,197.73 299.5,179.44 " fill="none" id="Location-Authority" style="stroke:#181818;stroke-width:1.0;"/><polygon fill="#000000" points="386.1057,219.8303,394.3584,224.5572,395.5607,218.8036,386.1057,219.8303" style="stroke:#000000;stroke-width:1.0;"/><text fill="#000000" font-family="sans-serif" font-size="13" lengthAdjust="spacing" textLength="78" x="400" y="225.897">hasAuthority</text></g><!--link Thing to Location--><g id="link_Thing_Location"><path codeLine="24" d="M52.24,159.99 C84.95,173.3 148.99,198.43 205,215 C328.81,251.62 364.49,265.45 493,253 C521.13,250.27 552.67,243.8 575.18,238.58 " fill="none" id="Thing-Location" style="stroke:#181818;stroke-width:1.0;"/><polygon fill="#000000" points="231.9445,206.5961,223.4366,202.3456,222.5631,208.1581,231.9445,206.5961" style="stroke:#000000;stroke-width:1.0;"/><text fill="#000000" font-family="sans-serif" font-size="13" lengthAdjust="spacing" textLength="88" x="236" y="210.897">hasJurisdiction</text></g><!--SRC=[dKzB2i8m4Dtd50EkUu4YGi5DfGiHBp2cqsOWcfAaYgXtjqt4r8K5dTLCtilxAAu9ZkILgPrGuo7PIarEQ6eyU0EMM-MXPalIipa98JKw1tl5fnOMZlMPB0W1mqIamWlSmZrEkIkXCTZaoXofmvO2yfZmYtvmj-olF_rQeyUjDJwc-a-ZCX9ZfzWcoqBu71IwSLcbzsGGq7IkHDgNzu7v9TY4DhKfkawpn8EcQFZ9UkMBr4rlsTKSP0Vc6vnFbvhDYJq1]--></g></svg>