<svg xmlns="http://www.w3.org/2000/svg" xmlns:xlink="http://www.w3.org/1999/xlink" contentStyleType="text/css" height="544px" preserveAspectRatio="none" style="width:3525px;height:544px;background:#FFFFFF;" version="1.1" viewBox="0 0 3525 544" width="3525px" zoomAndPan="magnify"><defs/><g><line style="stroke:#181818;stroke-width:1.5;" x1="54" x2="54" y1="66.3441" y2="86.3441"/><rect fill="#F1F1F1" height="36.3441" style="stroke:#181818;stroke-width:1.5;" width="88" x="10" y="86.3441"/><text fill="#000000" font-family="sans-serif" font-size="12" lengthAdjust="spacing" textLength="68" x="20" y="109.1722">Assessment</text><line style="stroke:#181818;stroke-width:1.5;" x1="54" x2="64" y1="155.8603" y2="155.8603"/><rect fill="#F1F1F1" height="36.3441" style="stroke:#181818;stroke-width:1.5;" width="154" x="64" y="137.6882"/><text fill="#000000" font-family="sans-serif" font-size="12" lengthAdjust="spacing" textLength="134" x="74" y="160.5163">ComplianceAssessment</text><line style="stroke:#181818;stroke-width:1.5;" x1="54" x2="64" y1="207.2044" y2="207.2044"/><rect fill="#F1F1F1" height="36.3441" style="stroke:#181818;stroke-width:1.5;" width="164" x="64" y="189.0323"/><text fill="#000000" font-family="sans-serif" font-size="12" lengthAdjust="spacing" textLength="144" x="74" y="211.8604">ConformanceAssessment</text><line style="stroke:#181818;stroke-width:1.5;" x1="54" x2="64" y1="258.5485" y2="258.5485"/><rect fill="#F1F1F1" height="36.3441" style="stroke:#181818;stroke-width:1.5;" width="201" x="64" y="240.3765"/><text fill="#000000" font-family="sans-serif" font-size="12" lengthAdjust="spacing" textLength="181" x="74" y="263.2045">DataInteroperabilityAssessment</text><line style="stroke:#181818;stroke-width:1.5;" x1="54" x2="64" y1="309.8926" y2="309.8926"/><rect fill="#F1F1F1" height="36.3441" style="stroke:#181818;stroke-width:1.5;" width="154" x="64" y="291.7206"/><text fill="#000000" font-family="sans-serif" font-size="12" lengthAdjust="spacing" textLength="134" x="74" y="314.5487">DataQualityAssessment</text><line style="stroke:#181818;stroke-width:1.5;" x1="54" x2="64" y1="361.2367" y2="361.2367"/><rect fill="#F1F1F1" height="36.3441" style="stroke:#181818;stroke-width:1.5;" width="239" x="64" y="343.0647"/><text fill="#000000" font-family="sans-serif" font-size="12" lengthAdjust="spacing" textLength="219" x="74" y="365.8928">EffectivenessDeterminationProcedures</text><line style="stroke:#181818;stroke-width:1.5;" x1="54" x2="64" y1="412.5809" y2="412.5809"/><rect fill="#F1F1F1" height="36.3441" style="stroke:#181818;stroke-width:1.5;" width="191" x="64" y="394.4088"/><text fill="#000000" font-family="sans-serif" font-size="12" lengthAdjust="spacing" textLength="171" x="74" y="417.2369">LegitimateInterestAssessment</text><line style="stroke:#181818;stroke-width:1.5;" x1="54" x2="54" y1="122.6882" y2="412.5809"/><line style="stroke:#181818;stroke-width:1.5;" x1="379" x2="379" y1="66.3441" y2="86.3441"/><rect fill="#F1F1F1" height="36.3441" style="stroke:#181818;stroke-width:1.5;" width="112" x="323" y="86.3441"/><text fill="#000000" font-family="sans-serif" font-size="12" lengthAdjust="spacing" textLength="92" x="333" y="109.1722">CertificationSeal</text><line style="stroke:#181818;stroke-width:1.5;" x1="379" x2="389" y1="155.8603" y2="155.8603"/><rect fill="#F1F1F1" height="36.3441" style="stroke:#181818;stroke-width:1.5;" width="88" x="389" y="137.6882"/><text fill="#000000" font-family="sans-serif" font-size="12" lengthAdjust="spacing" textLength="68" x="399" y="160.5163">Certification</text><line style="stroke:#181818;stroke-width:1.5;" x1="379" x2="389" y1="207.2044" y2="207.2044"/><rect fill="#F1F1F1" height="36.3441" style="stroke:#181818;stroke-width:1.5;" width="44" x="389" y="189.0323"/><text fill="#000000" font-family="sans-serif" font-size="12" lengthAdjust="spacing" textLength="24" x="399" y="211.8604">Seal</text><line style="stroke:#181818;stroke-width:1.5;" x1="379" x2="379" y1="122.6882" y2="207.2044"/><line style="stroke:#181818;stroke-width:1.5;" x1="542" x2="542" y1="66.3441" y2="86.3441"/><rect fill="#F1F1F1" height="36.3441" style="stroke:#181818;stroke-width:1.5;" width="90" x="497" y="86.3441"/><text fill="#000000" font-family="sans-serif" font-size="12" lengthAdjust="spacing" textLength="70" x="507" y="109.1722">Consultation</text><line style="stroke:#181818;stroke-width:1.5;" x1="542" x2="552" y1="155.8603" y2="155.8603"/><rect fill="#F1F1F1" height="36.3441" style="stroke:#181818;stroke-width:1.5;" width="166" x="552" y="137.6882"/><text fill="#000000" font-family="sans-serif" font-size="12" lengthAdjust="spacing" textLength="146" x="562" y="160.5163">ConsultationWithAuthority</text><line style="stroke:#181818;stroke-width:1.5;" x1="542" x2="552" y1="207.2044" y2="207.2044"/><rect fill="#F1F1F1" height="36.3441" style="stroke:#181818;stroke-width:1.5;" width="183" x="552" y="189.0323"/><text fill="#000000" font-family="sans-serif" font-size="12" lengthAdjust="spacing" textLength="163" x="562" y="211.8604">ConsultationWithDataSubject</text><line style="stroke:#181818;stroke-width:1.5;" x1="542" x2="552" y1="258.5485" y2="258.5485"/><rect fill="#F1F1F1" height="36.3441" style="stroke:#181818;stroke-width:1.5;" width="140" x="552" y="240.3765"/><text fill="#000000" font-family="sans-serif" font-size="12" lengthAdjust="spacing" textLength="120" x="562" y="263.2045">ConsultationWithDPO</text><line style="stroke:#181818;stroke-width:1.5;" x1="542" x2="542" y1="122.6882" y2="258.5485"/><line style="stroke:#181818;stroke-width:1.5;" x1="805" x2="805" y1="66.3441" y2="86.3441"/><rect fill="#F1F1F1" height="36.3441" style="stroke:#181818;stroke-width:1.5;" width="100" x="755" y="86.3441"/><text fill="#000000" font-family="sans-serif" font-size="12" lengthAdjust="spacing" textLength="80" x="765" y="109.1722">DigitalLiteracy</text><line style="stroke:#181818;stroke-width:1.5;" x1="805" x2="815" y1="155.8603" y2="155.8603"/><rect fill="#F1F1F1" height="36.3441" style="stroke:#181818;stroke-width:1.5;" width="76" x="815" y="137.6882"/><text fill="#000000" font-family="sans-serif" font-size="12" lengthAdjust="spacing" textLength="56" x="825" y="160.5163">AILiteracy</text><line style="stroke:#181818;stroke-width:1.5;" x1="805" x2="815" y1="207.2044" y2="207.2044"/><rect fill="#F1F1F1" height="36.3441" style="stroke:#181818;stroke-width:1.5;" width="91" x="815" y="189.0323"/><text fill="#000000" font-family="sans-serif" font-size="12" lengthAdjust="spacing" textLength="71" x="825" y="211.8604">DataLiteracy</text><line style="stroke:#181818;stroke-width:1.5;" x1="805" x2="805" y1="122.6882" y2="207.2044"/><line style="stroke:#181818;stroke-width:1.5;" x1="1002" x2="1002" y1="66.3441" y2="86.3441"/><rect fill="#F1F1F1" height="36.3441" style="stroke:#181818;stroke-width:1.5;" width="152" x="926" y="86.3441"/><text fill="#000000" font-family="sans-serif" font-size="12" lengthAdjust="spacing" textLength="132" x="936" y="109.1722">GovernanceProcedures</text><line style="stroke:#181818;stroke-width:1.5;" x1="1002" x2="1012" y1="155.8603" y2="155.8603"/><rect fill="#F1F1F1" height="36.3441" style="stroke:#181818;stroke-width:1.5;" width="190" x="1012" y="137.6882"/><text fill="#000000" font-family="sans-serif" font-size="12" lengthAdjust="spacing" textLength="170" x="1022" y="160.5163">AssetManagementProcedures</text><line style="stroke:#181818;stroke-width:1.5;" x1="1002" x2="1012" y1="207.2044" y2="207.2044"/><rect fill="#F1F1F1" height="36.3441" style="stroke:#181818;stroke-width:1.5;" width="147" x="1012" y="189.0323"/><text fill="#000000" font-family="sans-serif" font-size="12" lengthAdjust="spacing" textLength="127" x="1022" y="211.8604">ComplianceMonitoring</text><line style="stroke:#181818;stroke-width:1.5;" x1="1002" x2="1012" y1="258.5485" y2="258.5485"/><rect fill="#F1F1F1" height="36.3441" style="stroke:#181818;stroke-width:1.5;" width="182" x="1012" y="240.3765"/><text fill="#000000" font-family="sans-serif" font-size="12" lengthAdjust="spacing" textLength="162" x="1022" y="263.2045">DisasterRecoveryProcedures</text><line style="stroke:#181818;stroke-width:1.5;" x1="1002" x2="1012" y1="309.8926" y2="309.8926"/><rect fill="#F1F1F1" height="36.3441" style="stroke:#181818;stroke-width:1.5;" width="204" x="1012" y="291.7206"/><text fill="#000000" font-family="sans-serif" font-size="12" lengthAdjust="spacing" textLength="184" x="1022" y="314.5487">IncidentManagementProcedures</text><line style="stroke:#181818;stroke-width:1.5;" x1="1002" x2="1012" y1="361.2367" y2="361.2367"/><rect fill="#F1F1F1" height="36.3441" style="stroke:#181818;stroke-width:1.5;" width="207" x="1012" y="343.0647"/><text fill="#000000" font-family="sans-serif" font-size="12" lengthAdjust="spacing" textLength="187" x="1022" y="365.8928">IncidentReportingCommunication</text><line style="stroke:#181818;stroke-width:1.5;" x1="1002" x2="1012" y1="412.5809" y2="412.5809"/><rect fill="#F1F1F1" height="36.3441" style="stroke:#181818;stroke-width:1.5;" width="52" x="1012" y="394.4088"/><text fill="#000000" font-family="sans-serif" font-size="12" lengthAdjust="spacing" textLength="32" x="1022" y="417.2369">Policy</text><line style="stroke:#181818;stroke-width:1.5;" x1="1002" x2="1012" y1="463.925" y2="463.925"/><rect fill="#F1F1F1" height="36.3441" style="stroke:#181818;stroke-width:1.5;" width="117" x="1012" y="445.7529"/><text fill="#000000" font-family="sans-serif" font-size="12" lengthAdjust="spacing" textLength="97" x="1022" y="468.581">ReviewProcedure</text><line style="stroke:#181818;stroke-width:1.5;" x1="1002" x2="1012" y1="515.2691" y2="515.2691"/><rect fill="#F1F1F1" height="36.3441" style="stroke:#181818;stroke-width:1.5;" width="153" x="1012" y="497.097"/><text fill="#000000" font-family="sans-serif" font-size="12" lengthAdjust="spacing" textLength="133" x="1022" y="519.9251">StandardsConformance</text><line style="stroke:#181818;stroke-width:1.5;" x1="1002" x2="1002" y1="122.6882" y2="515.2691"/><line style="stroke:#181818;stroke-width:1.5;" x1="1302.5" x2="1302.5" y1="66.3441" y2="86.3441"/><rect fill="#F1F1F1" height="36.3441" style="stroke:#181818;stroke-width:1.5;" width="127" x="1239" y="86.3441"/><text fill="#000000" font-family="sans-serif" font-size="12" lengthAdjust="spacing" textLength="107" x="1249" y="109.1722">GuidelinesPrinciple</text><line style="stroke:#181818;stroke-width:1.5;" x1="1302.5" x2="1312.5" y1="155.8603" y2="155.8603"/><rect fill="#F1F1F1" height="36.3441" style="stroke:#181818;stroke-width:1.5;" width="108" x="1312.5" y="137.6882"/><text fill="#000000" font-family="sans-serif" font-size="12" lengthAdjust="spacing" textLength="88" x="1322.5" y="160.5163">CodeOfConduct</text><line style="stroke:#181818;stroke-width:1.5;" x1="1302.5" x2="1312.5" y1="207.2044" y2="207.2044"/><rect fill="#F1F1F1" height="36.3441" style="stroke:#181818;stroke-width:1.5;" width="110" x="1312.5" y="189.0323"/><text fill="#000000" font-family="sans-serif" font-size="12" lengthAdjust="spacing" textLength="90" x="1322.5" y="211.8604">DesignStandard</text><line style="stroke:#181818;stroke-width:1.5;" x1="1302.5" x2="1312.5" y1="258.5485" y2="258.5485"/><rect fill="#F1F1F1" height="36.3441" style="stroke:#181818;stroke-width:1.5;" width="73" x="1312.5" y="240.3765"/><text fill="#000000" font-family="sans-serif" font-size="12" lengthAdjust="spacing" textLength="53" x="1322.5" y="263.2045">Guideline</text><line style="stroke:#181818;stroke-width:1.5;" x1="1302.5" x2="1312.5" y1="309.8926" y2="309.8926"/><rect fill="#F1F1F1" height="36.3441" style="stroke:#181818;stroke-width:1.5;" width="68" x="1312.5" y="291.7206"/><text fill="#000000" font-family="sans-serif" font-size="12" lengthAdjust="spacing" textLength="48" x="1322.5" y="314.5487">Principle</text><line style="stroke:#181818;stroke-width:1.5;" x1="1302.5" x2="1312.5" y1="361.2367" y2="361.2367"/><rect fill="#F1F1F1" height="36.3441" style="stroke:#181818;stroke-width:1.5;" width="115" x="1312.5" y="343.0647"/><text fill="#000000" font-family="sans-serif" font-size="12" lengthAdjust="spacing" textLength="95" x="1322.5" y="365.8928">PrivacyByDefault</text><line style="stroke:#181818;stroke-width:1.5;" x1="1302.5" x2="1312.5" y1="412.5809" y2="412.5809"/><rect fill="#F1F1F1" height="36.3441" style="stroke:#181818;stroke-width:1.5;" width="113" x="1312.5" y="394.4088"/><text fill="#000000" font-family="sans-serif" font-size="12" lengthAdjust="spacing" textLength="93" x="1322.5" y="417.2369">PrivacyByDesign</text><line style="stroke:#181818;stroke-width:1.5;" x1="1302.5" x2="1302.5" y1="122.6882" y2="412.5809"/><line style="stroke:#181818;stroke-width:1.5;" x1="1475.5" x2="1475.5" y1="66.3441" y2="86.3441"/><rect fill="#F1F1F1" height="36.3441" style="stroke:#181818;stroke-width:1.5;" width="56" x="1447.5" y="86.3441"/><text fill="#000000" font-family="sans-serif" font-size="12" lengthAdjust="spacing" textLength="36" x="1457.5" y="109.1722">Notice</text><line style="stroke:#181818;stroke-width:1.5;" x1="1475.5" x2="1485.5" y1="155.8603" y2="155.8603"/><rect fill="#F1F1F1" height="36.3441" style="stroke:#181818;stroke-width:1.5;" width="131" x="1485.5" y="137.6882"/><text fill="#000000" font-family="sans-serif" font-size="12" lengthAdjust="spacing" textLength="111" x="1495.5" y="160.5163">DataTransferNotice</text><line style="stroke:#181818;stroke-width:1.5;" x1="1475.5" x2="1485.5" y1="207.2044" y2="207.2044"/><rect fill="#F1F1F1" height="36.3441" style="stroke:#181818;stroke-width:1.5;" width="96" x="1485.5" y="189.0323"/><text fill="#000000" font-family="sans-serif" font-size="12" lengthAdjust="spacing" textLength="76" x="1495.5" y="211.8604">PrivacyNotice</text><line style="stroke:#181818;stroke-width:1.5;" x1="1475.5" x2="1485.5" y1="258.5485" y2="258.5485"/><rect fill="#F1F1F1" height="36.3441" style="stroke:#181818;stroke-width:1.5;" width="146" x="1485.5" y="240.3765"/><text fill="#000000" font-family="sans-serif" font-size="12" lengthAdjust="spacing" textLength="126" x="1495.5" y="263.2045">SecurityIncidentNotice</text><line style="stroke:#181818;stroke-width:1.5;" x1="1475.5" x2="1475.5" y1="122.6882" y2="258.5485"/><line style="stroke:#181818;stroke-width:1.5;" x1="1693.5" x2="1693.5" y1="66.3441" y2="86.3441"/><rect fill="#F1F1F1" height="36.3441" style="stroke:#181818;stroke-width:1.5;" width="84" x="1651.5" y="86.3441"/><text fill="#000000" font-family="sans-serif" font-size="12" lengthAdjust="spacing" textLength="64" x="1661.5" y="109.1722">Notification</text><line style="stroke:#181818;stroke-width:1.5;" x1="1693.5" x2="1703.5" y1="155.8603" y2="155.8603"/><rect fill="#F1F1F1" height="36.3441" style="stroke:#181818;stroke-width:1.5;" width="174" x="1703.5" y="137.6882"/><text fill="#000000" font-family="sans-serif" font-size="12" lengthAdjust="spacing" textLength="154" x="1713.5" y="160.5163">SecurityIncidentNotification</text><line style="stroke:#181818;stroke-width:1.5;" x1="1693.5" x2="1693.5" y1="122.6882" y2="155.8603"/><line style="stroke:#181818;stroke-width:1.5;" x1="1961.5" x2="1961.5" y1="66.3441" y2="86.3441"/><rect fill="#F1F1F1" height="36.3441" style="stroke:#181818;stroke-width:1.5;" width="128" x="1897.5" y="86.3441"/><text fill="#000000" font-family="sans-serif" font-size="12" lengthAdjust="spacing" textLength="108" x="1907.5" y="109.1722">RecordsOfActivities</text><line style="stroke:#181818;stroke-width:1.5;" x1="1961.5" x2="1971.5" y1="155.8603" y2="155.8603"/><rect fill="#F1F1F1" height="36.3441" style="stroke:#181818;stroke-width:1.5;" width="126" x="1971.5" y="137.6882"/><text fill="#000000" font-family="sans-serif" font-size="12" lengthAdjust="spacing" textLength="106" x="1981.5" y="160.5163">DataBreachRecord</text><line style="stroke:#181818;stroke-width:1.5;" x1="1961.5" x2="1971.5" y1="207.2044" y2="207.2044"/><rect fill="#F1F1F1" height="36.3441" style="stroke:#181818;stroke-width:1.5;" width="147" x="1971.5" y="189.0323"/><text fill="#000000" font-family="sans-serif" font-size="12" lengthAdjust="spacing" textLength="127" x="1981.5" y="211.8604">DataProcessingRecord</text><line style="stroke:#181818;stroke-width:1.5;" x1="1961.5" x2="1971.5" y1="258.5485" y2="258.5485"/><rect fill="#F1F1F1" height="36.3441" style="stroke:#181818;stroke-width:1.5;" width="149" x="1971.5" y="240.3765"/><text fill="#000000" font-family="sans-serif" font-size="12" lengthAdjust="spacing" textLength="129" x="1981.5" y="263.2045">SecurityIncidentRecord</text><line style="stroke:#181818;stroke-width:1.5;" x1="1961.5" x2="1961.5" y1="122.6882" y2="258.5485"/><line style="stroke:#181818;stroke-width:1.5;" x1="2205" x2="2205" y1="66.3441" y2="86.3441"/><rect fill="#F1F1F1" height="36.3441" style="stroke:#181818;stroke-width:1.5;" width="129" x="2140.5" y="86.3441"/><text fill="#000000" font-family="sans-serif" font-size="12" lengthAdjust="spacing" textLength="109" x="2150.5" y="109.1722">RightsManagement</text><line style="stroke:#181818;stroke-width:1.5;" x1="2205" x2="2215" y1="155.8603" y2="155.8603"/><rect fill="#F1F1F1" height="36.3441" style="stroke:#181818;stroke-width:1.5;" width="197" x="2215" y="137.6882"/><text fill="#000000" font-family="sans-serif" font-size="12" lengthAdjust="spacing" textLength="177" x="2225" y="160.5163">DataSubjectRightsManagement</text><line style="stroke:#181818;stroke-width:1.5;" x1="2205" x2="2215" y1="207.2044" y2="207.2044"/><rect fill="#F1F1F1" height="36.3441" style="stroke:#181818;stroke-width:1.5;" width="113" x="2215" y="189.0323"/><text fill="#000000" font-family="sans-serif" font-size="12" lengthAdjust="spacing" textLength="93" x="2225" y="211.8604">IPRManagement</text><line style="stroke:#181818;stroke-width:1.5;" x1="2205" x2="2215" y1="258.5485" y2="258.5485"/><rect fill="#F1F1F1" height="36.3441" style="stroke:#181818;stroke-width:1.5;" width="157" x="2215" y="240.3765"/><text fill="#000000" font-family="sans-serif" font-size="12" lengthAdjust="spacing" textLength="137" x="2225" y="263.2045">PermissionManagement</text><line style="stroke:#181818;stroke-width:1.5;" x1="2205" x2="2205" y1="122.6882" y2="258.5485"/><line style="stroke:#181818;stroke-width:1.5;" x1="2471" x2="2471" y1="66.3441" y2="86.3441"/><rect fill="#F1F1F1" height="36.3441" style="stroke:#181818;stroke-width:1.5;" width="78" x="2432" y="86.3441"/><text fill="#000000" font-family="sans-serif" font-size="12" lengthAdjust="spacing" textLength="58" x="2442" y="109.1722">Safeguard</text><line style="stroke:#181818;stroke-width:1.5;" x1="2471" x2="2481" y1="155.8603" y2="155.8603"/><rect fill="#F1F1F1" height="36.3441" style="stroke:#181818;stroke-width:1.5;" width="128" x="2481" y="137.6882"/><text fill="#000000" font-family="sans-serif" font-size="12" lengthAdjust="spacing" textLength="108" x="2491" y="160.5163">RegulatorySandbox</text><line style="stroke:#181818;stroke-width:1.5;" x1="2471" x2="2481" y1="207.2044" y2="207.2044"/><rect fill="#F1F1F1" height="36.3441" style="stroke:#181818;stroke-width:1.5;" width="171" x="2481" y="189.0323"/><text fill="#000000" font-family="sans-serif" font-size="12" lengthAdjust="spacing" textLength="151" x="2491" y="211.8604">SafeguardForDataTransfer</text><line style="stroke:#181818;stroke-width:1.5;" x1="2471" x2="2471" y1="122.6882" y2="207.2044"/><line style="stroke:#181818;stroke-width:1.5;" x1="2733.5" x2="2733.5" y1="66.3441" y2="86.3441"/><rect fill="#F1F1F1" height="36.3441" style="stroke:#181818;stroke-width:1.5;" width="123" x="2672" y="86.3441"/><text fill="#000000" font-family="sans-serif" font-size="12" lengthAdjust="spacing" textLength="103" x="2682" y="109.1722">SecurityProcedure</text><line style="stroke:#181818;stroke-width:1.5;" x1="2733.5" x2="2743.5" y1="155.8603" y2="155.8603"/><rect fill="#F1F1F1" height="36.3441" style="stroke:#181818;stroke-width:1.5;" width="153" x="2743.5" y="137.6882"/><text fill="#000000" font-family="sans-serif" font-size="12" lengthAdjust="spacing" textLength="133" x="2753.5" y="160.5163">AuthorisationProcedure</text><line style="stroke:#181818;stroke-width:1.5;" x1="2733.5" x2="2743.5" y1="207.2044" y2="207.2044"/><rect fill="#F1F1F1" height="36.3441" style="stroke:#181818;stroke-width:1.5;" width="127" x="2743.5" y="189.0323"/><text fill="#000000" font-family="sans-serif" font-size="12" lengthAdjust="spacing" textLength="107" x="2753.5" y="211.8604">BackgroundChecks</text><line style="stroke:#181818;stroke-width:1.5;" x1="2733.5" x2="2743.5" y1="258.5485" y2="258.5485"/><rect fill="#F1F1F1" height="36.3441" style="stroke:#181818;stroke-width:1.5;" width="167" x="2743.5" y="240.3765"/><text fill="#000000" font-family="sans-serif" font-size="12" lengthAdjust="spacing" textLength="147" x="2753.5" y="263.2045">DataSecurityManagement</text><line style="stroke:#181818;stroke-width:1.5;" x1="2733.5" x2="2743.5" y1="309.8926" y2="309.8926"/><rect fill="#F1F1F1" height="36.3441" style="stroke:#181818;stroke-width:1.5;" width="191" x="2743.5" y="291.7206"/><text fill="#000000" font-family="sans-serif" font-size="12" lengthAdjust="spacing" textLength="171" x="2753.5" y="314.5487">SecureProcessingEnvironment</text><line style="stroke:#181818;stroke-width:1.5;" x1="2733.5" x2="2743.5" y1="361.2367" y2="361.2367"/><rect fill="#F1F1F1" height="36.3441" style="stroke:#181818;stroke-width:1.5;" width="153" x="2743.5" y="343.0647"/><text fill="#000000" font-family="sans-serif" font-size="12" lengthAdjust="spacing" textLength="133" x="2753.5" y="365.8928">SecurityRoleProcedures</text><line style="stroke:#181818;stroke-width:1.5;" x1="2733.5" x2="2743.5" y1="412.5809" y2="412.5809"/><rect fill="#F1F1F1" height="36.3441" style="stroke:#181818;stroke-width:1.5;" width="187" x="2743.5" y="394.4088"/><text fill="#000000" font-family="sans-serif" font-size="12" lengthAdjust="spacing" textLength="167" x="2753.5" y="417.2369">ThirdPartySecurityProcedures</text><line style="stroke:#181818;stroke-width:1.5;" x1="2733.5" x2="2733.5" y1="122.6882" y2="412.5809"/><line style="stroke:#181818;stroke-width:1.5;" x1="3000.5" x2="3000.5" y1="66.3441" y2="86.3441"/><rect fill="#F1F1F1" height="36.3441" style="stroke:#181818;stroke-width:1.5;" width="92" x="2954.5" y="86.3441"/><text fill="#000000" font-family="sans-serif" font-size="12" lengthAdjust="spacing" textLength="72" x="2964.5" y="109.1722">StaffTraining</text><line style="stroke:#181818;stroke-width:1.5;" x1="3000.5" x2="3010.5" y1="155.8603" y2="155.8603"/><rect fill="#F1F1F1" height="36.3441" style="stroke:#181818;stroke-width:1.5;" width="143" x="3010.5" y="137.6882"/><text fill="#000000" font-family="sans-serif" font-size="12" lengthAdjust="spacing" textLength="123" x="3020.5" y="160.5163">CybersecurityTraining</text><line style="stroke:#181818;stroke-width:1.5;" x1="3000.5" x2="3010.5" y1="207.2044" y2="207.2044"/><rect fill="#F1F1F1" height="36.3441" style="stroke:#181818;stroke-width:1.5;" width="150" x="3010.5" y="189.0323"/><text fill="#000000" font-family="sans-serif" font-size="12" lengthAdjust="spacing" textLength="130" x="3020.5" y="211.8604">DataProtectionTraining</text><line style="stroke:#181818;stroke-width:1.5;" x1="3000.5" x2="3010.5" y1="258.5485" y2="258.5485"/><rect fill="#F1F1F1" height="36.3441" style="stroke:#181818;stroke-width:1.5;" width="131" x="3010.5" y="240.3765"/><text fill="#000000" font-family="sans-serif" font-size="12" lengthAdjust="spacing" textLength="111" x="3020.5" y="263.2045">EducationalTraining</text><line style="stroke:#181818;stroke-width:1.5;" x1="3000.5" x2="3010.5" y1="309.8926" y2="309.8926"/><rect fill="#F1F1F1" height="36.3441" style="stroke:#181818;stroke-width:1.5;" width="135" x="3010.5" y="291.7206"/><text fill="#000000" font-family="sans-serif" font-size="12" lengthAdjust="spacing" textLength="115" x="3020.5" y="314.5487">ProfessionalTraining</text><line style="stroke:#181818;stroke-width:1.5;" x1="3000.5" x2="3010.5" y1="361.2367" y2="361.2367"/><rect fill="#F1F1F1" height="36.3441" style="stroke:#181818;stroke-width:1.5;" width="172" x="3010.5" y="343.0647"/><text fill="#000000" font-family="sans-serif" font-size="12" lengthAdjust="spacing" textLength="152" x="3020.5" y="365.8928">SecurityKnowledgeTraining</text><line style="stroke:#181818;stroke-width:1.5;" x1="3000.5" x2="3000.5" y1="122.6882" y2="361.2367"/><line style="stroke:#181818;stroke-width:1.5;" x1="3294.5" x2="3294.5" y1="66.3441" y2="86.3441"/><rect fill="#F1F1F1" height="36.3441" style="stroke:#181818;stroke-width:1.5;" width="184" x="3202.5" y="86.3441"/><text fill="#000000" font-family="sans-serif" font-size="12" lengthAdjust="spacing" textLength="164" x="3212.5" y="109.1722">SupportEntityDecisionMaking</text><line style="stroke:#181818;stroke-width:1.5;" x1="3294.5" x2="3304.5" y1="155.8603" y2="155.8603"/><rect fill="#F1F1F1" height="36.3441" style="stroke:#181818;stroke-width:1.5;" width="177" x="3304.5" y="137.6882"/><text fill="#000000" font-family="sans-serif" font-size="12" lengthAdjust="spacing" textLength="157" x="3314.5" y="160.5163">SupportContractNegotiation</text><line style="stroke:#181818;stroke-width:1.5;" x1="3294.5" x2="3304.5" y1="207.2044" y2="207.2044"/><rect fill="#F1F1F1" height="36.3441" style="stroke:#181818;stroke-width:1.5;" width="163" x="3304.5" y="189.0323"/><text fill="#000000" font-family="sans-serif" font-size="12" lengthAdjust="spacing" textLength="143" x="3314.5" y="211.8604">SupportExchangeOfViews</text><line style="stroke:#181818;stroke-width:1.5;" x1="3294.5" x2="3304.5" y1="258.5485" y2="258.5485"/><rect fill="#F1F1F1" height="36.3441" style="stroke:#181818;stroke-width:1.5;" width="210" x="3304.5" y="240.3765"/><text fill="#000000" font-family="sans-serif" font-size="12" lengthAdjust="spacing" textLength="190" x="3314.5" y="263.2045">SupportInformedConsentDecision</text><line style="stroke:#181818;stroke-width:1.5;" x1="3294.5" x2="3294.5" y1="122.6882" y2="258.5485"/><line style="stroke:#181818;stroke-width:1.5;" x1="54" x2="3294.5" y1="66.3441" y2="66.3441"/><rect fill="#F1F1F1" height="36.3441" style="stroke:#181818;stroke-width:1.5;" width="152" x="1598.25" y="10"/><text fill="#000000" font-family="sans-serif" font-size="12" lengthAdjust="spacing" textLength="132" x="1608.25" y="32.8281">OrganisationalMeasure</text><line style="stroke:#181818;stroke-width:1.5;" x1="1674.25" x2="1674.25" y1="46.3441" y2="66.3441"/><!--SRC=[TLNRKk9047tFLyoZKgMrM6fPFCbD2mN99kW-3vDEc3NqK7D1-VljoGMIoBwHFZrdJf_k7XwDvTf-hKqGzDXIPnobuLOgvFa2k74QWbwF3Oq1OxQ0bhvwRAoskrno5F03m5JfxHbamYsVeGMjTg3vMkRI7iwa_7Ry339DKn1MxW4fEW5YsKeiL8PQ2KX8fIaIvv19AxVSGd4N6DjYOcFGLgPI56TZu7cfkXaj8XNawp4kjoUW6VWZxMRex4PfKdmMzHN5RlsNn9_7mwM_PI99DS_daYHpKL8DPwrFpzG8i6Ur1utUvuu3lbwxuCWpy4Ltq5FZ5Wgb9UMObVpKTKFq4GZFVEYScw6G2T7zbxXEY62do4pCwAQjmwQdeSfbLKq4UmbVHuhISiinuJenZHagAdL4d4lgV4XgXTpbK9MIm3AbvCHLxax0o0nhdY9qF5mgQ17GrvxS71qca7BgIZVeoRo0DsMbW6CNLfgZIK4tmjMXHYG6uVnKrBOSeOAjCse_Kni9p7U4N5ccGxy1DDsLurxBI0CNcpBZ62niDOPwq02wjnmX5ibiOysfiKUUQd3FuhCmwaH2lvDqgy8Mm6AUGkRgVaJqE-SqTuUOkhHMtwMuEkT9wQR5GKDuUrYgjJFjDw20HbnyPbevJCOR49ydisgcZl0Y32VJfhYNMc4RfsEHohkxjjf8dOJqV1v-g3H1ET9fIiL8hDTiV5Y3DbLo2wawP_qxfx05JMd2goUv5QVq50hBEq2jvXNLLmv91WsKnMxdLtIAbZ8c86JPiy_ZuHAdnRBqsDWto6WW6-DQ7VyM6uuPRU07RR9fGhDYVI7nZnsPM5yH18-0IV574-OSxVjYpkYbyH3hNz_ykhczlhk87R85Fx2RUzRl3_ftWxi7Dfx6A-Rno-3YEPmpevmMm19fh9PhvvLT1YzyprdagAWj3DXo1_WoUQq3hDdJbu_5AU7-zceaBHccIGhxM0JLMq0dX4h8aW5xNprTFGHpAjRHs0mOO32cwRBwG5Zy3m00]--></g></svg>