<svg xmlns="http://www.w3.org/2000/svg" xmlns:xlink="http://www.w3.org/1999/xlink" contentStyleType="text/css" height="399px" preserveAspectRatio="none" style="width:583px;height:399px;background:#FFFFFF;" version="1.1" viewBox="0 0 583 399" width="583px" zoomAndPan="magnify"><defs/><g><!--cluster dpv--><g id="cluster_dpv"><path d="M8.5,109 L35.8125,109 A3.75,3.75 0 0 1 38.3125,111.5 L45.3125,134.0679 L438.5,134.0679 A2.5,2.5 0 0 1 441,136.5679 L441,389.5 A2.5,2.5 0 0 1 438.5,392 L8.5,392 A2.5,2.5 0 0 1 6,389.5 L6,111.5 A2.5,2.5 0 0 1 8.5,109 " fill="none" style="stroke:#000000;stroke-width:1.5;"/><line style="stroke:#000000;stroke-width:1.5;" x1="6" x2="45.3125" y1="134.0679" y2="134.0679"/><text fill="#000000" font-family="sans-serif" font-size="14" font-weight="bold" lengthAdjust="spacing" textLength="26.3125" x="10" y="125.9659">dpv</text></g><!--class Location--><g id="elem_Location"><rect codeLine="7" fill="#F1F1F1" height="113.3396" id="Location" rx="2.5" ry="2.5" style="stroke:#181818;stroke-width:0.5;" width="138" x="159" y="147"/><text fill="#000000" font-family="sans-serif" font-size="14" lengthAdjust="spacing" textLength="56" x="200" y="166.9659">Location</text><line style="stroke:#181818;stroke-width:0.5;" x1="160" x2="296" y1="176.0679" y2="176.0679"/><text fill="#000000" font-family="sans-serif" font-size="14" lengthAdjust="spacing" textLength="116" x="165" y="195.0339">String iso_alpha2</text><text fill="#000000" font-family="sans-serif" font-size="14" lengthAdjust="spacing" textLength="116" x="165" y="214.1018">String iso_alpha3</text><text fill="#000000" font-family="sans-serif" font-size="14" lengthAdjust="spacing" textLength="126" x="165" y="233.1697">String iso_numeric</text><text fill="#000000" font-family="sans-serif" font-size="14" lengthAdjust="spacing" textLength="98" x="165" y="252.2376">String un_m49</text></g><!--class City--><g id="elem_City"><rect codeLine="13" fill="#F1F1F1" height="37.0679" id="City" rx="2.5" ry="2.5" style="stroke:#181818;stroke-width:0.5;" width="31" x="33.5" y="339"/><text fill="#000000" font-family="sans-serif" font-size="14" lengthAdjust="spacing" textLength="25" x="36.5" y="358.9659">City</text><line style="stroke:#181818;stroke-width:0.5;" x1="34.5" x2="63.5" y1="368.0679" y2="368.0679"/></g><!--class Region--><g id="elem_Region"><rect codeLine="14" fill="#F1F1F1" height="37.0679" id="Region" rx="2.5" ry="2.5" style="stroke:#181818;stroke-width:0.5;" width="53" x="99.5" y="339"/><text fill="#000000" font-family="sans-serif" font-size="14" lengthAdjust="spacing" textLength="47" x="102.5" y="358.9659">Region</text><line style="stroke:#181818;stroke-width:0.5;" x1="100.5" x2="151.5" y1="368.0679" y2="368.0679"/></g><!--class Country--><g id="elem_Country"><rect codeLine="15" fill="#F1F1F1" height="37.0679" id="Country" rx="2.5" ry="2.5" style="stroke:#181818;stroke-width:0.5;" width="59" x="187.5" y="339"/><text fill="#000000" font-family="sans-serif" font-size="14" lengthAdjust="spacing" textLength="53" x="190.5" y="358.9659">Country</text><line style="stroke:#181818;stroke-width:0.5;" x1="188.5" x2="245.5" y1="368.0679" y2="368.0679"/></g><!--class SupraNationalUnion--><g id="elem_SupraNationalUnion"><rect codeLine="16" fill="#F1F1F1" height="37.0679" id="SupraNationalUnion" rx="2.5" ry="2.5" style="stroke:#181818;stroke-width:0.5;" width="143" x="281.5" y="339"/><text fill="#000000" font-family="sans-serif" font-size="14" lengthAdjust="spacing" textLength="137" x="284.5" y="358.9659">SupraNationalUnion</text><line style="stroke:#181818;stroke-width:0.5;" x1="282.5" x2="423.5" y1="368.0679" y2="368.0679"/></g><!--class Thing--><g id="elem_Thing"><rect codeLine="4" fill="#C0C0C0" height="37.0679" id="Thing" rx="2.5" ry="2.5" style="stroke:#181818;stroke-width:0.5;" width="45" x="205.5" y="7"/><text fill="#000000" font-family="sans-serif" font-size="14" lengthAdjust="spacing" textLength="39" x="208.5" y="26.9659">Thing</text><line style="stroke:#181818;stroke-width:0.5;" x1="206.5" x2="249.5" y1="36.0679" y2="36.0679"/></g><!--class EU_Vocabularies--><g id="elem_EU_Vocabularies"><rect fill="#F1F1F1" height="37.0679" id="EU_Vocabularies" rx="2.5" ry="2.5" style="stroke:#181818;stroke-width:0.5;" width="116" x="460" y="339"/><text fill="#000000" font-family="sans-serif" font-size="14" lengthAdjust="spacing" textLength="110" x="463" y="358.9659">EU_Vocabularies</text><line style="stroke:#181818;stroke-width:0.5;" x1="461" x2="575" y1="368.0679" y2="368.0679"/></g><!--link Thing to Location--><g id="link_Thing_Location"><path codeLine="19" d="M228,44.34 C228,68.2 228,111.58 228,146.88 " fill="none" id="Thing-Location" style="stroke:#181818;stroke-width:1.0;"/><polygon fill="#000000" points="233,88.853,235.9389,79.8079,230.0611,79.8079,233,88.853" style="stroke:#000000;stroke-width:1.0;"/><text fill="#000000" font-family="sans-serif" font-size="13" lengthAdjust="spacing" textLength="73" x="242" y="88.897">hasLocation</text></g><!--link Location to City--><g id="link_Location_City"><path codeLine="20" d="M158.83,229.64 C128.97,243.48 95.74,263.35 73,290 C61.13,303.91 54.94,324.16 51.85,338.65 " fill="none" id="Location-City" style="stroke:#181818;stroke-width:1.0;stroke-dasharray:7.0,7.0;"/><polygon fill="#000000" points="74.4978,303.4216,82.9309,299.0245,78.7357,294.9074,74.4978,303.4216" style="stroke:#000000;stroke-width:1.0;"/><text fill="#000000" font-family="sans-serif" font-size="13" lengthAdjust="spacing" textLength="47" x="87" y="304.897">rdf:type</text></g><!--link Location to Region--><g id="link_Location_Region"><path codeLine="21" d="M173.51,260.24 C165.71,269.74 158.23,279.84 152,290 C142.55,305.43 135.42,324.89 131.04,338.77 " fill="none" id="Location-Region" style="stroke:#181818;stroke-width:1.0;stroke-dasharray:7.0,7.0;"/><polygon fill="#000000" points="154.6215,304.251,161.5094,297.693,156.3392,294.8969,154.6215,304.251" style="stroke:#000000;stroke-width:1.0;"/><text fill="#000000" font-family="sans-serif" font-size="13" lengthAdjust="spacing" textLength="47" x="166" y="304.897">rdf:type</text></g><!--link Location to Country--><g id="link_Location_Country"><path codeLine="22" d="M225.28,260.39 C224.38,276.13 223.28,293.24 222,309 C221.19,318.92 220.04,329.97 219.05,338.92 " fill="none" id="Location-Country" style="stroke:#181818;stroke-width:1.0;stroke-dasharray:7.0,7.0;"/><polygon fill="#000000" points="228.6046,304.8373,232.2496,296.053,226.3902,295.5882,228.6046,304.8373" style="stroke:#000000;stroke-width:1.0;"/><text fill="#000000" font-family="sans-serif" font-size="13" lengthAdjust="spacing" textLength="47" x="238" y="304.897">rdf:type</text></g><!--link Location to SupraNationalUnion--><g id="link_Location_SupraNationalUnion"><path codeLine="23" d="M273.84,260.24 C296.55,287.86 322.43,319.33 338.24,338.55 " fill="none" id="Location-SupraNationalUnion" style="stroke:#181818;stroke-width:1.0;stroke-dasharray:7.0,7.0;"/><polygon fill="#000000" points="321.1759,303.7149,317.7006,294.862,313.1607,298.5954,321.1759,303.7149" style="stroke:#000000;stroke-width:1.0;"/><text fill="#000000" font-family="sans-serif" font-size="13" lengthAdjust="spacing" textLength="47" x="327" y="304.897">rdf:type</text></g><!--link Location to Location--><g id="link_Location_Location"><path codeLine="24" d="M297.01,185.57 C316.77,186.27 332,192.25 332,203.5 C332,214.75 316.77,220.73 297.01,221.43 " fill="none" id="Location-Location" style="stroke:#181818;stroke-width:1.0;"/><text fill="#000000" font-family="sans-serif" font-size="13" lengthAdjust="spacing" textLength="78" x="348" y="199.897">skos:broader</text><polygon fill="#000000" points="343.177,217.5559,345.7939,208.4124,339.9197,208.6205,343.177,217.5559" style="stroke:#000000;stroke-width:1.0;"/><text fill="#000000" font-family="sans-serif" font-size="13" lengthAdjust="spacing" textLength="85" x="351" y="217.603">skos:narrower</text></g><!--link Location to EU_Vocabularies--><g id="link_Location_EU_Vocabularies"><path codeLine="25" d="M297.46,240.91 C356.28,271.74 438.1,314.62 483.74,338.54 " fill="none" id="Location-EU_Vocabularies" style="stroke:#181818;stroke-width:1.0;stroke-dasharray:7.0,7.0;"/><polygon fill="#000000" points="434.4286,302.1741,427.7815,295.3722,425.0529,300.5783,434.4286,302.1741" style="stroke:#000000;stroke-width:1.0;"/><text fill="#000000" font-family="sans-serif" font-size="13" lengthAdjust="spacing" textLength="100" x="439" y="304.897">skos:exactMatch</text></g><!--SRC=[TOynJmCn38Nt_8f8pEq0BDp0WjYW0wLCI2StCPUekIIoaqA5-j_9tPLo79mdFx_FyhEn6cMBoGJDmdH2ML8EMGZbW5a-6-iRUS7MxP64YA1sqA3KSIy_XImrO0z1GRB1duPThHDrgvP33IuQk9nrhlvpV6wHh9fQsTVjzKq_FOxktzbq6CadR4gOiH-oJpH6rZaIhFhGu3Q-muz23Eyk5ZyFLT80dzMjEBVBPN-r0AJVgdI8E7674FF-ATCyy3VY3FixB-y2LriAe95UVQyy48LtfCc1-qtzKkGsEo2B_BsB7w3I8oHb2ly5]--></g></svg>