<svg xmlns="http://www.w3.org/2000/svg" xmlns:xlink="http://www.w3.org/1999/xlink" contentStyleType="text/css" height="313px" preserveAspectRatio="none" style="width:570px;height:313px;background:#FFFFFF;" version="1.1" viewBox="0 0 570 313" width="570px" zoomAndPan="magnify"><defs/><g><!--cluster dpv--><g id="cluster_dpv"><path d="M244.5,6.602 L271.8125,6.602 A3.75,3.75 0 0 1 274.3125,9.102 L281.3125,31.6699 L560.5,31.6699 A2.5,2.5 0 0 1 563,34.1699 L563,216.102 A2.5,2.5 0 0 1 560.5,218.602 L244.5,218.602 A2.5,2.5 0 0 1 242,216.102 L242,9.102 A2.5,2.5 0 0 1 244.5,6.602 " fill="none" style="stroke:#000000;stroke-width:1.5;"/><line style="stroke:#000000;stroke-width:1.5;" x1="242" x2="281.3125" y1="31.6699" y2="31.6699"/><text fill="#000000" font-family="sans-serif" font-size="14" font-weight="bold" lengthAdjust="spacing" textLength="26.3125" x="246" y="23.5679">dpv</text></g><!--class DataProcessor--><g id="elem_DataProcessor"><rect codeLine="7" fill="#F1F1F1" height="29.0679" id="DataProcessor" rx="2.5" ry="2.5" style="stroke:#181818;stroke-width:0.5;" width="102" x="444" y="45.102"/><text fill="#000000" font-family="sans-serif" font-size="14" lengthAdjust="spacing" textLength="96" x="447" y="65.0679">DataProcessor</text></g><!--class DataController--><g id="elem_DataController"><rect codeLine="8" fill="#F1F1F1" height="29.0679" id="DataController" rx="2.5" ry="2.5" style="stroke:#181818;stroke-width:0.5;" width="104" x="443" y="109.102"/><text fill="#000000" font-family="sans-serif" font-size="14" lengthAdjust="spacing" textLength="98" x="446" y="129.0679">DataController</text></g><!--class ThirdParty--><g id="elem_ThirdParty"><rect codeLine="9" fill="#F1F1F1" height="29.0679" id="ThirdParty" rx="2.5" ry="2.5" style="stroke:#181818;stroke-width:0.5;" width="76" x="457" y="173.102"/><text fill="#000000" font-family="sans-serif" font-size="14" lengthAdjust="spacing" textLength="70" x="460" y="193.0679">ThirdParty</text></g><!--class Recipient--><g id="elem_Recipient"><rect codeLine="10" fill="#F1F1F1" height="29.0679" id="Recipient" rx="2.5" ry="2.5" style="stroke:#181818;stroke-width:0.5;" width="69" x="258" y="45.102"/><text fill="#000000" font-family="sans-serif" font-size="14" lengthAdjust="spacing" textLength="63" x="261" y="65.0679">Recipient</text></g><!--class Thing--><g id="elem_Thing"><rect codeLine="5" fill="#C0C0C0" height="29.0679" id="Thing" rx="2.5" ry="2.5" style="stroke:#181818;stroke-width:0.5;" width="45" x="7" y="159.102"/><text fill="#000000" font-family="sans-serif" font-size="14" lengthAdjust="spacing" textLength="39" x="10" y="179.0679">Thing</text></g><!--reverse link Recipient to ThirdParty--><g id="link_Recipient_ThirdParty"><path codeLine="12" d="M343.9917,80.2187 C360.9717,87.5887 364.97,90.352 382,101.602 C412.21,121.562 414.01,133.912 443,155.602 C450.95,161.552 460.02,167.502 468.29,172.612 " fill="none" id="Recipient-backto-ThirdParty" style="stroke:#181818;stroke-width:1.0;"/><polygon fill="none" points="327.48,73.052,341.6028,85.7227,346.3807,74.7148,327.48,73.052" style="stroke:#181818;stroke-width:1.0;"/></g><!--reverse link Recipient to DataController--><g id="link_Recipient_DataController"><path codeLine="13" d="M345.1013,69.3179 C369.2813,74.1479 384.72,78.102 413,87.602 C430.36,93.442 449.08,101.632 464.15,108.722 " fill="none" id="Recipient-backto-DataController" style="stroke:#181818;stroke-width:1.0;"/><polygon fill="none" points="327.45,65.792,343.926,75.2016,346.2766,63.4341,327.45,65.792" style="stroke:#181818;stroke-width:1.0;"/></g><!--reverse link Recipient to DataProcessor--><g id="link_Recipient_DataProcessor"><path codeLine="14" d="M345.06,59.602 C376.94,59.602 407.3,59.602 443.77,59.602 " fill="none" id="Recipient-backto-DataProcessor" style="stroke:#181818;stroke-width:1.0;"/><polygon fill="none" points="327.06,59.602,345.06,65.602,345.06,53.602,327.06,59.602" style="stroke:#181818;stroke-width:1.0;"/></g><!--link Thing to Recipient--><g id="link_Thing_Recipient"><path codeLine="16" d="M37.53,158.702 C45.85,142.742 61.24,117.932 82,104.602 C136.48,69.642 213.68,61.422 257.55,59.742 " fill="none" id="Thing-Recipient" style="stroke:#181818;stroke-width:1.0;"/><polygon fill="#000000" points="91.56,60.404,82.1054,61.434,84.5164,66.7946,91.56,60.404" style="stroke:#000000;stroke-width:1.0;"/><text fill="#000000" font-family="sans-serif" font-size="13" lengthAdjust="spacing" textLength="76" x="96" y="67.499">hasRecipient</text></g><!--link Thing to DataController--><g id="link_Thing_DataController"><path codeLine="17" d="M52.42,179.332 C108.5,192.992 261.28,223.962 382,190.602 C386.82,189.272 438.23,157.932 469.7,138.592 " fill="none" id="Thing-DataController" style="stroke:#181818;stroke-width:1.0;"/><polygon fill="#000000" points="212.9763,180.9691,203.6885,178.923,204.2596,184.7731,212.9763,180.9691" style="stroke:#000000;stroke-width:1.0;"/><text fill="#000000" font-family="sans-serif" font-size="13" lengthAdjust="spacing" textLength="164" x="217" y="186.499">hasRecipientDataController</text></g><!--link Thing to DataProcessor--><g id="link_Thing_DataProcessor"><path codeLine="18" d="M52.05,170.462 C118.44,160.682 319.12,130.222 382,110.602 C411.98,101.252 444.46,85.832 466.68,74.382 " fill="none" id="Thing-DataProcessor" style="stroke:#181818;stroke-width:1.0;"/><polygon fill="#000000" points="213.3709,100.3263,203.8959,99.5051,205.2228,105.2312,213.3709,100.3263" style="stroke:#000000;stroke-width:1.0;"/><text fill="#000000" font-family="sans-serif" font-size="13" lengthAdjust="spacing" textLength="163" x="217.5" y="106.499">hasRecipientDataProcessor</text></g><!--link Thing to ThirdParty--><g id="link_Thing_ThirdParty"><path codeLine="19" d="M37.68,188.422 C46.13,204.352 61.64,229.292 82,243.602 C127.9,275.882 147.48,271.522 203,279.602 C281.73,291.072 307.1,306.422 382,279.602 C425.12,264.172 463.54,224.182 482.14,202.352 " fill="none" id="Thing-ThirdParty" style="stroke:#181818;stroke-width:1.0;"/><polygon fill="#000000" points="225.4975,270.6116,216.549,267.3908,216.3648,273.2658,225.4975,270.6116" style="stroke:#000000;stroke-width:1.0;"/><text fill="#000000" font-family="sans-serif" font-size="13" lengthAdjust="spacing" textLength="139" x="229.5" y="275.499">hasRecipientThirdParty</text></g><!--SRC=[ROz13i8m30JF-1L673Z10n3Y0Wz0Y0-4rBGH9euI5ma1VmU4QDB2BTdPNTjZvost5M7IAzCyiF7QdXcOZeeg65tTA5OkabKd7gOguQqVH5NE1G3B9YNSDyxNE4cEBnGX67ioDM4LBdY3qSUoCMgsKIob9B4Kr-8r2ZDrwgijLbiJzVfLTcHTSEGL7j2zSNcVpKhpW0pA_z2y3tmkUEdPji36fFnTPK-_kU_his6gc_WRwb2PoTSDrYd02k09]--></g></svg>