<svg xmlns="http://www.w3.org/2000/svg" xmlns:xlink="http://www.w3.org/1999/xlink" contentStyleType="text/css" height="97px" preserveAspectRatio="none" style="width:312px;height:97px;background:#FFFFFF;" version="1.1" viewBox="0 0 312 97" width="312px" zoomAndPan="magnify"><defs/><g><!--cluster dpv--><g id="cluster_dpv"><path d="M198.5,6.602 L225.8125,6.602 A3.75,3.75 0 0 1 228.3125,9.102 L235.3125,31.6699 L302.5,31.6699 A2.5,2.5 0 0 1 305,34.1699 L305,88.102 A2.5,2.5 0 0 1 302.5,90.602 L198.5,90.602 A2.5,2.5 0 0 1 196,88.102 L196,9.102 A2.5,2.5 0 0 1 198.5,6.602 " fill="none" style="stroke:#000000;stroke-width:1.5;"/><line style="stroke:#000000;stroke-width:1.5;" x1="196" x2="235.3125" y1="31.6699" y2="31.6699"/><text fill="#000000" font-family="sans-serif" font-size="14" font-weight="bold" lengthAdjust="spacing" textLength="26.3125" x="200" y="23.5679">dpv</text></g><!--class LegalBasis--><g id="elem_LegalBasis"><rect codeLine="6" fill="#F1F1F1" height="29.0679" id="LegalBasis" rx="2.5" ry="2.5" style="stroke:#181818;stroke-width:0.5;" width="77" x="212" y="45.102"/><text fill="#000000" font-family="sans-serif" font-size="14" lengthAdjust="spacing" textLength="71" x="215" y="65.0679">LegalBasis</text></g><!--class Thing--><g id="elem_Thing"><rect codeLine="4" fill="#C0C0C0" height="29.0679" id="Thing" rx="2.5" ry="2.5" style="stroke:#181818;stroke-width:0.5;" width="45" x="7" y="45.102"/><text fill="#000000" font-family="sans-serif" font-size="14" lengthAdjust="spacing" textLength="39" x="10" y="65.0679">Thing</text></g><!--link Thing to LegalBasis--><g id="link_Thing_LegalBasis"><path codeLine="8" d="M52.3,59.602 C89.52,59.602 165.74,59.602 211.76,59.602 " fill="none" id="Thing-LegalBasis" style="stroke:#181818;stroke-width:1.0;"/><polygon fill="#000000" points="92,50.455,82.9549,47.5161,82.9549,53.3939,92,50.455" style="stroke:#000000;stroke-width:1.0;"/><text fill="#000000" font-family="sans-serif" font-size="13" lengthAdjust="spacing" textLength="83" x="96" y="55.499">hasLegalBasis</text></g><!--SRC=[JSen3i8m34RX6P_YHypb00mCp8nSm4fCOc7IA7Oh8SJT6Jh0-9w-lRPaInPul4oEtRZ5yZGokGTYnj1I0rc7fD2v4ILZTzogjeA3gwqog7DwS17alk9DkurSfR1TsDNfGvkVfhzxGcN_9Sxq1G00]--></g></svg>