<svg xmlns="http://www.w3.org/2000/svg" xmlns:xlink="http://www.w3.org/1999/xlink" contentStyleType="text/css" height="116px" preserveAspectRatio="none" style="width:430px;height:116px;background:#FFFFFF;" version="1.1" viewBox="0 0 430 116" width="430px" zoomAndPan="magnify"><defs/><g><!--cluster dpv--><g id="cluster_dpv"><path d="M310.5,6.602 L337.8125,6.602 A3.75,3.75 0 0 1 340.3125,9.102 L347.3125,31.6699 L420.5,31.6699 A2.5,2.5 0 0 1 423,34.1699 L423,88.102 A2.5,2.5 0 0 1 420.5,90.602 L310.5,90.602 A2.5,2.5 0 0 1 308,88.102 L308,9.102 A2.5,2.5 0 0 1 310.5,6.602 " fill="none" style="stroke:#000000;stroke-width:1.5;"/><line style="stroke:#000000;stroke-width:1.5;" x1="308" x2="347.3125" y1="31.6699" y2="31.6699"/><text fill="#000000" font-family="sans-serif" font-size="14" font-weight="bold" lengthAdjust="spacing" textLength="26.3125" x="312" y="23.5679">dpv</text></g><!--class Technology--><g id="elem_Technology"><rect codeLine="7" fill="#F1F1F1" height="29.0679" id="Technology" rx="2.5" ry="2.5" style="stroke:#181818;stroke-width:0.5;" width="83" x="324" y="45.102"/><text fill="#000000" font-family="sans-serif" font-size="14" lengthAdjust="spacing" textLength="77" x="327" y="65.0679">Technology</text></g><!--class Thing--><g id="elem_Thing"><rect codeLine="5" fill="#C0C0C0" height="29.0679" id="Thing" rx="2.5" ry="2.5" style="stroke:#181818;stroke-width:0.5;" width="45" x="7" y="46.102"/><text fill="#000000" font-family="sans-serif" font-size="14" lengthAdjust="spacing" textLength="39" x="10" y="66.0679">Thing</text></g><!--link Thing to Technology--><g id="link_Thing_Technology"><path codeLine="9" d="M52.41,60.532 C107.49,60.372 252.38,59.942 323.68,59.722 " fill="none" id="Thing-Technology" style="stroke:#181818;stroke-width:1.0;"/><polygon fill="#000000" points="92,51.4401,82.9462,48.5282,82.9637,54.406,92,51.4401" style="stroke:#000000;stroke-width:1.0;"/><text fill="#000000" font-family="sans-serif" font-size="13" lengthAdjust="spacing" textLength="195" x="96" y="56.499">isImplementedUsingTechnology</text></g><!--link Technology to Thing--><g id="link_Technology_Thing"><path codeLine="10" d="M333.48,74.472 C320.91,79.732 306.06,84.982 292,87.602 C200.25,104.702 172.63,109.922 82,87.602 C71.71,85.072 61.19,80.072 52.37,75.052 " fill="none" id="Technology-Thing" style="stroke:#181818;stroke-width:1.0;"/><polygon fill="#000000" points="144,78.4653,153.0511,81.3856,153.039,75.5077,144,78.4653" style="stroke:#000000;stroke-width:1.0;"/><text fill="#000000" font-family="sans-serif" font-size="13" lengthAdjust="spacing" textLength="71" x="158" y="83.499">implements</text></g><!--SRC=[JOmn3i8m34LdV0eZ1gPo00PsTZX0I4nguSHHurQg47Sd5I0w_l_V-rlENiP0M6qMEXHnsSOa87GtDCM1OsyOU21lh1dsfcNfRsgcQJM05rShNdhE4NULPQ81YlCF5mb3cV09coz2liyg6cTumOVlkbLxHAxdL8GIPQDmhOtuhtY2LLZ4vQ4vFwCs0ju0]--></g></svg>