<svg xmlns="http://www.w3.org/2000/svg" xmlns:xlink="http://www.w3.org/1999/xlink" contentStyleType="text/css" height="281px" preserveAspectRatio="none" style="width:1111px;height:281px;background:#FFFFFF;" version="1.1" viewBox="0 0 1111 281" width="1111px" zoomAndPan="magnify"><defs/><g><!--cluster dpv--><g id="cluster_dpv"><path d="M8.5,101 L35.8125,101 A3.75,3.75 0 0 1 38.3125,103.5 L45.3125,126.0679 L1101.5,126.0679 A2.5,2.5 0 0 1 1104,128.5679 L1104,271.5 A2.5,2.5 0 0 1 1101.5,274 L8.5,274 A2.5,2.5 0 0 1 6,271.5 L6,103.5 A2.5,2.5 0 0 1 8.5,101 " fill="none" style="stroke:#000000;stroke-width:1.5;"/><line style="stroke:#000000;stroke-width:1.5;" x1="6" x2="45.3125" y1="126.0679" y2="126.0679"/><text fill="#000000" font-family="sans-serif" font-size="14" font-weight="bold" lengthAdjust="spacing" textLength="26.3125" x="10" y="117.9659">dpv</text></g><!--class Entity--><g id="elem_Entity"><rect codeLine="6" fill="#F1F1F1" height="29.0679" id="Entity" rx="2.5" ry="2.5" style="stroke:#181818;stroke-width:0.5;" width="44" x="459" y="139"/><text fill="#000000" font-family="sans-serif" font-size="14" lengthAdjust="spacing" textLength="38" x="462" y="158.9659">Entity</text></g><!--class EntityInvolvement--><g id="elem_EntityInvolvement"><rect codeLine="7" fill="#F1F1F1" height="29.0679" id="EntityInvolvement" rx="2.5" ry="2.5" style="stroke:#181818;stroke-width:0.5;" width="127" x="538.5" y="139"/><text fill="#000000" font-family="sans-serif" font-size="14" lengthAdjust="spacing" textLength="121" x="541.5" y="158.9659">EntityInvolvement</text></g><!--class EntityPermissiveInvolvement--><g id="elem_EntityPermissiveInvolvement"><rect codeLine="8" fill="#F1F1F1" height="29.0679" id="EntityPermissiveInvolvement" rx="2.5" ry="2.5" style="stroke:#181818;stroke-width:0.5;" width="199" x="22.5" y="229"/><text fill="#000000" font-family="sans-serif" font-size="14" lengthAdjust="spacing" textLength="193" x="25.5" y="248.9659">EntityPermissiveInvolvement</text></g><!--class EntityNonPermissiveInvolvement--><g id="elem_EntityNonPermissiveInvolvement"><rect codeLine="9" fill="#F1F1F1" height="29.0679" id="EntityNonPermissiveInvolvement" rx="2.5" ry="2.5" style="stroke:#181818;stroke-width:0.5;" width="227" x="256.5" y="229"/><text fill="#000000" font-family="sans-serif" font-size="14" lengthAdjust="spacing" textLength="221" x="259.5" y="248.9659">EntityNonPermissiveInvolvement</text></g><!--class EntityActiveInvolvement--><g id="elem_EntityActiveInvolvement"><rect codeLine="10" fill="#F1F1F1" height="29.0679" id="EntityActiveInvolvement" rx="2.5" ry="2.5" style="stroke:#181818;stroke-width:0.5;" width="167" x="518.5" y="229"/><text fill="#000000" font-family="sans-serif" font-size="14" lengthAdjust="spacing" textLength="161" x="521.5" y="248.9659">EntityActiveInvolvement</text></g><!--class EntityPassiveInvolvement--><g id="elem_EntityPassiveInvolvement"><rect codeLine="11" fill="#F1F1F1" height="29.0679" id="EntityPassiveInvolvement" rx="2.5" ry="2.5" style="stroke:#181818;stroke-width:0.5;" width="176" x="721" y="229"/><text fill="#000000" font-family="sans-serif" font-size="14" lengthAdjust="spacing" textLength="170" x="724" y="248.9659">EntityPassiveInvolvement</text></g><!--class EntityNonInvolvement--><g id="elem_EntityNonInvolvement"><rect codeLine="12" fill="#F1F1F1" height="29.0679" id="EntityNonInvolvement" rx="2.5" ry="2.5" style="stroke:#181818;stroke-width:0.5;" width="155" x="932.5" y="229"/><text fill="#000000" font-family="sans-serif" font-size="14" lengthAdjust="spacing" textLength="149" x="935.5" y="248.9659">EntityNonInvolvement</text></g><!--class Thing--><g id="elem_Thing"><rect codeLine="4" fill="#C0C0C0" height="29.0679" id="Thing" rx="2.5" ry="2.5" style="stroke:#181818;stroke-width:0.5;" width="45" x="518.5" y="7"/><text fill="#000000" font-family="sans-serif" font-size="14" lengthAdjust="spacing" textLength="39" x="521.5" y="26.9659">Thing</text></g><!--link Thing to EntityInvolvement--><g id="link_Thing_EntityInvolvement"><path codeLine="15" d="M547.53,36.41 C559.27,61.43 583.81,113.74 595.52,138.69 " fill="none" id="Thing-EntityInvolvement" style="stroke:#181818;stroke-width:1.0;"/><polygon fill="#000000" points="576.1238,80.3795,574.9424,70.9426,569.6212,73.4394,576.1238,80.3795" style="stroke:#000000;stroke-width:1.0;"/><text fill="#000000" font-family="sans-serif" font-size="13" lengthAdjust="spacing" textLength="132" x="583" y="80.897">hasEntityInvolvement</text></g><!--reverse link EntityInvolvement to EntityPermissiveInvolvement--><g id="link_EntityInvolvement_EntityPermissiveInvolvement"><path codeLine="16" d="M520.5549,169.4348 C432.7049,185.5348 292.32,211.27 198.29,228.51 " fill="none" id="EntityInvolvement-backto-EntityPermissiveInvolvement" style="stroke:#181818;stroke-width:1.0;"/><polygon fill="none" points="538.26,166.19,519.4733,163.5331,521.6365,175.3365,538.26,166.19" style="stroke:#181818;stroke-width:1.0;"/></g><!--reverse link EntityInvolvement to EntityNonPermissiveInvolvement--><g id="link_EntityInvolvement_EntityNonPermissiveInvolvement"><path codeLine="17" d="M548.4104,174.8247 C504.9704,191.3047 449.96,212.17 406.59,228.62 " fill="none" id="EntityInvolvement-backto-EntityNonPermissiveInvolvement" style="stroke:#181818;stroke-width:1.0;"/><polygon fill="none" points="565.24,168.44,546.2822,169.2148,550.5386,180.4346,565.24,168.44" style="stroke:#181818;stroke-width:1.0;"/></g><!--reverse link EntityInvolvement to EntityActiveInvolvement--><g id="link_EntityInvolvement_EntityActiveInvolvement"><path codeLine="18" d="M602,186.25 C602,202.69 602,212.04 602,228.56 " fill="none" id="EntityInvolvement-backto-EntityActiveInvolvement" style="stroke:#181818;stroke-width:1.0;"/><polygon fill="none" points="602,168.25,596,186.25,608,186.25,602,168.25" style="stroke:#181818;stroke-width:1.0;"/></g><!--reverse link EntityInvolvement to EntityPassiveInvolvement--><g id="link_EntityInvolvement_EntityPassiveInvolvement"><path codeLine="19" d="M651.3649,175.4831 C690.1249,191.9631 737.66,212.17 776.35,228.62 " fill="none" id="EntityInvolvement-backto-EntityPassiveInvolvement" style="stroke:#181818;stroke-width:1.0;"/><polygon fill="none" points="634.8,168.44,649.0172,181.0047,653.7126,169.9614,634.8,168.44" style="stroke:#181818;stroke-width:1.0;"/></g><!--reverse link EntityInvolvement to EntityNonInvolvement--><g id="link_EntityInvolvement_EntityNonInvolvement"><path codeLine="20" d="M683.3452,172.0461 C759.5452,188.4861 868.75,212.04 945.35,228.56 " fill="none" id="EntityInvolvement-backto-EntityNonInvolvement" style="stroke:#181818;stroke-width:1.0;"/><polygon fill="none" points="665.75,168.25,682.0798,177.9112,684.6105,166.1811,665.75,168.25" style="stroke:#181818;stroke-width:1.0;"/></g><!--link Thing to Entity--><g id="link_Thing_Entity"><path codeLine="22" d="M534.58,36.41 C523.03,61.43 498.89,113.74 487.37,138.69 " fill="none" id="Thing-Entity" style="stroke:#181818;stroke-width:1.0;"/><polygon fill="#000000" points="521.9046,80.0397,528.3636,73.0589,523.0269,70.5956,521.9046,80.0397" style="stroke:#000000;stroke-width:1.0;"/><text fill="#000000" font-family="sans-serif" font-size="13" lengthAdjust="spacing" textLength="92" x="396.5001" y="58.0074">hasActiveEntity</text><text fill="#000000" font-family="sans-serif" font-size="13" lengthAdjust="spacing" textLength="100" x="392.5001" y="75.7134">hasPassiveEntity</text><text fill="#000000" font-family="sans-serif" font-size="13" lengthAdjust="spacing" textLength="158" x="363.5001" y="93.4194">hasNonInvolvementEntity</text><text fill="#000000" font-family="sans-serif" font-size="13" lengthAdjust="spacing" textLength="130" x="377.5001" y="111.1254">isDeterminedByEntity</text></g><!--SRC=[bP0_JyD03CNt-nIc34nbw5XLI20wT44T65ciYvLOlJYdyoLILFZklUe01Gv2yVZpyv_thbYiwoi2ZQEZM-zGOjywSwC75ey1MwX3r_kTD1GuebY2bJ7MeIeyDomrN2kxWOBnQ0zO4rH-WAE1L5crbSXnBC1EXYxDjIInwEqfjApA0ysfdZgvJ7Xlun-AFLvoRTf-CoRRNovBGx261hN4TwPaczVF3J-xcHtvDOFPgJAG-R_mtqzDjT-3IkaiKZpvYOnU987tCnFoTT57W_MHujcqKFKmPhf8sPu0]--></g></svg>