<svg xmlns="http://www.w3.org/2000/svg" xmlns:xlink="http://www.w3.org/1999/xlink" contentStyleType="text/css" height="334px" preserveAspectRatio="none" style="width:1883px;height:334px;background:#FFFFFF;" version="1.1" viewBox="0 0 1883 334" width="1883px" zoomAndPan="magnify"><defs/><g><!--cluster dpv--><g id="cluster_dpv"><path d="M37.99,154 L65.3025,154 A3.75,3.75 0 0 1 67.8025,156.5 L74.8025,179.0679 L1461.99,179.0679 A2.5,2.5 0 0 1 1464.49,181.5679 L1464.49,324.5 A2.5,2.5 0 0 1 1461.99,327 L37.99,327 A2.5,2.5 0 0 1 35.49,324.5 L35.49,156.5 A2.5,2.5 0 0 1 37.99,154 " fill="none" style="stroke:#000000;stroke-width:1.5;"/><line style="stroke:#000000;stroke-width:1.5;" x1="35.49" x2="74.8025" y1="179.0679" y2="179.0679"/><text fill="#000000" font-family="sans-serif" font-size="14" font-weight="bold" lengthAdjust="spacing" textLength="26.3125" x="39.49" y="170.9659">dpv</text></g><!--class Entity--><g id="elem_Entity"><rect codeLine="5" fill="#F1F1F1" height="29.0679" id="Entity" rx="2.5" ry="2.5" style="stroke:#181818;stroke-width:0.5;" width="44" x="51.49" y="192"/><text fill="#000000" font-family="sans-serif" font-size="14" lengthAdjust="spacing" textLength="38" x="54.49" y="211.9659">Entity</text></g><!--class AutomationLevel--><g id="elem_AutomationLevel"><rect codeLine="6" fill="#F1F1F1" height="29.0679" id="AutomationLevel" rx="2.5" ry="2.5" style="stroke:#181818;stroke-width:0.5;" width="118" x="130.49" y="192"/><text fill="#000000" font-family="sans-serif" font-size="14" lengthAdjust="spacing" textLength="112" x="133.49" y="211.9659">AutomationLevel</text></g><!--class EntityInvolvement--><g id="elem_EntityInvolvement"><rect codeLine="7" fill="#F1F1F1" height="29.0679" id="EntityInvolvement" rx="2.5" ry="2.5" style="stroke:#181818;stroke-width:0.5;" width="127" x="371.99" y="192"/><text fill="#000000" font-family="sans-serif" font-size="14" lengthAdjust="spacing" textLength="121" x="374.99" y="211.9659">EntityInvolvement</text></g><!--class EntityPermissiveInvolvement--><g id="elem_EntityPermissiveInvolvement"><rect codeLine="8" fill="#F1F1F1" height="29.0679" id="EntityPermissiveInvolvement" rx="2.5" ry="2.5" style="stroke:#181818;stroke-width:0.5;" width="199" x="452.99" y="282"/><text fill="#000000" font-family="sans-serif" font-size="14" lengthAdjust="spacing" textLength="193" x="455.99" y="301.9659">EntityPermissiveInvolvement</text></g><!--class EntityNonPermissiveInvolvement--><g id="elem_EntityNonPermissiveInvolvement"><rect codeLine="9" fill="#F1F1F1" height="29.0679" id="EntityNonPermissiveInvolvement" rx="2.5" ry="2.5" style="stroke:#181818;stroke-width:0.5;" width="227" x="686.99" y="282"/><text fill="#000000" font-family="sans-serif" font-size="14" lengthAdjust="spacing" textLength="221" x="689.99" y="301.9659">EntityNonPermissiveInvolvement</text></g><!--class EntityActiveInvolvement--><g id="elem_EntityActiveInvolvement"><rect codeLine="10" fill="#F1F1F1" height="29.0679" id="EntityActiveInvolvement" rx="2.5" ry="2.5" style="stroke:#181818;stroke-width:0.5;" width="167" x="948.99" y="282"/><text fill="#000000" font-family="sans-serif" font-size="14" lengthAdjust="spacing" textLength="161" x="951.99" y="301.9659">EntityActiveInvolvement</text></g><!--class EntityPassiveInvolvement--><g id="elem_EntityPassiveInvolvement"><rect codeLine="11" fill="#F1F1F1" height="29.0679" id="EntityPassiveInvolvement" rx="2.5" ry="2.5" style="stroke:#181818;stroke-width:0.5;" width="176" x="51.49" y="282"/><text fill="#000000" font-family="sans-serif" font-size="14" lengthAdjust="spacing" textLength="170" x="54.49" y="301.9659">EntityPassiveInvolvement</text></g><!--class EntityNonInvolvement--><g id="elem_EntityNonInvolvement"><rect codeLine="12" fill="#F1F1F1" height="29.0679" id="EntityNonInvolvement" rx="2.5" ry="2.5" style="stroke:#181818;stroke-width:0.5;" width="155" x="262.99" y="282"/><text fill="#000000" font-family="sans-serif" font-size="14" lengthAdjust="spacing" textLength="149" x="265.99" y="301.9659">EntityNonInvolvement</text></g><!--class HumanInvolvement--><g id="elem_HumanInvolvement"><rect codeLine="13" fill="#F1F1F1" height="29.0679" id="HumanInvolvement" rx="2.5" ry="2.5" style="stroke:#181818;stroke-width:0.5;" width="138" x="1151.49" y="282"/><text fill="#000000" font-family="sans-serif" font-size="14" lengthAdjust="spacing" textLength="132" x="1154.49" y="301.9659">HumanInvolvement</text></g><!--class ProcessingCondition--><g id="elem_ProcessingCondition"><rect codeLine="14" fill="#F1F1F1" height="29.0679" id="ProcessingCondition" rx="2.5" ry="2.5" style="stroke:#181818;stroke-width:0.5;" width="144" x="534.49" y="192"/><text fill="#000000" font-family="sans-serif" font-size="14" lengthAdjust="spacing" textLength="138" x="537.49" y="211.9659">ProcessingCondition</text></g><!--class StorageCondition--><g id="elem_StorageCondition"><rect codeLine="15" fill="#F1F1F1" height="29.0679" id="StorageCondition" rx="2.5" ry="2.5" style="stroke:#181818;stroke-width:0.5;" width="123" x="1324.99" y="282"/><text fill="#000000" font-family="sans-serif" font-size="14" lengthAdjust="spacing" textLength="117" x="1327.99" y="301.9659">StorageCondition</text></g><!--class DataSource--><g id="elem_DataSource"><rect codeLine="16" fill="#F1F1F1" height="29.0679" id="DataSource" rx="2.5" ry="2.5" style="stroke:#181818;stroke-width:0.5;" width="83" x="713.99" y="192"/><text fill="#000000" font-family="sans-serif" font-size="14" lengthAdjust="spacing" textLength="77" x="716.99" y="211.9659">DataSource</text></g><!--class DataSubjectScale--><g id="elem_DataSubjectScale"><rect codeLine="17" fill="#F1F1F1" height="29.0679" id="DataSubjectScale" rx="2.5" ry="2.5" style="stroke:#181818;stroke-width:0.5;" width="122" x="836.49" y="192"/><text fill="#000000" font-family="sans-serif" font-size="14" lengthAdjust="spacing" textLength="116" x="839.49" y="211.9659">DataSubjectScale</text></g><!--class DataVolume--><g id="elem_DataVolume"><rect codeLine="18" fill="#F1F1F1" height="29.0679" id="DataVolume" rx="2.5" ry="2.5" style="stroke:#181818;stroke-width:0.5;" width="87" x="1028.99" y="192"/><text fill="#000000" font-family="sans-serif" font-size="14" lengthAdjust="spacing" textLength="81" x="1031.99" y="211.9659">DataVolume</text></g><!--class ProcessingScale--><g id="elem_ProcessingScale"><rect codeLine="19" fill="#F1F1F1" height="29.0679" id="ProcessingScale" rx="2.5" ry="2.5" style="stroke:#181818;stroke-width:0.5;" width="114" x="1151.49" y="192"/><text fill="#000000" font-family="sans-serif" font-size="14" lengthAdjust="spacing" textLength="108" x="1154.49" y="211.9659">ProcessingScale</text></g><!--class GeographicCoverage--><g id="elem_GeographicCoverage"><rect codeLine="20" fill="#F1F1F1" height="29.0679" id="GeographicCoverage" rx="2.5" ry="2.5" style="stroke:#181818;stroke-width:0.5;" width="147" x="1300.99" y="192"/><text fill="#000000" font-family="sans-serif" font-size="14" lengthAdjust="spacing" textLength="141" x="1303.99" y="211.9659">GeographicCoverage</text></g><!--class Thing--><g id="elem_Thing"><rect codeLine="3" fill="#C0C0C0" height="29.0679" id="Thing" rx="2.5" ry="2.5" style="stroke:#181818;stroke-width:0.5;" width="45" x="874.99" y="7"/><text fill="#000000" font-family="sans-serif" font-size="14" lengthAdjust="spacing" textLength="39" x="877.99" y="26.9659">Thing</text></g><!--link Thing to AutomationLevel--><g id="link_Thing_AutomationLevel"><path codeLine="23" d="M874.58,22.7 C766.26,23.84 308.55,30.73 256.49,66 C212.45,95.84 196.45,162.97 191.47,191.86 " fill="none" id="Thing-AutomationLevel" style="stroke:#181818;stroke-width:1.0;"/><polygon fill="#000000" points="256.6366,103.5549,266.1229,104.2334,264.7101,98.5279,256.6366,103.5549" style="stroke:#000000;stroke-width:1.0;"/><text fill="#000000" font-family="sans-serif" font-size="13" lengthAdjust="spacing" textLength="124" x="270.49" y="107.397">hasAutomationLevel</text></g><!--link Thing to EntityInvolvement--><g id="link_Thing_EntityInvolvement"><path codeLine="24" d="M874.51,22.81 C783.22,24.28 449.57,31.97 418.49,66 C386.24,101.31 413.34,164.32 427.81,191.92 " fill="none" id="Thing-EntityInvolvement" style="stroke:#181818;stroke-width:1.0;"/><polygon fill="#000000" points="418.8139,104.1233,428.3136,103.6694,426.2325,98.1723,418.8139,104.1233" style="stroke:#000000;stroke-width:1.0;"/><text fill="#000000" font-family="sans-serif" font-size="13" lengthAdjust="spacing" textLength="132" x="432.49" y="107.397">hasEntityInvolvement</text></g><!--reverse link EntityInvolvement to EntityPermissiveInvolvement--><g id="link_EntityInvolvement_EntityPermissiveInvolvement"><path codeLine="25" d="M468.415,232.2599 C490.325,248.7399 512.17,265.17 534.04,281.62 " fill="none" id="EntityInvolvement-backto-EntityPermissiveInvolvement" style="stroke:#181818;stroke-width:1.0;"/><polygon fill="none" points="454.03,221.44,464.8084,237.055,472.0217,227.4649,454.03,221.44" style="stroke:#181818;stroke-width:1.0;"/></g><!--reverse link EntityInvolvement to EntityNonPermissiveInvolvement--><g id="link_EntityInvolvement_EntityNonPermissiveInvolvement"><path codeLine="26" d="M510.8282,225.6607 C579.0682,242.1207 674.37,265.09 742.62,281.55 " fill="none" id="EntityInvolvement-backto-EntityNonPermissiveInvolvement" style="stroke:#181818;stroke-width:1.0;"/><polygon fill="none" points="493.33,221.44,509.4213,231.4934,512.2351,219.828,493.33,221.44" style="stroke:#181818;stroke-width:1.0;"/></g><!--reverse link EntityInvolvement to EntityActiveInvolvement--><g id="link_EntityInvolvement_EntityActiveInvolvement"><path codeLine="27" d="M516.908,221.1205 C669.178,244.8005 846.71,269.81 948.84,283.99 " fill="none" id="EntityInvolvement-backto-EntityActiveInvolvement" style="stroke:#181818;stroke-width:1.0;"/><polygon fill="none" points="499.14,218.24,515.9479,227.0432,517.8682,215.1978,499.14,218.24" style="stroke:#181818;stroke-width:1.0;"/></g><!--reverse link EntityInvolvement to EntityPassiveInvolvement--><g id="link_EntityInvolvement_EntityPassiveInvolvement"><path codeLine="28" d="M371.3364,226.5697 C315.9064,243.0497 241.5,265.17 186.17,281.62 " fill="none" id="EntityInvolvement-backto-EntityPassiveInvolvement" style="stroke:#181818;stroke-width:1.0;"/><polygon fill="none" points="388.59,221.44,369.6265,220.8185,373.0463,232.3209,388.59,221.44" style="stroke:#181818;stroke-width:1.0;"/></g><!--reverse link EntityInvolvement to EntityNonInvolvement--><g id="link_EntityInvolvement_EntityNonInvolvement"><path codeLine="29" d="M407.4441,233.4813 C389.6941,249.9213 373.38,265.04 355.54,281.56 " fill="none" id="EntityInvolvement-backto-EntityNonInvolvement" style="stroke:#181818;stroke-width:1.0;"/><polygon fill="none" points="420.65,221.25,403.367,229.0793,411.5212,237.8832,420.65,221.25" style="stroke:#181818;stroke-width:1.0;"/></g><!--reverse link EntityInvolvement to HumanInvolvement--><g id="link_EntityInvolvement_HumanInvolvement"><path codeLine="30" d="M516.8921,221.2379 C790.0621,257.4679 860.12,247.3 1133.49,282 C1139.25,282.73 1145.22,283.54 1151.21,284.4 " fill="none" id="EntityInvolvement-backto-HumanInvolvement" style="stroke:#181818;stroke-width:1.0;"/><polygon fill="none" points="499.1,218.51,515.9828,227.1686,517.8014,215.3072,499.1,218.51" style="stroke:#181818;stroke-width:1.0;"/></g><!--link Thing to Entity--><g id="link_Thing_Entity"><path codeLine="32" d="M874.53,22.78 C740.97,24.53 69.1,34.85 39.49,66 C6,101.23 43.26,163.73 62.91,191.51 " fill="none" id="Thing-Entity" style="stroke:#181818;stroke-width:1.0;"/><text fill="#000000" font-family="sans-serif" font-size="13" lengthAdjust="spacing" textLength="92" x="73.49" y="80.897">hasActiveEntity</text><text fill="#000000" font-family="sans-serif" font-size="13" lengthAdjust="spacing" textLength="100" x="69.49" y="98.603">hasPassiveEntity</text><text fill="#000000" font-family="sans-serif" font-size="13" lengthAdjust="spacing" textLength="158" x="40.49" y="116.309">hasNonInvolvementEntity</text><polygon fill="#000000" points="48.0947,129.9888,57.5486,131.0251,56.3522,125.2703,48.0947,129.9888" style="stroke:#000000;stroke-width:1.0;"/><text fill="#000000" font-family="sans-serif" font-size="13" lengthAdjust="spacing" textLength="130" x="60.99" y="134.0151">isDeterminedByEntity</text></g><!--link Thing to ProcessingCondition--><g id="link_Thing_ProcessingCondition"><path codeLine="33" d="M874.69,22.04 C809.55,21.25 624.93,22.94 587.49,66 C556.22,101.97 583.61,164.08 598.44,191.64 " fill="none" id="Thing-ProcessingCondition" style="stroke:#181818;stroke-width:1.0;"/><polygon fill="#000000" points="588.229,104.969,597.4749,102.7412,594.3996,97.732,588.229,104.969" style="stroke:#000000;stroke-width:1.0;"/><text fill="#000000" font-family="sans-serif" font-size="13" lengthAdjust="spacing" textLength="145" x="601.49" y="107.397">hasProcessingCondition</text></g><!--link Thing to StorageCondition--><g id="link_Thing_StorageCondition"><path codeLine="34" d="M920.35,22.52 C1024.79,22.81 1457.11,26.42 1585.49,66 C1652.14,86.55 1685.96,85.4 1720.49,146 C1736.99,174.96 1741.34,194.99 1720.49,221 C1687.05,262.72 1535.51,282.6 1448.48,290.73 " fill="none" id="Thing-StorageCondition" style="stroke:#181818;stroke-width:1.0;"/><polygon fill="#000000" points="1743.9481,209.117,1737.2141,202.401,1734.5526,207.6418,1743.9481,209.117" style="stroke:#000000;stroke-width:1.0;"/><text fill="#000000" font-family="sans-serif" font-size="13" lengthAdjust="spacing" textLength="127" x="1748.49" y="211.897">hasStorageCondition</text></g><!--reverse link ProcessingCondition to StorageCondition--><g id="link_ProcessingCondition_StorageCondition"><path codeLine="35" d="M696.4913,221.1085 C967.2913,254.9185 1037.04,245.44 1307.49,282 C1313.14,282.76 1319.01,283.63 1324.88,284.55 " fill="none" id="ProcessingCondition-backto-StorageCondition" style="stroke:#181818;stroke-width:1.0;"/><polygon fill="none" points="678.66,218.65,695.6718,227.0522,697.3108,215.1647,678.66,218.65" style="stroke:#181818;stroke-width:1.0;"/></g><!--link Thing to HumanInvolvement--><g id="link_Thing_HumanInvolvement"><path codeLine="36" d="M920.48,22.22 C1031.29,21.11 1506.63,19.12 1550.49,66 C1604.17,123.37 1533.11,180.99 1465.49,221 C1410.87,253.32 1340.99,272.76 1289.84,283.64 " fill="none" id="Thing-HumanInvolvement" style="stroke:#181818;stroke-width:1.0;"/><polygon fill="#000000" points="1564.5712,209.7415,1558.8861,202.1173,1555.4904,206.915,1564.5712,209.7415" style="stroke:#000000;stroke-width:1.0;"/><text fill="#000000" font-family="sans-serif" font-size="13" lengthAdjust="spacing" textLength="142" x="1569.49" y="211.897">hasHumanInvolvement</text></g><!--link Thing to DataSource--><g id="link_Thing_DataSource"><path codeLine="37" d="M874.5,24.51 C847.92,28.12 804.86,38.16 781.49,66 C750.61,102.8 751.69,164.48 753.96,191.78 " fill="none" id="Thing-DataSource" style="stroke:#181818;stroke-width:1.0;"/><polygon fill="#000000" points="783.5668,106.4095,791.2393,100.7895,786.4706,97.353,783.5668,106.4095" style="stroke:#000000;stroke-width:1.0;"/><text fill="#000000" font-family="sans-serif" font-size="13" lengthAdjust="spacing" textLength="90" x="795.49" y="107.397">hasDataSource</text></g><!--link Thing to DataSubjectScale--><g id="link_Thing_DataSubjectScale"><path codeLine="38" d="M896.3,36.2 C895.62,44.76 894.83,56.01 894.49,66 C893.39,97.98 893.78,106.01 894.49,138 C894.9,156.53 895.95,177.9 896.69,191.54 " fill="none" id="Thing-DataSubjectScale" style="stroke:#181818;stroke-width:1.0;"/><polygon fill="#000000" points="899.5026,107.353,902.4188,98.3006,896.5409,98.3153,899.5026,107.353" style="stroke:#000000;stroke-width:1.0;"/><text fill="#000000" font-family="sans-serif" font-size="13" lengthAdjust="spacing" textLength="123" x="908.49" y="107.397">hasDataSubjectScale</text></g><!--link Thing to DataVolume--><g id="link_Thing_DataVolume"><path codeLine="39" d="M920.48,23.12 C951.32,25.23 1005.74,33.65 1036.49,66 C1070.09,101.35 1073.39,163.79 1073.06,191.53 " fill="none" id="Thing-DataVolume" style="stroke:#181818;stroke-width:1.0;"/><polygon fill="#000000" points="1076.8471,106.0584,1072.952,97.382,1068.5961,101.3285,1076.8471,106.0584" style="stroke:#000000;stroke-width:1.0;"/><text fill="#000000" font-family="sans-serif" font-size="13" lengthAdjust="spacing" textLength="95" x="1082.49" y="107.397">hasDataVolume</text></g><!--link Thing to ProcessingScale--><g id="link_Thing_ProcessingScale"><path codeLine="40" d="M920.21,22.59 C981.66,23.34 1149.05,28.82 1186.49,66 C1220.59,99.86 1215.37,163.64 1211.05,191.68 " fill="none" id="Thing-ProcessingScale" style="stroke:#181818;stroke-width:1.0;"/><polygon fill="#000000" points="1223.8126,104.8661,1217.4701,97.7792,1214.5158,102.8606,1223.8126,104.8661" style="stroke:#000000;stroke-width:1.0;"/><text fill="#000000" font-family="sans-serif" font-size="13" lengthAdjust="spacing" textLength="116" x="1228.49" y="107.397">hasProcessingScale</text></g><!--link Thing to GeographicCoverage--><g id="link_Thing_GeographicCoverage"><path codeLine="41" d="M920.42,23.06 C1008.5,25.44 1321.77,35.96 1353.49,66 C1388.34,99.01 1382.14,163.25 1377.31,191.54 " fill="none" id="Thing-GeographicCoverage" style="stroke:#181818;stroke-width:1.0;"/><polygon fill="#000000" points="1390.1812,104.0829,1382.7115,98.1961,1380.6779,103.7109,1390.1812,104.0829" style="stroke:#000000;stroke-width:1.0;"/><text fill="#000000" font-family="sans-serif" font-size="13" lengthAdjust="spacing" textLength="147" x="1394.49" y="107.397">hasGeographicCoverage</text></g><!--SRC=[bLFBJiCm4BpxAumubmz0A59f4I0X52c84vV5MQK6nuvYEr85_3jk7HfZkw7avfdPsSq-phXamjP8jTaAlEW4I6DRGGWJe3Lzsd3Pq7FDnO0zwO2zGuEqxWRwGQZxlEf66cws0R2qHhLWk98FEA18fFToKCwnHMaIhiI-vLhp0UTKZqgU9bmoyuUYX5EovUaxsy8HgkmLG-SicvMIDTyr8s0hethNoXor1WELiZt36BIlRyXCnK34rBCIjiLizbX-YwhfeTjmjb9kgAu8yaM87_HY4O-ENj8Dw1Wi9dqoK1-HmWL9iQlFWqD-chCXHtTWDYfTYFcwuDz5dQ1DzYPkwDZtVQqUUP4E6Ai9aD_vVWYkrsXslP5ONsz7os1gcUNq6ND441UlhGzAq8BaVFP_dYp-mJlkYVTEqA2QwLAyDdZ7gk1q0cs8HX7-eYRj-CxsCB2DmK2V7fuFoU058Ty0]--></g></svg>