<svg xmlns="http://www.w3.org/2000/svg" xmlns:xlink="http://www.w3.org/1999/xlink" contentStyleType="text/css" height="417px" preserveAspectRatio="none" style="width:639px;height:417px;background:#FFFFFF;" version="1.1" viewBox="0 0 639 417" width="639px" zoomAndPan="magnify"><defs/><g><!--cluster dpv--><g id="cluster_dpv"><path d="M226.5,6.602 L253.8125,6.602 A3.75,3.75 0 0 1 256.3125,9.102 L263.3125,31.6699 L629.5,31.6699 A2.5,2.5 0 0 1 632,34.1699 L632,408.102 A2.5,2.5 0 0 1 629.5,410.602 L226.5,410.602 A2.5,2.5 0 0 1 224,408.102 L224,9.102 A2.5,2.5 0 0 1 226.5,6.602 " fill="none" style="stroke:#000000;stroke-width:1.5;"/><line style="stroke:#000000;stroke-width:1.5;" x1="224" x2="263.3125" y1="31.6699" y2="31.6699"/><text fill="#000000" font-family="sans-serif" font-size="14" font-weight="bold" lengthAdjust="spacing" textLength="26.3125" x="228" y="23.5679">dpv</text></g><!--class Representative--><g id="elem_Representative"><rect codeLine="6" fill="#F1F1F1" height="29.0679" id="Representative" rx="2.5" ry="2.5" style="stroke:#181818;stroke-width:0.5;" width="107" x="240" y="45.102"/><text fill="#000000" font-family="sans-serif" font-size="14" lengthAdjust="spacing" textLength="101" x="243" y="65.0679">Representative</text></g><!--class DataController--><g id="elem_DataController"><rect codeLine="7" fill="#F1F1F1" height="29.0679" id="DataController" rx="2.5" ry="2.5" style="stroke:#181818;stroke-width:0.5;" width="104" x="241.5" y="109.102"/><text fill="#000000" font-family="sans-serif" font-size="14" lengthAdjust="spacing" textLength="98" x="244.5" y="129.0679">DataController</text></g><!--class DataProcessor--><g id="elem_DataProcessor"><rect codeLine="8" fill="#F1F1F1" height="29.0679" id="DataProcessor" rx="2.5" ry="2.5" style="stroke:#181818;stroke-width:0.5;" width="102" x="242.5" y="173.102"/><text fill="#000000" font-family="sans-serif" font-size="14" lengthAdjust="spacing" textLength="96" x="245.5" y="193.0679">DataProcessor</text></g><!--class ThirdParty--><g id="elem_ThirdParty"><rect codeLine="9" fill="#F1F1F1" height="29.0679" id="ThirdParty" rx="2.5" ry="2.5" style="stroke:#181818;stroke-width:0.5;" width="76" x="255.5" y="237.102"/><text fill="#000000" font-family="sans-serif" font-size="14" lengthAdjust="spacing" textLength="70" x="258.5" y="257.0679">ThirdParty</text></g><!--class Authority--><g id="elem_Authority"><rect codeLine="10" fill="#F1F1F1" height="29.0679" id="Authority" rx="2.5" ry="2.5" style="stroke:#181818;stroke-width:0.5;" width="68" x="259.5" y="301.102"/><text fill="#000000" font-family="sans-serif" font-size="14" lengthAdjust="spacing" textLength="62" x="262.5" y="321.0679">Authority</text></g><!--class DataSubject--><g id="elem_DataSubject"><rect codeLine="11" fill="#F1F1F1" height="29.0679" id="DataSubject" rx="2.5" ry="2.5" style="stroke:#181818;stroke-width:0.5;" width="87" x="250" y="365.102"/><text fill="#000000" font-family="sans-serif" font-size="14" lengthAdjust="spacing" textLength="81" x="253" y="385.0679">DataSubject</text></g><!--class LegalEntity--><g id="elem_LegalEntity"><rect codeLine="12" fill="#F1F1F1" height="29.0679" id="LegalEntity" rx="2.5" ry="2.5" style="stroke:#181818;stroke-width:0.5;" width="80" x="419.5" y="237.102"/><text fill="#000000" font-family="sans-serif" font-size="14" lengthAdjust="spacing" textLength="74" x="422.5" y="257.0679">LegalEntity</text></g><!--class NaturalPerson--><g id="elem_NaturalPerson"><rect codeLine="13" fill="#F1F1F1" height="29.0679" id="NaturalPerson" rx="2.5" ry="2.5" style="stroke:#181818;stroke-width:0.5;" width="103" x="408" y="333.102"/><text fill="#000000" font-family="sans-serif" font-size="14" lengthAdjust="spacing" textLength="97" x="411" y="353.0679">NaturalPerson</text></g><!--class Entity--><g id="elem_Entity"><rect codeLine="14" fill="#F1F1F1" height="29.0679" id="Entity" rx="2.5" ry="2.5" style="stroke:#181818;stroke-width:0.5;" width="44" x="572" y="285.102"/><text fill="#000000" font-family="sans-serif" font-size="14" lengthAdjust="spacing" textLength="38" x="575" y="305.0679">Entity</text></g><!--class Thing--><g id="elem_Thing"><rect codeLine="4" fill="#C0C0C0" height="29.0679" id="Thing" rx="2.5" ry="2.5" style="stroke:#181818;stroke-width:0.5;" width="45" x="7" y="207.102"/><text fill="#000000" font-family="sans-serif" font-size="14" lengthAdjust="spacing" textLength="39" x="10" y="227.0679">Thing</text></g><!--link Representative to LegalEntity--><g id="link_Representative_LegalEntity"><path codeLine="16" d="M323.81,74.542 C331.82,79.372 340.16,85.162 347,91.602 C395.34,137.072 426.607,190.7891 442.547,220.9391 " fill="none" id="Representative-to-LegalEntity" style="stroke:#181818;stroke-width:1.0;"/><polygon fill="none" points="450.96,236.852,447.8513,218.1347,437.2427,223.7434,450.96,236.852" style="stroke:#181818;stroke-width:1.0;"/></g><!--link DataController to LegalEntity--><g id="link_DataController_LegalEntity"><path codeLine="17" d="M320.95,138.572 C329.46,143.692 338.8,149.632 347,155.602 C383.14,181.902 408.8481,204.8013 429.7981,224.4413 " fill="none" id="DataController-to-LegalEntity" style="stroke:#181818;stroke-width:1.0;"/><polygon fill="none" points="442.93,236.752,433.9017,220.064,425.6946,228.8185,442.93,236.752" style="stroke:#181818;stroke-width:1.0;"/></g><!--link DataProcessor to LegalEntity--><g id="link_DataProcessor_LegalEntity"><path codeLine="18" d="M332.54,202.442 C358.84,212.712 376.9528,219.7753 403.3328,230.0753 " fill="none" id="DataProcessor-to-LegalEntity" style="stroke:#181818;stroke-width:1.0;"/><polygon fill="none" points="420.1,236.622,405.515,224.4862,401.1505,235.6643,420.1,236.622" style="stroke:#181818;stroke-width:1.0;"/></g><!--link ThirdParty to LegalEntity--><g id="link_ThirdParty_LegalEntity"><path codeLine="19" d="M331.71,251.602 C357.8,251.602 374.6,251.602 401.15,251.602 " fill="none" id="ThirdParty-to-LegalEntity" style="stroke:#181818;stroke-width:1.0;"/><polygon fill="none" points="419.15,251.602,401.15,245.602,401.15,257.602,419.15,251.602" style="stroke:#181818;stroke-width:1.0;"/></g><!--link Authority to LegalEntity--><g id="link_Authority_LegalEntity"><path codeLine="20" d="M327.69,302.652 C354.46,292.202 375.3723,284.0476 403.4223,273.0976 " fill="none" id="Authority-to-LegalEntity" style="stroke:#181818;stroke-width:1.0;"/><polygon fill="none" points="420.19,266.552,401.2405,267.5084,405.6042,278.6869,420.19,266.552" style="stroke:#181818;stroke-width:1.0;"/></g><!--link DataSubject to LegalEntity--><g id="link_DataSubject_LegalEntity"><path codeLine="21" d="M320.95,364.632 C329.46,359.512 338.8,353.572 347,347.602 C383.14,321.302 408.8481,298.4027 429.7981,278.7627 " fill="none" id="DataSubject-to-LegalEntity" style="stroke:#181818;stroke-width:1.0;"/><polygon fill="none" points="442.93,266.452,425.6946,274.3854,433.9017,283.14,442.93,266.452" style="stroke:#181818;stroke-width:1.0;"/></g><!--link DataSubject to NaturalPerson--><g id="link_DataSubject_NaturalPerson"><path codeLine="22" d="M337.16,371.282 C358.7,367.072 367.3335,365.3908 389.9235,360.9808 " fill="none" id="DataSubject-to-NaturalPerson" style="stroke:#181818;stroke-width:1.0;"/><polygon fill="none" points="407.59,357.532,388.7739,355.092,391.0731,366.8697,407.59,357.532" style="stroke:#181818;stroke-width:1.0;"/></g><!--link LegalEntity to Entity--><g id="link_LegalEntity_Entity"><path codeLine="23" d="M499.9,265.872 C523.39,274.382 535.3866,278.7303 554.7066,285.7303 " fill="none" id="LegalEntity-to-Entity" style="stroke:#181818;stroke-width:1.0;"/><polygon fill="none" points="571.63,291.862,556.7505,280.0892,552.6627,291.3714,571.63,291.862" style="stroke:#181818;stroke-width:1.0;"/></g><!--link NaturalPerson to Entity--><g id="link_NaturalPerson_Entity"><path codeLine="24" d="M501.7,332.682 C524.94,324.252 536.0969,320.2146 554.9169,313.3946 " fill="none" id="NaturalPerson-to-Entity" style="stroke:#181818;stroke-width:1.0;"/><polygon fill="none" points="571.84,307.262,552.8727,307.7535,556.9611,319.0356,571.84,307.262" style="stroke:#181818;stroke-width:1.0;"/></g><!--link Thing to Representative--><g id="link_Thing_Representative"><path codeLine="26" d="M32.8,206.682 C37.44,181.912 50.31,132.472 82,106.602 C126.52,70.252 193.33,60.592 239.7,58.692 " fill="none" id="Thing-Representative" style="stroke:#181818;stroke-width:1.0;"/><polygon fill="#000000" points="91.0668,49.5461,82.0001,52.4179,85.4197,57.1987,91.0668,49.5461" style="stroke:#000000;stroke-width:1.0;"/><text fill="#000000" font-family="sans-serif" font-size="13" lengthAdjust="spacing" textLength="111" x="96" y="57.499">hasRepresentative</text></g><!--link Thing to DataController--><g id="link_Thing_DataController"><path codeLine="27" d="M42,206.652 C51.51,195.322 66.01,180.282 82,171.602 C132.07,144.412 196.89,132.592 241.3,127.472 " fill="none" id="Thing-DataController" style="stroke:#181818;stroke-width:1.0;"/><polygon fill="#000000" points="92.6467,122.6089,83.1556,123.2172,85.3258,128.6798,92.6467,122.6089" style="stroke:#000000;stroke-width:1.0;"/><text fill="#000000" font-family="sans-serif" font-size="13" lengthAdjust="spacing" textLength="109" x="97" y="129.499">hasDataController</text></g><!--link Thing to DataProcessor--><g id="link_Thing_DataProcessor"><path codeLine="28" d="M52.39,218.762 C93.83,213.382 184.74,201.582 242.05,194.152 " fill="none" id="Thing-DataProcessor" style="stroke:#181818;stroke-width:1.0;"/><polygon fill="#000000" points="93.4584,188.8116,84.1104,187.061,84.8667,192.89,93.4584,188.8116" style="stroke:#000000;stroke-width:1.0;"/><text fill="#000000" font-family="sans-serif" font-size="13" lengthAdjust="spacing" textLength="108" x="97.5" y="194.499">hasDataProcessor</text></g><!--link Thing to ThirdParty--><g id="link_Thing_ThirdParty"><path codeLine="29" d="M50.43,236.532 C59.56,242.462 70.81,248.582 82,251.602 C140.92,267.512 212.55,262.662 255.23,257.372 " fill="none" id="Thing-ThirdParty" style="stroke:#181818;stroke-width:1.0;"/><polygon fill="#000000" points="105.4743,242.9612,96.7732,239.1217,96.1782,244.9693,105.4743,242.9612" style="stroke:#000000;stroke-width:1.0;"/><text fill="#000000" font-family="sans-serif" font-size="13" lengthAdjust="spacing" textLength="84" x="109.5" y="247.499">hasThirdParty</text></g><!--link Thing to Authority--><g id="link_Thing_Authority"><path codeLine="30" d="M37.22,236.352 C45.37,252.382 60.7,277.332 82,289.602 C137.67,321.682 215.25,322.112 259.01,319.132 " fill="none" id="Thing-Authority" style="stroke:#181818;stroke-width:1.0;"/><polygon fill="#000000" points="108.1844,282.2034,100.7379,276.2871,98.6826,281.7939,108.1844,282.2034" style="stroke:#000000;stroke-width:1.0;"/><text fill="#000000" font-family="sans-serif" font-size="13" lengthAdjust="spacing" textLength="78" x="112.5" y="285.499">hasAuthority</text></g><!--link Thing to DataSubject--><g id="link_Thing_DataSubject"><path codeLine="31" d="M31.91,236.442 C35.32,263.282 46.53,319.682 82,347.602 C129.93,385.322 203.52,387.712 249.78,384.642 " fill="none" id="Thing-DataSubject" style="stroke:#181818;stroke-width:1.0;"/><polygon fill="#000000" points="100.1342,341.2672,94.3083,333.7499,91.0024,338.6099,100.1342,341.2672" style="stroke:#000000;stroke-width:1.0;"/><text fill="#000000" font-family="sans-serif" font-size="13" lengthAdjust="spacing" textLength="93" x="105" y="343.499">hasDataSubject</text></g><!--SRC=[ZP5DJiGm34RNv1GUiIu7O5490Jk4AfWBcDQq0PDKYLjf1DoTqcdpqx9W-_avjbyEsjGyD0HUJanNFQEHuOCLqwk0M72wxGGQxQWMROrIDQFtSEoqQU7IQnx9gHxhTsm9cdw4JtLnHfweT-J928eUQKtlKF3M6d6MUUfCqihPchot8PnckAP29wSrkHcaiqx7uBVlUNXvcvPRemTgaU-D9DGZok2GAt9-kc095-HRvNj2KNoLwIEWyfLtWCgMtvVZ6VjQEEZlLvVJ_b7CJqpNdyjBMqPb5NN-qABOVDirTEWtXie8vsfcU6Dh0mTFWOtc4ZGwcxb4OG85UJCJLMv6Bfx2mDLRgNu0]--></g></svg>