<svg xmlns="http://www.w3.org/2000/svg" xmlns:xlink="http://www.w3.org/1999/xlink" contentStyleType="text/css" height="194px" preserveAspectRatio="none" style="width:563px;height:194px;background:#FFFFFF;" version="1.1" viewBox="0 0 563 194" width="563px" zoomAndPan="magnify"><defs/><g><!--cluster dpv--><g id="cluster_dpv"><path d="M210,6.602 L237.3125,6.602 A3.75,3.75 0 0 1 239.8125,9.102 L246.8125,31.6699 L553.5,31.6699 A2.5,2.5 0 0 1 556,34.1699 L556,152.102 A2.5,2.5 0 0 1 553.5,154.602 L210,154.602 A2.5,2.5 0 0 1 207.5,152.102 L207.5,9.102 A2.5,2.5 0 0 1 210,6.602 " fill="none" style="stroke:#000000;stroke-width:1.5;"/><line style="stroke:#000000;stroke-width:1.5;" x1="207.5" x2="246.8125" y1="31.6699" y2="31.6699"/><text fill="#000000" font-family="sans-serif" font-size="14" font-weight="bold" lengthAdjust="spacing" textLength="26.3125" x="211.5" y="23.5679">dpv</text></g><!--class Location--><g id="elem_Location"><rect codeLine="7" fill="#F1F1F1" height="29.0679" id="Location" rx="2.5" ry="2.5" style="stroke:#181818;stroke-width:0.5;" width="62" x="226.5" y="45.102"/><text fill="#000000" font-family="sans-serif" font-size="14" lengthAdjust="spacing" textLength="56" x="229.5" y="65.0679">Location</text></g><!--class Authority--><g id="elem_Authority"><rect codeLine="8" fill="#F1F1F1" height="29.0679" id="Authority" rx="2.5" ry="2.5" style="stroke:#181818;stroke-width:0.5;" width="68" x="223.5" y="109.102"/><text fill="#000000" font-family="sans-serif" font-size="14" lengthAdjust="spacing" textLength="62" x="226.5" y="129.0679">Authority</text></g><!--class Law--><g id="elem_Law"><rect codeLine="9" fill="#F1F1F1" height="29.0679" id="Law" rx="2.5" ry="2.5" style="stroke:#181818;stroke-width:0.5;" width="32" x="494.5" y="45.102"/><text fill="#000000" font-family="sans-serif" font-size="14" lengthAdjust="spacing" textLength="26" x="497.5" y="65.0679">Law</text></g><!--class Country--><g id="elem_Country"><rect codeLine="10" fill="#F1F1F1" height="29.0679" id="Country" rx="2.5" ry="2.5" style="stroke:#181818;stroke-width:0.5;" width="59" x="481" y="109.102"/><text fill="#000000" font-family="sans-serif" font-size="14" lengthAdjust="spacing" textLength="53" x="484" y="129.0679">Country</text></g><!--class Thing--><g id="elem_Thing"><rect codeLine="5" fill="#C0C0C0" height="29.0679" id="Thing" rx="2.5" ry="2.5" style="stroke:#181818;stroke-width:0.5;" width="45" x="7" y="104.102"/><text fill="#000000" font-family="sans-serif" font-size="14" lengthAdjust="spacing" textLength="39" x="10" y="124.0679">Thing</text></g><!--reverse link Location to Country--><g id="link_Location_Country"><path codeLine="12" d="M306.2222,71.7684 C354.9822,84.1984 432.84,104.052 480.67,116.242 " fill="none" id="Location-backto-Country" style="stroke:#181818;stroke-width:1.0;"/><polygon fill="none" points="288.78,67.322,304.74,77.5824,307.7043,65.9543,288.78,67.322" style="stroke:#181818;stroke-width:1.0;"/></g><!--link Thing to Authority--><g id="link_Thing_Authority"><path codeLine="13" d="M52.29,120.092 C61.46,120.662 72.24,121.262 82,121.602 C131.05,123.312 187.9,123.652 223.04,123.682 " fill="none" id="Thing-Authority" style="stroke:#181818;stroke-width:1.0;"/><polygon fill="#000000" points="96.9989,112.5601,88.0176,109.4317,87.894,115.3082,96.9989,112.5601" style="stroke:#000000;stroke-width:1.0;"/><text fill="#000000" font-family="sans-serif" font-size="13" lengthAdjust="spacing" textLength="78" x="101" y="117.499">hasAuthority</text></g><!--link Authority to Thing--><g id="link_Authority_Thing"><path codeLine="14" d="M224.46,138.512 C212.37,143.392 198.31,148.172 185,150.602 C139.97,158.822 126.02,163.162 82,150.602 C70.06,147.192 58.18,140.122 48.85,133.502 " fill="none" id="Authority-Thing" style="stroke:#181818;stroke-width:1.0;"/><polygon fill="#000000" points="83.002,141.3124,91.9596,144.5081,92.1273,138.6326,83.002,141.3124" style="stroke:#000000;stroke-width:1.0;"/><text fill="#000000" font-family="sans-serif" font-size="13" lengthAdjust="spacing" textLength="86" x="97" y="146.499">isAuthorityFor</text></g><!--link Thing to Location--><g id="link_Thing_Location"><path codeLine="15" d="M35.26,103.652 C42.16,84.792 56.95,53.172 82,39.602 C127.58,14.902 189.57,31.822 226.08,45.982 " fill="none" id="Thing-Location" style="stroke:#181818;stroke-width:1.0;"/><polygon fill="#000000" points="99.2862,17.0085,89.7777,16.812,91.4781,22.4385,99.2862,17.0085" style="stroke:#000000;stroke-width:1.0;"/><text fill="#000000" font-family="sans-serif" font-size="13" lengthAdjust="spacing" textLength="73" x="103.5" y="23.499">hasLocation</text></g><!--link Thing to Location--><g id="link_Thing_Location"><path codeLine="16" d="M52.3,109.292 C61.37,105.642 72.09,101.612 82,98.602 C131.75,83.472 191.1,71.442 226.19,64.932 " fill="none" id="Thing-Location-1" style="stroke:#181818;stroke-width:1.0;"/><polygon fill="#000000" points="91.8448,64.2191,82.354,63.6072,83.8069,69.3026,91.8448,64.2191" style="stroke:#000000;stroke-width:1.0;"/><text fill="#000000" font-family="sans-serif" font-size="13" lengthAdjust="spacing" textLength="88" x="96" y="70.499">hasJurisdiction</text></g><!--link Thing to Country--><g id="link_Thing_Country"><path codeLine="17" d="M41.4,133.182 C50.78,144.482 65.4,159.402 82,166.602 C130.02,187.422 147.19,172.822 199.5,174.602 C244.14,176.112 255.65,179.922 300,174.602 C365.79,166.702 440.75,145.352 480.76,132.912 " fill="none" id="Thing-Country" style="stroke:#181818;stroke-width:1.0;"/><polygon fill="#000000" points="225,165.4519,215.9531,162.5186,215.9567,168.3964,225,165.4519" style="stroke:#000000;stroke-width:1.0;"/><text fill="#000000" font-family="sans-serif" font-size="13" lengthAdjust="spacing" textLength="70" x="229" y="170.499">hasCountry</text></g><!--link Location to Law--><g id="link_Location_Law"><path codeLine="18" d="M288.78,59.602 C342.76,59.602 453.76,59.602 494.27,59.602 " fill="none" id="Location-Law" style="stroke:#181818;stroke-width:1.0;"/><polygon fill="#000000" points="340,50.455,330.9549,47.5161,330.9549,53.3939,340,50.455" style="stroke:#000000;stroke-width:1.0;"/><text fill="#000000" font-family="sans-serif" font-size="13" lengthAdjust="spacing" textLength="106" x="344" y="55.499">hasApplicableLaw</text></g><!--SRC=[TOvDRW8n38NNv1H6NNG51q2eKbMfYueb5p2PC6FLn57YW4RGkpVCJwWgiNj-_loUb-GjvyP1qfxTEZ1wpISsx8uAAX2fxHGQYiugYJUlAk7k7qHLJdyMnZAc1FkEV0ilYVZieWbelx5rq8GpNCrYH7PYSJYPvlUidKJIlW9ucUM7PA-nDpzcleBjRRMg_bXNZ1goWGvJdU3DF7J11du3z20-9HQevimrGqpjV0PyvKYf8ViVcjuRc4cNTOsxn-1b_3G49ei7TiKfp2y0]--></g></svg>