<svg xmlns="http://www.w3.org/2000/svg" xmlns:xlink="http://www.w3.org/1999/xlink" contentStyleType="text/css" height="441px" preserveAspectRatio="none" style="width:1360px;height:441px;background:#FFFFFF;" version="1.1" viewBox="0 0 1360 441" width="1360px" zoomAndPan="magnify"><defs/><g><line style="stroke:#181818;stroke-width:1.5;" x1="48.5" x2="48.5" y1="66.3441" y2="86.3441"/><rect fill="#F1F1F1" height="36.3441" style="stroke:#181818;stroke-width:1.5;" width="77" x="10" y="86.3441"/><text fill="#000000" font-family="sans-serif" font-size="12" lengthAdjust="spacing" textLength="57" x="20" y="109.1722">Sensitive*</text><line style="stroke:#181818;stroke-width:1.5;" x1="48.5" x2="58.5" y1="155.8603" y2="155.8603"/><rect fill="#F1F1F1" height="36.3441" style="stroke:#181818;stroke-width:1.5;" width="121" x="58.5" y="137.6882"/><text fill="#000000" font-family="sans-serif" font-size="12" lengthAdjust="spacing" textLength="101" x="68.5" y="160.5163">Special Category*</text><line style="stroke:#181818;stroke-width:1.5;" x1="48.5" x2="48.5" y1="122.6882" y2="155.8603"/><line style="stroke:#181818;stroke-width:1.5;" x1="231.5" x2="231.5" y1="66.3441" y2="86.3441"/><rect fill="#F1F1F1" height="36.3441" style="stroke:#181818;stroke-width:1.5;" width="64" x="199.5" y="86.3441"/><text fill="#000000" font-family="sans-serif" font-size="12" lengthAdjust="spacing" textLength="44" x="209.5" y="109.1722">Internal</text><line style="stroke:#181818;stroke-width:1.5;" x1="231.5" x2="241.5" y1="155.8603" y2="155.8603"/><rect fill="#F1F1F1" height="36.3441" style="stroke:#181818;stroke-width:1.5;" width="88" x="241.5" y="137.6882"/><text fill="#000000" font-family="sans-serif" font-size="12" lengthAdjust="spacing" textLength="68" x="251.5" y="160.5163">Preferences</text><line style="stroke:#181818;stroke-width:1.5;" x1="231.5" x2="241.5" y1="207.2044" y2="207.2044"/><rect fill="#F1F1F1" height="36.3441" style="stroke:#181818;stroke-width:1.5;" width="81" x="241.5" y="189.0323"/><text fill="#000000" font-family="sans-serif" font-size="12" lengthAdjust="spacing" textLength="61" x="251.5" y="211.8604">Knowledge</text><line style="stroke:#181818;stroke-width:1.5;" x1="231.5" x2="241.5" y1="258.5485" y2="258.5485"/><rect fill="#F1F1F1" height="36.3441" style="stroke:#181818;stroke-width:1.5;" width="58" x="241.5" y="240.3765"/><text fill="#000000" font-family="sans-serif" font-size="12" lengthAdjust="spacing" textLength="38" x="251.5" y="263.2045">Beliefs</text><line style="stroke:#181818;stroke-width:1.5;" x1="231.5" x2="241.5" y1="309.8926" y2="309.8926"/><rect fill="#F1F1F1" height="36.3441" style="stroke:#181818;stroke-width:1.5;" width="29" x="241.5" y="291.7206"/><text fill="#000000" font-family="sans-serif" font-size="12" lengthAdjust="spacing" textLength="9" x="251.5" y="314.5487">...</text><line style="stroke:#181818;stroke-width:1.5;" x1="231.5" x2="231.5" y1="122.6882" y2="309.8926"/><line style="stroke:#181818;stroke-width:1.5;" x1="382.5" x2="382.5" y1="66.3441" y2="86.3441"/><rect fill="#F1F1F1" height="36.3441" style="stroke:#181818;stroke-width:1.5;" width="66" x="349.5" y="86.3441"/><text fill="#000000" font-family="sans-serif" font-size="12" lengthAdjust="spacing" textLength="46" x="359.5" y="109.1722">External</text><line style="stroke:#181818;stroke-width:1.5;" x1="382.5" x2="392.5" y1="155.8603" y2="155.8603"/><rect fill="#F1F1F1" height="36.3441" style="stroke:#181818;stroke-width:1.5;" width="87" x="392.5" y="137.6882"/><text fill="#000000" font-family="sans-serif" font-size="12" lengthAdjust="spacing" textLength="67" x="402.5" y="160.5163">Behavioural</text><line style="stroke:#181818;stroke-width:1.5;" x1="382.5" x2="392.5" y1="207.2044" y2="207.2044"/><rect fill="#F1F1F1" height="36.3441" style="stroke:#181818;stroke-width:1.5;" width="102" x="392.5" y="189.0323"/><text fill="#000000" font-family="sans-serif" font-size="12" lengthAdjust="spacing" textLength="82" x="402.5" y="211.8604">Demographics</text><line style="stroke:#181818;stroke-width:1.5;" x1="382.5" x2="392.5" y1="258.5485" y2="258.5485"/><rect fill="#F1F1F1" height="36.3441" style="stroke:#181818;stroke-width:1.5;" width="65" x="392.5" y="240.3765"/><text fill="#000000" font-family="sans-serif" font-size="12" lengthAdjust="spacing" textLength="45" x="402.5" y="263.2045">Physical</text><line style="stroke:#181818;stroke-width:1.5;" x1="382.5" x2="392.5" y1="309.8926" y2="309.8926"/><rect fill="#F1F1F1" height="36.3441" style="stroke:#181818;stroke-width:1.5;" width="57" x="392.5" y="291.7206"/><text fill="#000000" font-family="sans-serif" font-size="12" lengthAdjust="spacing" textLength="37" x="402.5" y="314.5487">Sexual</text><line style="stroke:#181818;stroke-width:1.5;" x1="382.5" x2="392.5" y1="361.2367" y2="361.2367"/><rect fill="#F1F1F1" height="36.3441" style="stroke:#181818;stroke-width:1.5;" width="79" x="392.5" y="343.0647"/><text fill="#000000" font-family="sans-serif" font-size="12" lengthAdjust="spacing" textLength="59" x="402.5" y="365.8928">Identifying</text><line style="stroke:#181818;stroke-width:1.5;" x1="382.5" x2="392.5" y1="412.5809" y2="412.5809"/><rect fill="#F1F1F1" height="36.3441" style="stroke:#181818;stroke-width:1.5;" width="29" x="392.5" y="394.4088"/><text fill="#000000" font-family="sans-serif" font-size="12" lengthAdjust="spacing" textLength="9" x="402.5" y="417.2369">...</text><line style="stroke:#181818;stroke-width:1.5;" x1="382.5" x2="382.5" y1="122.6882" y2="412.5809"/><line style="stroke:#181818;stroke-width:1.5;" x1="554.5" x2="554.5" y1="66.3441" y2="86.3441"/><rect fill="#F1F1F1" height="36.3441" style="stroke:#181818;stroke-width:1.5;" width="80" x="514.5" y="86.3441"/><text fill="#000000" font-family="sans-serif" font-size="12" lengthAdjust="spacing" textLength="60" x="524.5" y="109.1722">Household</text><line style="stroke:#181818;stroke-width:1.5;" x1="554.5" x2="564.5" y1="155.8603" y2="155.8603"/><rect fill="#F1F1F1" height="36.3441" style="stroke:#181818;stroke-width:1.5;" width="121" x="564.5" y="137.6882"/><text fill="#000000" font-family="sans-serif" font-size="12" lengthAdjust="spacing" textLength="101" x="574.5" y="160.5163">personal activities</text><line style="stroke:#181818;stroke-width:1.5;" x1="554.5" x2="564.5" y1="207.2044" y2="207.2044"/><rect fill="#F1F1F1" height="36.3441" style="stroke:#181818;stroke-width:1.5;" width="130" x="564.5" y="189.0323"/><text fill="#000000" font-family="sans-serif" font-size="12" lengthAdjust="spacing" textLength="110" x="574.5" y="211.8604">household activities</text><line style="stroke:#181818;stroke-width:1.5;" x1="554.5" x2="564.5" y1="258.5485" y2="258.5485"/><rect fill="#F1F1F1" height="36.3441" style="stroke:#181818;stroke-width:1.5;" width="29" x="564.5" y="240.3765"/><text fill="#000000" font-family="sans-serif" font-size="12" lengthAdjust="spacing" textLength="9" x="574.5" y="263.2045">...</text><line style="stroke:#181818;stroke-width:1.5;" x1="554.5" x2="554.5" y1="122.6882" y2="258.5485"/><line style="stroke:#181818;stroke-width:1.5;" x1="741" x2="741" y1="66.3441" y2="86.3441"/><rect fill="#F1F1F1" height="36.3441" style="stroke:#181818;stroke-width:1.5;" width="53" x="714.5" y="86.3441"/><text fill="#000000" font-family="sans-serif" font-size="12" lengthAdjust="spacing" textLength="33" x="724.5" y="109.1722">Social</text><line style="stroke:#181818;stroke-width:1.5;" x1="741" x2="751" y1="155.8603" y2="155.8603"/><rect fill="#F1F1F1" height="36.3441" style="stroke:#181818;stroke-width:1.5;" width="56" x="751" y="137.6882"/><text fill="#000000" font-family="sans-serif" font-size="12" lengthAdjust="spacing" textLength="36" x="761" y="160.5163">Family</text><line style="stroke:#181818;stroke-width:1.5;" x1="741" x2="751" y1="207.2044" y2="207.2044"/><rect fill="#F1F1F1" height="36.3441" style="stroke:#181818;stroke-width:1.5;" width="61" x="751" y="189.0323"/><text fill="#000000" font-family="sans-serif" font-size="12" lengthAdjust="spacing" textLength="41" x="761" y="211.8604">Friends</text><line style="stroke:#181818;stroke-width:1.5;" x1="741" x2="751" y1="258.5485" y2="258.5485"/><rect fill="#F1F1F1" height="36.3441" style="stroke:#181818;stroke-width:1.5;" width="89" x="751" y="240.3765"/><text fill="#000000" font-family="sans-serif" font-size="12" lengthAdjust="spacing" textLength="69" x="761" y="263.2045">Professional</text><line style="stroke:#181818;stroke-width:1.5;" x1="741" x2="751" y1="309.8926" y2="309.8926"/><rect fill="#F1F1F1" height="36.3441" style="stroke:#181818;stroke-width:1.5;" width="76" x="751" y="291.7206"/><text fill="#000000" font-family="sans-serif" font-size="12" lengthAdjust="spacing" textLength="56" x="761" y="314.5487">Public Life</text><line style="stroke:#181818;stroke-width:1.5;" x1="741" x2="751" y1="361.2367" y2="361.2367"/><rect fill="#F1F1F1" height="36.3441" style="stroke:#181818;stroke-width:1.5;" width="108" x="751" y="343.0647"/><text fill="#000000" font-family="sans-serif" font-size="12" lengthAdjust="spacing" textLength="88" x="761" y="365.8928">Communication</text><line style="stroke:#181818;stroke-width:1.5;" x1="741" x2="751" y1="412.5809" y2="412.5809"/><rect fill="#F1F1F1" height="36.3441" style="stroke:#181818;stroke-width:1.5;" width="29" x="751" y="394.4088"/><text fill="#000000" font-family="sans-serif" font-size="12" lengthAdjust="spacing" textLength="9" x="761" y="417.2369">...</text><line style="stroke:#181818;stroke-width:1.5;" x1="741" x2="741" y1="122.6882" y2="412.5809"/><line style="stroke:#181818;stroke-width:1.5;" x1="913.5" x2="913.5" y1="66.3441" y2="86.3441"/><rect fill="#F1F1F1" height="36.3441" style="stroke:#181818;stroke-width:1.5;" width="69" x="879" y="86.3441"/><text fill="#000000" font-family="sans-serif" font-size="12" lengthAdjust="spacing" textLength="49" x="889" y="109.1722">Financial</text><line style="stroke:#181818;stroke-width:1.5;" x1="913.5" x2="923.5" y1="155.8603" y2="155.8603"/><rect fill="#F1F1F1" height="36.3441" style="stroke:#181818;stroke-width:1.5;" width="96" x="923.5" y="137.6882"/><text fill="#000000" font-family="sans-serif" font-size="12" lengthAdjust="spacing" textLength="76" x="933.5" y="160.5163">Transactional</text><line style="stroke:#181818;stroke-width:1.5;" x1="913.5" x2="923.5" y1="207.2044" y2="207.2044"/><rect fill="#F1F1F1" height="36.3441" style="stroke:#181818;stroke-width:1.5;" width="80" x="923.5" y="189.0323"/><text fill="#000000" font-family="sans-serif" font-size="12" lengthAdjust="spacing" textLength="60" x="933.5" y="211.8604">Ownership</text><line style="stroke:#181818;stroke-width:1.5;" x1="913.5" x2="923.5" y1="258.5485" y2="258.5485"/><rect fill="#F1F1F1" height="36.3441" style="stroke:#181818;stroke-width:1.5;" width="117" x="923.5" y="240.3765"/><text fill="#000000" font-family="sans-serif" font-size="12" lengthAdjust="spacing" textLength="97" x="933.5" y="263.2045">Financial Account</text><line style="stroke:#181818;stroke-width:1.5;" x1="913.5" x2="923.5" y1="309.8926" y2="309.8926"/><rect fill="#F1F1F1" height="36.3441" style="stroke:#181818;stroke-width:1.5;" width="26" x="923.5" y="291.7206"/><text fill="#000000" font-family="sans-serif" font-size="12" lengthAdjust="spacing" textLength="6" x="933.5" y="314.5487">..</text><line style="stroke:#181818;stroke-width:1.5;" x1="913.5" x2="913.5" y1="122.6882" y2="309.8926"/><line style="stroke:#181818;stroke-width:1.5;" x1="1094.5" x2="1094.5" y1="66.3441" y2="86.3441"/><rect fill="#F1F1F1" height="36.3441" style="stroke:#181818;stroke-width:1.5;" width="68" x="1060.5" y="86.3441"/><text fill="#000000" font-family="sans-serif" font-size="12" lengthAdjust="spacing" textLength="48" x="1070.5" y="109.1722">Tracking</text><line style="stroke:#181818;stroke-width:1.5;" x1="1094.5" x2="1104.5" y1="155.8603" y2="155.8603"/><rect fill="#F1F1F1" height="36.3441" style="stroke:#181818;stroke-width:1.5;" width="67" x="1104.5" y="137.6882"/><text fill="#000000" font-family="sans-serif" font-size="12" lengthAdjust="spacing" textLength="47" x="1114.5" y="160.5163">Location</text><line style="stroke:#181818;stroke-width:1.5;" x1="1094.5" x2="1104.5" y1="207.2044" y2="207.2044"/><rect fill="#F1F1F1" height="36.3441" style="stroke:#181818;stroke-width:1.5;" width="95" x="1104.5" y="189.0323"/><text fill="#000000" font-family="sans-serif" font-size="12" lengthAdjust="spacing" textLength="75" x="1114.5" y="211.8604">Device based</text><line style="stroke:#181818;stroke-width:1.5;" x1="1094.5" x2="1104.5" y1="258.5485" y2="258.5485"/><rect fill="#F1F1F1" height="36.3441" style="stroke:#181818;stroke-width:1.5;" width="63" x="1104.5" y="240.3765"/><text fill="#000000" font-family="sans-serif" font-size="12" lengthAdjust="spacing" textLength="43" x="1114.5" y="263.2045">Contact</text><line style="stroke:#181818;stroke-width:1.5;" x1="1094.5" x2="1104.5" y1="309.8926" y2="309.8926"/><rect fill="#F1F1F1" height="36.3441" style="stroke:#181818;stroke-width:1.5;" width="29" x="1104.5" y="291.7206"/><text fill="#000000" font-family="sans-serif" font-size="12" lengthAdjust="spacing" textLength="9" x="1114.5" y="314.5487">...</text><line style="stroke:#181818;stroke-width:1.5;" x1="1094.5" x2="1094.5" y1="122.6882" y2="309.8926"/><line style="stroke:#181818;stroke-width:1.5;" x1="1256" x2="1256" y1="66.3441" y2="86.3441"/><rect fill="#F1F1F1" height="36.3441" style="stroke:#181818;stroke-width:1.5;" width="73" x="1219.5" y="86.3441"/><text fill="#000000" font-family="sans-serif" font-size="12" lengthAdjust="spacing" textLength="53" x="1229.5" y="109.1722">Historical</text><line style="stroke:#181818;stroke-width:1.5;" x1="1256" x2="1266" y1="155.8603" y2="155.8603"/><rect fill="#F1F1F1" height="36.3441" style="stroke:#181818;stroke-width:1.5;" width="83" x="1266" y="137.6882"/><text fill="#000000" font-family="sans-serif" font-size="12" lengthAdjust="spacing" textLength="63" x="1276" y="160.5163">Life History</text><line style="stroke:#181818;stroke-width:1.5;" x1="1256" x2="1266" y1="207.2044" y2="207.2044"/><rect fill="#F1F1F1" height="36.3441" style="stroke:#181818;stroke-width:1.5;" width="29" x="1266" y="189.0323"/><text fill="#000000" font-family="sans-serif" font-size="12" lengthAdjust="spacing" textLength="9" x="1276" y="211.8604">...</text><line style="stroke:#181818;stroke-width:1.5;" x1="1256" x2="1256" y1="122.6882" y2="207.2044"/><line style="stroke:#181818;stroke-width:1.5;" x1="48.5" x2="1256" y1="66.3441" y2="66.3441"/><rect fill="#F1F1F1" height="36.3441" style="stroke:#181818;stroke-width:1.5;" width="96" x="604.25" y="10"/><text fill="#000000" font-family="sans-serif" font-size="12" lengthAdjust="spacing" textLength="76" x="614.25" y="32.8281">PersonalData</text><line style="stroke:#181818;stroke-width:1.5;" x1="652.25" x2="652.25" y1="46.3441" y2="66.3441"/><!--SRC=[xLJBRjim4BppAzXROY12RSH1u9FhLnl7HepAoPscLjAY52dmeKH_tvL5gsvF_O3SkA_PcTL0S-U5zUydnxwWbYfam9rl5IIr4jg7IZ4suWUmpcYXLi8BDXhn5BH3ZmsCAAAm1eb2yQNmK1ZRTbd-f3rOcZbt72paO45BSEVuMPjt1La1vsW12Y7lAqcITDFhZwlf1PIYGHDiZ5TGcSAAkaJP3ntArg6CrHG-Gdm-PQ0zvYtguXhyXmaEIgEoSxAEuhYG98baHOxbfUlVGaH9JIVwdDc82bNRFos2pY8jQt9m3irmXd1IAFaEyrxuqbHLqCJSKyyrzWQrq0FyqGhjEX83qCkx9jObrltEIpV_9gK9saSeri_ANnVzEtErQWKDIk0duI2BRBIdBNzT2fqtTZXjHppcsg6DpKbmPo0s7xnK8laeHr1PV5VWItC995gfw9YVrlgqrdzQwz3zZLxtEzuGELh3nydaw-G-cTwaGVEzQFdaWO_7i_5qDdtaotLwv5tzbjryF-ouemzCV3A2jtWA7SzRjXMDu3z94bOmuoyrwEtg-PBWQzsWDRgYhyosR_i_3G_tTmlqP0LBLFZRdgqW5q5vcf0cetFC-EjnS_V8Ta8NGHI43PejkzlPbchfRm00]--></g></svg>