<svg xmlns="http://www.w3.org/2000/svg" xmlns:xlink="http://www.w3.org/1999/xlink" contentStyleType="text/css" height="493px" preserveAspectRatio="none" style="width:1118px;height:493px;background:#FFFFFF;" version="1.1" viewBox="0 0 1118 493" width="1118px" zoomAndPan="magnify"><defs/><g><line style="stroke:#181818;stroke-width:1.5;" x1="80.5" x2="80.5" y1="66.3441" y2="86.3441"/><rect fill="#F1F1F1" height="36.3441" style="stroke:#181818;stroke-width:1.5;" width="141" x="10" y="86.3441"/><text fill="#000000" font-family="sans-serif" font-size="12" lengthAdjust="spacing" textLength="121" x="20" y="109.1722">dpv:DataSubjectScale</text><line style="stroke:#181818;stroke-width:1.5;" x1="80.5" x2="90.5" y1="155.8603" y2="155.8603"/><rect fill="#F1F1F1" height="36.3441" style="stroke:#181818;stroke-width:1.5;" width="190" x="90.5" y="137.6882"/><text fill="#000000" font-family="sans-serif" font-size="12" lengthAdjust="spacing" textLength="170" x="100.5" y="160.5163">dpv:HugeScaleOfDataSubjects</text><line style="stroke:#181818;stroke-width:1.5;" x1="80.5" x2="90.5" y1="207.2044" y2="207.2044"/><rect fill="#F1F1F1" height="36.3441" style="stroke:#181818;stroke-width:1.5;" width="192" x="90.5" y="189.0323"/><text fill="#000000" font-family="sans-serif" font-size="12" lengthAdjust="spacing" textLength="172" x="100.5" y="211.8604">dpv:LargeScaleOfDataSubjects</text><line style="stroke:#181818;stroke-width:1.5;" x1="80.5" x2="90.5" y1="258.5485" y2="258.5485"/><rect fill="#F1F1F1" height="36.3441" style="stroke:#181818;stroke-width:1.5;" width="206" x="90.5" y="240.3765"/><text fill="#000000" font-family="sans-serif" font-size="12" lengthAdjust="spacing" textLength="186" x="100.5" y="263.2045">dpv:MediumScaleOfDataSubjects</text><line style="stroke:#181818;stroke-width:1.5;" x1="80.5" x2="90.5" y1="309.8926" y2="309.8926"/><rect fill="#F1F1F1" height="36.3441" style="stroke:#181818;stroke-width:1.5;" width="206" x="90.5" y="291.7206"/><text fill="#000000" font-family="sans-serif" font-size="12" lengthAdjust="spacing" textLength="186" x="100.5" y="314.5487">dpv:SingularScaleOfDataSubjects</text><line style="stroke:#181818;stroke-width:1.5;" x1="80.5" x2="90.5" y1="361.2367" y2="361.2367"/><rect fill="#F1F1F1" height="36.3441" style="stroke:#181818;stroke-width:1.5;" width="191" x="90.5" y="343.0647"/><text fill="#000000" font-family="sans-serif" font-size="12" lengthAdjust="spacing" textLength="171" x="100.5" y="365.8928">dpv:SmallScaleOfDataSubjects</text><line style="stroke:#181818;stroke-width:1.5;" x1="80.5" x2="90.5" y1="412.5809" y2="412.5809"/><rect fill="#F1F1F1" height="36.3441" style="stroke:#181818;stroke-width:1.5;" width="209" x="90.5" y="394.4088"/><text fill="#000000" font-family="sans-serif" font-size="12" lengthAdjust="spacing" textLength="189" x="100.5" y="417.2369">dpv:SporadicScaleOfDataSubjects</text><line style="stroke:#181818;stroke-width:1.5;" x1="80.5" x2="80.5" y1="122.6882" y2="412.5809"/><line style="stroke:#181818;stroke-width:1.5;" x1="375.5" x2="375.5" y1="66.3441" y2="86.3441"/><rect fill="#F1F1F1" height="36.3441" style="stroke:#181818;stroke-width:1.5;" width="112" x="319.5" y="86.3441"/><text fill="#000000" font-family="sans-serif" font-size="12" lengthAdjust="spacing" textLength="92" x="329.5" y="109.1722">dpv:DataVolume</text><line style="stroke:#181818;stroke-width:1.5;" x1="375.5" x2="385.5" y1="155.8603" y2="155.8603"/><rect fill="#F1F1F1" height="36.3441" style="stroke:#181818;stroke-width:1.5;" width="142" x="385.5" y="137.6882"/><text fill="#000000" font-family="sans-serif" font-size="12" lengthAdjust="spacing" textLength="122" x="395.5" y="160.5163">dpv:HugeDataVolume</text><line style="stroke:#181818;stroke-width:1.5;" x1="375.5" x2="385.5" y1="207.2044" y2="207.2044"/><rect fill="#F1F1F1" height="36.3441" style="stroke:#181818;stroke-width:1.5;" width="144" x="385.5" y="189.0323"/><text fill="#000000" font-family="sans-serif" font-size="12" lengthAdjust="spacing" textLength="124" x="395.5" y="211.8604">dpv:LargeDataVolume</text><line style="stroke:#181818;stroke-width:1.5;" x1="375.5" x2="385.5" y1="258.5485" y2="258.5485"/><rect fill="#F1F1F1" height="36.3441" style="stroke:#181818;stroke-width:1.5;" width="158" x="385.5" y="240.3765"/><text fill="#000000" font-family="sans-serif" font-size="12" lengthAdjust="spacing" textLength="138" x="395.5" y="263.2045">dpv:MediumDataVolume</text><line style="stroke:#181818;stroke-width:1.5;" x1="375.5" x2="385.5" y1="309.8926" y2="309.8926"/><rect fill="#F1F1F1" height="36.3441" style="stroke:#181818;stroke-width:1.5;" width="158" x="385.5" y="291.7206"/><text fill="#000000" font-family="sans-serif" font-size="12" lengthAdjust="spacing" textLength="138" x="395.5" y="314.5487">dpv:SingularDataVolume</text><line style="stroke:#181818;stroke-width:1.5;" x1="375.5" x2="385.5" y1="361.2367" y2="361.2367"/><rect fill="#F1F1F1" height="36.3441" style="stroke:#181818;stroke-width:1.5;" width="143" x="385.5" y="343.0647"/><text fill="#000000" font-family="sans-serif" font-size="12" lengthAdjust="spacing" textLength="123" x="395.5" y="365.8928">dpv:SmallDataVolume</text><line style="stroke:#181818;stroke-width:1.5;" x1="375.5" x2="385.5" y1="412.5809" y2="412.5809"/><rect fill="#F1F1F1" height="36.3441" style="stroke:#181818;stroke-width:1.5;" width="161" x="385.5" y="394.4088"/><text fill="#000000" font-family="sans-serif" font-size="12" lengthAdjust="spacing" textLength="141" x="395.5" y="417.2369">dpv:SporadicDataVolume</text><line style="stroke:#181818;stroke-width:1.5;" x1="375.5" x2="375.5" y1="122.6882" y2="412.5809"/><line style="stroke:#181818;stroke-width:1.5;" x1="647.5" x2="647.5" y1="66.3441" y2="86.3441"/><rect fill="#F1F1F1" height="36.3441" style="stroke:#181818;stroke-width:1.5;" width="162" x="566.5" y="86.3441"/><text fill="#000000" font-family="sans-serif" font-size="12" lengthAdjust="spacing" textLength="142" x="576.5" y="109.1722">dpv:GeographicCoverage</text><line style="stroke:#181818;stroke-width:1.5;" x1="647.5" x2="657.5" y1="155.8603" y2="155.8603"/><rect fill="#F1F1F1" height="36.3441" style="stroke:#181818;stroke-width:1.5;" width="109" x="657.5" y="137.6882"/><text fill="#000000" font-family="sans-serif" font-size="12" lengthAdjust="spacing" textLength="89" x="667.5" y="160.5163">dpv:GlobalScale</text><line style="stroke:#181818;stroke-width:1.5;" x1="647.5" x2="657.5" y1="207.2044" y2="207.2044"/><rect fill="#F1F1F1" height="36.3441" style="stroke:#181818;stroke-width:1.5;" width="173" x="657.5" y="189.0323"/><text fill="#000000" font-family="sans-serif" font-size="12" lengthAdjust="spacing" textLength="153" x="667.5" y="211.8604">dpv:LocalEnvironmentScale</text><line style="stroke:#181818;stroke-width:1.5;" x1="647.5" x2="657.5" y1="258.5485" y2="258.5485"/><rect fill="#F1F1F1" height="36.3441" style="stroke:#181818;stroke-width:1.5;" width="115" x="657.5" y="240.3765"/><text fill="#000000" font-family="sans-serif" font-size="12" lengthAdjust="spacing" textLength="95" x="667.5" y="263.2045">dpv:LocalityScale</text><line style="stroke:#181818;stroke-width:1.5;" x1="647.5" x2="657.5" y1="309.8926" y2="309.8926"/><rect fill="#F1F1F1" height="36.3441" style="stroke:#181818;stroke-width:1.5;" width="148" x="657.5" y="291.7206"/><text fill="#000000" font-family="sans-serif" font-size="12" lengthAdjust="spacing" textLength="128" x="667.5" y="314.5487">dpv:MultiNationalScale</text><line style="stroke:#181818;stroke-width:1.5;" x1="647.5" x2="657.5" y1="361.2367" y2="361.2367"/><rect fill="#F1F1F1" height="36.3441" style="stroke:#181818;stroke-width:1.5;" width="120" x="657.5" y="343.0647"/><text fill="#000000" font-family="sans-serif" font-size="12" lengthAdjust="spacing" textLength="100" x="667.5" y="365.8928">dpv:NationalScale</text><line style="stroke:#181818;stroke-width:1.5;" x1="647.5" x2="657.5" y1="412.5809" y2="412.5809"/><rect fill="#F1F1F1" height="36.3441" style="stroke:#181818;stroke-width:1.5;" width="146" x="657.5" y="394.4088"/><text fill="#000000" font-family="sans-serif" font-size="12" lengthAdjust="spacing" textLength="126" x="667.5" y="417.2369">dpv:NearlyGlobalScale</text><line style="stroke:#181818;stroke-width:1.5;" x1="647.5" x2="657.5" y1="463.925" y2="463.925"/><rect fill="#F1F1F1" height="36.3441" style="stroke:#181818;stroke-width:1.5;" width="121" x="657.5" y="445.7529"/><text fill="#000000" font-family="sans-serif" font-size="12" lengthAdjust="spacing" textLength="101" x="667.5" y="468.581">dpv:RegionalScale</text><line style="stroke:#181818;stroke-width:1.5;" x1="647.5" x2="647.5" y1="122.6882" y2="463.925"/><line style="stroke:#181818;stroke-width:1.5;" x1="917.5" x2="917.5" y1="66.3441" y2="86.3441"/><rect fill="#F1F1F1" height="36.3441" style="stroke:#181818;stroke-width:1.5;" width="134" x="850.5" y="86.3441"/><text fill="#000000" font-family="sans-serif" font-size="12" lengthAdjust="spacing" textLength="114" x="860.5" y="109.1722">dpv:ProcessingScale</text><line style="stroke:#181818;stroke-width:1.5;" x1="917.5" x2="927.5" y1="155.8603" y2="155.8603"/><rect fill="#F1F1F1" height="36.3441" style="stroke:#181818;stroke-width:1.5;" width="166" x="927.5" y="137.6882"/><text fill="#000000" font-family="sans-serif" font-size="12" lengthAdjust="spacing" textLength="146" x="937.5" y="160.5163">dpv:LargeScaleProcessing</text><line style="stroke:#181818;stroke-width:1.5;" x1="917.5" x2="927.5" y1="207.2044" y2="207.2044"/><rect fill="#F1F1F1" height="36.3441" style="stroke:#181818;stroke-width:1.5;" width="180" x="927.5" y="189.0323"/><text fill="#000000" font-family="sans-serif" font-size="12" lengthAdjust="spacing" textLength="160" x="937.5" y="211.8604">dpv:MediumScaleProcessing</text><line style="stroke:#181818;stroke-width:1.5;" x1="917.5" x2="927.5" y1="258.5485" y2="258.5485"/><rect fill="#F1F1F1" height="36.3441" style="stroke:#181818;stroke-width:1.5;" width="165" x="927.5" y="240.3765"/><text fill="#000000" font-family="sans-serif" font-size="12" lengthAdjust="spacing" textLength="145" x="937.5" y="263.2045">dpv:SmallScaleProcessing</text><line style="stroke:#181818;stroke-width:1.5;" x1="917.5" x2="917.5" y1="122.6882" y2="258.5485"/><line style="stroke:#181818;stroke-width:1.5;" x1="80.5" x2="917.5" y1="66.3441" y2="66.3441"/><rect fill="#F1F1F1" height="36.3441" style="stroke:#181818;stroke-width:1.5;" width="134" x="432" y="10"/><text fill="#000000" font-family="sans-serif" font-size="12" lengthAdjust="spacing" textLength="114" x="442" y="32.8281">dpv:ProcessingScale</text><line style="stroke:#181818;stroke-width:1.5;" x1="499" x2="499" y1="46.3441" y2="66.3441"/><!--SRC=[xLJRJkCm47ttLyo-0HBLjg88vQdQbYqgoL8HwFlKcQPUENRaIr7-7gUbbo3J3q2ynUSSssV6PpAo3erxMrhsIoWkVK5WNIEfLqjKpbUIiIiewaqoDvgJjKALEKT9x6e7Jz1XxfV_YRizlYCUV4bRv6breh47FaLpNf1H8NnrJf47CrwYEQkfKCgpWbeRB0IFQmurBhJqLRUw2BmjAeBlQeaG-n9YLEiyXdyOxb1RPagwD5Yl1H_h3HaiZvkcKYzHTbyerM5vhpR2Q5MHSX5MkAQBPbuwyG-TqEhpSL-WX4OsiUkVgUpelqZPvxGS5R6aHDXZ0av8DY9LjAbdeyC0h4K8_qgGB3w-At9hlLzmORYaiE5d7dxcuHlFmxpzxxzcAOIEsM08-ht1xy5DRtYHUmKPDZ2uXNu_wG-JuHsCx_CNQFbBTZ6Tfs2rDvoW4DOPiVHj1oxP33S8pruvKL42JpMfsUHn3y19nzbiaHq5jpVNVuI3d4om0ekCJMY5eTzX1zT5S9t0wylVwpkMOWXDUDq4IB6n3kUQ9d3vEm00]--></g></svg>