<svg xmlns="http://www.w3.org/2000/svg" xmlns:xlink="http://www.w3.org/1999/xlink" contentStyleType="text/css" height="204px" preserveAspectRatio="none" style="width:1089px;height:204px;background:#FFFFFF;" version="1.1" viewBox="0 0 1089 204" width="1089px" zoomAndPan="magnify"><defs/><g><!--cluster dpv--><g id="cluster_dpv"><path d="M8.5,6.602 L35.8125,6.602 A3.75,3.75 0 0 1 38.3125,9.102 L45.3125,31.6699 L1079.5,31.6699 A2.5,2.5 0 0 1 1082,34.1699 L1082,195.102 A2.5,2.5 0 0 1 1079.5,197.602 L8.5,197.602 A2.5,2.5 0 0 1 6,195.102 L6,9.102 A2.5,2.5 0 0 1 8.5,6.602 " fill="none" style="stroke:#000000;stroke-width:1.5;"/><line style="stroke:#000000;stroke-width:1.5;" x1="6" x2="45.3125" y1="31.6699" y2="31.6699"/><text fill="#000000" font-family="sans-serif" font-size="14" font-weight="bold" lengthAdjust="spacing" textLength="26.3125" x="10" y="23.5679">dpv</text></g><!--class Process--><g id="elem_Process"><rect codeLine="4" fill="#F1F1F1" height="29.0679" id="Process" rx="2.5" ry="2.5" style="stroke:#181818;stroke-width:0.5;" width="57" x="429.5" y="44.602"/><text fill="#000000" font-family="sans-serif" font-size="14" lengthAdjust="spacing" textLength="51" x="432.5" y="64.5679">Process</text></g><!--class Data--><g id="elem_Data"><rect codeLine="5" fill="#F1F1F1" height="29.0679" id="Data" rx="2.5" ry="2.5" style="stroke:#181818;stroke-width:0.5;" width="37" x="38.5" y="152.602"/><text fill="#000000" font-family="sans-serif" font-size="14" lengthAdjust="spacing" textLength="31" x="41.5" y="172.5679">Data</text></g><!--class PersonalData--><g id="elem_PersonalData"><rect codeLine="6" fill="#F1F1F1" height="29.0679" id="PersonalData" rx="2.5" ry="2.5" style="stroke:#181818;stroke-width:0.5;" width="95" x="113.5" y="152.602"/><text fill="#000000" font-family="sans-serif" font-size="14" lengthAdjust="spacing" textLength="89" x="116.5" y="172.5679">PersonalData</text></g><!--class Processing--><g id="elem_Processing"><rect codeLine="7" fill="#F1F1F1" height="29.0679" id="Processing" rx="2.5" ry="2.5" style="stroke:#181818;stroke-width:0.5;" width="79" x="277.5" y="152.602"/><text fill="#000000" font-family="sans-serif" font-size="14" lengthAdjust="spacing" textLength="73" x="280.5" y="172.5679">Processing</text></g><!--class LegalBasis--><g id="elem_LegalBasis"><rect codeLine="8" fill="#F1F1F1" height="29.0679" id="LegalBasis" rx="2.5" ry="2.5" style="stroke:#181818;stroke-width:0.5;" width="77" x="419.5" y="152.602"/><text fill="#000000" font-family="sans-serif" font-size="14" lengthAdjust="spacing" textLength="71" x="422.5" y="172.5679">LegalBasis</text></g><!--class Entity--><g id="elem_Entity"><rect codeLine="9" fill="#F1F1F1" height="29.0679" id="Entity" rx="2.5" ry="2.5" style="stroke:#181818;stroke-width:0.5;" width="44" x="563" y="152.602"/><text fill="#000000" font-family="sans-serif" font-size="14" lengthAdjust="spacing" textLength="38" x="566" y="172.5679">Entity</text></g><!--class TechnicalMeasure--><g id="elem_TechnicalMeasure"><rect codeLine="10" fill="#F1F1F1" height="29.0679" id="TechnicalMeasure" rx="2.5" ry="2.5" style="stroke:#181818;stroke-width:0.5;" width="129" x="642.5" y="152.602"/><text fill="#000000" font-family="sans-serif" font-size="14" lengthAdjust="spacing" textLength="123" x="645.5" y="172.5679">TechnicalMeasure</text></g><!--class OrganisationalMeasure--><g id="elem_OrganisationalMeasure"><rect codeLine="11" fill="#F1F1F1" height="29.0679" id="OrganisationalMeasure" rx="2.5" ry="2.5" style="stroke:#181818;stroke-width:0.5;" width="165" x="807.5" y="152.602"/><text fill="#000000" font-family="sans-serif" font-size="14" lengthAdjust="spacing" textLength="159" x="810.5" y="172.5679">OrganisationalMeasure</text></g><!--class Process2--><g id="elem_Process2"><rect codeLine="12" fill="#F1F1F1" height="29.0679" id="Process2" rx="2.5" ry="2.5" style="stroke:#181818;stroke-width:0.5;" width="57" x="603.5" y="44.602"/><text fill="#000000" font-family="sans-serif" font-size="14" lengthAdjust="spacing" textLength="51" x="606.5" y="64.5679">Process</text></g><!--class Service--><g id="elem_Service"><rect codeLine="13" fill="#F1F1F1" height="29.0679" id="Service" rx="2.5" ry="2.5" style="stroke:#181818;stroke-width:0.5;" width="54" x="259" y="44.602"/><text fill="#000000" font-family="sans-serif" font-size="14" lengthAdjust="spacing" textLength="48" x="262" y="64.5679">Service</text></g><!--link Process to Data--><g id="link_Process_Data"><path codeLine="16" d="M429.26,63.202 C349.26,71.922 128.97,96.432 115,103.602 C93.27,114.762 75.46,137.502 65.54,152.252 " fill="none" id="Process-Data" style="stroke:#181818;stroke-width:1.0;"/><polygon fill="#000000" points="115.1434,114.644,124.6279,115.3477,123.2301,109.6384,115.1434,114.644" style="stroke:#000000;stroke-width:1.0;"/><text fill="#000000" font-family="sans-serif" font-size="13" lengthAdjust="spacing" textLength="49" x="129" y="118.499">hasData</text></g><!--link Process to PersonalData--><g id="link_Process_PersonalData"><path codeLine="17" d="M429.46,63.832 C367.71,72.062 225.76,92.002 207,103.602 C188.21,115.222 174.62,137.602 167.27,152.192 " fill="none" id="Process-PersonalData" style="stroke:#181818;stroke-width:1.0;"/><polygon fill="#000000" points="207.2618,115.0518,216.7718,114.9482,214.8947,109.3781,207.2618,115.0518" style="stroke:#000000;stroke-width:1.0;"/><text fill="#000000" font-family="sans-serif" font-size="13" lengthAdjust="spacing" textLength="101" x="221" y="118.499">hasPersonalData</text></g><!--link Process to Processing--><g id="link_Process_Processing"><path codeLine="18" d="M429.18,64.812 C404.15,70.262 368.35,81.482 345,103.602 C331.11,116.772 323.61,138.092 319.97,152.112 " fill="none" id="Process-Processing" style="stroke:#181818;stroke-width:1.0;"/><polygon fill="#000000" points="346.0945,116.577,354.9947,113.2249,351.3246,108.6336,346.0945,116.577" style="stroke:#000000;stroke-width:1.0;"/><text fill="#000000" font-family="sans-serif" font-size="13" lengthAdjust="spacing" textLength="86" x="359" y="118.499">hasProcessing</text></g><!--link Process to LegalBasis--><g id="link_Process_LegalBasis"><path codeLine="19" d="M456.81,73.802 C456.13,82.362 455.34,93.612 455,103.602 C454.42,120.322 455.63,139.542 456.68,152.202 " fill="none" id="Process-LegalBasis" style="stroke:#181818;stroke-width:1.0;"/><polygon fill="#000000" points="459.9917,118.455,462.9456,109.4148,457.0678,109.405,459.9917,118.455" style="stroke:#000000;stroke-width:1.0;"/><text fill="#000000" font-family="sans-serif" font-size="13" lengthAdjust="spacing" textLength="83" x="469" y="118.499">hasLegalBasis</text></g><!--link Process to Entity--><g id="link_Process_Entity"><path codeLine="20" d="M486.8,66.732 C508.49,73.012 537.68,84.422 557,103.602 C570.58,117.092 578.16,138.332 581.91,152.242 " fill="none" id="Process-Entity" style="stroke:#181818;stroke-width:1.0;"/><polygon fill="#000000" points="578.7182,116.7979,573.9568,108.565,570.027,112.936,578.7182,116.7979" style="stroke:#000000;stroke-width:1.0;"/><text fill="#000000" font-family="sans-serif" font-size="13" lengthAdjust="spacing" textLength="56" x="584" y="118.499">hasEntity</text></g><!--link Process to TechnicalMeasure--><g id="link_Process_TechnicalMeasure"><path codeLine="21" d="M486.78,61.402 C525.92,64.292 597.01,73.602 649,103.602 C669.9,115.662 687.7,137.702 697.87,152.122 " fill="none" id="Process-TechnicalMeasure" style="stroke:#181818;stroke-width:1.0;"/><polygon fill="#000000" points="681.5937,115.4292,674.444,109.1577,672.1232,114.5579,681.5937,115.4292" style="stroke:#000000;stroke-width:1.0;"/><text fill="#000000" font-family="sans-serif" font-size="13" lengthAdjust="spacing" textLength="128" x="686" y="118.499">hasTechnicalMeasure</text></g><!--link Process to OrganisationalMeasure--><g id="link_Process_OrganisationalMeasure"><path codeLine="22" d="M486.86,63.302 C571.78,72.742 815.36,100.052 823,103.602 C846.81,114.652 867.76,137.422 879.65,152.212 " fill="none" id="Process-OrganisationalMeasure" style="stroke:#181818;stroke-width:1.0;"/><polygon fill="#000000" points="859.8766,114.5588,851.7036,109.6955,850.4059,115.4284,859.8766,114.5588" style="stroke:#000000;stroke-width:1.0;"/><text fill="#000000" font-family="sans-serif" font-size="13" lengthAdjust="spacing" textLength="161" x="864" y="118.499">hasOrganisationalMeasure</text></g><!--link Process to Process2--><g id="link_Process_Process2"><path codeLine="24" d="M486.73,59.102 C518.97,59.102 570.97,59.102 603.22,59.102 " fill="none" id="Process-Process2" style="stroke:#181818;stroke-width:1.0;"/><polygon fill="#000000" points="514,46.955,504.9549,44.0161,504.9549,49.8939,514,46.955" style="stroke:#000000;stroke-width:1.0;"/><text fill="#000000" font-family="sans-serif" font-size="13" lengthAdjust="spacing" textLength="67" x="518" y="51.999">hasProcess</text></g><!--link Service to Process--><g id="link_Service_Process"><path codeLine="25" d="M313.25,59.102 C344.89,59.102 396.85,59.102 429.15,59.102 " fill="none" id="Service-Process" style="stroke:#181818;stroke-width:1.0;"/><polygon fill="#000000" points="340.25,46.955,331.2049,44.0161,331.2049,49.8939,340.25,46.955" style="stroke:#000000;stroke-width:1.0;"/><text fill="#000000" font-family="sans-serif" font-size="13" lengthAdjust="spacing" textLength="67" x="344.25" y="51.999">hasProcess</text></g><!--SRC=[RP3D3i8W48JlFCNQknuyUkZ1w4sZYRx01ZULYDYmj4bZV7T_87LfombclWLcPiPfsrm8E7IM5hL55vgxLQf6VSEAu5Aty5JmMTeYCnpzGnEpK3OOK0Ba-U7G3kKuPrmbn1rLQDV8HjwtTS64JWXdqbTdDDez8JUUX7Nm5Jh36CptoR5Vf6SBmFuBI-6VoBT6atefbLoOpt-9O0LNvD-kb9wC5vbCoTa-SoB_vupxrn0vSSwus4naqZxpXqL5SgHcCvCDni5fgnHL-JxZCaluWLApaXaYRm00]--></g></svg>