<svg xmlns="http://www.w3.org/2000/svg" xmlns:xlink="http://www.w3.org/1999/xlink" contentStyleType="text/css" height="742px" preserveAspectRatio="none" style="width:1333px;height:742px;background:#FFFFFF;" version="1.1" viewBox="0 0 1333 742" width="1333px" zoomAndPan="magnify"><defs/><g><!--cluster dpv--><g id="cluster_dpv"><path d="M547.5,6.602 L574.8125,6.602 A3.75,3.75 0 0 1 577.3125,9.102 L584.3125,31.6699 L1049.5,31.6699 A2.5,2.5 0 0 1 1052,34.1699 L1052,391.102 A2.5,2.5 0 0 1 1049.5,393.602 L547.5,393.602 A2.5,2.5 0 0 1 545,391.102 L545,9.102 A2.5,2.5 0 0 1 547.5,6.602 " fill="none" style="stroke:#000000;stroke-width:1.5;"/><line style="stroke:#000000;stroke-width:1.5;" x1="545" x2="584.3125" y1="31.6699" y2="31.6699"/><text fill="#000000" font-family="sans-serif" font-size="14" font-weight="bold" lengthAdjust="spacing" textLength="26.3125" x="549" y="23.5679">dpv</text></g><!--cluster risk--><g id="cluster_risk"><path d="M209.5,417.602 L236.25,417.602 A3.75,3.75 0 0 1 238.75,420.102 L245.75,442.6699 L1323.5,442.6699 A2.5,2.5 0 0 1 1326,445.1699 L1326,691.102 A2.5,2.5 0 0 1 1323.5,693.602 L209.5,693.602 A2.5,2.5 0 0 1 207,691.102 L207,420.102 A2.5,2.5 0 0 1 209.5,417.602 " fill="none" style="stroke:#000000;stroke-width:1.5;"/><line style="stroke:#000000;stroke-width:1.5;" x1="207" x2="245.75" y1="442.6699" y2="442.6699"/><text fill="#000000" font-family="sans-serif" font-size="14" font-weight="bold" lengthAdjust="spacing" textLength="25.75" x="211" y="434.5679">risk</text></g><!--class Entity--><g id="elem_Entity"><rect codeLine="6" fill="#F1F1F1" height="29.0679" id="Entity" rx="2.5" ry="2.5" style="stroke:#181818;stroke-width:0.5;" width="44" x="933.5" y="49.102"/><text fill="#000000" font-family="sans-serif" font-size="14" lengthAdjust="spacing" textLength="38" x="936.5" y="69.0679">Entity</text></g><!--class Risk--><g id="elem_Risk"><rect codeLine="30" fill="#F1F1F1" height="29.0679" id="Risk" rx="2.5" ry="2.5" style="stroke:#181818;stroke-width:0.5;" width="33" x="593" y="284.102"/><text fill="#000000" font-family="sans-serif" font-size="14" lengthAdjust="spacing" textLength="27" x="596" y="304.0679">Risk</text></g><!--class RiskMitigationMeasure--><g id="elem_RiskMitigationMeasure"><rect codeLine="8" fill="#F1F1F1" height="29.0679" id="RiskMitigationMeasure" rx="2.5" ry="2.5" style="stroke:#181818;stroke-width:0.5;" width="161" x="875" y="244.102"/><text fill="#000000" font-family="sans-serif" font-size="14" lengthAdjust="spacing" textLength="155" x="878" y="264.0679">RiskMitigationMeasure</text></g><!--class RiskLevel--><g id="elem_RiskLevel"><rect codeLine="9" fill="#F1F1F1" height="29.0679" id="RiskLevel" rx="2.5" ry="2.5" style="stroke:#181818;stroke-width:0.5;" width="67" x="922" y="308.102"/><text fill="#000000" font-family="sans-serif" font-size="14" lengthAdjust="spacing" textLength="61" x="925" y="328.0679">RiskLevel</text></g><!--class Consequence--><g id="elem_Consequence"><rect codeLine="10" fill="#F1F1F1" height="29.0679" id="Consequence" rx="2.5" ry="2.5" style="stroke:#181818;stroke-width:0.5;" width="97" x="561" y="173.102"/><text fill="#000000" font-family="sans-serif" font-size="14" lengthAdjust="spacing" textLength="91" x="564" y="193.0679">Consequence</text></g><!--class Impact--><g id="elem_Impact"><rect codeLine="11" fill="#F1F1F1" height="29.0679" id="Impact" rx="2.5" ry="2.5" style="stroke:#181818;stroke-width:0.5;" width="53" x="583" y="45.102"/><text fill="#000000" font-family="sans-serif" font-size="14" lengthAdjust="spacing" textLength="47" x="586" y="65.0679">Impact</text></g><!--class Severity--><g id="elem_Severity"><rect codeLine="12" fill="#F1F1F1" height="29.0679" id="Severity" rx="2.5" ry="2.5" style="stroke:#181818;stroke-width:0.5;" width="59" x="580" y="109.102"/><text fill="#000000" font-family="sans-serif" font-size="14" lengthAdjust="spacing" textLength="53" x="583" y="129.0679">Severity</text></g><!--class Likelihood--><g id="elem_Likelihood"><rect codeLine="13" fill="#F1F1F1" height="29.0679" id="Likelihood" rx="2.5" ry="2.5" style="stroke:#181818;stroke-width:0.5;" width="74" x="572.5" y="348.102"/><text fill="#000000" font-family="sans-serif" font-size="14" lengthAdjust="spacing" textLength="68" x="575.5" y="368.0679">Likelihood</text></g><!--class Incident--><g id="elem_Incident"><rect codeLine="34" fill="#F1F1F1" height="29.0679" id="Incident" rx="2.5" ry="2.5" style="stroke:#181818;stroke-width:0.5;" width="62" x="253.5" y="456.102"/><text fill="#000000" font-family="sans-serif" font-size="14" lengthAdjust="spacing" textLength="56" x="256.5" y="476.0679">Incident</text></g><!--class IncidentStatus--><g id="elem_IncidentStatus"><rect codeLine="35" fill="#F1F1F1" height="29.0679" id="IncidentStatus" rx="2.5" ry="2.5" style="stroke:#181818;stroke-width:0.5;" width="104" x="557.5" y="456.102"/><text fill="#000000" font-family="sans-serif" font-size="14" lengthAdjust="spacing" textLength="98" x="560.5" y="476.0679">IncidentStatus</text></g><!--class RiskSource--><g id="elem_RiskSource"><rect codeLine="36" fill="#F1F1F1" height="29.0679" id="RiskSource" rx="2.5" ry="2.5" style="stroke:#181818;stroke-width:0.5;" width="79" x="570" y="648.102"/><text fill="#000000" font-family="sans-serif" font-size="14" lengthAdjust="spacing" textLength="73" x="573" y="668.0679">RiskSource</text></g><!--class Threat--><g id="elem_Threat"><rect codeLine="37" fill="#F1F1F1" height="29.0679" id="Threat" rx="2.5" ry="2.5" style="stroke:#181818;stroke-width:0.5;" width="50" x="930.5" y="601.102"/><text fill="#000000" font-family="sans-serif" font-size="14" lengthAdjust="spacing" textLength="44" x="933.5" y="621.0679">Threat</text></g><!--class ThreatSource--><g id="elem_ThreatSource"><rect codeLine="38" fill="#F1F1F1" height="29.0679" id="ThreatSource" rx="2.5" ry="2.5" style="stroke:#181818;stroke-width:0.5;" width="96" x="1214" y="601.102"/><text fill="#000000" font-family="sans-serif" font-size="14" lengthAdjust="spacing" textLength="90" x="1217" y="621.0679">ThreatSource</text></g><!--class Vulnerability--><g id="elem_Vulnerability"><rect codeLine="39" fill="#F1F1F1" height="29.0679" id="Vulnerability" rx="2.5" ry="2.5" style="stroke:#181818;stroke-width:0.5;" width="91" x="564" y="584.102"/><text fill="#000000" font-family="sans-serif" font-size="14" lengthAdjust="spacing" textLength="85" x="567" y="604.0679">Vulnerability</text></g><!--class RiskControl--><g id="elem_RiskControl"><rect codeLine="40" fill="#F1F1F1" height="29.0679" id="RiskControl" rx="2.5" ry="2.5" style="stroke:#181818;stroke-width:0.5;" width="82" x="243.5" y="520.102"/><text fill="#000000" font-family="sans-serif" font-size="14" lengthAdjust="spacing" textLength="76" x="246.5" y="540.0679">RiskControl</text></g><!--class RiskMatrix--><g id="elem_RiskMatrix"><rect codeLine="41" fill="#F1F1F1" height="29.0679" id="RiskMatrix" rx="2.5" ry="2.5" style="stroke:#181818;stroke-width:0.5;" width="76" x="917.5" y="527.102"/><text fill="#000000" font-family="sans-serif" font-size="14" lengthAdjust="spacing" textLength="70" x="920.5" y="547.0679">RiskMatrix</text></g><!--class RiskAnalysis--><g id="elem_RiskAnalysis"><rect codeLine="42" fill="#F1F1F1" height="29.0679" id="RiskAnalysis" rx="2.5" ry="2.5" style="stroke:#181818;stroke-width:0.5;" width="88" x="911.5" y="463.102"/><text fill="#000000" font-family="sans-serif" font-size="14" lengthAdjust="spacing" textLength="82" x="914.5" y="483.0679">RiskAnalysis</text></g><!--class RiskAssessment--><g id="elem_RiskAssessment"><rect codeLine="43" fill="#F1F1F1" height="29.0679" id="RiskAssessment" rx="2.5" ry="2.5" style="stroke:#181818;stroke-width:0.5;" width="113" x="553" y="520.102"/><text fill="#000000" font-family="sans-serif" font-size="14" lengthAdjust="spacing" textLength="107" x="556" y="540.0679">RiskAssessment</text></g><!--class RiskManagement--><g id="elem_RiskManagement"><rect codeLine="44" fill="#F1F1F1" height="29.0679" id="RiskManagement" rx="2.5" ry="2.5" style="stroke:#181818;stroke-width:0.5;" width="123" x="223" y="584.102"/><text fill="#000000" font-family="sans-serif" font-size="14" lengthAdjust="spacing" textLength="117" x="226" y="604.0679">RiskManagement</text></g><!--class Thing2--><g id="elem_Thing2"><rect codeLine="4" fill="#C0C0C0" height="29.0679" id="Thing2" rx="2.5" ry="2.5" style="stroke:#181818;stroke-width:0.5;" width="45" x="262" y="196.102"/><text fill="#000000" font-family="sans-serif" font-size="14" lengthAdjust="spacing" textLength="39" x="265" y="216.0679">Thing</text></g><!--class Thing--><g id="elem_Thing"><rect codeLine="27" fill="#C0C0C0" height="29.0679" id="Thing" rx="2.5" ry="2.5" style="stroke:#181818;stroke-width:0.5;" width="45" x="7" y="624.102"/><text fill="#000000" font-family="sans-serif" font-size="14" lengthAdjust="spacing" textLength="39" x="10" y="644.0679">Thing</text></g><!--link Thing2 to Risk--><g id="link_Thing2_Risk"><path codeLine="16" d="M302.14,225.462 C319.32,239.882 347.57,261.082 376,271.602 C453.37,300.222 554.23,300.432 592.68,299.292 " fill="none" id="Thing2-Risk" style="stroke:#181818;stroke-width:1.0;"/><polygon fill="#000000" points="429.346,263.6864,421.3033,258.6103,419.8557,264.3071,429.346,263.6864" style="stroke:#000000;stroke-width:1.0;"/><text fill="#000000" font-family="sans-serif" font-size="13" lengthAdjust="spacing" textLength="45" x="433.5" y="267.499">hasRisk</text></g><!--link Thing2 to Consequence--><g id="link_Thing2_Consequence"><path codeLine="17" d="M307.45,209.042 C359.13,205.362 489.49,196.072 560.53,191.022 " fill="none" id="Thing2-Consequence" style="stroke:#181818;stroke-width:1.0;"/><polygon fill="#000000" points="400.9874,185.0999,391.7564,182.8108,392.1739,188.6738,400.9874,185.0999" style="stroke:#000000;stroke-width:1.0;"/><text fill="#000000" font-family="sans-serif" font-size="13" lengthAdjust="spacing" textLength="102" x="405" y="190.499">hasConsequence</text></g><!--link Consequence to Thing2--><g id="link_Consequence_Thing2"><path codeLine="18" d="M569.6,202.582 C558.72,207.412 547.11,213.202 537,219.602 C530.08,223.992 530.69,228.762 523,231.602 C447.68,259.462 350.13,233.042 307.29,218.602 " fill="none" id="Consequence-Thing2" style="stroke:#181818;stroke-width:1.0;"/><polygon fill="#000000" points="382.0093,222.7598,391.2167,225.1419,390.8584,219.2749,382.0093,222.7598" style="stroke:#000000;stroke-width:1.0;"/><text fill="#000000" font-family="sans-serif" font-size="13" lengthAdjust="spacing" textLength="120" x="396" y="227.499">hasConsequenceOn</text></g><!--link Thing2 to Impact--><g id="link_Thing2_Impact"><path codeLine="19" d="M294.24,195.762 C308.39,173.142 338.54,130.372 376,108.602 C443.23,69.532 537.51,61.432 582.55,59.882 " fill="none" id="Thing2-Impact" style="stroke:#181818;stroke-width:1.0;"/><polygon fill="#000000" points="420.0229,54.3234,410.588,55.521,413.0939,60.838,420.0229,54.3234" style="stroke:#000000;stroke-width:1.0;"/><text fill="#000000" font-family="sans-serif" font-size="13" lengthAdjust="spacing" textLength="63" x="424.5" y="61.499">hasImpact</text></g><!--link Impact to Entity--><g id="link_Impact_Entity"><path codeLine="20" d="M636.36,59.902 C701.83,60.662 873.2,62.652 933.3,63.352 " fill="none" id="Impact-Entity" style="stroke:#181818;stroke-width:1.0;"/><polygon fill="#000000" points="732.4997,52.5131,723.4893,49.4693,723.421,55.3467,732.4997,52.5131" style="stroke:#000000;stroke-width:1.0;"/><text fill="#000000" font-family="sans-serif" font-size="13" lengthAdjust="spacing" textLength="81" x="736.5" y="57.499">hasImpactOn</text></g><!--link Thing2 to Severity--><g id="link_Thing2_Severity"><path codeLine="21" d="M307.16,198.362 C325.1,188.712 351.52,175.582 376,167.602 C447.28,144.352 535.09,131.892 579.64,126.652 " fill="none" id="Thing2-Severity" style="stroke:#181818;stroke-width:1.0;"/><polygon fill="#000000" points="417.3354,125.1824,407.8401,124.6424,409.3361,130.3266,417.3354,125.1824" style="stroke:#000000;stroke-width:1.0;"/><text fill="#000000" font-family="sans-serif" font-size="13" lengthAdjust="spacing" textLength="69" x="421.5" y="131.499">hasSeverity</text></g><!--link Thing2 to Likelihood--><g id="link_Thing2_Likelihood"><path codeLine="22" d="M292.55,225.512 C305.31,250.732 334.81,301.422 376,325.602 C437.86,361.922 524.17,365.832 572.34,364.702 " fill="none" id="Thing2-Likelihood" style="stroke:#181818;stroke-width:1.0;"/><polygon fill="#000000" points="409.9766,318.682,403.1873,312.022,400.5693,317.2846,409.9766,318.682" style="stroke:#000000;stroke-width:1.0;"/><text fill="#000000" font-family="sans-serif" font-size="13" lengthAdjust="spacing" textLength="83" x="414.5" y="321.499">hasLikelihood</text></g><!--link Risk to Risk--><g id="link_Risk_Risk"><path codeLine="23" d="M592.73,289.122 C570.63,271.952 576.22,249.102 609.5,249.102 C642.78,249.102 648.37,271.952 626.27,289.122 " fill="none" id="Risk-Risk" style="stroke:#181818;stroke-width:1.0;"/><polygon fill="#000000" points="551.4324,231.0066,554.6609,239.9524,559.3025,236.3462,551.4324,231.0066" style="stroke:#000000;stroke-width:1.0;"/><text fill="#000000" font-family="sans-serif" font-size="13" lengthAdjust="spacing" textLength="95" x="568.5" y="239.999">hasResidualRisk</text></g><!--link Risk to RiskMitigationMeasure--><g id="link_Risk_RiskMitigationMeasure"><path codeLine="24" d="M626.17,296.782 C669.35,291.762 792.28,277.462 874.85,267.862 " fill="none" id="Risk-RiskMitigationMeasure" style="stroke:#181818;stroke-width:1.0;"/><polygon fill="#000000" points="705.9665,261.8774,696.6425,260.003,697.3215,265.8415,705.9665,261.8774" style="stroke:#000000;stroke-width:1.0;"/><text fill="#000000" font-family="sans-serif" font-size="13" lengthAdjust="spacing" textLength="134" x="710" y="267.499">isMitigatedByMeasure</text></g><!--link Risk to RiskLevel--><g id="link_Risk_RiskLevel"><path codeLine="25" d="M626.32,304.182 C643.29,309.862 671.17,318.272 696,321.602 C776.51,332.402 872.4,328.432 921.67,325.172 " fill="none" id="Risk-RiskLevel" style="stroke:#181818;stroke-width:1.0;"/><polygon fill="#000000" points="734.9874,312.8094,726.1734,309.2367,725.7568,315.0998,734.9874,312.8094" style="stroke:#000000;stroke-width:1.0;"/><text fill="#000000" font-family="sans-serif" font-size="13" lengthAdjust="spacing" textLength="76" x="739" y="317.499">hasRiskLevel</text></g><!--link Incident to Risk--><g id="link_Incident_Risk"><path codeLine="47" d="M315.56,464.432 C372.88,452.082 494.65,422.792 523,391.602 C541.71,371.012 519.34,352.092 537,330.602 C551.07,313.472 576.21,305.182 592.62,301.422 " fill="none" id="Incident-Risk" style="stroke:#181818;stroke-width:1.0;"/><polygon fill="#000000" points="402.8094,379.9195,393.5233,381.9732,396.5039,387.0393,402.8094,379.9195" style="stroke:#000000;stroke-width:1.0;"/><text fill="#000000" font-family="sans-serif" font-size="13" lengthAdjust="spacing" textLength="97" x="407.5" y="387.499">risk:refersToRisk</text></g><!--link Thing to Incident--><g id="link_Thing_Incident"><path codeLine="48" d="M34.77,623.932 C41.51,603.232 56.55,565.512 82,543.602 C132.33,500.272 210.44,481.872 253.12,474.712 " fill="none" id="Thing-Incident" style="stroke:#181818;stroke-width:1.0;"/><polygon fill="#000000" points="91.1281,477.6339,82.0021,480.3109,85.3185,485.1638,91.1281,477.6339" style="stroke:#000000;stroke-width:1.0;"/><text fill="#000000" font-family="sans-serif" font-size="13" lengthAdjust="spacing" textLength="94" x="96" y="485.499">risk:hasIncident</text></g><!--link Incident to IncidentStatus--><g id="link_Incident_IncidentStatus"><path codeLine="49" d="M315.62,473.932 C333.21,475.712 355.83,477.712 376,478.602 C441.27,481.482 457.74,481.652 523,478.602 C534.02,478.092 545.81,477.202 557.01,476.202 " fill="none" id="Incident-IncidentStatus" style="stroke:#181818;stroke-width:1.0;"/><polygon fill="#000000" points="409.4998,469.502,400.4827,466.4782,400.4275,472.3557,409.4998,469.502" style="stroke:#000000;stroke-width:1.0;"/><text fill="#000000" font-family="sans-serif" font-size="13" lengthAdjust="spacing" textLength="85" x="413.5" y="474.499">dpv:hasStatus</text></g><!--link Risk to RiskSource--><g id="link_Risk_RiskSource"><path codeLine="50" d="M592.57,302.382 C576.48,306.742 552.5,315.362 537,330.602 C345.12,519.312 400.96,591.092 416.33,611.102 C451.96,657.472 524.38,665.112 569.71,664.922 " fill="none" id="Risk-RiskSource" style="stroke:#181818;stroke-width:1.0;"/><polygon fill="#000000" points="391.6853,606.9451,395.1877,598.1029,389.3215,597.733,391.6853,606.9451" style="stroke:#000000;stroke-width:1.0;"/><text fill="#000000" font-family="sans-serif" font-size="13" lengthAdjust="spacing" textLength="110" x="401" y="606.999">risk:hasRiskSource</text></g><!--reverse link RiskSource to Threat--><g id="link_RiskSource_Threat"><path codeLine="51" d="M667.3006,660.3165 C714.0006,658.1465 776.67,653.872 845,642.602 C874.75,637.692 908.33,628.922 930.37,622.712 " fill="none" id="RiskSource-backto-Threat" style="stroke:#181818;stroke-width:1.0;"/><polygon fill="none" points="649.32,661.152,667.5791,666.31,667.0221,654.3229,649.32,661.152" style="stroke:#181818;stroke-width:1.0;"/></g><!--link Risk to Threat--><g id="link_Risk_Threat"><path codeLine="52" d="M626.48,305.992 C638.09,311.782 653.84,320.532 666,330.602 C775.71,421.472 763.63,484.782 875,573.602 C891.84,587.032 913.63,598.192 930.13,605.622 " fill="none" id="Risk-Threat" style="stroke:#181818;stroke-width:1.0;"/><polygon fill="#000000" points="711.559,356.9669,707.1849,348.5219,703.0565,352.7057,711.559,356.9669" style="stroke:#000000;stroke-width:1.0;"/><text fill="#000000" font-family="sans-serif" font-size="13" lengthAdjust="spacing" textLength="120" x="717" y="358.499">risk:causedByThreat</text></g><!--link Threat to ThreatSource--><g id="link_Threat_ThreatSource"><path codeLine="53" d="M980.9,615.602 C1031.36,615.602 1147.91,615.602 1213.66,615.602 " fill="none" id="Threat-ThreatSource" style="stroke:#181818;stroke-width:1.0;"/><polygon fill="#000000" points="1078,606.455,1068.9549,603.5161,1068.9549,609.3939,1078,606.455" style="stroke:#000000;stroke-width:1.0;"/><text fill="#000000" font-family="sans-serif" font-size="13" lengthAdjust="spacing" textLength="101" x="1082" y="611.499">hasThreatSource</text></g><!--link Thing to Vulnerability--><g id="link_Thing_Vulnerability"><path codeLine="54" d="M52.29,640.482 C84.38,643.142 146.26,647.882 199,649.602 C264.3,651.732 280.91,655.262 346,649.602 C425.56,642.692 444.75,634.592 523,618.602 C536.29,615.882 550.68,612.642 563.79,609.562 " fill="none" id="Thing-Vulnerability" style="stroke:#181818;stroke-width:1.0;"/><polygon fill="#000000" points="238.9909,640.1533,229.785,637.7655,230.1396,643.6326,238.9909,640.1533" style="stroke:#000000;stroke-width:1.0;"/><text fill="#000000" font-family="sans-serif" font-size="13" lengthAdjust="spacing" textLength="96" x="243" y="645.499">hasVulnerability</text></g><!--link Vulnerability to Thing--><g id="link_Vulnerability_Thing"><path codeLine="55" d="M563.57,613.572 C554.12,618.072 544.69,623.692 537,630.602 C527.81,638.852 533.23,647.692 523,654.602 C403.31,735.492 342.78,694.602 199,680.602 C146.25,675.462 133.02,671.932 82,657.602 C72.09,654.822 61.38,651.002 52.3,647.522 " fill="none" id="Vulnerability-Thing" style="stroke:#181818;stroke-width:1.0;"/><polygon fill="#000000" points="228.011,671.7863,237.2309,674.1194,236.8415,668.2545,228.011,671.7863" style="stroke:#000000;stroke-width:1.0;"/><text fill="#000000" font-family="sans-serif" font-size="13" lengthAdjust="spacing" textLength="98" x="242" y="676.499">isVulnerabilityOf</text></g><!--link Threat to Vulnerability--><g id="link_Threat_Vulnerability"><path codeLine="56" d="M930.24,611.372 C908.11,607.732 874.47,602.742 845,600.602 C779.01,595.822 702.31,596.302 655.09,597.292 " fill="none" id="Threat-Vulnerability" style="stroke:#181818;stroke-width:1.0;"/><polygon fill="#000000" points="702.0065,588.1995,710.8896,591.5968,711.19,585.7266,702.0065,588.1995" style="stroke:#000000;stroke-width:1.0;"/><text fill="#000000" font-family="sans-serif" font-size="13" lengthAdjust="spacing" textLength="122" x="716" y="593.499">exploitsVulnerability</text></g><!--link Vulnerability to Threat--><g id="link_Vulnerability_Threat"><path codeLine="57" d="M646.02,613.552 C661.14,619.152 679.14,624.822 696,627.602 C781.11,641.642 883.96,627.872 930.07,620.112 " fill="none" id="Vulnerability-Threat" style="stroke:#181818;stroke-width:1.0;"/><polygon fill="#000000" points="732.9987,618.5704,724.0238,615.4235,723.8881,621.2997,732.9987,618.5704" style="stroke:#000000;stroke-width:1.0;"/><text fill="#000000" font-family="sans-serif" font-size="13" lengthAdjust="spacing" textLength="80" x="737" y="623.499">isExploitedBy</text></g><!--link Incident to Vulnerability--><g id="link_Incident_Vulnerability"><path codeLine="58" d="M315.99,483.662 C333.5,491.092 355.93,500.502 376,508.602 C443.44,535.802 522.49,566.062 568.87,583.652 " fill="none" id="Incident-Vulnerability" style="stroke:#181818;stroke-width:1.0;"/><polygon fill="#000000" points="385.6497,501.2935,378.319,495.2346,376.1576,500.7006,385.6497,501.2935" style="stroke:#000000;stroke-width:1.0;"/><text fill="#000000" font-family="sans-serif" font-size="13" lengthAdjust="spacing" textLength="132" x="390" y="504.499">causedByVulnerability</text></g><!--link Thing to RiskControl--><g id="link_Thing_RiskControl"><path codeLine="59" d="M52.46,628.872 C84.5,614.752 146.03,587.942 199,566.602 C213.41,560.802 229.31,554.702 243.39,549.402 " fill="none" id="Thing-RiskControl" style="stroke:#181818;stroke-width:1.0;"/><polygon fill="#000000" points="93.6161,559.5336,84.1362,560.2961,86.3948,565.7227,93.6161,559.5336" style="stroke:#000000;stroke-width:1.0;"/><text fill="#000000" font-family="sans-serif" font-size="13" lengthAdjust="spacing" textLength="90" x="98" y="566.499">hasRiskControl</text></g><!--reverse link RiskAssessment to RiskMatrix--><g id="link_RiskAssessment_RiskMatrix"><path codeLine="60" d="M684.1463,536.0983 C754.8863,537.5383 857.05,539.622 917.48,540.852 " fill="none" id="RiskAssessment-backto-RiskMatrix" style="stroke:#181818;stroke-width:1.0;"/><polygon fill="none" points="666.15,535.732,684.0242,542.0971,684.2684,530.0996,666.15,535.732" style="stroke:#181818;stroke-width:1.0;"/></g><!--reverse link RiskManagement to RiskAssessment--><g id="link_RiskManagement_RiskAssessment"><path codeLine="61" d="M364.0733,585.8862 C373.9933,584.4462 366.36,585.672 376,584.602 C441.08,577.372 460.32,593.552 523,574.602 C529.86,572.532 530.61,569.852 537,566.602 C548.64,560.692 561.6,554.712 573.26,549.552 " fill="none" id="RiskManagement-backto-RiskAssessment" style="stroke:#181818;stroke-width:1.0;"/><polygon fill="none" points="346.26,588.472,364.9352,591.8239,363.2114,579.9484,346.26,588.472" style="stroke:#181818;stroke-width:1.0;"/></g><!--reverse link RiskAssessment to RiskAnalysis--><g id="link_RiskAssessment_RiskAnalysis"><path codeLine="62" d="M683.9078,522.4388 C752.2678,511.1088 849.03,495.082 911.19,484.782 " fill="none" id="RiskAssessment-backto-RiskAnalysis" style="stroke:#181818;stroke-width:1.0;"/><polygon fill="none" points="666.15,525.382,684.8888,528.3581,682.9267,516.5196,666.15,525.382" style="stroke:#181818;stroke-width:1.0;"/></g><!--SRC=[ZLHDRzim3BtxLsZTEJliM1G1kg670YqABC7kcit4H1Gf4wMWGTV_FbaVDgMim78I7nz9FUevdr3toWyWo5qKV3afgPq_gax1pWbdXCNzwCI05dg7HdTThoIHkDcEgFStGfA8fw_YCw4wW-rEiZ_8FOZXT1PldGY_LF6W7ReB0tuW7Phm6HtkvJJd6IHv2qt-2SwW6FRTQ8BV7dJFcO_7S0V7W4qei_Nm9po0mj6OeNllkYnXjOfJnAqO9SNJcgNOi4XWSU3nA91JMSjxqLN7TD58IiUGpOVLiCeRO-cclCYAZ19KZ4Lbv2nXO4LzMN4I38I3boeBv_chTmahGiee3Dyk1QxBudFDounHO6G7nLlEhldGDj4bxqlUJlqvuL7tE81s_u0sJZfFJREDyRQootQq8DqLSCNxwPK6At-XklPnU6DdZMhjB9t5rmQyrr9T2DjhtHC1qR4Mafhee3icmXgADERLQIEt5dPWQMkuQwF52Z_p9YyLQ5rrgvSM-E4b9dgEwvTDos5D6PYOERZx4p-6kE7I88Mbk9UU9WjbTBfxFCp4ULOOKo5CPlKsYLf3wwwEooSQZLobNdRL7ThEy7fI1jt_jCygaHvIpQIoMNhRlIoZxJuBPMPR_gOAa3Q_E2bjdpcnzjEIPkRxgCDisxy0]--></g></svg>