<svg xmlns="http://www.w3.org/2000/svg" xmlns:xlink="http://www.w3.org/1999/xlink" contentStyleType="text/css" height="281px" preserveAspectRatio="none" style="width:450px;height:281px;background:#FFFFFF;" version="1.1" viewBox="0 0 450 281" width="450px" zoomAndPan="magnify"><defs/><g><!--cluster dpv--><g id="cluster_dpv"><path d="M8.5,101 L35.8125,101 A3.75,3.75 0 0 1 38.3125,103.5 L45.3125,126.0679 L343.5,126.0679 A2.5,2.5 0 0 1 346,128.5679 L346,271.5 A2.5,2.5 0 0 1 343.5,274 L8.5,274 A2.5,2.5 0 0 1 6,271.5 L6,103.5 A2.5,2.5 0 0 1 8.5,101 " fill="none" style="stroke:#000000;stroke-width:1.5;"/><line style="stroke:#000000;stroke-width:1.5;" x1="6" x2="45.3125" y1="126.0679" y2="126.0679"/><text fill="#000000" font-family="sans-serif" font-size="14" font-weight="bold" lengthAdjust="spacing" textLength="26.3125" x="10" y="117.9659">dpv</text></g><!--class Rule--><g id="elem_Rule"><rect codeLine="5" fill="#F1F1F1" height="29.0679" id="Rule" rx="2.5" ry="2.5" style="stroke:#181818;stroke-width:0.5;" width="36" x="188" y="229"/><text fill="#000000" font-family="sans-serif" font-size="14" lengthAdjust="spacing" textLength="30" x="191" y="248.9659">Rule</text></g><!--class Permission--><g id="elem_Permission"><rect codeLine="6" fill="#F1F1F1" height="29.0679" id="Permission" rx="2.5" ry="2.5" style="stroke:#181818;stroke-width:0.5;" width="80" x="250" y="139"/><text fill="#000000" font-family="sans-serif" font-size="14" lengthAdjust="spacing" textLength="74" x="253" y="158.9659">Permission</text></g><!--class Prohibition--><g id="elem_Prohibition"><rect codeLine="7" fill="#F1F1F1" height="29.0679" id="Prohibition" rx="2.5" ry="2.5" style="stroke:#181818;stroke-width:0.5;" width="80" x="135" y="139"/><text fill="#000000" font-family="sans-serif" font-size="14" lengthAdjust="spacing" textLength="74" x="138" y="158.9659">Prohibition</text></g><!--class Obligation--><g id="elem_Obligation"><rect codeLine="8" fill="#F1F1F1" height="29.0679" id="Obligation" rx="2.5" ry="2.5" style="stroke:#181818;stroke-width:0.5;" width="77" x="22.5" y="139"/><text fill="#000000" font-family="sans-serif" font-size="14" lengthAdjust="spacing" textLength="71" x="25.5" y="158.9659">Obligation</text></g><!--class Thing--><g id="elem_Thing"><rect codeLine="10" fill="#C0C0C0" height="29.0679" id="Thing" rx="2.5" ry="2.5" style="stroke:#181818;stroke-width:0.5;" width="45" x="209.5" y="7"/><text fill="#000000" font-family="sans-serif" font-size="14" lengthAdjust="spacing" textLength="39" x="212.5" y="26.9659">Thing</text></g><!--link Thing to Rule--><g id="link_Thing_Rule"><path codeLine="12" d="M254.73,25.69 C292.98,31.58 367.54,45.46 383,66 C388.08,72.75 384.67,76.72 383,85 C375.06,124.24 375.09,138.53 348,168 C312.96,206.12 253.87,228.18 224.18,237.39 " fill="none" id="Thing-Rule" style="stroke:#181818;stroke-width:1.0;"/><polygon fill="#000000" points="385.2859,158.8017,389.4865,150.2692,383.669,149.4296,385.2859,158.8017" style="stroke:#000000;stroke-width:1.0;"/><text fill="#000000" font-family="sans-serif" font-size="13" lengthAdjust="spacing" textLength="47" x="395" y="158.897">hasRule</text></g><!--link Thing to Permission--><g id="link_Thing_Permission"><path codeLine="13" d="M244.42,36.12 C251.31,44.28 259.56,55.16 265,66 C277.13,90.17 284.28,121.18 287.65,138.74 " fill="none" id="Thing-Permission" style="stroke:#181818;stroke-width:1.0;"/><polygon fill="#000000" points="279.9411,80.4608,279.138,70.9842,273.7212,73.2661,279.9411,80.4608" style="stroke:#000000;stroke-width:1.0;"/><text fill="#000000" font-family="sans-serif" font-size="13" lengthAdjust="spacing" textLength="87" x="287" y="80.897">hasPermission</text></g><!--link Thing to Prohibition--><g id="link_Thing_Prohibition"><path codeLine="14" d="M209.09,29.1 C191.66,35.46 168.88,46.99 158,66 C144.78,89.11 157.38,120.77 166.81,138.68 " fill="none" id="Thing-Prohibition" style="stroke:#181818;stroke-width:1.0;"/><polygon fill="#000000" points="161.2001,80.5178,167.198,73.137,161.7142,71.0212,161.2001,80.5178" style="stroke:#000000;stroke-width:1.0;"/><text fill="#000000" font-family="sans-serif" font-size="13" lengthAdjust="spacing" textLength="88" x="172" y="80.897">hasProhibition</text></g><!--link Thing to Obligation--><g id="link_Thing_Obligation"><path codeLine="15" d="M209.12,24.38 C164,28.63 66.14,40.6 46,66 C29.33,87.02 42.67,120.02 52.64,138.6 " fill="none" id="Thing-Obligation" style="stroke:#181818;stroke-width:1.0;"/><polygon fill="#000000" points="46.9614,78.8009,56,75.8419,52.5345,71.0943,46.9614,78.8009" style="stroke:#000000;stroke-width:1.0;"/><text fill="#000000" font-family="sans-serif" font-size="13" lengthAdjust="spacing" textLength="84" x="60" y="80.897">hasObligation</text></g><!--link Permission to Rule--><g id="link_Permission_Rule"><path codeLine="17" d="M276.88,168.25 C261.19,184.69 247.5089,199.02 231.7389,215.54 " fill="none" id="Permission-to-Rule" style="stroke:#181818;stroke-width:1.0;"/><polygon fill="none" points="219.31,228.56,236.079,219.6829,227.3989,211.397,219.31,228.56" style="stroke:#181818;stroke-width:1.0;"/></g><!--link Prohibition to Rule--><g id="link_Prohibition_Rule"><path codeLine="18" d="M179.84,168.25 C185.63,184.69 189.2889,195.0628 195.1089,211.5828 " fill="none" id="Prohibition-to-Rule" style="stroke:#181818;stroke-width:1.0;"/><polygon fill="none" points="201.09,228.56,200.768,209.5891,189.4498,213.5765,201.09,228.56" style="stroke:#181818;stroke-width:1.0;"/></g><!--link Obligation to Rule--><g id="link_Obligation_Rule"><path codeLine="19" d="M83.98,168.44 C112.72,185.89 145.9817,206.0819 172.3317,222.0719 " fill="none" id="Obligation-to-Rule" style="stroke:#181818;stroke-width:1.0;"/><polygon fill="none" points="187.72,231.41,175.4444,216.9425,169.219,227.2013,187.72,231.41" style="stroke:#181818;stroke-width:1.0;"/></g><!--SRC=[LOzB3i8m34JtFeKH2rRb00Zr2Y341T8q91RkH_bKGi3TWGGfhbUUvx76tj2eEVK6GtomsS-infW6XXsRMyGueIVh8lRaZOuqZG2pqdTb3VRpWa_0RsbM8U0biH7oRFn08VnM1FIJeuxYcfuw9gioV4D1LqUZnMqWNem7AB9fSWWUqAcGkxPEQbwP2orTzO2_JG3XgoSLcz0jGCu-lfeaOrTK_2cmUFG3]--></g></svg>